<?xml version="1.0" encoding="UTF-8"?> <svg xmlns="http://www.w3.org/2000/svg" id="Livello_1" data-name="Livello 1" viewBox="0 0 200 200"><defs><style>.cls-1{fill:#fff;}</style></defs><path class="cls-1" d="M61.93,59.55l37.35-5.71A3,3,0,1,0,98.41,48L61.05,53.69a2.95,2.95,0,0,0,.44,5.86Z"></path><path class="cls-1" d="M151.59,67.91,121.11,64.1l-4-25.5a10.23,10.23,0,0,0-3.81-6.3,9.54,9.54,0,0,0-7.18-1.75l-58,8.79a9.56,9.56,0,0,0-8,10.84l12.45,82.33a10.17,10.17,0,0,0,3.81,6.3,9.84,9.84,0,0,0,5.71,1.91,4.9,4.9,0,0,0,1.47-.15L73.65,139l-1.47,12.45a9.49,9.49,0,0,0,8.35,10.7l58.31,7.32h0c.44,0,.73.15,1.17.15a9.64,9.64,0,0,0,9.53-8.35l10.4-82.63A9.59,9.59,0,0,0,151.59,67.91ZM62.66,134.57A3.41,3.41,0,0,1,60,134a3.62,3.62,0,0,1-1.46-2.34L46.1,49.3A3.62,3.62,0,0,1,49,45.2l58-8.79h.59a3.6,3.6,0,0,1,3.51,3.07l3.66,23.74L93.28,60.43a10.09,10.09,0,0,0-7,1.91,9.13,9.13,0,0,0-2.93,4.1L63.39,69.52a3,3,0,0,0-2.49,3.37,3.12,3.12,0,0,0,2.93,2.63h.44l17.87-2.63-1.31,10.4-15,2.2a2.95,2.95,0,0,0,.44,5.86h.44l13.33-2L78.77,99.7l-10.54,1.61a3,3,0,0,0-2.5,3.37,3.14,3.14,0,0,0,2.94,2.64h.43L77.89,106l-1.31,10.25-6,.88a3,3,0,0,0-2.49,3.37A2.87,2.87,0,0,0,71,123h.44l4.25-.58-1.32,10.4Zm91.27-56.7-10.4,82.63a3.58,3.58,0,0,1-4,3.07h0l-58.31-7.32a3.58,3.58,0,0,1-3.07-4l10.4-82.63a3.84,3.84,0,0,1,1.32-2.34,3.3,3.3,0,0,1,2.64-.73l58.31,7.32A3.52,3.52,0,0,1,153.93,77.87Z"></path><path class="cls-1" d="M139.13,82.56l-37.5-4.69a3,3,0,1,0-.73,6l37.5,4.69h.44a3,3,0,0,0,2.93-2.63A2.83,2.83,0,0,0,139.13,82.56Z"></path><path class="cls-1" d="M137.23,98.38,99.72,93.69a3,3,0,0,0-.73,6l37.36,4.69h.44a3,3,0,0,0,2.93-2.64A3,3,0,0,0,137.23,98.38Z"></path><path class="cls-1" d="M135.18,114.35l-37.51-4.69a3,3,0,0,0-.73,6l37.51,4.68h.44a3,3,0,0,0,2.93-2.63A3.2,3.2,0,0,0,135.18,114.35Z"></path><path class="cls-1" d="M133.13,130.32l-37.51-4.69a3,3,0,0,0-.73,6l37.51,4.68h.43a3,3,0,0,0,2.93-2.63A3.18,3.18,0,0,0,133.13,130.32Z"></path><path class="cls-1" d="M131.08,146.29,93.57,141.6a3,3,0,1,0-.73,6l37.5,4.69h.44a3,3,0,0,0,2.93-2.63A2.88,2.88,0,0,0,131.08,146.29Z"></path></svg> 