<?xml version="1.0" encoding="UTF-8"?> <svg xmlns="http://www.w3.org/2000/svg" id="Livello_1" data-name="Livello 1" viewBox="0 0 200 200"><defs><style>.cls-1{fill:#fff;}</style></defs><path class="cls-1" d="M172.58,100H164l-4.11-45.22h0l-.11-1.12L157.4,27.19A2.41,2.41,0,0,0,155,25H136.6a2.42,2.42,0,0,0-2.41,2.2l-1.27,14h0l-.41,4.46L127.57,100h-5.46V76.52a2.41,2.41,0,0,0-3.6-2.11L76,98.31V76.52a2.42,2.42,0,0,0-3.61-2.11L26.23,100.34A2.42,2.42,0,0,0,25,102.45v70.14A2.42,2.42,0,0,0,27.42,175H172.58a2.42,2.42,0,0,0,2.42-2.42V102.43A2.42,2.42,0,0,0,172.58,100ZM152.79,29.83l.83,9.18H138l.83-9.18ZM137.3,46.51l.24-2.66h16.52l.79,8.74H136.74Zm-1,10.92h19L159.17,100H132.43ZM29.84,103.86l41.3-23.2v21.79a2.42,2.42,0,0,0,3.6,2.1l42.53-23.9v89.52H29.84Zm140.32,66.31h-48V104.85h7.48l.19,0h32l.19,0h8.15Z"></path><path class="cls-1" d="M158.47,112.61H133.13a2.42,2.42,0,0,0-2.42,2.42v25.34a2.42,2.42,0,0,0,2.42,2.42h25.34a2.42,2.42,0,0,0,2.42-2.42V115A2.42,2.42,0,0,0,158.47,112.61ZM156.05,138h-20.5v-20.5h20.5V138Z"></path><path class="cls-1" d="M105.32,115.83H80a2.42,2.42,0,0,0-2.42,2.42v17.6A2.42,2.42,0,0,0,80,138.27h25.34a2.42,2.42,0,0,0,2.42-2.42v-17.6A2.42,2.42,0,0,0,105.32,115.83Zm-2.42,17.6H82.4V120.67h20.5v12.76Z"></path><path class="cls-1" d="M67.13,115.83H41.79a2.43,2.43,0,0,0-2.42,2.42v17.6a2.42,2.42,0,0,0,2.42,2.42H67.13a2.42,2.42,0,0,0,2.42-2.42v-17.6A2.42,2.42,0,0,0,67.13,115.83Zm-2.42,17.6H44.21V120.67h20.5Z"></path></svg> 