<?xml version="1.0" encoding="UTF-8"?> <svg xmlns="http://www.w3.org/2000/svg" id="Livello_1" data-name="Livello 1" viewBox="0 0 200 200"><defs><style>.cls-1{fill:#fff;}</style></defs><path class="cls-1" d="M194,150.71a2,2,0,0,0-.74-.57l-21-13.39c0-.11,0-.22,0-.33v-93a3.56,3.56,0,0,0-3.55-3.56H31.33a3.57,3.57,0,0,0-3.56,3.56v93c0,.12,0,.23,0,.34L6.56,150.28a2.07,2.07,0,0,0-.42.37,4.68,4.68,0,0,0-1.64,3.72v1.34c0,2.47,1.56,4.41,3.55,4.41H192c2,0,3.55-1.94,3.55-4.41v-1.34A4.77,4.77,0,0,0,194,150.71ZM31.83,44l136.25-.09v91.89H31.92ZM191.35,154.37v1.34a2,2,0,0,1,0,.26H8.67a2,2,0,0,1,0-.26v-1.34a1.84,1.84,0,0,1,0-.26H191.33A1.84,1.84,0,0,1,191.35,154.37ZM14.8,150l15.67-10h139.1l15.64,10Z"></path><path class="cls-1" d="M161.27,47.28H38.73a3.45,3.45,0,0,0-3.47,3.41v76.79a3.44,3.44,0,0,0,3.47,3.4H161.27a3.45,3.45,0,0,0,2.48-1,3.29,3.29,0,0,0,1-2.37V50.69A3.45,3.45,0,0,0,161.27,47.28Zm-.67,4.15v75.3H39.41V51.43Z"></path></svg> 