<?xml version="1.0" encoding="UTF-8"?> <svg xmlns="http://www.w3.org/2000/svg" id="Livello_1" data-name="Livello 1" viewBox="0 0 516 154"><defs><style>.cls-1{fill:none;stroke:#ff585b;stroke-miterlimit:10;stroke-width:7px;}.cls-2{fill:#fff;}</style></defs><polyline class="cls-1" points="11 43 11 11 43 11"></polyline><polyline class="cls-1" points="43 143 11 143 11 111"></polyline><polyline class="cls-1" points="505 111 505 143 473 143"></polyline><polyline class="cls-1" points="473 11 505 11 505 43"></polyline><path class="cls-2" d="M66.23,83.15c-2.25,4.2-5.65,6.25-11,6.25-7.65,0-12.75-5.25-12.75-15.1s5.4-15.25,13.2-15.25c5.1,0,8.6,2.25,10.5,7L63.88,67.2a8.26,8.26,0,0,0-8.3-5.9c-6.55,0-10.3,5-10.3,13s3.5,12.75,10.1,12.75a9.13,9.13,0,0,0,8.95-5.4Z"></path><path class="cls-2" d="M72.08,89V59.5h2.65V72.9h17V59.5h2.6V89h-2.6V75.25h-17V89Z"></path><path class="cls-2" d="M105.73,59.5V89h-2.65V59.5Z"></path><path class="cls-2" d="M131.18,89H114.43V59.5h16.75v2.3h-14.1V73.05h12.55v2.3H117.08v11.3h14.1Z"></path><path class="cls-2" d="M138.13,89V59.5h8.15c8.3,0,14.15,4,14.15,14.4,0,10.9-6.55,15-14.2,15ZM146,86.7c7.15,0,11.7-4.2,11.7-12.7s-4.45-12.25-11.45-12.25h-5.45v25Z"></path><path class="cls-2" d="M169.83,59.5V89h-2.65V59.5Z"></path><path class="cls-2" d="M191.53,59.5V89h-2.65V59.5Z"></path><path class="cls-2" d="M217.08,80a57,57,0,0,1,3.3,5.45h.15s-.15-2.9-.15-6.2V59.5H223V89h-2.8l-14.05-20.5a55.22,55.22,0,0,1-3.3-5.45h-.2s.2,2.9.2,6.2V89h-2.6V59.5h2.85Z"></path><path class="cls-2" d="M231.68,89V59.5h16v2.3h-13.4V73.05h11.85v2.3H234.33V89Z"></path><path class="cls-2" d="M251.23,74.25c0-9.75,5-15.2,12.8-15.2s12.8,5.45,12.8,15.2-5,15.15-12.8,15.15S251.23,84,251.23,74.25Zm2.75,0c0,8,3.5,12.85,10,12.85s10.1-4.85,10.1-12.85-3.55-12.9-10.1-12.9S254,66.25,254,74.25Z"></path><path class="cls-2" d="M301,89a6,6,0,0,1-1.4-3l-1.2-5.25c-.85-3.55-2.85-4.75-6.65-4.75h-5.56V89h-2.65V59.5h9.11c6.65,0,9.65,2.9,9.65,8.1A7,7,0,0,1,295.48,75v.1c2.9.3,4.55,1.65,5.4,5l1.4,5.7A7.68,7.68,0,0,0,303.93,89Zm-14.81-15.2h6.4c4.66,0,7-2,7-6s-2.2-6-7-6h-6.4Z"></path><path class="cls-2" d="M322.28,81.6,315,68.1a32.29,32.29,0,0,1-2.36-5.25h-.14s.14,1.85.14,5.4V89h-2.6V59.5h3.26l8.6,16.35a20.48,20.48,0,0,1,1.4,3.15h.15a20.48,20.48,0,0,1,1.4-3.15l8.55-16.35h3.1V89h-2.6V68.25c0-3.55.15-5.4.15-5.4h-.15a32.64,32.64,0,0,1-2.35,5.25l-7.25,13.5Z"></path><path class="cls-2" d="M360.83,79.6H347.62L344.12,89h-2.75l11.2-29.45H356L367.12,89h-2.79Zm-12.41-2.25H360l-3.25-8.75a74.46,74.46,0,0,1-2.4-7.35h-.2a73.34,73.34,0,0,1-2.4,7.3Z"></path><path class="cls-2" d="M375.32,83a43.09,43.09,0,0,1-2.6,3.65v.15s1-.1,4.2-.1h13.2V89H369.47V87.4L384,65.5c1.65-2.45,2.6-3.65,2.6-3.65V61.7s-1.05.1-4.2.1H370V59.5h19.8v1.8Z"></path><path class="cls-2" d="M398.32,59.5V89h-2.65V59.5Z"></path><path class="cls-2" d="M405.07,74.25c0-9.75,5-15.2,12.8-15.2s12.8,5.45,12.8,15.2-5,15.15-12.8,15.15S405.07,84,405.07,74.25Zm2.75,0c0,8,3.5,12.85,10.05,12.85S428,82.25,428,74.25s-3.55-12.9-10.1-12.9S407.82,66.25,407.82,74.25Z"></path><path class="cls-2" d="M454.27,80a57,57,0,0,1,3.3,5.45h.15s-.15-2.9-.15-6.2V59.5h2.6V89h-2.8l-14.05-20.5A55.22,55.22,0,0,1,440,63h-.2s.2,2.9.2,6.2V89h-2.6V59.5h2.85Z"></path><path class="cls-2" d="M471.52,59.5V89h-2.65V59.5Z"></path></svg> 