<?xml version="1.0" encoding="UTF-8"?> <svg xmlns="http://www.w3.org/2000/svg" id="Livello_1" data-name="Livello 1" viewBox="0 0 458 154"><defs><style>.cls-1{fill:none;stroke:#ff585b;stroke-miterlimit:10;stroke-width:7px;}.cls-2{fill:#fff;}</style></defs><polyline class="cls-1" points="12 43 12 11 44 11"></polyline><polyline class="cls-1" points="44 143 12 143 12 111"></polyline><polyline class="cls-1" points="446 111 446 143 414 143"></polyline><polyline class="cls-1" points="414 11 446 11 446 43"></polyline><path class="cls-2" d="M137.85,59.5V89H135.2V59.5Z"></path><path class="cls-2" d="M163.4,80a57,57,0,0,1,3.3,5.45h.15s-.15-2.9-.15-6.2V59.5h2.6V89h-2.8l-14.05-20.5a55.22,55.22,0,0,1-3.3-5.45H149s.2,2.9.2,6.2V89h-2.6V59.5h2.85Z"></path><path class="cls-2" d="M180.65,59.5V89H178V59.5Z"></path><path class="cls-2" d="M192.25,83a43.09,43.09,0,0,1-2.6,3.65v.15s1-.1,4.2-.1h13.2V89H186.4V87.4l14.5-21.9c1.65-2.45,2.6-3.65,2.6-3.65V61.7s-1.05.1-4.2.1H187V59.5h19.8v1.8Z"></path><path class="cls-2" d="M215.25,59.5V89H212.6V59.5Z"></path><path class="cls-2" d="M239.55,79.6h-13.2L222.85,89H220.1L231.3,59.5h3.45L245.85,89h-2.8Zm-12.4-2.25H238.7l-3.25-8.75a71.21,71.21,0,0,1-2.4-7.35h-.2a73.34,73.34,0,0,1-2.4,7.3Z"></path><path class="cls-2" d="M281.05,95.65a8.59,8.59,0,0,1-1.3.1c-5.25,0-8.3-2.55-9.5-6.45-6.85-.7-11.15-6-11.15-15,0-9.75,5-15.2,12.8-15.2s12.8,5.45,12.8,15.2c0,9.25-4.6,14.75-11.75,15.1,1.45,3.05,4.05,4.15,7.4,4.15a6.66,6.66,0,0,0,1.4-.15Zm-19.2-21.4c0,8,3.5,12.9,10,12.9s10.1-4.9,10.1-12.9-3.55-12.9-10.1-12.9S261.85,66.25,261.85,74.25Z"></path><path class="cls-2" d="M312.4,59.5V78.9c0,7.6-5.25,10.5-10.95,10.5S290.5,86.5,290.5,78.9V59.5h2.65V78.35c0,6.4,3.7,8.85,8.3,8.85s8.35-2.45,8.35-8.75v-19Z"></path><path class="cls-2" d="M322.8,59.5V89h-2.65V59.5Z"></path></svg> 