<?xml version="1.0" encoding="UTF-8"?> <svg xmlns="http://www.w3.org/2000/svg" id="Livello_1" data-name="Livello 1" viewBox="0 0 458 154"><defs><style>.cls-1{fill:none;stroke:#ff585b;stroke-miterlimit:10;stroke-width:7px;}.cls-2{fill:#fff;}</style></defs><polyline class="cls-1" points="12 43 12 11 44 11"></polyline><polyline class="cls-1" points="44 143 12 143 12 111"></polyline><polyline class="cls-1" points="446 111 446 143 414 143"></polyline><polyline class="cls-1" points="414 11 446 11 446 43"></polyline><path class="cls-2" d="M166.63,89a6,6,0,0,1-1.4-3L164,80.75c-.85-3.55-2.85-4.75-6.65-4.75h-5.55V89h-2.65V59.5h9.1c6.65,0,9.65,2.9,9.65,8.1A7,7,0,0,1,161.08,75v.1c2.9.3,4.55,1.65,5.4,5l1.4,5.7A7.68,7.68,0,0,0,169.53,89Zm-14.8-15.2h6.4c4.65,0,7-2,7-6s-2.2-6-7-6h-6.4Z"></path><path class="cls-2" d="M178.33,59.5V89h-2.65V59.5Z"></path><path class="cls-2" d="M187,89V59.5h7.9c7,0,10,3.2,10,8.7,0,5.9-3.25,9.15-9.8,9.15h-5.45V89Zm2.65-13.8h5.2c5.25,0,7.3-2.35,7.3-6.85,0-4.25-2.3-6.55-7.35-6.55h-5.15Z"></path><path class="cls-2" d="M228.23,89a6,6,0,0,1-1.4-3l-1.2-5.25C224.78,77.2,222.78,76,219,76h-5.55V89h-2.65V59.5h9.1c6.65,0,9.65,2.9,9.65,8.1A7,7,0,0,1,222.68,75v.1c2.9.3,4.55,1.65,5.4,5l1.4,5.7A7.68,7.68,0,0,0,231.13,89Zm-14.8-15.2h6.4c4.65,0,6.95-2,6.95-6s-2.2-6-6.95-6h-6.4Z"></path><path class="cls-2" d="M235,74.25c0-9.75,5-15.2,12.8-15.2s12.8,5.45,12.8,15.2-5,15.15-12.8,15.15S235,84,235,74.25Zm2.75,0c0,8,3.5,12.85,10.05,12.85s10.1-4.85,10.1-12.85-3.55-12.9-10.1-12.9S237.78,66.25,237.78,74.25Z"></path><path class="cls-2" d="M273.43,81a60.76,60.76,0,0,1,1.85,6.15h.15a41.39,41.39,0,0,1,1.75-6.1l7.5-21.55h2.7L277,89h-3.55L263.12,59.5H266Z"></path><path class="cls-2" d="M306.38,79.6h-13.2L289.68,89h-2.75l11.2-29.45h3.45L312.68,89h-2.8ZM294,77.35h11.55l-3.25-8.75a71.21,71.21,0,0,1-2.4-7.35h-.2a73.34,73.34,0,0,1-2.4,7.3Z"></path></svg> 