<?xml version="1.0" encoding="UTF-8"?> <svg xmlns="http://www.w3.org/2000/svg" id="Livello_1" data-name="Livello 1" viewBox="0 0 458 154"><defs><style>.cls-1{fill:none;stroke:#ff585b;stroke-miterlimit:10;stroke-width:7px;}.cls-2{fill:#fff;}</style></defs><polyline class="cls-1" points="12 43 12 11 44 11"></polyline><polyline class="cls-1" points="44 143 12 143 12 111"></polyline><polyline class="cls-1" points="446 111 446 143 414 143"></polyline><polyline class="cls-1" points="414 11 446 11 446 43"></polyline><path class="cls-2" d="M150.15,59.5V89H147.5V59.5Z"></path><path class="cls-2" d="M158.55,81.05c.7,4.25,3.35,6.25,7.35,6.25,4.15,0,6.85-1.85,6.85-5.55,0-3.5-2-5-7.15-6.7-4.4-1.4-8.55-2.9-8.55-8.25,0-5.75,4.4-7.8,8.75-7.8,5.15,0,8.8,2.15,9.4,7.75l-2.55.4c-.55-4.1-3-6-6.8-6-3.55,0-6.2,1.7-6.2,5.45s2.75,4.75,7.5,6.3c4.6,1.5,8.25,3.3,8.25,8.55s-4.05,8-9.55,8-9-2.55-9.8-7.85Z"></path><path class="cls-2" d="M203.85,83.15c-2.25,4.2-5.65,6.25-10.95,6.25-7.65,0-12.75-5.25-12.75-15.1s5.4-15.25,13.2-15.25c5.1,0,8.6,2.25,10.5,7L201.5,67.2a8.26,8.26,0,0,0-8.3-5.9c-6.55,0-10.3,5-10.3,13s3.5,12.75,10.1,12.75a9.13,9.13,0,0,0,8.95-5.4Z"></path><path class="cls-2" d="M227.15,89a6,6,0,0,1-1.4-3l-1.2-5.25C223.7,77.2,221.7,76,217.9,76h-5.55V89H209.7V59.5h9.1c6.65,0,9.65,2.9,9.65,8.1A7,7,0,0,1,221.6,75v.1c2.9.3,4.55,1.65,5.4,5l1.4,5.7A7.68,7.68,0,0,0,230.05,89Zm-14.8-15.2h6.4c4.65,0,6.95-2,6.95-6s-2.2-6-6.95-6h-6.4Z"></path><path class="cls-2" d="M238.85,59.5V89H236.2V59.5Z"></path><path class="cls-2" d="M254.2,81a60.76,60.76,0,0,1,1.85,6.15h.15a41.39,41.39,0,0,1,1.75-6.1l7.5-21.55h2.7L257.8,89h-3.55L243.9,59.5h2.85Z"></path><path class="cls-2" d="M275.9,59.5V89h-2.65V59.5Z"></path><path class="cls-2" d="M290.55,89V61.8H281V59.5H302.8v2.3h-9.6V89Z"></path><path class="cls-2" d="M310.5,59.5V89h-2.65V59.5Z"></path></svg> 