<?xml version="1.0" standalone="no"?>
<!DOCTYPE svg PUBLIC "-//W3C//DTD SVG 1.1//EN" "http://www.w3.org/Graphics/SVG/1.1/DTD/svg11.dtd" >
<svg xmlns="http://www.w3.org/2000/svg" xmlns:xlink="http://www.w3.org/1999/xlink" version="1.1">
<metadata>
Created by FontForge 20170731 at Wed Jul 29 11:33:14 2020
 By Aleksey,,,
Copyright (c) 2004-7 by Kris Sowersby. All rights reserved.
</metadata>
<defs>
<font id="National-Semibold" horiz-adv-x="1167" >
  <font-face 
    font-family="National Semibold"
    font-weight="700"
    font-stretch="normal"
    units-per-em="2048"
    panose-1="2 0 5 3 0 0 0 2 0 4"
    ascent="1638"
    descent="-410"
    x-height="946"
    cap-height="1206"
    bbox="-229 -526 2454 2046"
    underline-thickness="116"
    underline-position="-173"
    unicode-range="U+0020-F778"
  />
<missing-glyph horiz-adv-x="1245" 
 />
    <glyph glyph-name="f_b" unicode="fb" horiz-adv-x="1701" 
d="M954 535v-154q0 -61 18 -107t48 -71t63.5 -37t69.5 -12q99 0 163 81.5t64 237.5q0 151 -55 225t-154 74q-90 0 -153.5 -64t-63.5 -173zM711 1151q-70 45 -152 45q-151 0 -151 -164v-86h190v-190h-190v-756h-244v756h-139v190h139v78q0 78 20.5 140t55 102.5t82.5 67.5
t100 38.5t110 11.5q112 0 209 -43l215 27v-600q35 102 116.5 151.5t187.5 49.5q174 0 271 -123.5t97 -349.5q0 -232 -108.5 -376.5t-296.5 -144.5q-115 0 -186.5 45t-94.5 117l-61 -137h-170v1151z" />
    <glyph glyph-name="f_f_b" unicode="ffb" horiz-adv-x="2250" 
d="M1503 535v-154q0 -61 18 -107t47.5 -71t62.5 -37t69 -12q100 0 164.5 82t64.5 237q0 151 -55.5 225t-155.5 74q-88 0 -151.5 -64t-63.5 -173zM1503 1368v-600q36 102 117.5 151.5t187.5 49.5q174 0 271.5 -123.5t97.5 -349.5q0 -232 -108.5 -376.5t-296.5 -144.5
q-115 0 -186.5 45t-94.5 117l-64 -137h-167v1151q-70 45 -152 45q-152 0 -152 -164v-86h189v-190h-189v-756h-245v756h-303v-756h-244v756h-139v190h139v76q0 75 19.5 135t51 98t75.5 63t90 35.5t96 10.5q63 0 100.5 -8t85.5 -29l-39 -207q-55 39 -117 39q-60 0 -89 -33.5
t-29 -105.5v-74h303v78q0 78 21 140t55.5 102.5t83 67.5t100.5 38.5t110 11.5q109 0 209 -43z" />
    <glyph glyph-name="f_f_h" unicode="ffh" horiz-adv-x="2201" 
d="M1503 1368v-602q73 203 293 203q122 0 201.5 -74t79.5 -223v-672h-244v586q0 176 -139 176q-39 0 -71 -11.5t-60 -37t-44 -73t-16 -112.5v-528h-243v1151q-70 45 -152 45q-152 0 -152 -164v-86h189v-190h-189v-756h-245v756h-303v-756h-244v756h-139v190h139v76
q0 75 19.5 135t51 98t75.5 63t90 35.5t96 10.5q63 0 100.5 -8t85.5 -29l-39 -207q-55 39 -117 39q-60 0 -89 -33.5t-29 -105.5v-74h303v78q0 78 21 140t55.5 102.5t83 67.5t100.5 38.5t110 11.5q109 0 209 -43z" />
    <glyph glyph-name="f_f_j" unicode="ffj" horiz-adv-x="1638" 
d="M956 756v-756h-245v756h-303v-756h-244v756h-139v190h139v76q0 75 19.5 135t51 98t75.5 63t90 35.5t96 10.5q63 0 100.5 -8t85.5 -29l-39 -207q-55 39 -117 39q-60 0 -89 -33.5t-29 -105.5v-74h303v72q0 101 35.5 175t95 114t126 58.5t140.5 18.5q164 0 281 -69l-84 -199
q-83 62 -183 62q-166 0 -166 -168v-64h547v-944q0 -153 -64.5 -250.5t-176 -136t-267.5 -29.5v205q139 -16 202 35.5t63 202.5v727h-304z" />
    <glyph glyph-name="f_f_k" unicode="ffk" horiz-adv-x="2152" 
d="M1503 1368v-778h51l267 356h284l-346 -440l377 -506h-289l-286 401h-58v-401h-243v1151q-70 45 -152 45q-152 0 -152 -164v-86h189v-190h-189v-756h-245v756h-303v-756h-244v756h-139v190h139v76q0 75 19.5 135t51 98t75.5 63t90 35.5t96 10.5q63 0 100.5 -8t85.5 -29
l-39 -207q-55 39 -117 39q-60 0 -89 -33.5t-29 -105.5v-74h303v78q0 78 21 140t55.5 102.5t83 67.5t100.5 38.5t110 11.5q109 0 209 -43z" />
    <glyph glyph-name="f_h" unicode="fh" horiz-adv-x="1654" 
d="M956 1368v-602q70 203 291 203q122 0 202.5 -74t80.5 -223v-672h-246v586q0 176 -139 176q-82 0 -135.5 -54t-53.5 -180v-528h-245v1151q-70 45 -152 45q-151 0 -151 -164v-86h190v-190h-190v-756h-244v756h-139v190h139v78q0 78 20.5 140t55 102.5t82.5 67.5t100 38.5
t110 11.5q112 0 209 -43z" />
    <glyph glyph-name="f_j" unicode="fj" horiz-adv-x="1091" 
d="M711 29v727h-303v-756h-244v756h-139v190h139v72q0 101 35 175t94.5 114t125.5 58.5t140 18.5q163 0 283 -69l-86 -199q-83 62 -183 62q-165 0 -165 -168v-64h548v-944q0 -153 -65 -250.5t-176.5 -136t-268.5 -29.5v205q139 -16 202 35.5t63 202.5z" />
    <glyph glyph-name="f_k" unicode="fk" horiz-adv-x="1603" 
d="M956 1368v-778h50l266 356h284l-344 -440l375 -506h-289l-286 401h-56v-401h-245v1151q-70 45 -152 45q-151 0 -151 -164v-86h190v-190h-190v-756h-244v756h-139v190h139v78q0 78 20.5 140t55 102.5t82.5 67.5t100 38.5t110 11.5q112 0 209 -43z" />
    <glyph glyph-name="ff" unicode="ff" horiz-adv-x="1177" 
d="M711 756h-303v-756h-244v756h-139v190h139v76q0 75 19.5 135t51 98t75.5 63t90 35.5t96 10.5q63 0 100.5 -8t85.5 -29l-39 -207q-55 39 -117 39q-60 0 -89 -33.5t-29 -105.5v-74h303v82q0 95 30 166t82 111t114.5 59t135.5 20q113 0 219 -36l-39 -226q-77 52 -153 52
q-144 0 -144 -160v-68h242v-190h-242v-756h-245v756z" />
    <glyph glyph-name="ffi" unicode="ffi" horiz-adv-x="1638" 
d="M711 946v72q0 101 35.5 175t95 114t126 58.5t140.5 18.5q164 0 281 -69l-84 -199q-83 62 -183 62q-166 0 -166 -168v-64h547v-946h-243v756h-304v-756h-245v756h-303v-756h-244v756h-139v190h139v76q0 75 19.5 135t51 98t75.5 63t90 35.5t96 10.5q63 0 100.5 -8t85.5 -29
l-39 -207q-55 39 -117 39q-60 0 -89 -33.5t-29 -105.5v-74h303z" />
    <glyph glyph-name="ffl" unicode="ffl" horiz-adv-x="1714" 
d="M711 946v78q0 78 21 140t55.5 102.5t83 67.5t100.5 38.5t110 11.5q109 0 209 -43l213 27v-1089q0 -42 23.5 -63t62.5 -21q40 0 72 14l-10 -205q-80 -22 -144 -22q-108 0 -177.5 56t-69.5 173v940q-70 45 -152 45q-152 0 -152 -164v-86h189v-190h-189v-756h-245v756h-303
v-756h-244v756h-139v190h139v76q0 75 19.5 135t51 98t75.5 63t90 35.5t96 10.5q63 0 100.5 -8t85.5 -29l-39 -207q-55 39 -117 39q-60 0 -89 -33.5t-29 -105.5v-74h303z" />
    <glyph glyph-name="fi" unicode="fi" horiz-adv-x="1091" 
d="M164 756h-139v190h139v72q0 101 35 175t94.5 114t125.5 58.5t140 18.5q163 0 283 -69l-86 -199q-83 62 -183 62q-165 0 -165 -168v-64h548v-946h-245v756h-303v-756h-244v756z" />
    <glyph glyph-name="fl" unicode="fl" horiz-adv-x="1165" 
d="M1112 209l-10 -205q-80 -22 -144 -22q-108 0 -177.5 56t-69.5 173v940q-70 45 -152 45q-151 0 -151 -164v-86h190v-190h-190v-756h-244v756h-139v190h139v78q0 78 20.5 140t55 102.5t82.5 67.5t100 38.5t110 11.5q112 0 209 -43l215 27v-1089q0 -42 22.5 -63t61.5 -21
q40 0 72 14z" />
    <glyph glyph-name=".notdef" horiz-adv-x="1245" 
 />
    <glyph glyph-name=".null" horiz-adv-x="0" 
 />
    <glyph glyph-name="nonmarkingreturn" horiz-adv-x="682" 
 />
    <glyph glyph-name="space" unicode=" " horiz-adv-x="452" 
 />
    <glyph glyph-name="exclam" unicode="!" horiz-adv-x="487" 
d="M94 1206h301l-69 -817h-164zM88 137q0 65 44.5 106.5t111.5 41.5q68 0 113.5 -41.5t45.5 -106.5t-45.5 -106t-113.5 -41q-67 0 -111.5 41t-44.5 106z" />
    <glyph glyph-name="quotedbl" unicode="&#x22;" horiz-adv-x="804" 
d="M129 844v524h246l-99 -524h-147zM471 844v524h246l-99 -524h-147z" />
    <glyph glyph-name="numbersign" unicode="#" horiz-adv-x="1294" 
d="M1184 264h-340l-80 -264h-178l80 264h-195l-82 -264h-178l80 264h-221v170h272l49 162h-280v170h331l68 219h184l-67 -219h190l68 219h182l-68 -219h226v-170h-279l-49 -162h287v-170zM573 596l-51 -162h195l49 162h-193z" />
    <glyph glyph-name="dollar" unicode="$" horiz-adv-x="976" 
d="M449 -217v194q-329 13 -371 252l198 72q30 -132 173 -154v244l-78 17q-136 30 -197 103t-61 189q0 77 27 135.5t75 93.5t106 54t128 25v168h102v-168q152 -8 238.5 -76t93.5 -195l-217 -26q-9 104 -115 125v-246l57 -10q141 -25 214 -103t73 -205q0 -140 -92.5 -212
t-251.5 -83v-194h-102zM670 248q0 50 -27 78t-92 43v-222q54 6 86.5 31.5t32.5 69.5zM334 727q0 -96 115 -119v230q-55 -7 -85 -36t-30 -75z" />
    <glyph glyph-name="percent" unicode="%" horiz-adv-x="1794" 
d="M365 469q-151 0 -228.5 103.5t-77.5 273.5q0 166 81.5 271.5t224.5 105.5t224 -105.5t81 -271.5q0 -170 -77.5 -273.5t-227.5 -103.5zM365 1063q-59 0 -91 -59t-32 -162q0 -98 33 -159.5t90 -61.5t89.5 61.5t32.5 159.5q0 103 -31.5 162t-90.5 59zM506 0l624 1206h154
l-629 -1206h-149zM1432 -14q-151 0 -228.5 103t-77.5 273q0 166 81.5 271.5t224.5 105.5t224 -105.5t81 -271.5q0 -170 -77.5 -273t-227.5 -103zM1432 580q-59 0 -91 -59.5t-32 -162.5q0 -98 33 -159.5t90 -61.5t89.5 61.5t32.5 159.5q0 103 -31.5 162.5t-90.5 59.5z" />
    <glyph glyph-name="ampersand" unicode="&#x26;" horiz-adv-x="1169" 
d="M1155 129l-176 -158l-143 144q-158 -140 -408 -140q-63 0 -120 11.5t-107.5 36.5t-87.5 62t-58.5 92t-21.5 122q0 114 68.5 201t207.5 127l-61 61q-117 114 -117 252t102.5 214.5t264.5 76.5q158 0 257 -76t99 -211q0 -208 -256 -280l244 -240q44 76 47 197l203 -70
q-9 -71 -38 -143.5t-67 -120.5zM276 324q0 -76 52.5 -122t136.5 -46q150 0 233 92l-288 284q-68 -39 -101 -85t-33 -123zM498 1065q-56 0 -89.5 -31.5t-33.5 -81.5q0 -61 63 -127l74 -75q115 68 115 188q0 60 -33.5 93.5t-95.5 33.5z" />
    <glyph glyph-name="quotesingle" unicode="'" horiz-adv-x="462" 
d="M129 844v524h246l-99 -524h-147z" />
    <glyph glyph-name="parenleft" unicode="(" horiz-adv-x="724" 
d="M356 477q0 -113 18.5 -217t47 -187.5t77 -172t95.5 -157t115 -157.5h-263q-71 91 -122 171.5t-101.5 191t-77 244t-26.5 284.5t26.5 284.5t77 244t101.5 191t122 171.5h263q-68 -89 -115 -157.5t-95.5 -157t-77 -172t-47 -187.5t-18.5 -217z" />
    <glyph glyph-name="parenright" unicode=")" horiz-adv-x="724" 
d="M367 477q0 140 -25 262.5t-77 233t-108 197.5t-141 198h263q71 -91 122 -171.5t101.5 -191t77 -244t26.5 -284.5t-26.5 -284.5t-77 -244t-101.5 -191t-122 -171.5h-263q85 111 141 198t108 197.5t77 233t25 262.5z" />
    <glyph glyph-name="asterisk" unicode="*" horiz-adv-x="804" 
d="M498 1221l-35 -213l194 96l56 -172l-215 -35l155 -158l-153 -110l-97 194l-100 -194l-147 110l151 158l-215 35l60 170l192 -94l-35 213h189z" />
    <glyph glyph-name="plus" unicode="+" horiz-adv-x="1019" 
d="M92 578h344v333h139v-333h353v-140h-353v-362h-139v362h-344v140z" />
    <glyph glyph-name="comma" unicode="," horiz-adv-x="589" 
d="M463 92q0 -170 -95.5 -250.5t-263.5 -85.5v105q185 20 185 153q-70 -11 -121 27t-51 111q0 71 45.5 110t116.5 39q79 0 131.5 -57.5t52.5 -151.5z" />
    <glyph glyph-name="hyphen" unicode="-" horiz-adv-x="757" 
d="M131 426v205h496v-205h-496z" />
    <glyph glyph-name="period" unicode="." horiz-adv-x="593" 
d="M133 150q0 71 47 119t115 48q71 0 118.5 -47.5t47.5 -119.5q0 -68 -48 -114t-118 -46q-68 0 -115 46.5t-47 113.5z" />
    <glyph glyph-name="slash" unicode="/" horiz-adv-x="858" 
d="M20 -416l560 1784h217l-566 -1784h-211z" />
    <glyph glyph-name="zero" unicode="0" horiz-adv-x="1196" 
d="M598 -25q-158 0 -274.5 69.5t-175 186t-58.5 263.5q0 145 58.5 261t175.5 185.5t274 69.5t274 -69.5t175.5 -185.5t58.5 -261q0 -147 -58.5 -263.5t-175 -186t-274.5 -69.5zM598 795q-127 0 -198.5 -85.5t-71.5 -220.5q0 -137 71.5 -222t198.5 -85q129 0 200.5 85
t71.5 222q0 135 -72 220.5t-200 85.5z" />
    <glyph glyph-name="one" unicode="1" horiz-adv-x="739" 
d="M551 0h-232v762l-278 -39v199l510 79v-1001z" />
    <glyph glyph-name="two" unicode="2" horiz-adv-x="958" 
d="M877 203v-203h-797v174q288 145 403 253t115 226q0 70 -39 108t-106 38q-66 0 -107.5 -45t-48.5 -136l-225 54q15 114 73 191.5t141.5 112t190.5 34.5q157 0 259 -88t102 -250q0 -175 -119.5 -290t-323.5 -171v-8h482z" />
    <glyph glyph-name="three" unicode="3" horiz-adv-x="956" 
d="M528 389v-10q156 -13 240 -100.5t84 -223.5q0 -160 -118 -249t-314 -89q-172 0 -281.5 75.5t-132.5 211.5l232 78q21 -180 194 -180q82 0 131 42t49 122q0 103 -76.5 160.5t-252.5 64.5v174q77 5 133 19.5t88 33.5t50.5 47t24 53t5.5 58q0 64 -40.5 100.5t-101.5 36.5
q-65 0 -107.5 -40t-51.5 -120l-230 62q25 137 131 216t271 79q167 0 271.5 -80.5t104.5 -233.5q0 -129 -76 -209t-227 -98z" />
    <glyph glyph-name="four" unicode="4" horiz-adv-x="1122" 
d="M621 -268v336h-584v161l598 756h229v-733h201v-184h-201v-336h-243zM412 252h209v252q0 50 2.5 102.5t4.5 79.5l3 27h-8q-34 -66 -95 -148l-145 -192q-26 -36 -54.5 -66t-43.5 -43l-15 -12v-8q44 8 142 8z" />
    <glyph glyph-name="five" unicode="5" horiz-adv-x="972" 
d="M154 285l26 700h649v-217h-450l-12 -309q63 51 168 51q158 0 253 -101t95 -278q0 -102 -35 -182.5t-96.5 -130.5t-141.5 -75.5t-174 -25.5q-180 0 -288 74t-130 211l218 84q10 -94 65.5 -143t144.5 -49q94 0 150.5 57.5t56.5 175.5q0 103 -52 155t-138 52q-76 0 -129 -49
h-180z" />
    <glyph glyph-name="six" unicode="6" horiz-adv-x="1071" 
d="M967 1014l-174 -119q-53 137 -201 137q-135 0 -208 -130t-73 -367h6q25 112 104 172.5t185 60.5q176 0 277.5 -109.5t101.5 -273.5q0 -184 -115.5 -297t-320.5 -113q-211 0 -333 151.5t-122 432.5q0 135 26.5 247t72.5 190t110 131.5t138 78.5t157 25q129 0 226 -57
t143 -160zM365 371q0 -90 57 -147.5t139 -57.5q86 0 143.5 57t57.5 148q0 95 -57 152t-144 57q-82 0 -139 -57.5t-57 -151.5z" />
    <glyph glyph-name="seven" unicode="7" horiz-adv-x="985" 
d="M641 768h-377v-150h-207v367h840v-172l-436 -1081h-242z" />
    <glyph glyph-name="eight" unicode="8" horiz-adv-x="1058" 
d="M528 -25q-210 0 -324 91t-114 241q0 113 68 193t178 110v11q-110 27 -164.5 102t-54.5 178q0 147 111 238.5t300 91.5q191 0 302.5 -91.5t111.5 -238.5q0 -103 -54.5 -178t-164.5 -102v-11q110 -30 178 -110t68 -193q0 -150 -115.5 -241t-325.5 -91zM528 1059
q-83 0 -129.5 -48t-46.5 -124q0 -89 50 -134.5t126 -45.5t127.5 45.5t51.5 134.5q0 76 -47.5 124t-131.5 48zM528 520q-82 0 -140 -47t-58 -133q0 -83 53.5 -134.5t144.5 -51.5q92 0 146.5 51.5t54.5 134.5q0 86 -58.5 133t-142.5 47z" />
    <glyph glyph-name="nine" unicode="9" horiz-adv-x="1062" 
d="M47 -61l174 116q56 -145 215 -145q87 0 150 43.5t98.5 122t51.5 172.5t16 209h-9q-23 -119 -99 -180.5t-189 -61.5q-173 0 -275 108.5t-102 274.5q0 184 113.5 298t314.5 114q224 0 343.5 -147t119.5 -439q0 -342 -142.5 -524.5t-400.5 -182.5q-135 0 -235 58t-144 164z
M698 612q0 92 -57 148.5t-141 56.5q-86 0 -143.5 -56.5t-57.5 -148.5q0 -96 57 -153.5t144 -57.5q84 0 141 57.5t57 153.5z" />
    <glyph glyph-name="colon" unicode=":" horiz-adv-x="593" 
d="M133 150q0 71 47 119t115 48q71 0 118.5 -47.5t47.5 -119.5q0 -68 -48 -114t-118 -46q-68 0 -115 46.5t-47 113.5zM133 786q0 72 47 120t115 48q71 0 118.5 -48t47.5 -120q0 -68 -48 -113.5t-118 -45.5q-68 0 -115 46t-47 113z" />
    <glyph glyph-name="semicolon" unicode=";" horiz-adv-x="589" 
d="M463 92q0 -170 -95.5 -250.5t-263.5 -85.5v105q185 20 185 153q-70 -11 -121 27t-51 111q0 71 45.5 110t116.5 39q79 0 131.5 -57.5t52.5 -151.5zM117 786q0 72 47 120t115 48q71 0 118 -48t47 -120q0 -68 -47.5 -113.5t-117.5 -45.5q-68 0 -115 46t-47 113z" />
    <glyph glyph-name="less" unicode="&#x3c;" horiz-adv-x="804" 
d="M709 827l-400 -321l393 -326l-98 -114l-512 440l520 434z" />
    <glyph glyph-name="equal" unicode="=" horiz-adv-x="1019" 
d="M928 289h-836v137h836v-137zM928 582h-836v137h836v-137z" />
    <glyph glyph-name="greater" unicode="&#x3e;" horiz-adv-x="804" 
d="M492 506l-398 321l96 113l519 -434l-512 -440l-99 114z" />
    <glyph glyph-name="question" unicode="?" horiz-adv-x="868" 
d="M225 831l-225 80q68 320 430 320q186 0 301 -103t115 -268q0 -75 -22 -135.5t-57.5 -99.5t-84 -65.5t-98 -38.5t-103.5 -13v-139h-213v274h90q114 0 172 47t58 152q0 87 -47 132.5t-127 45.5q-168 0 -189 -189zM219 137q0 65 44.5 106.5t111.5 41.5q68 0 112.5 -41.5
t44.5 -106.5t-44.5 -106t-112.5 -41q-67 0 -111.5 41t-44.5 106z" />
    <glyph glyph-name="at" unicode="@" horiz-adv-x="1822" 
d="M1063 340v154q0 85 -51.5 129.5t-116.5 44.5q-75 0 -125.5 -64t-50.5 -201q0 -115 47.5 -178t128.5 -63q65 0 116.5 44.5t51.5 133.5zM1286 819v-606q0 -56 18.5 -80t59.5 -24q98 0 152.5 111.5t54.5 303.5q0 141 -50 251.5t-138 179t-201 104t-244 35.5
q-136 0 -258.5 -45t-219 -129.5t-153.5 -220t-57 -302.5q0 -166 54 -296t151.5 -213.5t230.5 -127t295 -43.5q108 0 197.5 15t197.5 51l31 -133q-201 -64 -428 -64q-272 1 -470.5 94t-307.5 276.5t-109 440.5q0 241 107 429t300.5 292.5t440.5 104.5q151 0 279 -35.5
t219.5 -98t156 -149t96 -188.5t31.5 -215q0 -562 -407 -562q-106 0 -170.5 44.5t-73.5 136.5q-28 -98 -95.5 -139.5t-170.5 -41.5q-140 0 -233 108t-93 306q0 211 95.5 330t271.5 119q88 0 147.5 -33.5t85.5 -91.5l56 106h151z" />
    <glyph glyph-name="A" unicode="A" horiz-adv-x="1228" 
d="M942 0l-98 279h-469l-94 -279h-261l439 1206h311l438 -1206h-266zM508 666l-64 -183h328l-63 181q-31 88 -55 171.5t-32 123.5l-8 40h-8q-30 -140 -98 -333z" />
    <glyph glyph-name="B" unicode="B" horiz-adv-x="1140" 
d="M782 623v-9q125 -14 196 -89t71 -193q0 -156 -106.5 -244t-321.5 -88h-459v1206h463q183 0 278.5 -78.5t95.5 -226.5q0 -112 -58.5 -184t-158.5 -94zM410 694h170q172 0 172 152q0 151 -181 151h-161v-303zM410 510v-301h204q183 0 183 156q0 145 -185 145h-202z" />
    <glyph glyph-name="C" unicode="C" horiz-adv-x="1183" 
d="M932 373l207 -129q-57 -94 -124 -151.5t-161.5 -87.5t-222.5 -30q-248 0 -396.5 165.5t-148.5 461.5q0 299 155.5 464t426.5 165q344 0 477 -301l-238 -115q-64 199 -250 199q-147 0 -231 -111t-84 -305q0 -192 79.5 -297.5t233.5 -105.5q189 0 277 178z" />
    <glyph glyph-name="D" unicode="D" horiz-adv-x="1255" 
d="M410 209h135q176 0 270 92t94 301q0 90 -17 158t-46.5 113t-74 73t-95.5 39.5t-115 11.5h-151v-788zM569 0h-407v1206h422q129 0 233 -33.5t184 -102t124 -184t44 -270.5q0 -131 -30 -235t-83.5 -174.5t-129.5 -117.5t-164.5 -68t-192.5 -21z" />
    <glyph glyph-name="E" unicode="E" horiz-adv-x="1050" 
d="M948 215v-215h-786v1206h786v-215h-538v-278h475v-209h-475v-289h538z" />
    <glyph glyph-name="F" unicode="F" horiz-adv-x="991" 
d="M410 0h-248v1206h762v-215h-514v-315h450v-209h-450v-467z" />
    <glyph glyph-name="G" unicode="G" horiz-adv-x="1275" 
d="M647 637h508v-637h-166l-37 141q-41 -81 -130.5 -123.5t-200.5 -42.5q-243 0 -389 159.5t-146 463.5q0 300 155.5 466.5t426.5 166.5q177 0 297.5 -77t179.5 -224l-238 -115q-30 98 -94.5 148.5t-155.5 50.5q-62 0 -116.5 -23.5t-100 -71t-72 -131t-26.5 -192.5
q0 -91 18 -165.5t54.5 -132t98 -89t142.5 -31.5q121 0 190.5 53.5t69.5 145.5v57h-268v203z" />
    <glyph glyph-name="H" unicode="H" horiz-adv-x="1320" 
d="M410 0h-248v1206h248v-485h501v485h248v-1206h-248v504h-501v-504z" />
    <glyph glyph-name="I" unicode="I" horiz-adv-x="571" 
d="M162 1206h248v-1206h-248v1206z" />
    <glyph glyph-name="J" unicode="J" horiz-adv-x="937" 
d="M563 1206h248v-856q0 -100 -32 -174.5t-89.5 -117t-129 -63t-157.5 -20.5q-284 0 -403 234l186 160q41 -99 90 -144t125 -45q91 0 126.5 53t35.5 164v809z" />
    <glyph glyph-name="K" unicode="K" horiz-adv-x="1159" 
d="M1130 0h-296l-345 504h-79v-504h-248v1206h248v-485h84l315 485h287l-394 -583z" />
    <glyph glyph-name="L" unicode="L" horiz-adv-x="958" 
d="M162 1206h248v-991h495v-215h-743v1206z" />
    <glyph glyph-name="M" unicode="M" horiz-adv-x="1499" 
d="M815 285h-131l-186 323q-29 49 -51.5 97t-30.5 71l-8 23h-9q11 -70 11 -209v-590h-248v1206h262l246 -456q28 -49 47.5 -91t24.5 -59l6 -18h8q17 57 78 168l247 456h256v-1206h-247v590q0 62 3 114t6 74l3 21h-8q-27 -80 -93 -191z" />
    <glyph glyph-name="N" unicode="N" horiz-adv-x="1366" 
d="M401 1206l443 -618q30 -44 58 -90t41 -70l13 -25h9q-9 111 -9 265v538h248v-1206h-231l-445 612q-34 46 -64.5 95.5t-43.5 75.5l-14 26h-9q13 -109 13 -277v-532h-248v1206h239z" />
    <glyph glyph-name="O" unicode="O" horiz-adv-x="1298" 
d="M649 -25q-264 0 -413.5 164t-149.5 463q0 301 149.5 465t413.5 164t413.5 -164t149.5 -465q0 -299 -149.5 -463t-413.5 -164zM649 1010q-150 0 -227.5 -108t-77.5 -302q0 -195 77.5 -302.5t227.5 -107.5t226.5 107t76.5 303q0 194 -77.5 302t-225.5 108z" />
    <glyph glyph-name="P" unicode="P" horiz-adv-x="1064" 
d="M410 997v-387h153q102 0 147.5 48.5t45.5 142.5q0 196 -193 196h-153zM410 0h-248v1206h407q225 0 330 -100t105 -295q0 -190 -106.5 -296.5t-303.5 -106.5h-184v-408z" />
    <glyph glyph-name="Q" unicode="Q" horiz-adv-x="1298" 
d="M1077 -113l-71 -215q-390 -3 -500 318q-199 40 -309.5 198t-110.5 414q0 301 149.5 465t413.5 164t413.5 -164t149.5 -465q0 -268 -121.5 -428t-338.5 -190q58 -56 144 -80.5t181 -16.5zM649 1010q-150 0 -227.5 -108t-77.5 -302q0 -195 77.5 -302.5t227.5 -107.5
t226.5 107t76.5 303q0 194 -77.5 302t-225.5 108z" />
    <glyph glyph-name="R" unicode="R" horiz-adv-x="1169" 
d="M1110 0h-276q-39 37 -60 121l-47 190q-19 82 -60 108.5t-124 26.5h-133v-446h-248v1206h456q210 0 319.5 -86.5t109.5 -273.5q0 -136 -74 -214t-195 -87v-6q86 -12 133 -53t70 -128l61 -229q23 -82 68 -129zM410 997v-344h192q96 0 143.5 41t47.5 131q0 83 -48 127.5
t-141 44.5h-194z" />
    <glyph glyph-name="S" unicode="S" horiz-adv-x="1030" 
d="M49 276l227 91q19 -95 82 -148t154 -53q81 0 129.5 35t48.5 102q0 65 -45.5 104.5t-171.5 81.5q-98 31 -165 65t-117 79.5t-73.5 105.5t-23.5 138q0 77 23.5 139t63 101.5t93 66.5t111.5 38t121 11q409 0 440 -315l-246 -58q-7 82 -60.5 126t-129.5 44
q-69 0 -113.5 -34.5t-44.5 -98.5q0 -68 51.5 -105t176.5 -77q94 -31 155 -61t112.5 -74.5t75 -106t23.5 -145.5q0 -92 -35 -161.5t-98.5 -110.5t-143 -61t-175.5 -20q-184 0 -295 71.5t-150 229.5z" />
    <glyph glyph-name="T" unicode="T" horiz-adv-x="964" 
d="M604 0h-248v991h-336v215h924v-215h-340v-991z" />
    <glyph glyph-name="U" unicode="U" horiz-adv-x="1226" 
d="M852 1206h248v-805q0 -94 -26.5 -168t-71 -121.5t-107.5 -79t-132 -44.5t-149 -13q-81 0 -150 13t-132.5 44.5t-108 79.5t-70.5 121.5t-26 167.5v805h248v-737q0 -145 55.5 -216t183.5 -71q127 0 182.5 71.5t55.5 215.5v737z" />
    <glyph glyph-name="V" unicode="V" horiz-adv-x="1142" 
d="M287 1206l215 -688q24 -77 42 -156t24 -119l5 -40h9q16 143 67 313l213 690h260l-399 -1206h-305l-398 1206h267z" />
    <glyph glyph-name="W" unicode="W" horiz-adv-x="1755" 
d="M1032 1206l162 -694q18 -79 33.5 -163t21.5 -129l6 -44h9q16 160 53 334l153 696h252l-280 -1206h-359l-153 635q-19 77 -31.5 160t-14.5 127l-3 45h-9q-8 -156 -51 -334l-157 -633h-351l-280 1206h264l156 -692q17 -79 31.5 -163.5t19.5 -129.5l6 -45h8q16 162 57 336
l162 694h295z" />
    <glyph glyph-name="X" unicode="X" 
d="M862 0l-190 287q-36 55 -57.5 96t-24.5 55l-4 13h-8q-11 -41 -89 -164l-182 -287h-287l414 608l-395 598h295l160 -254q39 -63 62 -107.5t26 -57.5l4 -13h8q4 35 88 178l154 254h276l-377 -583l412 -623h-285z" />
    <glyph glyph-name="Y" unicode="Y" horiz-adv-x="1075" 
d="M303 1206l156 -319q33 -68 55 -128.5t28 -86.5l5 -27h8q12 92 86 242l152 319h262l-381 -786v-420h-248v420l-406 786h283z" />
    <glyph glyph-name="Z" unicode="Z" horiz-adv-x="1024" 
d="M956 1034l-475 -669q-32 -44 -63 -81.5t-46 -53.5l-16 -15v-8q55 8 168 8h447v-215h-918v172l467 670q31 44 62.5 81.5t47.5 52.5l15 15v8q-57 -8 -168 -8h-405v215h884v-172z" />
    <glyph glyph-name="bracketleft" unicode="[" horiz-adv-x="731" 
d="M403 1186v-1419h256v-183h-497v1784h497v-182h-256z" />
    <glyph glyph-name="backslash" unicode="\" horiz-adv-x="858" 
d="M276 1368l562 -1784h-213l-564 1784h215z" />
    <glyph glyph-name="bracketright" unicode="]" horiz-adv-x="731" 
d="M328 -233v1419h-256v182h497v-1784h-497v183h256z" />
    <glyph glyph-name="asciicircum" unicode="^" horiz-adv-x="1071" 
d="M764 657l-129 269q-40 84 -64 152t-28 94l-4 26h-9q-1 -10 -4.5 -29.5t-28 -89.5t-65.5 -151l-137 -271h-234l369 711h213l367 -711h-246z" />
    <glyph glyph-name="underscore" unicode="_" horiz-adv-x="985" 
d="M102 -229v184h781v-184h-781z" />
    <glyph glyph-name="grave" unicode="`" horiz-adv-x="788" 
d="M623 1079h-222l-237 310h311z" />
    <glyph glyph-name="a" unicode="a" horiz-adv-x="1011" 
d="M602 293v110q-155 4 -225 -32t-70 -111q0 -48 32 -78t89 -30q68 0 121 36.5t53 104.5zM846 664v-398q0 -88 69 -88q24 0 58 15v-181q-49 -28 -137 -28q-179 0 -215 149q-61 -158 -277 -158q-128 0 -204.5 69t-76.5 189q0 162 133.5 242.5t405.5 65.5v100q0 69 -33 105
t-96 36q-127 0 -137 -143l-240 43q10 143 118 215t271 72q169 0 265 -75.5t96 -229.5z" />
    <glyph glyph-name="b" unicode="b" horiz-adv-x="1124" 
d="M379 532v-151q0 -61 17.5 -107t47 -71t62.5 -37t69 -12q100 0 165 82t65 237q0 151 -55.5 225t-155.5 74q-89 0 -152 -64.5t-63 -175.5zM365 137l-62 -137h-168v1368h244v-600q36 102 117.5 151.5t187.5 49.5q174 0 270.5 -123.5t96.5 -349.5q0 -232 -108 -376.5
t-296 -144.5q-115 0 -186 44.5t-96 117.5z" />
    <glyph glyph-name="c" unicode="c" horiz-adv-x="954" 
d="M692 313l215 -63q-25 -137 -130 -206t-259 -69q-203 0 -323.5 130.5t-120.5 363.5q0 234 122 367t328 133q162 0 261 -82t108 -223l-209 -56q-25 166 -164 166q-101 0 -155 -81t-54 -222q0 -140 57 -222.5t156 -82.5q66 0 108 34t60 113z" />
    <glyph glyph-name="d" unicode="d" horiz-adv-x="1124" 
d="M748 387v188q0 103 -60 157t-143 54q-99 0 -162.5 -77t-63.5 -244q0 -144 60 -222.5t164 -78.5q79 0 142 60t63 163zM745 821v547h244v-1368h-213l-28 164q-54 -189 -297 -189q-163 0 -270 126.5t-107 353.5q0 243 110.5 378.5t311.5 135.5q90 0 159.5 -41.5t89.5 -106.5
z" />
    <glyph glyph-name="e" unicode="e" horiz-adv-x="993" 
d="M526 164q138 0 181 137l208 -68q-32 -134 -139 -196t-258 -62q-201 0 -322.5 129t-121.5 357q0 241 120.5 374.5t329.5 133.5q189 0 290 -113.5t101 -300.5q0 -75 -14 -127h-592q5 -122 61 -193t156 -71zM315 573h365q2 14 2 35q0 78 -44.5 127t-123.5 49
q-84 0 -136 -56.5t-63 -154.5z" />
    <glyph glyph-name="f" unicode="f" horiz-adv-x="628" 
d="M164 756h-139v190h139v82q0 96 28.5 166.5t79 111t113.5 59.5t139 19q119 0 219 -43l-38 -204q-71 41 -158 41q-68 0 -103.5 -36t-35.5 -122v-74h241v-190h-241v-756h-244v756z" />
    <glyph glyph-name="g" unicode="g" horiz-adv-x="1015" 
d="M483 969q164 0 271 -66q31 26 44.5 55.5t26.5 88.5l197 -66q-7 -65 -54.5 -111t-111.5 -65q43 -67 43 -170q0 -106 -57.5 -181.5t-151 -111t-211.5 -35.5q-74 0 -117 15q-51 -30 -51 -84q0 -31 21.5 -48.5t62.5 -17.5h256q159 0 246.5 -73t87.5 -199q0 -64 -21 -116
t-60 -87.5t-89 -61t-112.5 -40t-124.5 -21t-132 -6.5q-89 0 -163 12t-136.5 38.5t-97.5 75.5t-35 116q0 87 62.5 138t185.5 60q-67 6 -106 52t-39 110q0 60 38 108.5t113 69.5q-192 80 -192 287q0 160 110 247t297 87zM240 -150q0 -116 233 -116q147 0 214 29t67 96
q0 47 -30.5 70.5t-100.5 23.5h-224q-74 0 -116.5 -26t-42.5 -77zM322 635q0 -74 42 -119t119 -45q79 0 122.5 42.5t43.5 121.5q0 82 -43.5 124t-122.5 40q-78 0 -119.5 -43t-41.5 -121z" />
    <glyph glyph-name="h" unicode="h" horiz-adv-x="1077" 
d="M379 1368v-602q73 203 293 203q122 0 201 -74t79 -223v-672h-243v586q0 176 -140 176q-84 0 -137 -54t-53 -180v-528h-244v1368h244z" />
    <glyph glyph-name="i" unicode="i" horiz-adv-x="514" 
d="M104 1239q0 68 44 107.5t108 39.5q68 0 113 -39.5t45 -107.5q0 -66 -45 -104.5t-113 -38.5q-64 0 -108 39t-44 104zM135 946h244v-946h-244v946z" />
    <glyph glyph-name="j" unicode="j" horiz-adv-x="514" 
d="M135 946h244v-944q0 -153 -64.5 -250.5t-176 -136t-267.5 -29.5v205q138 -16 201 35.5t63 202.5v917zM102 1239q0 68 43.5 107.5t108.5 39.5q70 0 114 -39t44 -108q0 -66 -44.5 -104.5t-113.5 -38.5q-65 0 -108.5 38.5t-43.5 104.5z" />
    <glyph glyph-name="k" unicode="k" horiz-adv-x="1028" 
d="M635 506l377 -506h-289l-287 401h-57v-401h-244v1368h244v-778h51l264 356h287z" />
    <glyph glyph-name="l" unicode="l" horiz-adv-x="573" 
d="M520 209l-10 -205q-83 -22 -143 -22q-108 0 -178 56t-70 173v1157h243v-1089q0 -42 24 -63t63 -21q36 0 71 14z" />
    <glyph glyph-name="m" unicode="m" horiz-adv-x="1615" 
d="M913 762q35 103 116.5 155t187.5 52q124 0 199 -72.5t75 -220.5v-676h-244v586q0 176 -137 176q-76 0 -125 -56t-49 -178v-528h-246v586q0 86 -31.5 131t-103.5 45q-76 0 -126 -56.5t-50 -177.5v-528h-244v946h205l29 -182q73 205 293 205q217 0 251 -207z" />
    <glyph glyph-name="n" unicode="n" horiz-adv-x="1077" 
d="M340 946l29 -182q74 205 303 205q122 0 201 -74t79 -223v-672h-243v586q0 176 -140 176q-83 0 -136.5 -54.5t-53.5 -179.5v-528h-244v946h205z" />
    <glyph glyph-name="o" unicode="o" horiz-adv-x="1044" 
d="M522 -25q-206 0 -327 132t-121 370q0 237 120.5 364.5t327.5 127.5t328 -127.5t121 -364.5q0 -238 -121.5 -370t-327.5 -132zM522 772q-207 0 -207 -297q0 -309 207 -309q106 0 157.5 76t51.5 233q0 297 -209 297z" />
    <glyph glyph-name="p" unicode="p" horiz-adv-x="1124" 
d="M379 526v-145q0 -61 17.5 -107t47 -71t62.5 -37t69 -12q100 0 165 82t65 237q0 151 -55.5 225t-155.5 74q-90 0 -152.5 -65.5t-62.5 -180.5zM379 125v-541h-244v1362h207l31 -182q39 107 122.5 156t188.5 49q174 0 270.5 -123.5t96.5 -349.5q0 -232 -108 -376.5
t-298 -144.5q-103 0 -173 43t-93 107z" />
    <glyph glyph-name="q" unicode="q" horiz-adv-x="1124" 
d="M748 387v188q0 103 -60 157t-143 54q-99 0 -162.5 -77t-63.5 -244q0 -144 60 -222.5t164 -78.5q79 0 142 60t63 163zM760 823l63 123h166v-1362h-241v580q-54 -189 -297 -189q-163 0 -270 126.5t-107 353.5q0 243 110.5 378.5t311.5 135.5q99 0 167.5 -39t96.5 -107z" />
    <glyph glyph-name="r" unicode="r" horiz-adv-x="780" 
d="M752 967l-25 -271q-50 13 -98 13q-46 0 -88.5 -14.5t-80 -44t-59.5 -81.5t-22 -120v-449h-244v946h211l29 -258q69 295 377 279z" />
    <glyph glyph-name="s" unicode="s" horiz-adv-x="892" 
d="M43 217l205 76q13 -75 63.5 -110.5t126.5 -35.5q69 0 109.5 24.5t40.5 72.5q0 45 -29.5 71t-99.5 45l-140 33q-124 30 -182.5 99t-58.5 178q0 82 31.5 142.5t86.5 93.5t119 48t140 15q339 0 362 -262l-231 -33q-6 60 -41 86t-103 26q-59 0 -93 -25t-34 -69
q0 -41 24.5 -65.5t80.5 -34.5l133 -31q139 -31 206.5 -103.5t67.5 -193.5q0 -76 -29.5 -133t-83 -90.5t-123 -49.5t-155.5 -16q-175 0 -272 56.5t-121 185.5z" />
    <glyph glyph-name="t" unicode="t" horiz-adv-x="757" 
d="M684 240l43 -205q-114 -60 -270 -60q-142 0 -220.5 72t-78.5 221v488h-138v190h140v201l243 29v-230h281v-190h-283v-434q0 -74 30 -106t89 -32q81 0 164 56z" />
    <glyph glyph-name="u" unicode="u" horiz-adv-x="1071" 
d="M725 0l-29 174q-28 -100 -99 -149.5t-194 -49.5q-133 0 -208.5 74.5t-75.5 233.5v663h243v-602q0 -93 34.5 -138.5t109.5 -45.5q78 0 132 66.5t54 195.5v524h244v-946h-211z" />
    <glyph glyph-name="v" unicode="v" horiz-adv-x="956" 
d="M340 0l-332 946h260l142 -461q22 -72 38.5 -148.5t22.5 -116.5l6 -40h8q19 143 68 305l143 461h252l-336 -946h-272z" />
    <glyph glyph-name="w" unicode="w" horiz-adv-x="1443" 
d="M840 946l112 -414q24 -84 40 -172t20 -134l4 -46h8q8 157 53 350l103 416h243l-249 -946h-291l-105 375q-19 72 -32.5 147.5t-17.5 115.5l-3 40h-8q-10 -139 -51 -305l-95 -373h-288l-263 946h250l109 -416q22 -84 36.5 -171.5t18.5 -132.5l4 -46h8q11 164 58 352
l106 414h230z" />
    <glyph glyph-name="x" unicode="x" horiz-adv-x="966" 
d="M680 0l-117 188q-35 55 -55 97t-22 57l-3 14h-8q-8 -45 -84 -168l-115 -188h-262l308 473l-289 473h282l86 -155q33 -63 54 -108.5t25 -60.5l5 -14h9q8 44 86 183l92 155h264l-293 -465l309 -481h-272z" />
    <glyph glyph-name="y" unicode="y" horiz-adv-x="960" 
d="M274 946l138 -461q24 -82 40.5 -157.5t21.5 -110.5l5 -35h8q15 119 70 303l139 461h256l-364 -1028q-38 -106 -82 -175t-97.5 -105.5t-108.5 -50t-130 -13.5q-68 0 -158 23l33 213q57 -31 123 -31q70 0 113.5 37.5t76.5 130.5l-350 999h266z" />
    <glyph glyph-name="z" unicode="z" horiz-adv-x="851" 
d="M780 791l-323 -449q-33 -44 -64 -81.5t-46 -52.5l-15 -15v-9q55 9 168 9h299v-193h-746v145l316 455q32 44 63 81.5t46 52.5l16 16v8q-55 -8 -168 -8h-254v196h708v-155z" />
    <glyph glyph-name="braceleft" unicode="{" horiz-adv-x="843" 
d="M315 483v-8q92 -10 143.5 -58t51.5 -161v-344q0 -76 23 -110.5t83 -34.5q68 0 129 34l41 -172q-96 -51 -229 -51q-150 0 -213 78.5t-63 216.5v354q0 92 -37.5 125t-104.5 33h-84v186h84q67 0 104.5 33.5t37.5 124.5v356q0 138 63 215.5t213 77.5q138 0 229 -51l-41 -172
q-63 35 -129 35q-60 0 -83 -34t-23 -109v-345q0 -62 -15 -105t-43.5 -66t-60.5 -33.5t-76 -14.5z" />
    <glyph glyph-name="bar" unicode="|" horiz-adv-x="608" 
d="M403 -416h-198v1784h198v-1784z" />
    <glyph glyph-name="braceright" unicode="}" horiz-adv-x="843" 
d="M526 475v8q-43 4 -74.5 14.5t-60.5 33.5t-44 66t-15 105v345q0 74 -23 108.5t-82 34.5q-69 0 -129 -35l-41 172q87 51 230 51q150 0 213 -77.5t63 -215.5v-356q0 -91 37.5 -124.5t104.5 -33.5h83v-186h-83q-67 0 -104.5 -33t-37.5 -125v-354q0 -138 -63 -216.5
t-213 -78.5q-138 0 -230 51l41 172q58 -34 129 -34q59 0 82 34.5t23 110.5v344q0 113 52 161t142 58z" />
    <glyph glyph-name="asciitilde" unicode="~" horiz-adv-x="1017" 
d="M662 399q-32 0 -59.5 6.5t-44.5 14.5t-48 26q-7 4 -22 13t-20.5 12l-16.5 9t-16.5 8t-14 5t-15.5 4t-14 1q-34 0 -52 -24.5t-11 -74.5h-140q-31 76 -20 143t63.5 112.5t126.5 45.5q43 0 74 -11.5t74 -35.5q75 -44 97 -50q12 -3 24 -3q68 0 55 96h145q50 -120 1.5 -208.5
t-166.5 -88.5z" />
    <glyph glyph-name="nbspace" unicode="&#xa0;" horiz-adv-x="313" 
 />
    <glyph glyph-name="exclamdown" unicode="&#xa1;" horiz-adv-x="487" 
d="M395 -258h-301l68 817h164zM88 811q0 65 44.5 106t111.5 41q68 0 113.5 -41t45.5 -106t-45.5 -106t-113.5 -41q-67 0 -111.5 41t-44.5 106z" />
    <glyph glyph-name="cent" unicode="&#xa2;" horiz-adv-x="1056" 
d="M518 -217v194q-197 16 -312.5 146t-115.5 366q0 229 113.5 362.5t314.5 154.5v170h103v-168q140 -6 230.5 -68t143.5 -186l-215 -111q-49 146 -159 166v-633q62 7 104.5 43t73.5 103l196 -125q-61 -107 -150.5 -159.5t-223.5 -60.5v-194h-103zM340 496q0 -132 46 -214
t132 -102v627q-85 -21 -131.5 -99.5t-46.5 -211.5z" />
    <glyph glyph-name="sterling" unicode="&#xa3;" horiz-adv-x="1054" 
d="M725 401h-244q2 -8 2 -24q0 -63 -22 -109.5t-64 -66.5h285q27 0 46.5 3t41.5 12.5t38 30t26 52.5l172 -98q-17 -96 -93.5 -148.5t-189.5 -52.5h-617v203h64q51 0 75.5 36.5t24.5 88.5q0 27 -12 73h-180v131h123q-29 74 -29 164q0 98 54 171.5t136 108t179 34.5
q149 0 246 -66t118 -211l-217 -51q-26 135 -147 135q-146 0 -146 -141q0 -56 45 -144h285v-131z" />
    <glyph glyph-name="currency" unicode="&#xa4;" horiz-adv-x="925" 
d="M659 866l138 138l67 -68l-137 -137q55 -83 55 -205q0 -116 -49 -197l131 -129l-67 -67l-125 125q-79 -64 -207 -64t-209 66l-127 -127l-68 67l134 133q-45 79 -45 193q0 124 53 201l-142 141l68 68l137 -140q83 58 199 58q117 0 194 -56zM465 786q-119 0 -119 -192
q0 -197 119 -197t119 197q0 192 -119 192z" />
    <glyph glyph-name="yen" unicode="&#xa5;" horiz-adv-x="1116" 
d="M1010 289h-320v-289h-248v289h-323v106h282l-57 99h-225v106h166l-219 385h280l143 -274q31 -58 50 -109t23 -72l3 -22h8q6 70 72 201l141 276h265l-211 -385h170v-106h-228l-53 -99h281v-106z" />
    <glyph glyph-name="brokenbar" unicode="&#xa6;" horiz-adv-x="608" 
d="M403 569h-198v799h198v-799zM403 -414h-198v797h198v-797z" />
    <glyph glyph-name="section" unicode="&#xa7;" horiz-adv-x="948" 
d="M82 51l207 72q17 -72 68.5 -109t123.5 -37q60 0 97.5 25t37.5 70q0 39 -30.5 65.5t-100.5 46.5l-147 43q-116 34 -168.5 91.5t-52.5 152.5q0 85 45 137t119 72q-56 23 -94 67t-53 90.5t-15 94.5q0 66 21 118.5t56 86t83.5 55t99.5 30.5t108 9q171 0 266.5 -65.5
t102.5 -196.5l-231 -33q-5 113 -142 113q-59 0 -90 -25.5t-31 -69.5q0 -37 24 -62t87 -44l139 -39q126 -36 190 -97.5t64 -168.5q0 -86 -46.5 -141.5t-121.5 -67.5q76 -34 120 -100t44 -148q0 -147 -106.5 -217t-282.5 -70q-171 0 -271 63t-120 189zM621 500q0 49 -45 76.5
t-144 56.5q-34 -14 -55 -42t-21 -63q0 -52 40 -78.5t147 -56.5q33 11 55.5 40t22.5 67z" />
    <glyph glyph-name="dieresis" unicode="&#xa8;" horiz-adv-x="1046" 
d="M164 1221q0 66 40.5 104.5t100.5 38.5q64 0 105 -38t41 -105q0 -66 -41.5 -105t-104.5 -39q-59 0 -100 39.5t-41 104.5zM596 1219q0 67 40 105t101 38q63 0 103.5 -38t40.5 -105q0 -65 -40.5 -103.5t-103.5 -38.5q-60 0 -100.5 39t-40.5 103z" />
    <glyph glyph-name="copyright" unicode="&#xa9;" horiz-adv-x="1439" 
d="M897 489l166 -114q-59 -87 -139.5 -128.5t-206.5 -41.5q-170 0 -274.5 104t-104.5 295q0 190 107 295t292 105q122 0 200 -47.5t126 -149.5l-182 -92q-20 59 -55 90t-95 31q-83 0 -132.5 -61.5t-49.5 -168.5t48 -167t134 -60q59 0 97 26.5t69 83.5zM92 602
q0 179 84.5 323.5t227.5 225t315 80.5q128 0 244 -47.5t200.5 -129.5t134.5 -200t50 -252t-50 -251.5t-134.5 -199.5t-200.5 -129t-244 -47t-243.5 47t-200 129t-134 199.5t-49.5 251.5zM156 602q0 -163 77 -294t206 -202t284 -71q115 0 218 42t179.5 115.5t121 180
t44.5 229.5q0 122 -44.5 228.5t-120.5 181t-179.5 117t-218.5 42.5t-219.5 -42.5t-181 -117t-121.5 -181t-45 -228.5z" />
    <glyph glyph-name="ordfeminine" unicode="&#xaa;" horiz-adv-x="780" 
d="M430 780v80q-168 0 -168 -98q0 -31 18.5 -49.5t51.5 -18.5q39 0 68.5 22.5t29.5 63.5zM627 1026v-260q0 -43 37 -43q31 0 49 12v-133q-39 -24 -117 -24q-65 0 -101.5 20t-56.5 70q-44 -97 -182 -97q-84 0 -134 44.5t-50 123.5q0 215 358 209v58q0 45 -21 66.5t-55 21.5
t-55.5 -24.5t-24.5 -59.5l-182 28q7 96 83.5 144.5t195.5 48.5q72 0 127 -18.5t92 -66t37 -120.5z" />
    <glyph glyph-name="guillemotleft" unicode="&#xab;" horiz-adv-x="1081" 
d="M717 483v-8q40 -12 108 -88l193 -221l-123 -119l-397 434l397 437l123 -125l-195 -220q-30 -34 -56.5 -56.5t-38.5 -28.5zM281 483v-8q40 -12 108 -88l195 -221l-125 -119l-398 434l398 437l125 -125l-195 -220q-31 -34 -58 -56.5t-39 -28.5z" />
    <glyph glyph-name="logicalnot" unicode="&#xac;" horiz-adv-x="1032" 
d="M782 506h-684v139h836v-393h-152v254z" />
    <glyph glyph-name="uni00AD" unicode="&#xad;" horiz-adv-x="720" 
d="M131 426v205h459v-205h-459z" />
    <glyph glyph-name="registered" unicode="&#xae;" horiz-adv-x="1439" 
d="M1075 248h-221q-28 25 -43 82l-20 78q-11 44 -40 61.5t-77 17.5h-37v-239h-197v739h310q139 0 212.5 -60t73.5 -177q0 -92 -55.5 -141.5t-142.5 -57.5q64 -9 98.5 -31.5t52.5 -73.5l37 -110q13 -47 49 -88zM637 825v-188h74q70 0 101.5 22t31.5 68q0 47 -30.5 72.5
t-86.5 25.5h-90zM92 602q0 179 84.5 323.5t227.5 225t315 80.5q128 0 244 -47.5t200.5 -129.5t134.5 -200t50 -252t-50 -251.5t-134.5 -199.5t-200.5 -129t-244 -47t-243.5 47t-200 129t-134 199.5t-49.5 251.5zM156 602q0 -163 77 -294t206 -202t284 -71q115 0 218 42
t179.5 115.5t121 180t44.5 229.5q0 122 -44.5 228.5t-120.5 181t-179.5 117t-218.5 42.5t-219.5 -42.5t-181 -117t-121.5 -181t-45 -228.5z" />
    <glyph glyph-name="macron" unicode="&#xaf;" horiz-adv-x="907" 
d="M743 1116h-579v199h579v-199z" />
    <glyph glyph-name="degree" unicode="&#xb0;" horiz-adv-x="542" 
d="M57 1016q0 90 60 152.5t153 62.5q92 0 153.5 -63t61.5 -152q0 -90 -61 -151.5t-154 -61.5q-94 0 -153.5 61t-59.5 152zM184 1016q0 -39 23.5 -65.5t62.5 -26.5t62.5 26.5t23.5 65.5q0 41 -23.5 67.5t-62.5 26.5t-62.5 -26.5t-23.5 -67.5z" />
    <glyph glyph-name="plusminus" unicode="&#xb1;" horiz-adv-x="1019" 
d="M92 723h344v260h139v-260h353v-139h-353v-289h-139v289h-344v139zM928 61h-836v140h836v-140z" />
    <glyph glyph-name="twosuperior" unicode="&#xb2;" horiz-adv-x="665" 
d="M616 627v-144h-561v123q80 57 126.5 92t93.5 75t70 69.5t37.5 62t14.5 66.5q0 44 -23.5 68t-66.5 24q-48 0 -78 -34.5t-30 -96.5l-154 63q3 94 77 161t206 67q116 0 189 -59.5t73 -170.5q0 -211 -301 -358v-8h327z" />
    <glyph glyph-name="threesuperior" unicode="&#xb3;" horiz-adv-x="659" 
d="M395 854v-4q201 -14 201 -184q0 -94 -78 -145.5t-215 -51.5q-116 0 -191 44t-92 122l154 61q11 -44 44.5 -69t86.5 -25q98 0 98 78q0 49 -41.5 77t-150.5 29v111q101 3 139.5 30t38.5 72q0 37 -22 57.5t-60 20.5q-41 0 -69 -22t-35 -62l-150 56q15 82 88 128t183 46
t178.5 -48.5t68.5 -142.5q0 -149 -176 -178z" />
    <glyph glyph-name="acute" unicode="&#xb4;" horiz-adv-x="788" 
d="M387 1079h-219l145 310h312z" />
    <glyph glyph-name="mu" unicode="&#xb5;" horiz-adv-x="1087" 
d="M737 0l-28 178q-26 -106 -90.5 -154.5t-149.5 -48.5q-63 0 -94 27v-418h-244v1362h244v-592q0 -182 137 -182q32 0 64 12.5t62 38t48.5 72.5t18.5 108v543h243v-946h-211z" />
    <glyph glyph-name="paragraph" unicode="&#xb6;" horiz-adv-x="1122" 
d="M881 1008v-1037q0 -158 -88 -231.5t-234 -73.5q-66 0 -116 12t-107 43l49 216q70 -62 158 -62q49 0 74.5 27.5t25.5 93.5v360h-100q-220 0 -344.5 103.5t-124.5 308.5q0 438 530 438h438v-198h-161z" />
    <glyph glyph-name="periodcentered" unicode="&#xb7;" horiz-adv-x="593" 
d="M133 541q0 72 47 120t115 48q71 0 118.5 -48t47.5 -120q0 -68 -48 -114t-118 -46q-68 0 -115 46.5t-47 113.5z" />
    <glyph glyph-name="periodcentered" unicode="&#x22c5;" horiz-adv-x="593" 
d="M133 541q0 72 47 120t115 48q71 0 118.5 -48t47.5 -120q0 -68 -48 -114t-118 -46q-68 0 -115 46.5t-47 113.5z" />
    <glyph glyph-name="cedilla" unicode="&#xb8;" horiz-adv-x="749" 
d="M586 -246q0 -91 -63.5 -138.5t-164.5 -47.5q-68 0 -122 20.5t-82 55.5l49 120q59 -71 133 -71q65 0 65 59q0 73 -114 82l18 197h111l-10 -109q180 -12 180 -168z" />
    <glyph glyph-name="onesuperior" unicode="&#xb9;" horiz-adv-x="632" 
d="M600 483h-528v138h182v415l-201 -18v145l383 43v-585h164v-138z" />
    <glyph glyph-name="ordmasculine" unicode="&#xba;" horiz-adv-x="804" 
d="M401 571q-144 0 -229.5 87.5t-85.5 244.5t85.5 242.5t229.5 85.5q146 0 232 -85.5t86 -242.5t-86.5 -244.5t-231.5 -87.5zM401 1096q-118 0 -118 -193q0 -196 118 -196q119 0 119 196q0 193 -119 193z" />
    <glyph glyph-name="guillemotright" unicode="&#xbb;" horiz-adv-x="1081" 
d="M365 475v8q-39 14 -107 90l-195 220l123 125l398 -437l-398 -434l-125 119l195 221q30 34 57.5 56t39.5 27zM801 475v8q-41 14 -109 90l-194 220l125 125l397 -437l-397 -434l-125 119l194 221q29 34 56.5 56t39.5 27z" />
    <glyph glyph-name="onequarter" unicode="&#xbc;" horiz-adv-x="1777" 
d="M629 483h-529v138h183v415l-201 -18v145l383 43v-585h164v-138zM500 0l624 1206h154l-629 -1206h-149zM1446 0v154h-361v129l363 440h182v-434h107v-135h-107v-154h-184zM1450 285v145q0 34 2 70t4 56l2 19h-8q-19 -51 -64 -108l-71 -90q-21 -25 -45 -48.5t-38 -34.5
l-13 -11v-9q38 11 114 11h117z" />
    <glyph glyph-name="onehalf" unicode="&#xbd;" horiz-adv-x="1777" 
d="M629 483h-529v138h183v415l-201 -18v145l383 43v-585h164v-138zM500 0l624 1206h154l-629 -1206h-149zM1677 143v-143h-561v123q196 139 269 212t73 152q0 44 -23.5 68.5t-66.5 24.5q-48 0 -78 -34.5t-30 -96.5l-154 63q3 94 77 160.5t206 66.5q116 0 189 -59t73 -170
q0 -211 -301 -358v-9h327z" />
    <glyph glyph-name="threequarters" unicode="&#xbe;" horiz-adv-x="1777" 
d="M444 854v-4q201 -14 201 -184q0 -94 -78 -145.5t-215 -51.5q-115 0 -190 44t-92 122l153 61q11 -44 44.5 -69t86.5 -25q45 0 72 19.5t27 58.5q0 49 -41.5 77t-151.5 29v111q101 3 139.5 30t38.5 72q0 37 -22 57.5t-60 20.5q-41 0 -69 -22t-35 -62l-150 56q15 82 88 128
t183 46t179 -48.5t69 -142.5q0 -149 -177 -178zM500 0l624 1206h154l-629 -1206h-149zM1446 0v154h-361v129l363 440h182v-434h107v-135h-107v-154h-184zM1450 285v145q0 34 2 70t4 56l2 19h-8q-19 -51 -64 -108l-71 -90q-21 -25 -45 -48.5t-38 -34.5l-13 -11v-9
q38 11 114 11h117z" />
    <glyph glyph-name="questiondown" unicode="&#xbf;" horiz-adv-x="868" 
d="M643 115l225 -80q-68 -320 -430 -320q-185 0 -300 103t-115 268q0 75 22 135.5t57 99.5t83.5 65.5t98 38.5t103.5 13v140h213v-275h-90q-114 0 -171.5 -46.5t-57.5 -152.5q0 -87 47 -132.5t127 -45.5q167 0 188 189zM649 809q0 -65 -44 -106t-111 -41q-68 0 -113 41
t-45 106t45 106t113 41q67 0 111 -41t44 -106z" />
    <glyph glyph-name="Agrave" unicode="&#xc0;" horiz-adv-x="1228" 
d="M942 0l-98 279h-469l-94 -279h-261l439 1206h311l438 -1206h-266zM508 666l-64 -183h328l-63 181q-31 88 -55 171.5t-32 123.5l-8 40h-8q-30 -140 -98 -333zM739 1329h-223l-219 279h311z" />
    <glyph glyph-name="Aacute" unicode="&#xc1;" horiz-adv-x="1228" 
d="M942 0l-98 279h-469l-94 -279h-261l439 1206h311l438 -1206h-266zM508 666l-64 -183h328l-63 181q-31 88 -55 171.5t-32 123.5l-8 40h-8q-30 -140 -98 -333zM713 1329h-224l132 279h311z" />
    <glyph glyph-name="Acircumflex" unicode="&#xc2;" horiz-adv-x="1228" 
d="M942 0l-98 279h-469l-94 -279h-261l439 1206h311l438 -1206h-266zM508 666l-64 -183h328l-63 181q-31 88 -55 171.5t-32 123.5l-8 40h-8q-30 -140 -98 -333zM532 1616h156l268 -287h-235l-64 66q-16 16 -27 32t-14 23l-2 8h-8q-6 -26 -43 -63l-63 -66h-236z" />
    <glyph glyph-name="Atilde" unicode="&#xc3;" horiz-adv-x="1228" 
d="M942 0l-98 279h-469l-94 -279h-261l439 1206h311l438 -1206h-266zM508 666l-64 -183h328l-63 181q-31 88 -55 171.5t-32 123.5l-8 40h-8q-30 -140 -98 -333zM764 1331q-32 0 -59.5 6.5t-44.5 14.5t-48 26q-8 5 -25.5 15t-23.5 13.5t-18 9.5t-18.5 8t-15 4t-17.5 2
q-35 0 -53 -24.5t-11 -74.5h-139q-31 76 -20 142.5t63.5 111.5t126.5 45q43 0 74.5 -10.5t72.5 -34.5q75 -44 97 -50q12 -3 24 -3q68 0 55 96h146q50 -120 1 -208.5t-167 -88.5z" />
    <glyph glyph-name="Adieresis" unicode="&#xc4;" horiz-adv-x="1228" 
d="M942 0l-98 279h-469l-94 -279h-261l439 1206h311l438 -1206h-266zM508 666l-64 -183h328l-63 181q-31 88 -55 171.5t-32 123.5l-8 40h-8q-30 -140 -98 -333zM252 1475q0 66 40.5 104.5t100.5 38.5q64 0 105 -38t41 -105q0 -66 -41.5 -105t-104.5 -39q-59 0 -100 39.5
t-41 104.5zM684 1473q0 67 40 105t101 38q63 0 103.5 -38t40.5 -105q0 -65 -40.5 -103.5t-103.5 -38.5q-60 0 -100.5 39t-40.5 103z" />
    <glyph glyph-name="Aring" unicode="&#xc5;" horiz-adv-x="1228" 
d="M942 0l-98 279h-469l-94 -279h-261l439 1206h311l438 -1206h-266zM508 666l-64 -183h328l-63 181q-31 88 -55 171.5t-32 123.5l-8 40h-8q-30 -140 -98 -333zM610 1294q-105 0 -166 63t-61 159q0 89 63.5 151t163.5 62t164 -62t64 -151q0 -96 -61 -159t-167 -63zM610 1618
q-49 0 -76.5 -29.5t-27.5 -77.5q0 -43 27.5 -71.5t76.5 -28.5t77 28.5t28 71.5q0 48 -28 77.5t-77 29.5z" />
    <glyph glyph-name="AE" unicode="&#xc6;" horiz-adv-x="1765" 
d="M1663 0h-789v279h-421l-172 -279h-273l725 1206h930v-215h-539v-278h475v-209h-475v-289h539v-215zM879 1026l-316 -543h311v222q0 92 3 172t7 115l3 34h-8z" />
    <glyph glyph-name="Ccedilla" unicode="&#xc7;" horiz-adv-x="1183" 
d="M874 -246q0 -91 -63 -138.5t-164 -47.5q-68 0 -122.5 21t-82.5 55l50 120q59 -71 133 -71q65 0 65 59q0 73 -115 82l13 143q-230 14 -366 177.5t-136 447.5q0 299 155.5 464t426.5 165q344 0 477 -301l-238 -115q-64 199 -250 199q-147 0 -231 -111t-84 -305
q0 -192 79.5 -297.5t233.5 -105.5q189 0 277 178l207 -129q-77 -128 -180 -192.5t-261 -74.5l-4 -55q180 -12 180 -168z" />
    <glyph glyph-name="Egrave" unicode="&#xc8;" horiz-adv-x="1050" 
d="M948 215v-215h-786v1206h786v-215h-538v-278h475v-209h-475v-289h538zM682 1329h-223l-219 279h311z" />
    <glyph glyph-name="Eacute" unicode="&#xc9;" horiz-adv-x="1050" 
d="M948 215v-215h-786v1206h786v-215h-538v-278h475v-209h-475v-289h538zM653 1329h-223l131 279h311z" />
    <glyph glyph-name="Ecircumflex" unicode="&#xca;" horiz-adv-x="1050" 
d="M948 215v-215h-786v1206h786v-215h-538v-278h475v-209h-475v-289h538zM479 1616h156l268 -287h-235l-64 66q-16 16 -27 32t-13 23l-3 8h-8q-6 -26 -43 -63l-64 -66h-235z" />
    <glyph glyph-name="Edieresis" unicode="&#xcb;" horiz-adv-x="1050" 
d="M948 215v-215h-786v1206h786v-215h-538v-278h475v-209h-475v-289h538zM193 1475q0 66 40.5 104.5t100.5 38.5q64 0 104.5 -38t40.5 -105q0 -66 -41 -105t-104 -39q-59 0 -100 39.5t-41 104.5zM625 1473q0 67 40 105t101 38q63 0 103 -38t40 -105q0 -65 -40 -103.5
t-103 -38.5q-60 0 -100.5 39t-40.5 103z" />
    <glyph glyph-name="Igrave" unicode="&#xcc;" horiz-adv-x="571" 
d="M162 1206h248v-1206h-248v1206zM408 1329h-224l-219 279h311z" />
    <glyph glyph-name="Iacute" unicode="&#xcd;" horiz-adv-x="571" 
d="M162 1206h248v-1206h-248v1206zM387 1329h-223l131 279h311z" />
    <glyph glyph-name="Icircumflex" unicode="&#xce;" horiz-adv-x="571" 
d="M162 1206h248v-1206h-248v1206zM209 1616h156l268 -287h-236l-63 66q-16 16 -27 32t-13 23l-3 8h-8q-6 -26 -43 -63l-64 -66h-235z" />
    <glyph glyph-name="Idieresis" unicode="&#xcf;" horiz-adv-x="571" 
d="M162 1206h248v-1206h-248v1206zM-78 1475q0 66 40.5 104.5t100.5 38.5q64 0 105 -38t41 -105q0 -66 -41.5 -105t-104.5 -39q-59 0 -100 39.5t-41 104.5zM354 1473q0 67 40.5 105t101.5 38q63 0 103 -38t40 -105q0 -65 -40 -103.5t-103 -38.5q-60 0 -101 39t-41 103z" />
    <glyph glyph-name="Eth" unicode="&#xd0;" horiz-adv-x="1255" 
d="M569 0h-407v506h-129v203h129v497h422q129 0 233 -33.5t184 -102t124 -184t44 -270.5q0 -131 -30 -235t-83.5 -174.5t-129.5 -117.5t-164.5 -68t-192.5 -21zM410 209h135q176 0 270 92t94 301q0 90 -17 158t-46.5 113t-74 73t-95.5 39.5t-115 11.5h-151v-288h202v-203
h-202v-297z" />
    <glyph glyph-name="Ntilde" unicode="&#xd1;" horiz-adv-x="1366" 
d="M401 1206l443 -618q30 -44 58 -90t41 -70l13 -25h9q-9 111 -9 265v538h248v-1206h-231l-445 612q-34 46 -64.5 95.5t-43.5 75.5l-14 26h-9q13 -109 13 -277v-532h-248v1206h239zM836 1331q-32 0 -59.5 6.5t-44.5 14.5t-48 26q-7 4 -22 13t-20.5 12l-16.5 9t-16.5 8t-14 5
t-15.5 4t-14 1q-34 0 -52 -24.5t-11 -74.5h-140q-31 76 -20 142.5t63.5 111.5t126.5 45q70 0 148 -45q75 -44 97 -50q12 -3 24 -3q68 0 55 96h145q50 -120 1.5 -208.5t-166.5 -88.5z" />
    <glyph glyph-name="Ograve" unicode="&#xd2;" horiz-adv-x="1298" 
d="M649 -25q-264 0 -413.5 164t-149.5 463q0 301 149.5 465t413.5 164t413.5 -164t149.5 -465q0 -299 -149.5 -463t-413.5 -164zM649 1010q-150 0 -227.5 -108t-77.5 -302q0 -195 77.5 -302.5t227.5 -107.5t226.5 107t76.5 303q0 194 -77.5 302t-225.5 108zM774 1329h-223
l-219 279h311z" />
    <glyph glyph-name="Oacute" unicode="&#xd3;" horiz-adv-x="1298" 
d="M649 -25q-264 0 -413.5 164t-149.5 463q0 301 149.5 465t413.5 164t413.5 -164t149.5 -465q0 -299 -149.5 -463t-413.5 -164zM649 1010q-150 0 -227.5 -108t-77.5 -302q0 -195 77.5 -302.5t227.5 -107.5t226.5 107t76.5 303q0 194 -77.5 302t-225.5 108zM748 1329h-224
l131 279h312z" />
    <glyph glyph-name="Ocircumflex" unicode="&#xd4;" horiz-adv-x="1298" 
d="M649 -25q-264 0 -413.5 164t-149.5 463q0 301 149.5 465t413.5 164t413.5 -164t149.5 -465q0 -299 -149.5 -463t-413.5 -164zM649 1010q-150 0 -227.5 -108t-77.5 -302q0 -195 77.5 -302.5t227.5 -107.5t226.5 107t76.5 303q0 194 -77.5 302t-225.5 108zM571 1616h156
l268 -287h-235l-64 66q-16 16 -27 32t-13 23l-3 8h-8q-6 -26 -43 -63l-63 -66h-236z" />
    <glyph glyph-name="Otilde" unicode="&#xd5;" horiz-adv-x="1298" 
d="M649 -25q-264 0 -413.5 164t-149.5 463q0 301 149.5 465t413.5 164t413.5 -164t149.5 -465q0 -299 -149.5 -463t-413.5 -164zM649 1010q-150 0 -227.5 -108t-77.5 -302q0 -195 77.5 -302.5t227.5 -107.5t226.5 107t76.5 303q0 194 -77.5 302t-225.5 108zM801 1331
q-32 0 -59.5 6.5t-44.5 14.5t-48 26q-7 4 -22 13t-20.5 12l-16.5 9t-16.5 8t-14 5t-15.5 4t-14 1q-34 0 -52 -24.5t-11 -74.5h-139q-31 76 -20 142.5t63.5 111.5t126.5 45q43 0 74.5 -10.5t72.5 -34.5q75 -44 97 -50q12 -3 24 -3q68 0 55 96h146q50 -120 1 -208.5
t-167 -88.5z" />
    <glyph glyph-name="Odieresis" unicode="&#xd6;" horiz-adv-x="1298" 
d="M649 -25q-264 0 -413.5 164t-149.5 463q0 301 149.5 465t413.5 164t413.5 -164t149.5 -465q0 -299 -149.5 -463t-413.5 -164zM649 1010q-150 0 -227.5 -108t-77.5 -302q0 -195 77.5 -302.5t227.5 -107.5t226.5 107t76.5 303q0 194 -77.5 302t-225.5 108zM287 1475
q0 66 40.5 104.5t100.5 38.5q64 0 104.5 -38t40.5 -105q0 -66 -41 -105t-104 -39q-59 0 -100 39.5t-41 104.5zM719 1473q0 67 40 105t101 38q63 0 103.5 -38t40.5 -105q0 -65 -40.5 -103.5t-103.5 -38.5q-60 0 -100.5 39t-40.5 103z" />
    <glyph glyph-name="multiply" unicode="&#xd7;" horiz-adv-x="931" 
d="M92 242l268 268l-260 262l97 98l262 -260l274 273l101 -97l-277 -276l283 -283l-99 -96l-282 283l-269 -271z" />
    <glyph glyph-name="Oslash" unicode="&#xd8;" horiz-adv-x="1298" 
d="M174 -27l-92 82l117 131q-113 156 -113 416q0 301 149.5 465t413.5 164q224 0 369 -123l102 115l97 -82l-113 -127q108 -160 108 -412q0 -299 -149.5 -463t-413.5 -164q-223 0 -366 119zM649 1010q-149 0 -225 -107.5t-76 -302.5q0 -122 31 -213l475 537q-77 86 -205 86z
M950 600q0 120 -30 209l-478 -537q76 -82 207 -82q150 0 225.5 107t75.5 303z" />
    <glyph glyph-name="Ugrave" unicode="&#xd9;" horiz-adv-x="1226" 
d="M852 1206h248v-805q0 -94 -26.5 -168t-71 -121.5t-107.5 -79t-132 -44.5t-149 -13q-81 0 -150 13t-132.5 44.5t-108 79.5t-70.5 121.5t-26 167.5v805h248v-737q0 -145 55.5 -216t183.5 -71q127 0 182.5 71.5t55.5 215.5v737zM739 1329h-223l-219 279h311z" />
    <glyph glyph-name="Uacute" unicode="&#xda;" horiz-adv-x="1226" 
d="M852 1206h248v-805q0 -94 -26.5 -168t-71 -121.5t-107.5 -79t-132 -44.5t-149 -13q-81 0 -150 13t-132.5 44.5t-108 79.5t-70.5 121.5t-26 167.5v805h248v-737q0 -145 55.5 -216t183.5 -71q127 0 182.5 71.5t55.5 215.5v737zM711 1329h-224l131 279h312z" />
    <glyph glyph-name="Ucircumflex" unicode="&#xdb;" horiz-adv-x="1226" 
d="M852 1206h248v-805q0 -94 -26.5 -168t-71 -121.5t-107.5 -79t-132 -44.5t-149 -13q-81 0 -150 13t-132.5 44.5t-108 79.5t-70.5 121.5t-26 167.5v805h248v-737q0 -145 55.5 -216t183.5 -71q127 0 182.5 71.5t55.5 215.5v737zM537 1616h155l269 -287h-236l-63 66
q-16 16 -27 32t-14 23l-3 8h-8q-6 -26 -43 -63l-63 -66h-236z" />
    <glyph glyph-name="Udieresis" unicode="&#xdc;" horiz-adv-x="1226" 
d="M852 1206h248v-805q0 -94 -26.5 -168t-71 -121.5t-107.5 -79t-132 -44.5t-149 -13q-81 0 -150 13t-132.5 44.5t-108 79.5t-70.5 121.5t-26 167.5v805h248v-737q0 -145 55.5 -216t183.5 -71q127 0 182.5 71.5t55.5 215.5v737zM250 1475q0 66 40.5 104.5t100.5 38.5
q64 0 105 -38t41 -105q0 -66 -41.5 -105t-104.5 -39q-59 0 -100 39.5t-41 104.5zM682 1473q0 67 40 105t101 38q63 0 103.5 -38t40.5 -105q0 -65 -40.5 -103.5t-103.5 -38.5q-60 0 -100.5 39t-40.5 103z" />
    <glyph glyph-name="Yacute" unicode="&#xdd;" horiz-adv-x="1075" 
d="M303 1206l156 -319q33 -68 55 -128.5t28 -86.5l5 -27h8q12 92 86 242l152 319h262l-381 -786v-420h-248v420l-406 786h283zM635 1329h-223l131 279h311z" />
    <glyph glyph-name="Thorn" unicode="&#xde;" horiz-adv-x="1052" 
d="M410 805v-367h153q104 0 148.5 43.5t44.5 136.5q0 97 -47.5 142t-145.5 45h-153zM410 0h-248v1206h248v-192h159q227 0 331 -95.5t104 -289.5q0 -190 -106.5 -293t-303.5 -103h-184v-233z" />
    <glyph glyph-name="germandbls" unicode="&#xdf;" horiz-adv-x="1157" 
d="M135 0v872q0 140 36 241.5t102.5 159.5t150 84.5t188.5 26.5q190 0 295 -91.5t105 -241.5q0 -122 -61.5 -192.5t-176.5 -88.5v-8q151 -12 232 -108.5t81 -266.5q0 -193 -97.5 -302.5t-284.5 -109.5q-180 0 -259 123l76 181q68 -111 174 -111q75 0 113.5 54.5t38.5 176.5
q0 123 -65.5 190.5t-188.5 67.5h-109v195h109q182 0 182 164q0 80 -46.5 125t-133.5 45q-106 0 -161.5 -73t-55.5 -234v-879h-244z" />
    <glyph glyph-name="agrave" unicode="&#xe0;" horiz-adv-x="1011" 
d="M602 293v110q-155 4 -225 -32t-70 -111q0 -48 32 -78t89 -30q68 0 121 36.5t53 104.5zM846 664v-398q0 -88 69 -88q24 0 58 15v-181q-49 -28 -137 -28q-179 0 -215 149q-61 -158 -277 -158q-128 0 -204.5 69t-76.5 189q0 162 133.5 242.5t405.5 65.5v100q0 69 -33 105
t-96 36q-127 0 -137 -143l-240 43q10 143 118 215t271 72q169 0 265 -75.5t96 -229.5zM618 1079h-221l-237 310h311z" />
    <glyph glyph-name="aacute" unicode="&#xe1;" horiz-adv-x="1011" 
d="M602 293v110q-155 4 -225 -32t-70 -111q0 -48 32 -78t89 -30q68 0 121 36.5t53 104.5zM846 664v-398q0 -88 69 -88q24 0 58 15v-181q-49 -28 -137 -28q-179 0 -215 149q-61 -158 -277 -158q-128 0 -204.5 69t-76.5 189q0 162 133.5 242.5t405.5 65.5v100q0 69 -33 105
t-96 36q-127 0 -137 -143l-240 43q10 143 118 215t271 72q169 0 265 -75.5t96 -229.5zM582 1079h-220l146 310h311z" />
    <glyph glyph-name="acircumflex" unicode="&#xe2;" horiz-adv-x="1011" 
d="M602 293v110q-155 4 -225 -32t-70 -111q0 -48 32 -78t89 -30q68 0 121 36.5t53 104.5zM846 664v-398q0 -88 69 -88q24 0 58 15v-181q-49 -28 -137 -28q-179 0 -215 149q-61 -158 -277 -158q-128 0 -204.5 69t-76.5 189q0 162 133.5 242.5t405.5 65.5v100q0 69 -33 105
t-96 36q-127 0 -137 -143l-240 43q10 143 118 215t271 72q169 0 265 -75.5t96 -229.5zM408 1393h149l270 -318h-231l-66 76q-17 20 -28 38t-13 26l-2 8h-10q-4 -27 -43 -72l-65 -76h-232z" />
    <glyph glyph-name="atilde" unicode="&#xe3;" horiz-adv-x="1011" 
d="M602 293v110q-155 4 -225 -32t-70 -111q0 -48 32 -78t89 -30q68 0 121 36.5t53 104.5zM846 664v-398q0 -88 69 -88q24 0 58 15v-181q-49 -28 -137 -28q-179 0 -215 149q-61 -158 -277 -158q-128 0 -204.5 69t-76.5 189q0 162 133.5 242.5t405.5 65.5v100q0 69 -33 105
t-96 36q-127 0 -137 -143l-240 43q10 143 118 215t271 72q169 0 265 -75.5t96 -229.5zM635 1073q-48 0 -78.5 10.5t-73.5 36.5q-7 4 -20 11.5t-18 10.5t-15 8.5t-14.5 7.5t-12.5 5.5t-13 4.5t-11.5 2t-13.5 1q-35 0 -53 -25t-11 -75h-139q-51 112 2.5 205.5t167.5 93.5
q43 0 73.5 -11t73.5 -36q75 -44 97 -50q12 -3 24 -3q68 0 55 96h146q50 -118 1 -205.5t-167 -87.5z" />
    <glyph glyph-name="adieresis" unicode="&#xe4;" horiz-adv-x="1011" 
d="M602 293v110q-155 4 -225 -32t-70 -111q0 -48 32 -78t89 -30q68 0 121 36.5t53 104.5zM846 664v-398q0 -88 69 -88q24 0 58 15v-181q-49 -28 -137 -28q-179 0 -215 149q-61 -158 -277 -158q-128 0 -204.5 69t-76.5 189q0 162 133.5 242.5t405.5 65.5v100q0 69 -33 105
t-96 36q-127 0 -137 -143l-240 43q10 143 118 215t271 72q169 0 265 -75.5t96 -229.5zM127 1221q0 66 40.5 104.5t100.5 38.5q64 0 105 -38t41 -105q0 -66 -41.5 -105t-104.5 -39q-59 0 -100 39.5t-41 104.5zM559 1219q0 67 40 105t101 38q63 0 103.5 -38t40.5 -105
q0 -65 -40.5 -103.5t-103.5 -38.5q-60 0 -100.5 39t-40.5 103z" />
    <glyph glyph-name="aring" unicode="&#xe5;" horiz-adv-x="1011" 
d="M602 293v110q-155 4 -225 -32t-70 -111q0 -48 32 -78t89 -30q68 0 121 36.5t53 104.5zM846 664v-398q0 -88 69 -88q24 0 58 15v-181q-49 -28 -137 -28q-179 0 -215 149q-61 -158 -277 -158q-128 0 -204.5 69t-76.5 189q0 162 133.5 242.5t405.5 65.5v100q0 69 -33 105
t-96 36q-127 0 -137 -143l-240 43q10 143 118 215t271 72q169 0 265 -75.5t96 -229.5zM483 1047q-106 0 -166.5 62.5t-60.5 158.5q0 89 63.5 151t163.5 62t164 -62t64 -151q0 -95 -61 -158t-167 -63zM483 1370q-49 0 -76.5 -29t-27.5 -77q0 -43 27.5 -72t76.5 -29t77 29
t28 72q0 48 -28 77t-77 29z" />
    <glyph glyph-name="ae" unicode="&#xe6;" horiz-adv-x="1517" 
d="M1051 164q67 0 111.5 31.5t68.5 105.5l209 -68q-32 -134 -139.5 -196t-256.5 -62q-222 0 -342 154q-36 -75 -120 -114.5t-203 -39.5q-143 0 -229.5 70t-86.5 199q0 159 133.5 239.5t411.5 81.5q5 41 19 92q-6 62 -46 93.5t-102 31.5q-63 0 -101 -38t-42 -105l-240 43
q7 97 62 163t136 95t181 29q198 0 275 -105q117 105 301 105q187 0 289 -117.5t102 -306.5q0 -64 -17 -127h-591q5 -120 60.5 -187t156.5 -67zM840 565h364q2 12 2 33q0 78 -44.5 132t-121.5 54q-90 0 -139.5 -59t-60.5 -160zM428 152q72 0 127.5 35t69.5 98q-18 61 -21 135
q-297 -3 -297 -160q0 -48 32 -78t89 -30z" />
    <glyph glyph-name="ccedilla" unicode="&#xe7;" horiz-adv-x="954" 
d="M745 -246q0 -91 -63 -138.5t-164 -47.5q-68 0 -122.5 21t-82.5 55l49 120q59 -71 134 -71q65 0 65 59q0 73 -115 82l13 146q-178 18 -281.5 145.5t-103.5 343.5q0 234 122 367t328 133q162 0 261 -82t108 -223l-209 -56q-25 166 -164 166q-101 0 -155 -81t-54 -222
q0 -140 57 -222.5t156 -82.5q66 0 108 34t60 113l215 -63q-24 -125 -114 -193.5t-224 -79.5l-4 -55q180 -12 180 -168z" />
    <glyph glyph-name="egrave" unicode="&#xe8;" horiz-adv-x="993" 
d="M526 164q138 0 181 137l208 -68q-32 -134 -139 -196t-258 -62q-201 0 -322.5 129t-121.5 357q0 241 120.5 374.5t329.5 133.5q189 0 290 -113.5t101 -300.5q0 -75 -14 -127h-592q5 -122 61 -193t156 -71zM315 573h365q2 14 2 35q0 78 -44.5 127t-123.5 49
q-84 0 -136 -56.5t-63 -154.5zM635 1079h-221l-238 310h311z" />
    <glyph glyph-name="eacute" unicode="&#xe9;" horiz-adv-x="993" 
d="M526 164q138 0 181 137l208 -68q-32 -134 -139 -196t-258 -62q-201 0 -322.5 129t-121.5 357q0 241 120.5 374.5t329.5 133.5q189 0 290 -113.5t101 -300.5q0 -75 -14 -127h-592q5 -122 61 -193t156 -71zM315 573h365q2 14 2 35q0 78 -44.5 127t-123.5 49
q-84 0 -136 -56.5t-63 -154.5zM600 1079h-219l145 310h312z" />
    <glyph glyph-name="ecircumflex" unicode="&#xea;" horiz-adv-x="993" 
d="M526 164q138 0 181 137l208 -68q-32 -134 -139 -196t-258 -62q-201 0 -322.5 129t-121.5 357q0 241 120.5 374.5t329.5 133.5q189 0 290 -113.5t101 -300.5q0 -75 -14 -127h-592q5 -122 61 -193t156 -71zM315 573h365q2 14 2 35q0 78 -44.5 127t-123.5 49
q-84 0 -136 -56.5t-63 -154.5zM444 1393h150l270 -318h-231l-66 76q-17 20 -28 38t-13 26l-2 8h-10q-4 -27 -43 -72l-65 -76h-232z" />
    <glyph glyph-name="edieresis" unicode="&#xeb;" horiz-adv-x="993" 
d="M526 164q138 0 181 137l208 -68q-32 -134 -139 -196t-258 -62q-201 0 -322.5 129t-121.5 357q0 241 120.5 374.5t329.5 133.5q189 0 290 -113.5t101 -300.5q0 -75 -14 -127h-592q5 -122 61 -193t156 -71zM315 573h365q2 14 2 35q0 78 -44.5 127t-123.5 49
q-84 0 -136 -56.5t-63 -154.5zM162 1221q0 66 40.5 104.5t100.5 38.5q64 0 105 -38t41 -105q0 -66 -41.5 -105t-104.5 -39q-59 0 -100 39.5t-41 104.5zM594 1219q0 67 40 105t101 38q63 0 103.5 -38t40.5 -105q0 -65 -40.5 -103.5t-103.5 -38.5q-60 0 -100.5 39t-40.5 103z
" />
    <glyph glyph-name="igrave" unicode="&#xec;" horiz-adv-x="514" 
d="M379 1079h-221l-238 310h311zM135 946h244v-946h-244v946z" />
    <glyph glyph-name="iacute" unicode="&#xed;" horiz-adv-x="514" 
d="M356 1079h-219l146 310h311zM135 946h244v-946h-244v946z" />
    <glyph glyph-name="icircumflex" unicode="&#xee;" horiz-adv-x="514" 
d="M135 946h244v-946h-244v946zM182 1393h150l270 -318h-231l-66 76q-17 20 -28 38t-13 26l-2 8h-10q-4 -27 -43 -72l-66 -76h-231z" />
    <glyph glyph-name="idieresis" unicode="&#xef;" horiz-adv-x="514" 
d="M-106 1221q0 66 40.5 104.5t100.5 38.5q64 0 104.5 -38t40.5 -105q0 -66 -41 -105t-104 -39q-59 0 -100 39.5t-41 104.5zM326 1219q0 67 40 105t101 38q63 0 103 -38t40 -105q0 -65 -40 -103.5t-103 -38.5q-60 0 -100.5 39t-40.5 103zM135 946h244v-946h-244v946z" />
    <glyph glyph-name="eth" unicode="&#xf0;" horiz-adv-x="1052" 
d="M238 999l-23 99l246 49q-75 64 -232 147l234 92q145 -76 237 -165l215 49l33 -101l-168 -39q199 -255 199 -587q0 -284 -121 -422.5t-334 -138.5q-210 0 -330 124t-120 365q0 119 33 212.5t89 149.5t125 84.5t146 28.5q86 0 144 -31t102 -92h8q-60 143 -170 244zM735 463
q0 147 -55 223t-158 76q-205 0 -205 -299q0 -143 52.5 -218t156.5 -75q209 0 209 293z" />
    <glyph glyph-name="ntilde" unicode="&#xf1;" horiz-adv-x="1077" 
d="M340 946l29 -182q74 205 303 205q122 0 201 -74t79 -223v-672h-243v586q0 176 -140 176q-83 0 -136.5 -54.5t-53.5 -179.5v-528h-244v946h205zM700 1073q-47 0 -77.5 10.5t-73.5 36.5q-5 3 -17.5 10t-17 9.5t-14 8t-13.5 7.5t-11.5 5.5t-12 4.5t-10.5 3t-11.5 2.5
t-11.5 0.5q-34 0 -52 -25t-11 -75h-140q-51 112 2.5 205.5t167.5 93.5q43 0 74 -11.5t74 -35.5q75 -44 97 -50q12 -3 24 -3q68 0 55 96h145q50 -118 1 -205.5t-167 -87.5z" />
    <glyph glyph-name="ograve" unicode="&#xf2;" horiz-adv-x="1044" 
d="M522 -25q-206 0 -327 132t-121 370q0 237 120.5 364.5t327.5 127.5t328 -127.5t121 -364.5q0 -238 -121.5 -370t-327.5 -132zM522 772q-207 0 -207 -297q0 -309 207 -309q106 0 157.5 76t51.5 233q0 297 -209 297zM651 1079h-221l-237 310h311z" />
    <glyph glyph-name="oacute" unicode="&#xf3;" horiz-adv-x="1044" 
d="M522 -25q-206 0 -327 132t-121 370q0 237 120.5 364.5t327.5 127.5t328 -127.5t121 -364.5q0 -238 -121.5 -370t-327.5 -132zM522 772q-207 0 -207 -297q0 -309 207 -309q106 0 157.5 76t51.5 233q0 297 -209 297zM614 1079h-219l146 310h311z" />
    <glyph glyph-name="ocircumflex" unicode="&#xf4;" horiz-adv-x="1044" 
d="M522 -25q-206 0 -327 132t-121 370q0 237 120.5 364.5t327.5 127.5t328 -127.5t121 -364.5q0 -238 -121.5 -370t-327.5 -132zM522 772q-207 0 -207 -297q0 -309 207 -309q106 0 157.5 76t51.5 233q0 297 -209 297zM449 1393h149l270 -318h-231l-66 76q-17 20 -28 38
t-13 26l-2 8h-10q-4 -27 -43 -72l-65 -76h-232z" />
    <glyph glyph-name="otilde" unicode="&#xf5;" horiz-adv-x="1044" 
d="M522 -25q-206 0 -327 132t-121 370q0 237 120.5 364.5t327.5 127.5t328 -127.5t121 -364.5q0 -238 -121.5 -370t-327.5 -132zM522 772q-207 0 -207 -297q0 -309 207 -309q106 0 157.5 76t51.5 233q0 297 -209 297zM676 1073q-48 0 -78.5 10.5t-73.5 36.5q-7 4 -20 11.5
t-18 10.5t-15 8.5t-14.5 7.5t-12.5 5.5t-13 4.5t-11.5 2t-13.5 1q-35 0 -53 -25t-11 -75h-139q-51 112 2.5 205.5t167.5 93.5q43 0 73.5 -11t73.5 -36q75 -44 97 -50q12 -3 24 -3q68 0 55 96h146q50 -118 1 -205.5t-167 -87.5z" />
    <glyph glyph-name="odieresis" unicode="&#xf6;" horiz-adv-x="1044" 
d="M522 -25q-206 0 -327 132t-121 370q0 237 120.5 364.5t327.5 127.5t328 -127.5t121 -364.5q0 -238 -121.5 -370t-327.5 -132zM522 772q-207 0 -207 -297q0 -309 207 -309q106 0 157.5 76t51.5 233q0 297 -209 297zM160 1221q0 66 40.5 104.5t100.5 38.5q64 0 104.5 -38
t40.5 -105q0 -66 -41 -105t-104 -39q-59 0 -100 39.5t-41 104.5zM592 1219q0 67 40 105t101 38q63 0 103.5 -38t40.5 -105q0 -65 -40.5 -103.5t-103.5 -38.5q-60 0 -100.5 39t-40.5 103z" />
    <glyph glyph-name="divide" unicode="&#xf7;" horiz-adv-x="1019" 
d="M928 438h-836v140h836v-140zM393 166q0 46 31.5 78t77.5 32q44 0 76 -32t32 -78q0 -43 -32 -74t-76 -31q-45 0 -77 31t-32 74zM393 836q0 46 31.5 78t77.5 32q44 0 76 -32t32 -78q0 -43 -32 -74t-76 -31q-45 0 -77 31t-32 74z" />
    <glyph glyph-name="oslash" unicode="&#xf8;" horiz-adv-x="1044" 
d="M147 -31l-90 84l99 105q-82 127 -82 319q0 237 120.5 364.5t327.5 127.5q176 0 295 -99l90 99l97 -82l-105 -113q72 -122 72 -297q0 -238 -121.5 -370t-327.5 -132q-167 0 -284 91zM522 772q-207 0 -207 -297q0 -79 11 -133l342 369q-52 61 -146 61zM731 475q0 67 -8 111
l-340 -365q49 -55 139 -55q106 0 157.5 76t51.5 233z" />
    <glyph glyph-name="ugrave" unicode="&#xf9;" horiz-adv-x="1071" 
d="M725 0l-29 174q-28 -100 -99 -149.5t-194 -49.5q-133 0 -208.5 74.5t-75.5 233.5v663h243v-602q0 -93 34.5 -138.5t109.5 -45.5q78 0 132 66.5t54 195.5v524h244v-946h-211zM655 1079h-221l-237 310h311z" />
    <glyph glyph-name="uacute" unicode="&#xfa;" horiz-adv-x="1071" 
d="M725 0l-29 174q-28 -100 -99 -149.5t-194 -49.5q-133 0 -208.5 74.5t-75.5 233.5v663h243v-602q0 -93 34.5 -138.5t109.5 -45.5q78 0 132 66.5t54 195.5v524h244v-946h-211zM621 1079h-220l146 310h311z" />
    <glyph glyph-name="ucircumflex" unicode="&#xfb;" horiz-adv-x="1071" 
d="M725 0l-29 174q-28 -100 -99 -149.5t-194 -49.5q-133 0 -208.5 74.5t-75.5 233.5v663h243v-602q0 -93 34.5 -138.5t109.5 -45.5q78 0 132 66.5t54 195.5v524h244v-946h-211zM453 1393h149l270 -318h-231l-66 76q-17 20 -28 38t-13 26l-2 8h-10q-4 -27 -43 -72l-65 -76
h-232z" />
    <glyph glyph-name="udieresis" unicode="&#xfc;" horiz-adv-x="1071" 
d="M725 0l-29 174q-28 -100 -99 -149.5t-194 -49.5q-133 0 -208.5 74.5t-75.5 233.5v663h243v-602q0 -93 34.5 -138.5t109.5 -45.5q78 0 132 66.5t54 195.5v524h244v-946h-211zM164 1221q0 66 40.5 104.5t100.5 38.5q64 0 105 -38t41 -105q0 -66 -41.5 -105t-104.5 -39
q-59 0 -100 39.5t-41 104.5zM596 1219q0 67 40 105t101 38q63 0 103.5 -38t40.5 -105q0 -65 -40.5 -103.5t-103.5 -38.5q-60 0 -100.5 39t-40.5 103z" />
    <glyph glyph-name="yacute" unicode="&#xfd;" horiz-adv-x="960" 
d="M274 946l138 -461q24 -82 40.5 -157.5t21.5 -110.5l5 -35h8q15 119 70 303l139 461h256l-364 -1028q-38 -106 -82 -175t-97.5 -105.5t-108.5 -50t-130 -13.5q-68 0 -158 23l33 213q57 -31 123 -31q70 0 113.5 37.5t76.5 130.5l-350 999h266zM578 1079h-220l146 310h311z
" />
    <glyph glyph-name="thorn" unicode="&#xfe;" horiz-adv-x="1124" 
d="M379 526v-145q0 -61 17.5 -107t47 -71t62.5 -37t69 -12q100 0 165 82t65 237q0 151 -55.5 225t-155.5 74q-90 0 -152.5 -65.5t-62.5 -180.5zM379 125v-541h-244v1784h244v-596q25 70 73 115t105.5 63.5t126.5 18.5q174 0 270.5 -123.5t96.5 -349.5q0 -232 -108 -376.5
t-298 -144.5q-103 0 -173 43t-93 107z" />
    <glyph glyph-name="ydieresis" unicode="&#xff;" horiz-adv-x="960" 
d="M274 946l138 -461q24 -82 40.5 -157.5t21.5 -110.5l5 -35h8q15 119 70 303l139 461h256l-364 -1028q-38 -106 -82 -175t-97.5 -105.5t-108.5 -50t-130 -13.5q-68 0 -158 23l33 213q57 -31 123 -31q70 0 113.5 37.5t76.5 130.5l-350 999h266zM123 1221q0 66 40.5 104.5
t100.5 38.5q64 0 105 -38t41 -105q0 -66 -41.5 -105t-104.5 -39q-59 0 -100 39.5t-41 104.5zM555 1219q0 67 40 105t101 38q63 0 103.5 -38t40.5 -105q0 -65 -40.5 -103.5t-103.5 -38.5q-60 0 -100.5 39t-40.5 103z" />
    <glyph glyph-name="Amacron" unicode="&#x100;" horiz-adv-x="1228" 
d="M942 0l-98 279h-469l-94 -279h-261l439 1206h311l438 -1206h-266zM508 666l-64 -183h328l-63 181q-31 88 -55 171.5t-32 123.5l-8 40h-8q-30 -140 -98 -333zM907 1366h-592v197h592v-197z" />
    <glyph glyph-name="amacron" unicode="&#x101;" horiz-adv-x="1011" 
d="M602 293v110q-155 4 -225 -32t-70 -111q0 -48 32 -78t89 -30q68 0 121 36.5t53 104.5zM846 664v-398q0 -88 69 -88q24 0 58 15v-181q-49 -28 -137 -28q-179 0 -215 149q-61 -158 -277 -158q-128 0 -204.5 69t-76.5 189q0 162 133.5 242.5t405.5 65.5v100q0 69 -33 105
t-96 36q-127 0 -137 -143l-240 43q10 143 118 215t271 72q169 0 265 -75.5t96 -229.5zM774 1116h-579v199h579v-199z" />
    <glyph glyph-name="Abreve" unicode="&#x102;" horiz-adv-x="1228" 
d="M942 0l-98 279h-469l-94 -279h-261l439 1206h311l438 -1206h-266zM508 666l-64 -183h328l-63 181q-31 88 -55 171.5t-32 123.5l-8 40h-8q-30 -140 -98 -333zM610 1321q-148 0 -222.5 77.5t-74.5 215.5h185q2 -62 27 -91.5t85 -29.5t86 29.5t29 91.5h182
q0 -138 -74.5 -215.5t-222.5 -77.5z" />
    <glyph glyph-name="abreve" unicode="&#x103;" horiz-adv-x="1011" 
d="M602 293v110q-155 4 -225 -32t-70 -111q0 -48 32 -78t89 -30q68 0 121 36.5t53 104.5zM846 664v-398q0 -88 69 -88q24 0 58 15v-181q-49 -28 -137 -28q-179 0 -215 149q-61 -158 -277 -158q-128 0 -204.5 69t-76.5 189q0 162 133.5 242.5t405.5 65.5v100q0 69 -33 105
t-96 36q-127 0 -137 -143l-240 43q10 143 118 215t271 72q169 0 265 -75.5t96 -229.5zM487 1069q-146 0 -221.5 86t-75.5 225h185q2 -68 25 -101.5t87 -33.5q65 0 88.5 33t26.5 102h184q0 -139 -75.5 -225t-223.5 -86z" />
    <glyph glyph-name="Aogonek" unicode="&#x104;" horiz-adv-x="1228" 
d="M662 -207q0 61 23 111.5t62.5 83.5t80.5 54t87 34l-71 203h-469l-94 -279h-261l439 1206h311l438 -1206h-141q-84 0 -143.5 -43t-59.5 -121q0 -51 27.5 -79.5t75.5 -28.5q77 0 137 69l59 -123q-83 -106 -248 -106q-110 0 -181.5 56t-71.5 169zM508 666l-64 -183h328
l-63 181q-31 88 -55 171.5t-32 123.5l-8 40h-8q-30 -140 -98 -333z" />
    <glyph glyph-name="aogonek" unicode="&#x105;" horiz-adv-x="1011" 
d="M504 -207q0 87 50.5 148.5t123.5 93.5q-42 26 -57 98q-62 -158 -277 -158q-128 0 -204.5 69t-76.5 189q0 162 133.5 242.5t405.5 65.5v100q0 69 -33 105t-96 36q-127 0 -137 -143l-240 43q10 143 118 215t271 72q169 0 265 -75.5t96 -229.5v-398q0 -88 69 -88q24 0 58 15
v-181q-34 -6 -56.5 -11t-58 -14.5t-58.5 -22t-46.5 -30t-35 -42.5t-11.5 -56q0 -51 27.5 -79.5t74.5 -28.5q77 0 137 69l60 -123q-83 -106 -248 -106q-110 0 -182 56t-72 169zM602 293v110q-155 4 -225 -32t-70 -111q0 -48 32 -78t89 -30q68 0 121 36.5t53 104.5z" />
    <glyph glyph-name="Cacute" unicode="&#x106;" horiz-adv-x="1183" 
d="M932 373l207 -129q-57 -94 -124 -151.5t-161.5 -87.5t-222.5 -30q-248 0 -396.5 165.5t-148.5 461.5q0 299 155.5 464t426.5 165q344 0 477 -301l-238 -115q-64 199 -250 199q-147 0 -231 -111t-84 -305q0 -192 79.5 -297.5t233.5 -105.5q189 0 277 178zM754 1329h-224
l132 279h311z" />
    <glyph glyph-name="cacute" unicode="&#x107;" horiz-adv-x="954" 
d="M692 313l215 -63q-25 -137 -130 -206t-259 -69q-203 0 -323.5 130.5t-120.5 363.5q0 234 122 367t328 133q162 0 261 -82t108 -223l-209 -56q-25 166 -164 166q-101 0 -155 -81t-54 -222q0 -140 57 -222.5t156 -82.5q66 0 108 34t60 113zM627 1079h-219l145 310h311z" />
    <glyph glyph-name="Ccircumflex" unicode="&#x108;" horiz-adv-x="1183" 
d="M932 373l207 -129q-57 -94 -124 -151.5t-161.5 -87.5t-222.5 -30q-248 0 -396.5 165.5t-148.5 461.5q0 299 155.5 464t426.5 165q344 0 477 -301l-238 -115q-64 199 -250 199q-147 0 -231 -111t-84 -305q0 -192 79.5 -297.5t233.5 -105.5q189 0 277 178zM582 1616h155
l269 -287h-236l-63 66q-16 16 -27 32t-14 23l-2 8h-9q-6 -26 -43 -63l-63 -66h-236z" />
    <glyph glyph-name="ccircumflex" unicode="&#x109;" horiz-adv-x="954" 
d="M692 313l215 -63q-25 -137 -130 -206t-259 -69q-203 0 -323.5 130.5t-120.5 363.5q0 234 122 367t328 133q162 0 261 -82t108 -223l-209 -56q-25 166 -164 166q-101 0 -155 -81t-54 -222q0 -140 57 -222.5t156 -82.5q66 0 108 34t60 113zM444 1393h150l270 -318h-231
l-66 76q-17 20 -28 38t-13 26l-2 8h-10q-4 -27 -43 -72l-65 -76h-232z" />
    <glyph glyph-name="Cdotaccent" unicode="&#x10a;" horiz-adv-x="1183" 
d="M932 373l207 -129q-57 -94 -124 -151.5t-161.5 -87.5t-222.5 -30q-248 0 -396.5 165.5t-148.5 461.5q0 299 155.5 464t426.5 165q344 0 477 -301l-238 -115q-64 199 -250 199q-147 0 -231 -111t-84 -305q0 -192 79.5 -297.5t233.5 -105.5q189 0 277 178zM492 1475
q0 68 43 107.5t108 39.5q70 0 114 -39t44 -108q0 -66 -44.5 -106t-113.5 -40q-65 0 -108 40t-43 106z" />
    <glyph glyph-name="cdotaccent" unicode="&#x10b;" horiz-adv-x="954" 
d="M692 313l215 -63q-25 -137 -130 -206t-259 -69q-203 0 -323.5 130.5t-120.5 363.5q0 234 122 367t328 133q162 0 261 -82t108 -223l-209 -56q-25 166 -164 166q-101 0 -155 -81t-54 -222q0 -140 57 -222.5t156 -82.5q66 0 108 34t60 113zM367 1217q0 67 43.5 107
t107.5 40q69 0 113.5 -39.5t44.5 -107.5q0 -66 -44.5 -106t-113.5 -40q-64 0 -107.5 40t-43.5 106z" />
    <glyph glyph-name="Ccaron" unicode="&#x10c;" horiz-adv-x="1183" 
d="M932 373l207 -129q-57 -94 -124 -151.5t-161.5 -87.5t-222.5 -30q-248 0 -396.5 165.5t-148.5 461.5q0 299 155.5 464t426.5 165q344 0 477 -301l-238 -115q-64 199 -250 199q-147 0 -231 -111t-84 -305q0 -192 79.5 -297.5t233.5 -105.5q189 0 277 178zM717 1325h-156
l-268 287h235l64 -66q16 -17 27 -33t13 -23l3 -7h8q6 24 43 63l64 66h235z" />
    <glyph glyph-name="ccaron" unicode="&#x10d;" horiz-adv-x="954" 
d="M692 313l215 -63q-25 -137 -130 -206t-259 -69q-203 0 -323.5 130.5t-120.5 363.5q0 234 122 367t328 133q162 0 261 -82t108 -223l-209 -56q-25 166 -164 166q-101 0 -155 -81t-54 -222q0 -140 57 -222.5t156 -82.5q66 0 108 34t60 113zM600 1075h-149l-271 318h232
l65 -76q17 -20 28 -38t13 -26l2 -8h10q4 27 43 72l66 76h231z" />
    <glyph glyph-name="Dcaron" unicode="&#x10e;" horiz-adv-x="1255" 
d="M410 209h135q176 0 270 92t94 301q0 90 -17 158t-46.5 113t-74 73t-95.5 39.5t-115 11.5h-151v-788zM569 0h-407v1206h422q129 0 233 -33.5t184 -102t124 -184t44 -270.5q0 -131 -30 -235t-83.5 -174.5t-129.5 -117.5t-164.5 -68t-192.5 -21zM651 1325h-155l-269 287h236
l63 -66q16 -17 27 -33t13 -23l3 -7h9q6 24 43 63l63 66h236z" />
    <glyph glyph-name="dcaron" unicode="&#x10f;" horiz-adv-x="1124" 
d="M1397 1405l-115 -363h-176l33 363h258zM748 387v188q0 103 -60 157t-143 54q-99 0 -162.5 -77t-63.5 -244q0 -144 60 -222.5t164 -78.5q79 0 142 60t63 163zM745 821v547h244v-1368h-213l-28 164q-54 -189 -297 -189q-163 0 -270 126.5t-107 353.5q0 243 110.5 378.5
t311.5 135.5q90 0 159.5 -41.5t89.5 -106.5z" />
    <glyph glyph-name="Dcroat" unicode="&#x110;" horiz-adv-x="1255" 
d="M569 0h-407v506h-129v203h129v497h422q129 0 233 -33.5t184 -102t124 -184t44 -270.5q0 -131 -30 -235t-83.5 -174.5t-129.5 -117.5t-164.5 -68t-192.5 -21zM410 209h135q176 0 270 92t94 301q0 90 -17 158t-46.5 113t-74 73t-95.5 39.5t-115 11.5h-151v-288h202v-203
h-202v-297z" />
    <glyph glyph-name="dcroat" unicode="&#x111;" horiz-adv-x="1124" 
d="M453 1069v156h292v143h244v-143h141v-156h-141v-1069h-213l-28 164q-54 -189 -297 -189q-163 0 -270 126.5t-107 353.5q0 243 110.5 378.5t311.5 135.5q90 0 159.5 -41.5t89.5 -106.5v248h-292zM748 387v188q0 103 -60 157t-143 54q-99 0 -162.5 -77t-63.5 -244
q0 -144 60 -222.5t164 -78.5q79 0 142 60t63 163z" />
    <glyph glyph-name="Emacron" unicode="&#x112;" horiz-adv-x="1050" 
d="M948 215v-215h-786v1206h786v-215h-538v-278h475v-209h-475v-289h538zM852 1366h-592v197h592v-197z" />
    <glyph glyph-name="emacron" unicode="&#x113;" horiz-adv-x="993" 
d="M526 164q138 0 181 137l208 -68q-32 -134 -139 -196t-258 -62q-201 0 -322.5 129t-121.5 357q0 241 120.5 374.5t329.5 133.5q189 0 290 -113.5t101 -300.5q0 -75 -14 -127h-592q5 -122 61 -193t156 -71zM315 573h365q2 14 2 35q0 78 -44.5 127t-123.5 49
q-84 0 -136 -56.5t-63 -154.5zM801 1116h-580v199h580v-199z" />
    <glyph glyph-name="Ebreve" unicode="&#x114;" horiz-adv-x="1050" 
d="M948 215v-215h-786v1206h786v-215h-538v-278h475v-209h-475v-289h538zM541 1321q-148 0 -222.5 77.5t-74.5 215.5h184q2 -61 27 -91t86 -30q60 0 85.5 29.5t28.5 91.5h183q0 -138 -74.5 -215.5t-222.5 -77.5z" />
    <glyph glyph-name="ebreve" unicode="&#x115;" horiz-adv-x="993" 
d="M526 164q138 0 181 137l208 -68q-32 -134 -139 -196t-258 -62q-201 0 -322.5 129t-121.5 357q0 241 120.5 374.5t329.5 133.5q189 0 290 -113.5t101 -300.5q0 -75 -14 -127h-592q5 -122 61 -193t156 -71zM315 573h365q2 14 2 35q0 78 -44.5 127t-123.5 49
q-84 0 -136 -56.5t-63 -154.5zM514 1069q-146 0 -221.5 86t-75.5 225h184q2 -68 25.5 -101.5t87.5 -33.5q65 0 88.5 33t26.5 102h184q0 -139 -75.5 -225t-223.5 -86z" />
    <glyph glyph-name="Edotaccent" unicode="&#x116;" horiz-adv-x="1050" 
d="M948 215v-215h-786v1206h786v-215h-538v-278h475v-209h-475v-289h538zM397 1473q0 68 43.5 107.5t108.5 39.5q70 0 114 -39t44 -108q0 -66 -44.5 -106t-113.5 -40q-65 0 -108.5 40t-43.5 106z" />
    <glyph glyph-name="edotaccent" unicode="&#x117;" horiz-adv-x="993" 
d="M526 164q138 0 181 137l208 -68q-32 -134 -139 -196t-258 -62q-201 0 -322.5 129t-121.5 357q0 241 120.5 374.5t329.5 133.5q189 0 290 -113.5t101 -300.5q0 -75 -14 -127h-592q5 -122 61 -193t156 -71zM315 573h365q2 14 2 35q0 78 -44.5 127t-123.5 49
q-84 0 -136 -56.5t-63 -154.5zM354 1217q0 67 44 107t108 40q69 0 113.5 -39.5t44.5 -107.5q0 -66 -44.5 -106t-113.5 -40q-64 0 -108 40t-44 106z" />
    <glyph glyph-name="Eogonek" unicode="&#x118;" horiz-adv-x="1050" 
d="M948 215v-215h-59q-92 0 -142.5 -41.5t-50.5 -116.5q0 -55 27.5 -84.5t75.5 -29.5q77 0 137 69l59 -123q-83 -106 -247 -106q-110 0 -182 56t-72 169q0 137 133 207h-465v1206h786v-215h-538v-278h475v-209h-475v-289h538z" />
    <glyph glyph-name="eogonek" unicode="&#x119;" horiz-adv-x="993" 
d="M362 -207q0 112 80 189q-170 24 -269 148.5t-99 330.5q0 241 120.5 374.5t329.5 133.5q189 0 290 -113.5t101 -300.5q0 -75 -14 -127h-592q5 -122 61 -193t156 -71q138 0 181 137l208 -68q-24 -98 -82 -150t-139 -81q-70 -25 -99.5 -64.5t-29.5 -95.5q0 -55 27.5 -84.5
t75.5 -29.5q77 0 137 69l59 -123q-83 -106 -248 -106q-110 0 -182 56t-72 169zM315 573h365q2 14 2 35q0 78 -44.5 127t-123.5 49q-84 0 -136 -56.5t-63 -154.5z" />
    <glyph glyph-name="Ecaron" unicode="&#x11a;" horiz-adv-x="1050" 
d="M948 215v-215h-786v1206h786v-215h-538v-278h475v-209h-475v-289h538zM623 1325h-156l-268 287h235l64 -66q16 -17 27 -33t13 -23l3 -7h8q6 24 43 63l63 66h236z" />
    <glyph glyph-name="ecaron" unicode="&#x11b;" horiz-adv-x="993" 
d="M526 164q138 0 181 137l208 -68q-32 -134 -139 -196t-258 -62q-201 0 -322.5 129t-121.5 357q0 241 120.5 374.5t329.5 133.5q189 0 290 -113.5t101 -300.5q0 -75 -14 -127h-592q5 -122 61 -193t156 -71zM315 573h365q2 14 2 35q0 78 -44.5 127t-123.5 49
q-84 0 -136 -56.5t-63 -154.5zM590 1075h-150l-270 318h231l66 -76q17 -20 28 -38t13 -26l2 -8h10q4 27 43 72l66 76h231z" />
    <glyph glyph-name="Gcircumflex" unicode="&#x11c;" horiz-adv-x="1275" 
d="M647 637h508v-637h-166l-37 141q-41 -81 -130.5 -123.5t-200.5 -42.5q-243 0 -389 159.5t-146 463.5q0 300 155.5 466.5t426.5 166.5q177 0 297.5 -77t179.5 -224l-238 -115q-30 98 -94.5 148.5t-155.5 50.5q-62 0 -116.5 -23.5t-100 -71t-72 -131t-26.5 -192.5
q0 -91 18 -165.5t54.5 -132t98 -89t142.5 -31.5q121 0 190.5 53.5t69.5 145.5v57h-268v203zM592 1616h156l268 -287h-236l-63 66q-16 16 -27 32t-14 23l-2 8h-8q-6 -26 -43 -63l-64 -66h-235z" />
    <glyph glyph-name="gcircumflex" unicode="&#x11d;" horiz-adv-x="1015" 
d="M483 969q164 0 271 -66q31 26 44.5 55.5t26.5 88.5l197 -66q-7 -65 -54.5 -111t-111.5 -65q43 -67 43 -170q0 -106 -57.5 -181.5t-151 -111t-211.5 -35.5q-74 0 -117 15q-51 -30 -51 -84q0 -31 21.5 -48.5t62.5 -17.5h256q159 0 246.5 -73t87.5 -199q0 -64 -21 -116
t-60 -87.5t-89 -61t-112.5 -40t-124.5 -21t-132 -6.5q-89 0 -163 12t-136.5 38.5t-97.5 75.5t-35 116q0 87 62.5 138t185.5 60q-67 6 -106 52t-39 110q0 60 38 108.5t113 69.5q-192 80 -192 287q0 160 110 247t297 87zM240 -150q0 -116 233 -116q147 0 214 29t67 96
q0 47 -30.5 70.5t-100.5 23.5h-224q-74 0 -116.5 -26t-42.5 -77zM322 635q0 -74 42 -119t119 -45q79 0 122.5 42.5t43.5 121.5q0 82 -43.5 124t-122.5 40q-78 0 -119.5 -43t-41.5 -121zM444 1405h150l270 -318h-231l-66 76q-17 20 -28 38t-13 26l-2 8h-10q-4 -27 -43 -72
l-65 -76h-232z" />
    <glyph glyph-name="Gbreve" unicode="&#x11e;" horiz-adv-x="1275" 
d="M647 637h508v-637h-166l-37 141q-41 -81 -130.5 -123.5t-200.5 -42.5q-243 0 -389 159.5t-146 463.5q0 300 155.5 466.5t426.5 166.5q177 0 297.5 -77t179.5 -224l-238 -115q-30 98 -94.5 148.5t-155.5 50.5q-62 0 -116.5 -23.5t-100 -71t-72 -131t-26.5 -192.5
q0 -91 18 -165.5t54.5 -132t98 -89t142.5 -31.5q121 0 190.5 53.5t69.5 145.5v57h-268v203zM670 1321q-148 0 -222.5 77.5t-74.5 215.5h184q2 -61 27 -91t86 -30q60 0 85.5 29.5t28.5 91.5h183q0 -138 -74.5 -215.5t-222.5 -77.5z" />
    <glyph glyph-name="gbreve" unicode="&#x11f;" horiz-adv-x="1015" 
d="M483 969q164 0 271 -66q31 26 44.5 55.5t26.5 88.5l197 -66q-7 -65 -54.5 -111t-111.5 -65q43 -67 43 -170q0 -106 -57.5 -181.5t-151 -111t-211.5 -35.5q-74 0 -117 15q-51 -30 -51 -84q0 -31 21.5 -48.5t62.5 -17.5h256q159 0 246.5 -73t87.5 -199q0 -64 -21 -116
t-60 -87.5t-89 -61t-112.5 -40t-124.5 -21t-132 -6.5q-89 0 -163 12t-136.5 38.5t-97.5 75.5t-35 116q0 87 62.5 138t185.5 60q-67 6 -106 52t-39 110q0 60 38 108.5t113 69.5q-192 80 -192 287q0 160 110 247t297 87zM240 -150q0 -116 233 -116q147 0 214 29t67 96
q0 47 -30.5 70.5t-100.5 23.5h-224q-74 0 -116.5 -26t-42.5 -77zM322 635q0 -74 42 -119t119 -45q79 0 122.5 42.5t43.5 121.5q0 82 -43.5 124t-122.5 40q-78 0 -119.5 -43t-41.5 -121zM494 1069q-146 0 -221.5 86t-75.5 225h184q2 -68 25.5 -101.5t87.5 -33.5q65 0 88 32.5
t26 102.5h185q0 -139 -75.5 -225t-223.5 -86z" />
    <glyph glyph-name="Gdotaccent" unicode="&#x120;" horiz-adv-x="1275" 
d="M647 637h508v-637h-166l-37 141q-41 -81 -130.5 -123.5t-200.5 -42.5q-243 0 -389 159.5t-146 463.5q0 300 155.5 466.5t426.5 166.5q177 0 297.5 -77t179.5 -224l-238 -115q-30 98 -94.5 148.5t-155.5 50.5q-62 0 -116.5 -23.5t-100 -71t-72 -131t-26.5 -192.5
q0 -91 18 -165.5t54.5 -132t98 -89t142.5 -31.5q121 0 190.5 53.5t69.5 145.5v57h-268v203zM516 1489q0 68 43.5 107.5t108.5 39.5q69 0 113 -39t44 -108q0 -66 -44 -106t-113 -40q-65 0 -108.5 40t-43.5 106z" />
    <glyph glyph-name="gdotaccent" unicode="&#x121;" horiz-adv-x="1015" 
d="M483 969q164 0 271 -66q31 26 44.5 55.5t26.5 88.5l197 -66q-7 -65 -54.5 -111t-111.5 -65q43 -67 43 -170q0 -106 -57.5 -181.5t-151 -111t-211.5 -35.5q-74 0 -117 15q-51 -30 -51 -84q0 -31 21.5 -48.5t62.5 -17.5h256q159 0 246.5 -73t87.5 -199q0 -64 -21 -116
t-60 -87.5t-89 -61t-112.5 -40t-124.5 -21t-132 -6.5q-89 0 -163 12t-136.5 38.5t-97.5 75.5t-35 116q0 87 62.5 138t185.5 60q-67 6 -106 52t-39 110q0 60 38 108.5t113 69.5q-192 80 -192 287q0 160 110 247t297 87zM240 -150q0 -116 233 -116q147 0 214 29t67 96
q0 47 -30.5 70.5t-100.5 23.5h-224q-74 0 -116.5 -26t-42.5 -77zM322 635q0 -74 42 -119t119 -45q79 0 122.5 42.5t43.5 121.5q0 82 -43.5 124t-122.5 40q-78 0 -119.5 -43t-41.5 -121zM332 1221q0 67 43.5 107t107.5 40q69 0 113.5 -39.5t44.5 -107.5q0 -66 -44.5 -106
t-113.5 -40q-64 0 -107.5 40t-43.5 106z" />
    <glyph glyph-name="Gcommaaccent" unicode="&#x122;" horiz-adv-x="1275" 
d="M647 637h508v-637h-166l-37 141q-41 -81 -130.5 -123.5t-200.5 -42.5q-243 0 -389 159.5t-146 463.5q0 300 155.5 466.5t426.5 166.5q177 0 297.5 -77t179.5 -224l-238 -115q-30 98 -94.5 148.5t-155.5 50.5q-62 0 -116.5 -23.5t-100 -71t-72 -131t-26.5 -192.5
q0 -91 18 -165.5t54.5 -132t98 -89t142.5 -31.5q121 0 190.5 53.5t69.5 145.5v57h-268v203zM831 -289q0 -227 -276 -227v86q67 2 99 20t32 62q-59 -9 -100 20t-41 88t38 92t97 33q65 0 108 -48.5t43 -125.5z" />
    <glyph glyph-name="gcommaaccent" unicode="&#x123;" horiz-adv-x="1015" 
d="M483 969q164 0 271 -66q31 26 44.5 55.5t26.5 88.5l197 -66q-7 -65 -54.5 -111t-111.5 -65q43 -67 43 -170q0 -106 -57.5 -181.5t-151 -111t-211.5 -35.5q-74 0 -117 15q-51 -30 -51 -84q0 -31 21.5 -48.5t62.5 -17.5h256q159 0 246.5 -73t87.5 -199q0 -64 -21 -116
t-60 -87.5t-89 -61t-112.5 -40t-124.5 -21t-132 -6.5q-89 0 -163 12t-136.5 38.5t-97.5 75.5t-35 116q0 87 62.5 138t185.5 60q-67 6 -106 52t-39 110q0 60 38 108.5t113 69.5q-192 80 -192 287q0 160 110 247t297 87zM240 -150q0 -116 233 -116q147 0 214 29t67 96
q0 47 -30.5 70.5t-100.5 23.5h-224q-74 0 -116.5 -26t-42.5 -77zM322 635q0 -74 42 -119t119 -45q79 0 122.5 42.5t43.5 121.5q0 82 -43.5 124t-122.5 40q-78 0 -119.5 -43t-41.5 -121zM344 1247q0 228 279 228v-86q-68 -2 -99.5 -20t-31.5 -62q58 9 98.5 -20.5t40.5 -88.5
t-38 -92t-97 -33q-65 0 -108.5 48.5t-43.5 125.5z" />
    <glyph glyph-name="Hcircumflex" unicode="&#x124;" horiz-adv-x="1320" 
d="M410 0h-248v1206h248v-485h501v485h248v-1206h-248v504h-501v-504zM584 1616h155l269 -287h-236l-63 66q-16 16 -27 32t-14 23l-2 8h-9q-6 -26 -43 -63l-63 -66h-236z" />
    <glyph glyph-name="hcircumflex" unicode="&#x125;" horiz-adv-x="1077" 
d="M379 1368v-602q73 203 293 203q122 0 201 -74t79 -223v-672h-243v586q0 176 -140 176q-84 0 -137 -54t-53 -180v-528h-244v1368h244zM188 1733h156l268 -287h-235l-64 65q-16 16 -27 32t-14 24l-2 8h-8q-6 -27 -43 -64l-63 -65h-236z" />
    <glyph glyph-name="Hbar" unicode="&#x126;" horiz-adv-x="1345" 
d="M18 848v194h154v164h250v-164h500v164h247v-164h158v-194h-158v-848h-247v492h-500v-492h-250v848h-154zM422 694h500v154h-500v-154z" />
    <glyph glyph-name="hbar" unicode="&#x127;" horiz-adv-x="1077" 
d="M379 1368v-143h289v-156h-289v-303q73 203 293 203q122 0 201 -74t79 -223v-672h-243v586q0 176 -140 176q-84 0 -137 -54t-53 -180v-528h-244v1069h-145v156h145v143h244z" />
    <glyph glyph-name="Itilde" unicode="&#x128;" horiz-adv-x="571" 
d="M162 1206h248v-1206h-248v1206zM440 1331q-46 0 -75.5 10.5t-75.5 36.5q-7 4 -22 13t-20.5 12l-16.5 9t-16.5 8t-14 5t-15.5 4t-14 1q-35 0 -53 -24.5t-11 -74.5h-139q-31 76 -20 142.5t63.5 111.5t126.5 45q70 0 148 -45q5 -3 14 -8q66 -40 92 -44q7 -1 15 -1
q68 0 55 96h145q50 -120 1 -208.5t-167 -88.5z" />
    <glyph glyph-name="itilde" unicode="&#x129;" horiz-adv-x="514" 
d="M412 1073q-48 0 -78.5 10.5t-73.5 36.5q-5 3 -17.5 10t-17 9.5t-14 8t-13.5 7.5t-11.5 5.5t-12 4.5t-10.5 3t-11.5 2.5t-11.5 0.5q-34 0 -52 -25t-11 -75h-139q-51 112 2.5 205.5t167.5 93.5q43 0 73.5 -11t73.5 -36q5 -3 14 -8q66 -40 92 -44q7 -1 15 -1q68 0 55 96h146
q50 -118 1 -205.5t-167 -87.5zM135 946h244v-946h-244v946z" />
    <glyph glyph-name="Imacron" unicode="&#x12a;" horiz-adv-x="571" 
d="M162 1206h248v-1206h-248v1206zM582 1366h-592v197h592v-197z" />
    <glyph glyph-name="imacron" unicode="&#x12b;" horiz-adv-x="514" 
d="M510 1116h-508v199h508v-199zM135 946h244v-946h-244v946z" />
    <glyph glyph-name="Ibreve" unicode="&#x12c;" horiz-adv-x="571" 
d="M162 1206h248v-1206h-248v1206zM287 1321q-148 0 -222.5 77.5t-74.5 215.5h184q2 -61 27 -91t86 -30q60 0 85.5 29.5t28.5 91.5h183q0 -138 -74.5 -215.5t-222.5 -77.5z" />
    <glyph glyph-name="Iogonek" unicode="&#x12e;" horiz-adv-x="571" 
d="M4 -207q0 157 158 240v1173h248v-1206q-84 0 -143.5 -43t-59.5 -121q0 -51 27.5 -79.5t76.5 -28.5q78 0 135 69l60 -123q-83 -106 -248 -106q-110 0 -182 56t-72 169z" />
    <glyph glyph-name="iogonek" unicode="&#x12f;" horiz-adv-x="514" 
d="M-27 -207q0 159 162 242v911h244v-946q-84 0 -143.5 -42.5t-59.5 -121.5q0 -51 27.5 -79.5t77.5 -28.5q78 0 135 69l59 -123q-83 -106 -248 -106q-110 0 -182 56t-72 169zM104 1239q0 68 44 107.5t108 39.5q68 0 113 -39.5t45 -107.5q0 -66 -45 -104.5t-113 -38.5
q-64 0 -108 39t-44 104z" />
    <glyph glyph-name="Idotaccent" unicode="&#x130;" horiz-adv-x="571" 
d="M162 1206h248v-1206h-248v1206zM133 1477q0 68 43.5 107.5t108.5 39.5q69 0 113 -39t44 -108q0 -66 -44 -106t-113 -40q-65 0 -108.5 40t-43.5 106z" />
    <glyph glyph-name="dotlessi" unicode="&#x131;" horiz-adv-x="514" 
d="M135 946h244v-946h-244v946z" />
    <glyph glyph-name="IJ" unicode="&#x132;" horiz-adv-x="1464" 
d="M162 1206h248v-1206h-248v1206zM1090 1206h247v-856q0 -100 -32 -174.5t-89 -117t-128.5 -63t-157.5 -20.5q-285 0 -404 234l187 160q41 -99 90 -144t125 -45q91 0 126.5 53t35.5 164v809z" />
    <glyph glyph-name="ij" unicode="&#x133;" horiz-adv-x="1028" 
d="M104 1239q0 68 44 107.5t108 39.5q68 0 113 -39.5t45 -107.5q0 -66 -45 -104.5t-113 -38.5q-64 0 -108 39t-44 104zM135 946h244v-946h-244v946zM649 946h244v-944q0 -153 -64.5 -250.5t-176 -136t-267.5 -29.5v205q138 -16 201 35.5t63 202.5v917zM616 1239
q0 68 43.5 107.5t108.5 39.5q70 0 114 -39t44 -108q0 -66 -44.5 -104.5t-113.5 -38.5q-65 0 -108.5 38.5t-43.5 104.5z" />
    <glyph glyph-name="Jcircumflex" unicode="&#x134;" horiz-adv-x="937" 
d="M563 1206h248v-856q0 -100 -32 -174.5t-89.5 -117t-129 -63t-157.5 -20.5q-284 0 -403 234l186 160q41 -99 90 -144t125 -45q91 0 126.5 53t35.5 164v809zM604 1616h156l268 -287h-235l-64 66q-16 16 -27 32t-14 23l-2 8h-8q-6 -26 -43 -63l-64 -66h-235z" />
    <glyph glyph-name="jcircumflex" unicode="&#x135;" horiz-adv-x="514" 
d="M135 946h244v-944q0 -153 -65 -250.5t-176.5 -136t-268.5 -29.5v205q140 -16 203 35.5t63 202.5v917zM178 1393h150l270 -318h-231l-66 76q-17 20 -28 38t-13 26l-2 8h-10q-4 -27 -43 -72l-66 -76h-231z" />
    <glyph glyph-name="Kcommaaccent" unicode="&#x136;" horiz-adv-x="1159" 
d="M1130 0h-296l-345 504h-79v-504h-248v1206h248v-485h84l315 485h287l-394 -583zM729 -289q0 -227 -276 -227v86q67 2 99 20t32 62q-59 -9 -100.5 20t-41.5 88t38.5 92t97.5 33q65 0 108 -48.5t43 -125.5z" />
    <glyph glyph-name="kcommaaccent" unicode="&#x137;" horiz-adv-x="1028" 
d="M635 506l377 -506h-289l-287 401h-57v-401h-244v1368h244v-778h51l264 356h287zM680 -289q0 -227 -277 -227v86q67 2 99.5 20t32.5 62q-59 -9 -100.5 20t-41.5 88t38 92t97 33q65 0 108.5 -48.5t43.5 -125.5z" />
    <glyph glyph-name="kgreenlandic" unicode="&#x138;" horiz-adv-x="1028" 
d="M635 506l377 -506h-289l-287 401h-57v-401h-244v946h242v-356h53l264 356h287z" />
    <glyph glyph-name="Lacute" unicode="&#x139;" horiz-adv-x="958" 
d="M162 1206h248v-991h495v-215h-743v1206zM395 1329h-223l131 279h311z" />
    <glyph glyph-name="lacute" unicode="&#x13a;" horiz-adv-x="573" 
d="M520 209l-10 -205q-83 -22 -143 -22q-108 0 -178 56t-70 173v1157h243v-1089q0 -42 24 -63t63 -21q36 0 71 14zM350 1479h-223l131 278h311z" />
    <glyph glyph-name="Lcommaaccent" unicode="&#x13b;" horiz-adv-x="958" 
d="M162 1206h248v-991h495v-215h-743v1206zM696 -289q0 -227 -276 -227v86q67 2 99 20t32 62q-59 -9 -100 20t-41 88t38 92t97 33q65 0 108 -48.5t43 -125.5z" />
    <glyph glyph-name="lcommaaccent" unicode="&#x13c;" horiz-adv-x="573" 
d="M520 209l-10 -205q-83 -22 -143 -22q-108 0 -178 56t-70 173v1157h243v-1089q0 -42 24 -63t63 -21q36 0 71 14zM471 -289q0 -227 -276 -227v86q67 2 99 20t32 62q-59 -9 -100.5 20t-41.5 88t38 92t97 33q65 0 108.5 -48.5t43.5 -125.5z" />
    <glyph glyph-name="Lcaron" unicode="&#x13d;" horiz-adv-x="958" 
d="M162 1206h248v-991h495v-215h-743v1206zM911 1266l-114 -387h-176l32 387h258z" />
    <glyph glyph-name="lcaron" unicode="&#x13e;" horiz-adv-x="573" 
d="M770 1405l-113 -363h-176l31 363h258zM520 209l-10 -205q-83 -22 -143 -22q-108 0 -178 56t-70 173v1157h243v-1089q0 -42 24 -63t63 -21q36 0 71 14z" />
    <glyph glyph-name="Ldot" unicode="&#x13f;" horiz-adv-x="958" 
d="M162 1206h248v-991h495v-215h-743v1206zM543 676q0 72 47 120t115 48q71 0 118 -48t47 -120q0 -68 -47.5 -114t-117.5 -46q-68 0 -115 46.5t-47 113.5z" />
    <glyph glyph-name="ldot" unicode="&#x140;" horiz-adv-x="737" 
d="M520 209l-10 -205q-83 -22 -143 -22q-108 0 -178 56t-70 173v1157h243v-1089q0 -42 24 -63t63 -21q36 0 71 14zM457 664q0 72 46.5 119.5t114.5 47.5q71 0 118.5 -47.5t47.5 -119.5q0 -68 -48 -114t-118 -46q-68 0 -114.5 46.5t-46.5 113.5z" />
    <glyph glyph-name="Lslash" unicode="&#x141;" horiz-adv-x="980" 
d="M61 438v170l123 43v555h248v-465l281 101v-174l-281 -101v-352h496v-215h-744v481z" />
    <glyph glyph-name="lslash" unicode="&#x142;" horiz-adv-x="604" 
d="M16 510v184l127 64v610h244v-489l164 82v-185l-164 -82v-415q0 -42 23.5 -63t62.5 -21q37 0 72 14l-10 -205q-83 -22 -144 -22q-108 0 -178 56t-70 173v362z" />
    <glyph glyph-name="Nacute" unicode="&#x143;" horiz-adv-x="1366" 
d="M401 1206l443 -618q30 -44 58 -90t41 -70l13 -25h9q-9 111 -9 265v538h248v-1206h-231l-445 612q-34 46 -64.5 95.5t-43.5 75.5l-14 26h-9q13 -109 13 -277v-532h-248v1206h239zM780 1329h-223l131 279h311z" />
    <glyph glyph-name="nacute" unicode="&#x144;" horiz-adv-x="1077" 
d="M340 946l29 -182q74 205 303 205q122 0 201 -74t79 -223v-672h-243v586q0 176 -140 176q-83 0 -136.5 -54.5t-53.5 -179.5v-528h-244v946h205zM641 1079h-219l145 310h312z" />
    <glyph glyph-name="Ncommaaccent" unicode="&#x145;" horiz-adv-x="1366" 
d="M401 1206l443 -618q30 -44 58 -90t41 -70l13 -25h9q-9 111 -9 265v538h248v-1206h-231l-445 612q-34 46 -64.5 95.5t-43.5 75.5l-14 26h-9q13 -109 13 -277v-532h-248v1206h239zM846 -289q0 -227 -277 -227v86q67 2 99 20t32 62q-59 -9 -100 20t-41 88t38 92t97 33
q65 0 108.5 -48.5t43.5 -125.5z" />
    <glyph glyph-name="ncommaaccent" unicode="&#x146;" horiz-adv-x="1077" 
d="M340 946l29 -182q74 205 303 205q122 0 201 -74t79 -223v-672h-243v586q0 176 -140 176q-83 0 -136.5 -54.5t-53.5 -179.5v-528h-244v946h205zM692 -289q0 -227 -276 -227v86q67 2 99 20t32 62q-59 -9 -100 20t-41 88t38 92t97 33q65 0 108 -48.5t43 -125.5z" />
    <glyph glyph-name="Ncaron" unicode="&#x147;" horiz-adv-x="1366" 
d="M401 1206l443 -618q30 -44 58 -90t41 -70l13 -25h9q-9 111 -9 265v538h248v-1206h-231l-445 612q-34 46 -64.5 95.5t-43.5 75.5l-14 26h-9q13 -109 13 -277v-532h-248v1206h239zM762 1325h-156l-268 287h235l64 -66q16 -17 27 -33t14 -23l2 -7h8q6 24 43 63l64 66h235z
" />
    <glyph glyph-name="ncaron" unicode="&#x148;" horiz-adv-x="1077" 
d="M340 946l29 -182q74 205 303 205q122 0 201 -74t79 -223v-672h-243v586q0 176 -140 176q-83 0 -136.5 -54.5t-53.5 -179.5v-528h-244v946h205zM623 1075h-150l-270 318h231l66 -76q17 -20 28 -38t13 -26l2 -8h10q4 27 43 72l66 76h231z" />
    <glyph glyph-name="Eng" unicode="&#x14a;" horiz-adv-x="1366" 
d="M1204 1206v-1263q0 -103 -33.5 -178t-93 -117t-130 -61t-154.5 -19q-225 0 -357 139l139 199q36 -60 94.5 -95.5t116.5 -35.5q94 0 132 52.5t38 162.5v33l-428 589q-34 46 -64.5 95.5t-43.5 75.5l-14 26h-9q13 -109 13 -277v-532h-248v1206h239l443 -618q30 -44 58 -90
t41 -70l13 -25h9q-9 111 -9 265v538h248z" />
    <glyph glyph-name="eng" unicode="&#x14b;" horiz-adv-x="1077" 
d="M379 0h-244v946h205l29 -182q74 205 303 205q122 0 201 -74t79 -223v-670q0 -153 -64.5 -250.5t-176 -136t-267.5 -29.5v205q138 -16 201.5 35t63.5 201v559q0 176 -140 176q-83 0 -136.5 -54.5t-53.5 -179.5v-528z" />
    <glyph glyph-name="Omacron" unicode="&#x14c;" horiz-adv-x="1298" 
d="M649 -25q-264 0 -413.5 164t-149.5 463q0 301 149.5 465t413.5 164t413.5 -164t149.5 -465q0 -299 -149.5 -463t-413.5 -164zM649 1010q-150 0 -227.5 -108t-77.5 -302q0 -195 77.5 -302.5t227.5 -107.5t226.5 107t76.5 303q0 194 -77.5 302t-225.5 108zM946 1366h-592
v197h592v-197z" />
    <glyph glyph-name="omacron" unicode="&#x14d;" horiz-adv-x="1044" 
d="M522 -25q-206 0 -327 132t-121 370q0 237 120.5 364.5t327.5 127.5t328 -127.5t121 -364.5q0 -238 -121.5 -370t-327.5 -132zM522 772q-207 0 -207 -297q0 -309 207 -309q106 0 157.5 76t51.5 233q0 297 -209 297zM813 1116h-580v199h580v-199z" />
    <glyph glyph-name="Obreve" unicode="&#x14e;" horiz-adv-x="1298" 
d="M649 -25q-264 0 -413.5 164t-149.5 463q0 301 149.5 465t413.5 164t413.5 -164t149.5 -465q0 -299 -149.5 -463t-413.5 -164zM649 1010q-150 0 -227.5 -108t-77.5 -302q0 -195 77.5 -302.5t227.5 -107.5t226.5 107t76.5 303q0 194 -77.5 302t-225.5 108zM649 1321
q-148 0 -222.5 77.5t-74.5 215.5h185q2 -62 27 -91.5t85 -29.5t86 29.5t29 91.5h182q0 -138 -74.5 -215.5t-222.5 -77.5z" />
    <glyph glyph-name="obreve" unicode="&#x14f;" horiz-adv-x="1044" 
d="M522 -25q-206 0 -327 132t-121 370q0 237 120.5 364.5t327.5 127.5t328 -127.5t121 -364.5q0 -238 -121.5 -370t-327.5 -132zM522 772q-207 0 -207 -297q0 -309 207 -309q106 0 157.5 76t51.5 233q0 297 -209 297zM522 1069q-146 0 -221.5 86t-75.5 225h185
q2 -68 25 -101.5t87 -33.5q65 0 88.5 33t26.5 102h184q0 -139 -75.5 -225t-223.5 -86z" />
    <glyph glyph-name="Ohungarumlaut" unicode="&#x150;" horiz-adv-x="1298" 
d="M649 -25q-264 0 -413.5 164t-149.5 463q0 301 149.5 465t413.5 164t413.5 -164t149.5 -465q0 -299 -149.5 -463t-413.5 -164zM649 1010q-150 0 -227.5 -108t-77.5 -302q0 -195 77.5 -302.5t227.5 -107.5t226.5 107t76.5 303q0 194 -77.5 302t-225.5 108zM567 1329h-176
l113 279h268zM907 1329h-190l147 279h281z" />
    <glyph glyph-name="ohungarumlaut" unicode="&#x151;" horiz-adv-x="1044" 
d="M522 -25q-206 0 -327 132t-121 370q0 237 120.5 364.5t327.5 127.5t328 -127.5t121 -364.5q0 -238 -121.5 -370t-327.5 -132zM522 772q-207 0 -207 -297q0 -309 207 -309q106 0 157.5 76t51.5 233q0 297 -209 297zM436 1079h-176l113 310h268zM776 1079h-190l147 310h281
z" />
    <glyph glyph-name="OE" unicode="&#x152;" horiz-adv-x="1765" 
d="M649 -25q-264 0 -413.5 164t-149.5 463q0 301 149.5 465t413.5 164q96 0 185 -25h829v-215h-551q74 -112 92 -278h395v-209h-393q-15 -174 -94 -289h551v-215h-829q-89 -25 -185 -25zM649 1010q-149 0 -225 -107.5t-76 -302.5q0 -196 75.5 -303t225.5 -107t225.5 107
t75.5 303q0 194 -76.5 302t-224.5 108z" />
    <glyph glyph-name="oe" unicode="&#x153;" horiz-adv-x="1650" 
d="M1186 164q67 0 111.5 31.5t66.5 105.5l211 -68q-33 -134 -140 -196t-257 -62q-109 0 -195.5 41t-134.5 121q-88 -162 -326 -162q-206 0 -327 132t-121 370q0 237 120.5 364.5t327.5 127.5q243 0 330 -170q98 170 332 170q189 0 290 -113.5t101 -300.5q0 -62 -14 -127
h-592q5 -122 61 -193t156 -71zM522 772q-207 0 -207 -297q0 -309 207 -309q106 0 157.5 76t51.5 233q0 297 -209 297zM975 573h364q2 14 2 35q0 78 -44 127t-123 49q-84 0 -137 -57t-62 -154z" />
    <glyph glyph-name="Racute" unicode="&#x154;" horiz-adv-x="1169" 
d="M1110 0h-276q-39 37 -60 121l-47 190q-19 82 -60 108.5t-124 26.5h-133v-446h-248v1206h456q210 0 319.5 -86.5t109.5 -273.5q0 -136 -74 -214t-195 -87v-6q86 -12 133 -53t70 -128l61 -229q23 -82 68 -129zM410 997v-344h192q96 0 143.5 41t47.5 131q0 83 -48 127.5
t-141 44.5h-194zM655 1329h-223l131 279h311z" />
    <glyph glyph-name="racute" unicode="&#x155;" horiz-adv-x="780" 
d="M752 967l-25 -271q-50 13 -98 13q-46 0 -88.5 -14.5t-80 -44t-59.5 -81.5t-22 -120v-449h-244v946h211l29 -258q69 295 377 279zM535 1079h-220l146 310h311z" />
    <glyph glyph-name="Rcommaaccent" unicode="&#x156;" horiz-adv-x="1169" 
d="M1110 0h-276q-39 37 -60 121l-47 190q-19 82 -60 108.5t-124 26.5h-133v-446h-248v1206h456q210 0 319.5 -86.5t109.5 -273.5q0 -136 -74 -214t-195 -87v-6q86 -12 133 -53t70 -128l61 -229q23 -82 68 -129zM410 997v-344h192q96 0 143.5 41t47.5 131q0 83 -48 127.5
t-141 44.5h-194zM721 -289q0 -227 -277 -227v86q67 2 99 20t32 62q-59 -9 -100 20t-41 88t38 92t97 33q65 0 108.5 -48.5t43.5 -125.5z" />
    <glyph glyph-name="rcommaaccent" unicode="&#x157;" horiz-adv-x="780" 
d="M752 967l-25 -271q-50 13 -98 13q-46 0 -88.5 -14.5t-80 -44t-59.5 -81.5t-22 -120v-449h-244v946h211l29 -258q69 295 377 279zM397 -289q0 -227 -276 -227v86q67 2 99 20t32 62q-59 -9 -100 20t-41 88t38 92t97 33q65 0 108 -48.5t43 -125.5z" />
    <glyph glyph-name="Rcaron" unicode="&#x158;" horiz-adv-x="1169" 
d="M1110 0h-276q-39 37 -60 121l-47 190q-19 82 -60 108.5t-124 26.5h-133v-446h-248v1206h456q210 0 319.5 -86.5t109.5 -273.5q0 -136 -74 -214t-195 -87v-6q86 -12 133 -53t70 -128l61 -229q23 -82 68 -129zM410 997v-344h192q96 0 143.5 41t47.5 131q0 83 -48 127.5
t-141 44.5h-194zM637 1325h-156l-268 287h236l63 -66q16 -17 27 -33t13 -23l3 -7h8q6 24 43 63l64 66h235z" />
    <glyph glyph-name="rcaron" unicode="&#x159;" horiz-adv-x="780" 
d="M752 967l-25 -271q-50 13 -98 13q-46 0 -88.5 -14.5t-80 -44t-59.5 -81.5t-22 -120v-449h-244v946h211l29 -258q69 295 377 279zM502 1075h-150l-270 318h231l66 -76q17 -20 28 -38t13 -26l2 -8h10q4 27 43 72l66 76h231z" />
    <glyph glyph-name="Sacute" unicode="&#x15a;" horiz-adv-x="1030" 
d="M49 276l227 91q19 -95 82 -148t154 -53q81 0 129.5 35t48.5 102q0 65 -45.5 104.5t-171.5 81.5q-98 31 -165 65t-117 79.5t-73.5 105.5t-23.5 138q0 77 23.5 139t63 101.5t93 66.5t111.5 38t121 11q409 0 440 -315l-246 -58q-7 82 -60.5 126t-129.5 44
q-69 0 -113.5 -34.5t-44.5 -98.5q0 -68 51.5 -105t176.5 -77q94 -31 155 -61t112.5 -74.5t75 -106t23.5 -145.5q0 -92 -35 -161.5t-98.5 -110.5t-143 -61t-175.5 -20q-184 0 -295 71.5t-150 229.5zM621 1329h-224l131 279h312z" />
    <glyph glyph-name="sacute" unicode="&#x15b;" horiz-adv-x="892" 
d="M43 217l205 76q13 -75 63.5 -110.5t126.5 -35.5q69 0 109.5 24.5t40.5 72.5q0 45 -29.5 71t-99.5 45l-140 33q-124 30 -182.5 99t-58.5 178q0 82 31.5 142.5t86.5 93.5t119 48t140 15q339 0 362 -262l-231 -33q-6 60 -41 86t-103 26q-59 0 -93 -25t-34 -69
q0 -41 24.5 -65.5t80.5 -34.5l133 -31q139 -31 206.5 -103.5t67.5 -193.5q0 -76 -29.5 -133t-83 -90.5t-123 -49.5t-155.5 -16q-175 0 -272 56.5t-121 185.5zM561 1079h-219l145 310h312z" />
    <glyph glyph-name="Scircumflex" unicode="&#x15c;" horiz-adv-x="1030" 
d="M49 276l227 91q19 -95 82 -148t154 -53q81 0 129.5 35t48.5 102q0 65 -45.5 104.5t-171.5 81.5q-98 31 -165 65t-117 79.5t-73.5 105.5t-23.5 138q0 77 23.5 139t63 101.5t93 66.5t111.5 38t121 11q409 0 440 -315l-246 -58q-7 82 -60.5 126t-129.5 44
q-69 0 -113.5 -34.5t-44.5 -98.5q0 -68 51.5 -105t176.5 -77q94 -31 155 -61t112.5 -74.5t75 -106t23.5 -145.5q0 -92 -35 -161.5t-98.5 -110.5t-143 -61t-175.5 -20q-184 0 -295 71.5t-150 229.5zM446 1616h156l268 -287h-235l-64 66q-16 16 -27 32t-14 23l-2 8h-8
q-6 -26 -43 -63l-63 -66h-236z" />
    <glyph glyph-name="scircumflex" unicode="&#x15d;" horiz-adv-x="892" 
d="M43 217l205 76q13 -75 63.5 -110.5t126.5 -35.5q69 0 109.5 24.5t40.5 72.5q0 45 -29.5 71t-99.5 45l-140 33q-124 30 -182.5 99t-58.5 178q0 82 31.5 142.5t86.5 93.5t119 48t140 15q339 0 362 -262l-231 -33q-6 60 -41 86t-103 26q-59 0 -93 -25t-34 -69
q0 -41 24.5 -65.5t80.5 -34.5l133 -31q139 -31 206.5 -103.5t67.5 -193.5q0 -76 -29.5 -133t-83 -90.5t-123 -49.5t-155.5 -16q-175 0 -272 56.5t-121 185.5zM395 1393h150l270 -318h-231l-66 76q-17 20 -28 38t-13 26l-2 8h-10q-4 -27 -43 -72l-66 -76h-231z" />
    <glyph glyph-name="Scedilla" unicode="&#x15e;" horiz-adv-x="1030" 
d="M733 -246q0 -91 -63 -138.5t-164 -47.5q-68 0 -122.5 21t-82.5 55l49 120q59 -71 133 -71q66 0 66 59q0 73 -115 82l12 143q-163 8 -262 79.5t-135 219.5l227 91q19 -95 82 -148t154 -53q81 0 129.5 35t48.5 102q0 65 -45.5 104.5t-171.5 81.5q-98 31 -165 65t-117 79.5
t-73.5 105.5t-23.5 138q0 77 23.5 139t63 101.5t93 66.5t111.5 38t121 11q409 0 440 -315l-246 -58q-7 82 -60.5 126t-129.5 44q-69 0 -113.5 -34.5t-44.5 -98.5q0 -68 51.5 -105t176.5 -77q94 -31 155 -61t112.5 -74.5t75 -106t23.5 -145.5q0 -164 -106.5 -249.5
t-282.5 -98.5l-4 -58q180 -12 180 -168z" />
    <glyph glyph-name="scedilla" unicode="&#x15f;" horiz-adv-x="892" 
d="M659 -246q0 -91 -63 -138.5t-164 -47.5q-68 0 -122.5 21t-82.5 55l49 120q59 -71 134 -71q65 0 65 59q0 73 -115 82l13 143q-145 9 -227 66t-103 174l205 76q13 -75 63.5 -110.5t126.5 -35.5q69 0 109.5 24.5t40.5 72.5q0 45 -29.5 71t-99.5 45l-140 33
q-124 30 -182.5 99t-58.5 178q0 82 31.5 142.5t86.5 93.5t119 48t140 15q339 0 362 -262l-231 -33q-6 60 -41 86t-103 26q-59 0 -93 -25t-34 -69q0 -41 24.5 -65.5t80.5 -34.5l133 -31q139 -31 206.5 -103.5t67.5 -193.5q0 -139 -92.5 -209t-251.5 -78l-4 -55
q180 -12 180 -168z" />
    <glyph glyph-name="Scaron" unicode="&#x160;" horiz-adv-x="1030" 
d="M49 276l227 91q19 -95 82 -148t154 -53q81 0 129.5 35t48.5 102q0 65 -45.5 104.5t-171.5 81.5q-98 31 -165 65t-117 79.5t-73.5 105.5t-23.5 138q0 77 23.5 139t63 101.5t93 66.5t111.5 38t121 11q409 0 440 -315l-246 -58q-7 82 -60.5 126t-129.5 44
q-69 0 -113.5 -34.5t-44.5 -98.5q0 -68 51.5 -105t176.5 -77q94 -31 155 -61t112.5 -74.5t75 -106t23.5 -145.5q0 -92 -35 -161.5t-98.5 -110.5t-143 -61t-175.5 -20q-184 0 -295 71.5t-150 229.5zM602 1325h-156l-268 287h236l63 -66q16 -17 27 -33t14 -23l2 -7h8
q6 24 43 63l64 66h235z" />
    <glyph glyph-name="scaron" unicode="&#x161;" horiz-adv-x="892" 
d="M43 217l205 76q13 -75 63.5 -110.5t126.5 -35.5q69 0 109.5 24.5t40.5 72.5q0 45 -29.5 71t-99.5 45l-140 33q-124 30 -182.5 99t-58.5 178q0 82 31.5 142.5t86.5 93.5t119 48t140 15q339 0 362 -262l-231 -33q-6 60 -41 86t-103 26q-59 0 -93 -25t-34 -69
q0 -41 24.5 -65.5t80.5 -34.5l133 -31q139 -31 206.5 -103.5t67.5 -193.5q0 -76 -29.5 -133t-83 -90.5t-123 -49.5t-155.5 -16q-175 0 -272 56.5t-121 185.5zM526 1075h-149l-271 318h232l65 -76q17 -20 28 -38t13 -26l2 -8h11q4 27 43 72l65 76h232z" />
    <glyph glyph-name="Tcommaaccent" unicode="&#x162;" horiz-adv-x="964" 
d="M604 0h-248v991h-336v215h924v-215h-340v-991zM618 -289q0 -227 -276 -227v86q67 2 99 20t32 62q-59 -9 -100 20t-41 88t38 92t97 33q65 0 108 -48.5t43 -125.5z" />
    <glyph glyph-name="tcommaaccent" unicode="&#x163;" horiz-adv-x="757" 
d="M684 240l43 -205q-114 -60 -270 -60q-142 0 -220.5 72t-78.5 221v488h-138v190h140v201l243 29v-230h281v-190h-283v-434q0 -74 30 -106t89 -32q81 0 164 56zM551 -289q0 -227 -277 -227v86q67 2 99.5 20t32.5 62q-59 -9 -100.5 20t-41.5 88t38 92t97 33
q65 0 108.5 -48.5t43.5 -125.5z" />
    <glyph glyph-name="Tcaron" unicode="&#x164;" horiz-adv-x="964" 
d="M604 0h-248v991h-336v215h924v-215h-340v-991zM561 1325h-155l-269 287h236l63 -66q16 -17 27 -33t13 -23l3 -7h8q6 24 43 63l64 66h235z" />
    <glyph glyph-name="tcaron" unicode="&#x165;" horiz-adv-x="757" 
d="M684 240l43 -205q-114 -60 -270 -60q-142 0 -220.5 72t-78.5 221v488h-138v190h140v201l243 29v-230h281v-190h-283v-434q0 -74 30 -106t89 -32q81 0 164 56zM788 1444l-114 -387h-176l32 387h258z" />
    <glyph glyph-name="Tbar" unicode="&#x166;" horiz-adv-x="964" 
d="M604 0h-248v475h-213v201h213v315h-336v215h924v-215h-340v-315h221v-201h-221v-475z" />
    <glyph glyph-name="tbar" unicode="&#x167;" horiz-adv-x="757" 
d="M20 438v180h138v138h-138v190h140v201l243 29v-230h281v-190h-283v-138h283v-180h-283v-116q0 -74 30 -106t89 -32q81 0 164 56l43 -205q-114 -60 -270 -60q-142 0 -220.5 72t-78.5 221v170h-138z" />
    <glyph glyph-name="Utilde" unicode="&#x168;" horiz-adv-x="1226" 
d="M852 1206h248v-805q0 -94 -26.5 -168t-71 -121.5t-107.5 -79t-132 -44.5t-149 -13q-81 0 -150 13t-132.5 44.5t-108 79.5t-70.5 121.5t-26 167.5v805h248v-737q0 -145 55.5 -216t183.5 -71q127 0 182.5 71.5t55.5 215.5v737zM766 1331q-32 0 -59.5 6.5t-44.5 14.5t-48 26
q-8 5 -25.5 15t-23.5 13.5t-18 9.5t-18.5 8t-15 4t-17.5 2q-35 0 -53 -24.5t-11 -74.5h-139q-31 76 -20 142.5t63.5 111.5t126.5 45q43 0 74.5 -10.5t72.5 -34.5q75 -44 97 -50q12 -3 24 -3q68 0 55 96h146q50 -120 1 -208.5t-167 -88.5z" />
    <glyph glyph-name="utilde" unicode="&#x169;" horiz-adv-x="1071" 
d="M725 0l-29 174q-28 -100 -99 -149.5t-194 -49.5q-133 0 -208.5 74.5t-75.5 233.5v663h243v-602q0 -93 34.5 -138.5t109.5 -45.5q78 0 132 66.5t54 195.5v524h244v-946h-211zM680 1073q-48 0 -78.5 10.5t-73.5 36.5q-7 4 -20 11.5t-18 10.5t-15 8.5t-14.5 7.5t-12.5 5.5
t-13 4.5t-11.5 2t-13.5 1q-35 0 -53 -25t-11 -75h-139q-51 112 2.5 205.5t167.5 93.5q43 0 73.5 -11t73.5 -36q75 -44 97 -50q12 -3 24 -3q68 0 55 96h146q50 -118 1 -205.5t-167 -87.5z" />
    <glyph glyph-name="Umacron" unicode="&#x16a;" horiz-adv-x="1226" 
d="M852 1206h248v-805q0 -94 -26.5 -168t-71 -121.5t-107.5 -79t-132 -44.5t-149 -13q-81 0 -150 13t-132.5 44.5t-108 79.5t-70.5 121.5t-26 167.5v805h248v-737q0 -145 55.5 -216t183.5 -71q127 0 182.5 71.5t55.5 215.5v737zM909 1366h-592v197h592v-197z" />
    <glyph glyph-name="umacron" unicode="&#x16b;" horiz-adv-x="1071" 
d="M725 0l-29 174q-28 -100 -99 -149.5t-194 -49.5q-133 0 -208.5 74.5t-75.5 233.5v663h243v-602q0 -93 34.5 -138.5t109.5 -45.5q78 0 132 66.5t54 195.5v524h244v-946h-211zM817 1116h-579v199h579v-199z" />
    <glyph glyph-name="Ubreve" unicode="&#x16c;" horiz-adv-x="1226" 
d="M852 1206h248v-805q0 -94 -26.5 -168t-71 -121.5t-107.5 -79t-132 -44.5t-149 -13q-81 0 -150 13t-132.5 44.5t-108 79.5t-70.5 121.5t-26 167.5v805h248v-737q0 -145 55.5 -216t183.5 -71q127 0 182.5 71.5t55.5 215.5v737zM612 1321q-148 0 -222.5 77.5t-74.5 215.5
h185q2 -62 27 -91.5t85 -29.5t86 29.5t29 91.5h182q0 -138 -74.5 -215.5t-222.5 -77.5z" />
    <glyph glyph-name="ubreve" unicode="&#x16d;" horiz-adv-x="1071" 
d="M725 0l-29 174q-28 -100 -99 -149.5t-194 -49.5q-133 0 -208.5 74.5t-75.5 233.5v663h243v-602q0 -93 34.5 -138.5t109.5 -45.5q78 0 132 66.5t54 195.5v524h244v-946h-211zM526 1069q-146 0 -221.5 86t-75.5 225h185q2 -68 25 -101.5t87 -33.5q65 0 88.5 33t26.5 102
h184q0 -139 -75.5 -225t-223.5 -86z" />
    <glyph glyph-name="Uring" unicode="&#x16e;" horiz-adv-x="1226" 
d="M852 1206h248v-805q0 -94 -26.5 -168t-71 -121.5t-107.5 -79t-132 -44.5t-149 -13q-81 0 -150 13t-132.5 44.5t-108 79.5t-70.5 121.5t-26 167.5v805h248v-737q0 -145 55.5 -216t183.5 -71q127 0 182.5 71.5t55.5 215.5v737zM627 1294q-106 0 -167 63t-61 159
q0 89 64 151t164 62t163.5 -62t63.5 -151q0 -96 -61 -159t-166 -63zM627 1618q-49 0 -77 -29.5t-28 -77.5q0 -43 28 -71.5t77 -28.5t76.5 28.5t27.5 71.5q0 48 -27.5 77.5t-76.5 29.5z" />
    <glyph glyph-name="uring" unicode="&#x16f;" horiz-adv-x="1071" 
d="M725 0l-29 174q-28 -100 -99 -149.5t-194 -49.5q-133 0 -208.5 74.5t-75.5 233.5v663h243v-602q0 -93 34.5 -138.5t109.5 -45.5q78 0 132 66.5t54 195.5v524h244v-946h-211zM528 1047q-106 0 -166.5 62.5t-60.5 158.5q0 89 63.5 151t163.5 62t164 -62t64 -151
q0 -95 -61 -158t-167 -63zM528 1370q-49 0 -76.5 -29t-27.5 -77q0 -43 27.5 -72t76.5 -29t77 29t28 72q0 48 -28 77t-77 29z" />
    <glyph glyph-name="Uhungarumlaut" unicode="&#x170;" horiz-adv-x="1226" 
d="M852 1206h248v-805q0 -94 -26.5 -168t-71 -121.5t-107.5 -79t-132 -44.5t-149 -13q-81 0 -150 13t-132.5 44.5t-108 79.5t-70.5 121.5t-26 167.5v805h248v-737q0 -145 55.5 -216t183.5 -71q127 0 182.5 71.5t55.5 215.5v737zM530 1329h-176l113 279h268zM870 1329h-190
l147 279h281z" />
    <glyph glyph-name="uhungarumlaut" unicode="&#x171;" horiz-adv-x="1071" 
d="M725 0l-29 174q-28 -100 -99 -149.5t-194 -49.5q-133 0 -208.5 74.5t-75.5 233.5v663h243v-602q0 -93 34.5 -138.5t109.5 -45.5q78 0 132 66.5t54 195.5v524h244v-946h-211zM440 1079h-176l113 310h268zM780 1079h-190l147 310h281z" />
    <glyph glyph-name="Uogonek" unicode="&#x172;" horiz-adv-x="1226" 
d="M397 -207q0 114 84 195q-162 25 -258 125t-96 288v805h248v-737q0 -145 55.5 -216t183.5 -71q127 0 182.5 71.5t55.5 215.5v737h248v-805q0 -104 -31.5 -183.5t-88.5 -128t-127 -75t-157 -34.5q-96 -44 -96 -144q0 -51 27.5 -79.5t74.5 -28.5q78 0 138 69l59 -123
q-83 -106 -248 -106q-110 0 -182 56t-72 169z" />
    <glyph glyph-name="uogonek" unicode="&#x173;" horiz-adv-x="1071" 
d="M535 -211q0 85 52.5 147t131.5 99l-23 143q-59 -203 -293 -203q-133 0 -208.5 74.5t-75.5 233.5v663h243v-602q0 -92 34 -138t108 -46q79 0 133.5 68.5t54.5 197.5v520h244v-946q-89 -3 -144 -47t-55 -119q0 -50 26 -78t75 -28q78 0 135 69l59 -123q-83 -106 -248 -106
q-109 0 -179 55.5t-70 165.5z" />
    <glyph glyph-name="Wcircumflex" unicode="&#x174;" horiz-adv-x="1755" 
d="M1032 1206l162 -694q18 -79 33.5 -163t21.5 -129l6 -44h9q16 160 53 334l153 696h252l-280 -1206h-359l-153 635q-19 77 -31.5 160t-14.5 127l-3 45h-9q-8 -156 -51 -334l-157 -633h-351l-280 1206h264l156 -692q17 -79 31.5 -163.5t19.5 -129.5l6 -45h8q16 162 57 336
l162 694h295zM801 1616h155l269 -287h-236l-63 66q-16 16 -27 32t-13 23l-3 8h-9q-6 -26 -43 -63l-63 -66h-236z" />
    <glyph glyph-name="wcircumflex" unicode="&#x175;" horiz-adv-x="1443" 
d="M840 946l112 -414q24 -84 40 -172t20 -134l4 -46h8q8 157 53 350l103 416h243l-249 -946h-291l-105 375q-19 72 -32.5 147.5t-17.5 115.5l-3 40h-8q-10 -139 -51 -305l-95 -373h-288l-263 946h250l109 -416q22 -84 36.5 -171.5t18.5 -132.5l4 -46h8q11 164 58 352
l106 414h230zM647 1393h150l270 -318h-231l-66 76q-17 20 -28 38t-13 26l-2 8h-10q-4 -27 -43 -72l-66 -76h-231z" />
    <glyph glyph-name="Ycircumflex" unicode="&#x176;" horiz-adv-x="1075" 
d="M303 1206l156 -319q33 -68 55 -128.5t28 -86.5l5 -27h8q12 92 86 242l152 319h262l-381 -786v-420h-248v420l-406 786h283zM459 1616h155l269 -287h-236l-63 66q-16 16 -27 32t-13 23l-3 8h-9q-6 -26 -43 -63l-63 -66h-236z" />
    <glyph glyph-name="ycircumflex" unicode="&#x177;" horiz-adv-x="960" 
d="M274 946l138 -461q24 -82 40.5 -157.5t21.5 -110.5l5 -35h8q15 119 70 303l139 461h256l-364 -1028q-38 -106 -82 -175t-97.5 -105.5t-108.5 -50t-130 -13.5q-68 0 -158 23l33 213q57 -31 123 -31q70 0 113.5 37.5t76.5 130.5l-350 999h266zM412 1393h149l270 -318h-231
l-65 76q-17 20 -28 38t-13 26l-2 8h-11q-4 -27 -43 -72l-65 -76h-232z" />
    <glyph glyph-name="Ydieresis" unicode="&#x178;" horiz-adv-x="1075" 
d="M303 1206l156 -319q33 -68 55 -128.5t28 -86.5l5 -27h8q12 92 86 242l152 319h262l-381 -786v-420h-248v420l-406 786h283zM174 1475q0 66 40.5 104.5t100.5 38.5q64 0 105 -38t41 -105q0 -66 -41.5 -105t-104.5 -39q-59 0 -100 39.5t-41 104.5zM606 1473q0 67 40.5 105
t101.5 38q63 0 103 -38t40 -105q0 -65 -40 -103.5t-103 -38.5q-60 0 -101 39t-41 103z" />
    <glyph glyph-name="Zacute" unicode="&#x179;" horiz-adv-x="1024" 
d="M956 1034l-475 -669q-32 -44 -63 -81.5t-46 -53.5l-16 -15v-8q55 8 168 8h447v-215h-918v172l467 670q31 44 62.5 81.5t47.5 52.5l15 15v8q-57 -8 -168 -8h-405v215h884v-172zM610 1329h-223l131 279h311z" />
    <glyph glyph-name="zacute" unicode="&#x17a;" horiz-adv-x="851" 
d="M780 791l-323 -449q-33 -44 -64 -81.5t-46 -52.5l-15 -15v-9q55 9 168 9h299v-193h-746v145l316 455q32 44 63 81.5t46 52.5l16 16v8q-55 -8 -168 -8h-254v196h708v-155zM522 1079h-219l146 310h311z" />
    <glyph glyph-name="Zdotaccent" unicode="&#x17b;" horiz-adv-x="1024" 
d="M956 1034l-475 -669q-32 -44 -63 -81.5t-46 -53.5l-16 -15v-8q55 8 168 8h447v-215h-918v172l467 670q31 44 62.5 81.5t47.5 52.5l15 15v8q-57 -8 -168 -8h-405v215h884v-172zM358 1495q0 68 43.5 107.5t108.5 39.5q70 0 114 -39t44 -108q0 -66 -44.5 -105.5
t-113.5 -39.5q-65 0 -108.5 39.5t-43.5 105.5z" />
    <glyph glyph-name="zdotaccent" unicode="&#x17c;" horiz-adv-x="851" 
d="M780 791l-323 -449q-33 -44 -64 -81.5t-46 -52.5l-15 -15v-9q55 9 168 9h299v-193h-746v145l316 455q32 44 63 81.5t46 52.5l16 16v8q-55 -8 -168 -8h-254v196h708v-155zM276 1233q0 67 44 107t108 40q69 0 113.5 -39.5t44.5 -107.5q0 -66 -44.5 -106t-113.5 -40
q-64 0 -108 40t-44 106z" />
    <glyph glyph-name="Zcaron" unicode="&#x17d;" horiz-adv-x="1024" 
d="M956 1034l-475 -669q-32 -44 -63 -81.5t-46 -53.5l-16 -15v-8q55 8 168 8h447v-215h-918v172l467 670q31 44 62.5 81.5t47.5 52.5l15 15v8q-57 -8 -168 -8h-405v215h884v-172zM592 1325h-156l-268 287h235l64 -66q16 -17 27 -33t14 -23l2 -7h8q6 24 43 63l64 66h235z" />
    <glyph glyph-name="zcaron" unicode="&#x17e;" horiz-adv-x="851" 
d="M780 791l-323 -449q-33 -44 -64 -81.5t-46 -52.5l-15 -15v-9q55 9 168 9h299v-193h-746v145l316 455q32 44 63 81.5t46 52.5l16 16v8q-55 -8 -168 -8h-254v196h708v-155zM516 1075h-149l-271 318h232l65 -76q17 -20 28 -38t13 -26l2 -8h10q4 27 43 72l66 76h231z" />
    <glyph glyph-name="Schwa" unicode="&#x18f;" horiz-adv-x="1198" 
d="M92 903q42 168 169 248t306 80q249 0 397 -162t148 -455q0 -307 -145 -473t-402 -166q-232 0 -355.5 140t-123.5 379q0 96 20 174h750q-6 151 -85.5 246.5t-215.5 95.5q-187 0 -248 -189zM854 479h-516q-4 -28 -4 -51q3 -110 65 -178t172 -68q126 0 200 82.5t83 214.5z
" />
    <glyph glyph-name="florin" unicode="&#x192;" horiz-adv-x="968" 
d="M66 -248l112 539h-137l33 190h141l37 189q14 73 43.5 131.5t68.5 97t88.5 64t101 36.5t108.5 11q83 0 160 -30t126 -93l-143 -182q-28 44 -69.5 69t-88.5 25q-117 0 -147 -146l-37 -172h239l-30 -190h-246l-115 -539h-245z" />
    <glyph glyph-name="Khook" unicode="&#x198;" horiz-adv-x="1159" 
d="M813 887l-115 -271l432 -616h-296l-342 489h-82v-489h-248v1206h248v-493h86l104 264q47 126 121 190t186 64q162 0 234 -150l-142 -161q-30 61 -81 61q-33 0 -57.5 -20t-47.5 -74z" />
    <glyph glyph-name="khook" unicode="&#x199;" horiz-adv-x="1028" 
d="M379 401v-401h-244v1032q0 86 26 152t71 105t102.5 61.5t123 25.5t130.5 -6t127 -31l-39 -221q-56 33 -107 45.5t-95 3t-70.5 -57.5t-26.5 -132v-387h53l264 356h287l-346 -440l377 -506h-289l-287 401h-57z" />
    <glyph glyph-name="Ezh" unicode="&#x1b7;" horiz-adv-x="1001" 
d="M297 557l197 285q31 44 62 81.5t46 52.5l16 15v8q-54 -8 -167 -8h-381v215h850v-172l-379 -502v-8q201 -9 305 -130.5t104 -309.5q0 -210 -130 -330.5t-351 -120.5q-208 0 -336.5 95.5t-157.5 273.5l207 98q20 -137 94 -207.5t187 -70.5q118 0 184 68t66 188
q0 139 -104.5 222t-311.5 87v170z" />
    <glyph glyph-name="Acaron" unicode="&#x1cd;" horiz-adv-x="1228" 
d="M942 0l-98 279h-469l-94 -279h-261l439 1206h311l438 -1206h-266zM508 666l-64 -183h328l-63 181q-31 88 -55 171.5t-32 123.5l-8 40h-8q-30 -140 -98 -333zM688 1325h-156l-268 287h236l63 -66q16 -17 27 -33t14 -23l2 -7h8q6 24 43 63l64 66h235z" />
    <glyph glyph-name="acaron" unicode="&#x1ce;" horiz-adv-x="1011" 
d="M602 293v110q-155 4 -225 -32t-70 -111q0 -48 32 -78t89 -30q68 0 121 36.5t53 104.5zM846 664v-398q0 -88 69 -88q24 0 58 15v-181q-49 -28 -137 -28q-179 0 -215 149q-61 -158 -277 -158q-128 0 -204.5 69t-76.5 189q0 162 133.5 242.5t405.5 65.5v100q0 69 -33 105
t-96 36q-127 0 -137 -143l-240 43q10 143 118 215t271 72q169 0 265 -75.5t96 -229.5zM565 1075h-149l-271 318h232l65 -76q17 -20 28 -38t13 -26l2 -8h11q4 27 43 72l65 76h232z" />
    <glyph glyph-name="Icaron" unicode="&#x1cf;" horiz-adv-x="571" 
d="M162 1206h248v-1206h-248v1206zM365 1325h-156l-268 287h235l64 -66q16 -17 27 -33t13 -23l3 -7h8q6 24 43 63l63 66h236z" />
    <glyph glyph-name="icaron" unicode="&#x1d0;" horiz-adv-x="514" 
d="M332 1075h-150l-270 318h231l66 -76q17 -20 28 -38t13 -26l2 -8h10q4 27 43 72l66 76h231zM135 946h244v-946h-244v946z" />
    <glyph glyph-name="Ocaron" unicode="&#x1d1;" horiz-adv-x="1298" 
d="M649 -25q-264 0 -413.5 164t-149.5 463q0 301 149.5 465t413.5 164t413.5 -164t149.5 -465q0 -299 -149.5 -463t-413.5 -164zM649 1010q-150 0 -227.5 -108t-77.5 -302q0 -195 77.5 -302.5t227.5 -107.5t226.5 107t76.5 303q0 194 -77.5 302t-225.5 108zM727 1325h-156
l-268 287h236l63 -66q16 -17 27 -33t13 -23l3 -7h8q6 24 43 63l64 66h235z" />
    <glyph glyph-name="ocaron" unicode="&#x1d2;" horiz-adv-x="1044" 
d="M522 -25q-206 0 -327 132t-121 370q0 237 120.5 364.5t327.5 127.5t328 -127.5t121 -364.5q0 -238 -121.5 -370t-327.5 -132zM522 772q-207 0 -207 -297q0 -309 207 -309q106 0 157.5 76t51.5 233q0 297 -209 297zM598 1075h-149l-271 318h232l65 -76q17 -20 28 -38
t13 -26l2 -8h10q4 27 43 72l66 76h231z" />
    <glyph glyph-name="Ucaron" unicode="&#x1d3;" horiz-adv-x="1226" 
d="M852 1206h248v-805q0 -94 -26.5 -168t-71 -121.5t-107.5 -79t-132 -44.5t-149 -13q-81 0 -150 13t-132.5 44.5t-108 79.5t-70.5 121.5t-26 167.5v805h248v-737q0 -145 55.5 -216t183.5 -71q127 0 182.5 71.5t55.5 215.5v737zM692 1325h-155l-269 287h236l63 -66
q16 -17 27 -33t14 -23l2 -7h8q7 24 44 63l63 66h236z" />
    <glyph glyph-name="ucaron" unicode="&#x1d4;" horiz-adv-x="1071" 
d="M725 0l-29 174q-28 -100 -99 -149.5t-194 -49.5q-133 0 -208.5 74.5t-75.5 233.5v663h243v-602q0 -93 34.5 -138.5t109.5 -45.5q78 0 132 66.5t54 195.5v524h244v-946h-211zM602 1075h-149l-271 318h232l65 -76q17 -20 28 -38t13 -26l2 -8h10q4 27 43 72l66 76h231z" />
    <glyph glyph-name="uni004100A800AF" unicode="&#x1de;" horiz-adv-x="1228" 
d="M942 0l-98 279h-469l-94 -279h-261l439 1206h311l438 -1206h-266zM508 666l-64 -183h328l-63 181q-31 88 -55 171.5t-32 123.5l-8 40h-8q-30 -140 -98 -333zM905 1681h-592v197h592v-197zM252 1442q0 66 40.5 104.5t100.5 38.5q64 0 105 -38t41 -105q0 -66 -41.5 -105
t-104.5 -39q-59 0 -100 39.5t-41 104.5zM684 1440q0 67 40 105t101 38q63 0 103.5 -38t40.5 -105q0 -65 -40.5 -103.5t-103.5 -38.5q-60 0 -100.5 39t-40.5 103z" />
    <glyph glyph-name="adieresismacron" unicode="&#x1df;" horiz-adv-x="1011" 
d="M602 293v110q-155 4 -225 -32t-70 -111q0 -48 32 -78t89 -30q68 0 121 36.5t53 104.5zM846 664v-398q0 -88 69 -88q24 0 58 15v-181q-49 -28 -137 -28q-179 0 -215 149q-61 -158 -277 -158q-128 0 -204.5 69t-76.5 189q0 162 133.5 242.5t405.5 65.5v100q0 69 -33 105
t-96 36q-127 0 -137 -143l-240 43q10 143 118 215t271 72q169 0 265 -75.5t96 -229.5zM780 1399h-579v198h579v-198zM127 1171q0 67 40.5 105.5t100.5 38.5q64 0 105 -38.5t41 -105.5q0 -66 -41.5 -104.5t-104.5 -38.5q-59 0 -100 39t-41 104zM559 1169q0 67 40 105.5
t101 38.5q63 0 103.5 -38.5t40.5 -105.5q0 -65 -40.5 -103t-103.5 -38q-60 0 -100.5 38.5t-40.5 102.5z" />
    <glyph glyph-name="AEmacron" unicode="&#x1e2;" horiz-adv-x="1765" 
d="M1663 0h-789v279h-421l-172 -279h-273l725 1206h930v-215h-539v-278h475v-209h-475v-289h539v-215zM879 1026l-316 -543h311v222q0 92 3 172t7 115l3 34h-8zM1432 1366h-592v197h592v-197z" />
    <glyph glyph-name="aemacron" unicode="&#x1e3;" horiz-adv-x="1503" 
d="M1038 172q131 0 179 131l210 -70q-33 -134 -140 -196t-257 -62q-221 0 -342 152q-44 -71 -127 -111.5t-199 -40.5q-137 0 -218 68.5t-81 189.5q0 156 130 241.5t397 86.5q11 70 22 105q-7 58 -43.5 87t-93.5 29q-62 0 -97 -37.5t-40 -105.5l-240 43q7 97 63.5 163
t140.5 95t190 29q170 0 262 -92q112 92 282 92q187 0 288 -116t103 -298q0 -75 -12 -137h-584q3 -110 55.5 -178t151.5 -68zM836 561h352q2 14 2 47q0 78 -42 127t-118 49q-85 0 -135.5 -62t-58.5 -161zM434 156q59 0 108 29.5t70 82.5q-23 74 -26 150q-141 -1 -204 -38.5
t-63 -111.5q0 -51 30.5 -81.5t84.5 -30.5zM1030 1116h-579v199h579v-199z" />
    <glyph glyph-name="Gstroke" unicode="&#x1e4;" horiz-adv-x="1329" 
d="M647 672h508v-238h117v-141h-117v-293h-166l-37 141q-41 -81 -130.5 -123.5t-200.5 -42.5q-243 0 -389 159.5t-146 463.5q0 300 155.5 466.5t426.5 166.5q177 0 297.5 -77t179.5 -224l-238 -115q-30 98 -94.5 148.5t-155.5 50.5q-62 0 -116 -23.5t-99 -71t-71.5 -131
t-26.5 -192.5q0 -91 17.5 -166t54 -134t97.5 -91.5t142 -32.5q197 0 258 121h-266v141h268v86h-268v152z" />
    <glyph glyph-name="gstroke" unicode="&#x1e5;" horiz-adv-x="1148" 
d="M553 969q163 0 270 -66q29 27 43.5 56t28.5 88l197 -66q-8 -65 -56 -111t-112 -65q43 -67 43 -170q0 -106 -57 -181.5t-150.5 -111t-212.5 -35.5q-70 0 -117 15q-51 -32 -51 -84q0 -31 21.5 -48.5t62.5 -17.5h258q158 0 245 -73t87 -199q0 -17 -2 -25h98v-72h-111
q-21 -66 -73.5 -114t-126 -73t-152.5 -36.5t-170 -11.5q-89 0 -162.5 12t-136 38t-98.5 73t-37 112h-82v72h92q45 118 238 133q-66 6 -106 52.5t-40 109.5q0 60 38.5 108.5t115.5 69.5q-193 79 -193 287q0 160 110.5 247t297.5 87zM391 635q0 -74 42 -119t120 -45
q79 0 122.5 42.5t43.5 121.5q0 82 -43.5 124t-122.5 40q-79 0 -120.5 -42.5t-41.5 -121.5zM467 -41q-139 0 -160 -84h522q-9 84 -131 84h-231zM545 -279q229 0 274 82h-506q40 -82 232 -82z" />
    <glyph glyph-name="Gcaron" unicode="&#x1e6;" horiz-adv-x="1275" 
d="M647 637h508v-637h-166l-37 141q-41 -81 -130.5 -123.5t-200.5 -42.5q-243 0 -389 159.5t-146 463.5q0 300 155.5 466.5t426.5 166.5q177 0 297.5 -77t179.5 -224l-238 -115q-30 98 -94.5 148.5t-155.5 50.5q-62 0 -116.5 -23.5t-100 -71t-72 -131t-26.5 -192.5
q0 -91 18 -165.5t54.5 -132t98 -89t142.5 -31.5q121 0 190.5 53.5t69.5 145.5v57h-268v203zM748 1325h-156l-268 287h235l64 -66q16 -17 27 -33t14 -23l2 -7h8q6 24 43 63l63 66h236z" />
    <glyph glyph-name="gcaron" unicode="&#x1e7;" horiz-adv-x="1015" 
d="M483 969q164 0 271 -66q31 26 44.5 55.5t26.5 88.5l197 -66q-7 -65 -54.5 -111t-111.5 -65q43 -67 43 -170q0 -106 -57.5 -181.5t-151 -111t-211.5 -35.5q-74 0 -117 15q-51 -30 -51 -84q0 -31 21.5 -48.5t62.5 -17.5h256q159 0 246.5 -73t87.5 -199q0 -64 -21 -116
t-60 -87.5t-89 -61t-112.5 -40t-124.5 -21t-132 -6.5q-89 0 -163 12t-136.5 38.5t-97.5 75.5t-35 116q0 87 62.5 138t185.5 60q-67 6 -106 52t-39 110q0 60 38 108.5t113 69.5q-192 80 -192 287q0 160 110 247t297 87zM240 -150q0 -116 233 -116q147 0 214 29t67 96
q0 47 -30.5 70.5t-100.5 23.5h-224q-74 0 -116.5 -26t-42.5 -77zM322 635q0 -74 42 -119t119 -45q79 0 122.5 42.5t43.5 121.5q0 82 -43.5 124t-122.5 40q-78 0 -119.5 -43t-41.5 -121zM573 1075h-149l-270 318h231l66 -76q17 -20 28 -38t13 -26l2 -8h10q4 27 43 72l65 76
h232z" />
    <glyph glyph-name="Kcaron" unicode="&#x1e8;" horiz-adv-x="1159" 
d="M1130 0h-296l-345 504h-79v-504h-248v1206h248v-485h84l315 485h287l-394 -583zM645 1325h-156l-268 287h236l63 -66q16 -17 27 -33t13 -23l3 -7h8q6 24 43 63l64 66h235z" />
    <glyph glyph-name="kcaron" unicode="&#x1e9;" horiz-adv-x="1028" 
d="M635 506l377 -506h-289l-287 401h-57v-401h-244v1368h244v-778h51l264 356h287zM338 1454h-156l-268 287h236l63 -66q16 -17 27 -33t14 -23l2 -7h8q6 24 43 63l64 66h235z" />
    <glyph glyph-name="Oogonek" unicode="&#x1ea;" horiz-adv-x="1298" 
d="M422 -207q0 116 88 197q-202 39 -313 196.5t-111 415.5q0 301 149.5 465t413.5 164t413.5 -164t149.5 -465q0 -278 -130 -439t-361 -181q-96 -47 -96 -146q0 -51 27.5 -79.5t76.5 -28.5q78 0 135 69l60 -123q-83 -106 -248 -106q-110 0 -182 56t-72 169zM649 1010
q-150 0 -227.5 -108t-77.5 -302q0 -195 77.5 -302.5t227.5 -107.5t226.5 107t76.5 303q0 194 -77.5 302t-225.5 108z" />
    <glyph glyph-name="oogonek" unicode="&#x1eb;" horiz-adv-x="1044" 
d="M276 -207q0 124 97 203q-141 42 -220 165.5t-79 315.5q0 237 120.5 364.5t327.5 127.5t328 -127.5t121 -364.5q0 -223 -107 -353t-291 -144q-94 -46 -94 -144q0 -51 27.5 -79.5t75.5 -28.5q80 0 137 69l59 -123q-83 -106 -248 -106q-110 0 -182 56t-72 169zM522 772
q-207 0 -207 -297q0 -309 207 -309q106 0 157.5 76t51.5 233q0 297 -209 297z" />
    <glyph glyph-name="uni004F02DB00AF" unicode="&#x1ec;" horiz-adv-x="1298" 
d="M946 1366h-592v197h592v-197zM422 -207q0 116 88 197q-202 39 -313 196.5t-111 415.5q0 301 149.5 465t413.5 164t413.5 -164t149.5 -465q0 -278 -130 -439t-361 -181q-96 -47 -96 -146q0 -51 27.5 -79.5t76.5 -28.5q78 0 135 69l60 -123q-83 -106 -248 -106
q-110 0 -182 56t-72 169zM649 1010q-150 0 -227.5 -108t-77.5 -302q0 -195 77.5 -302.5t227.5 -107.5t226.5 107t76.5 303q0 194 -77.5 302t-225.5 108z" />
    <glyph glyph-name="oogonekmacron" unicode="&#x1ed;" horiz-adv-x="1044" 
d="M813 1116h-580v199h580v-199zM276 -207q0 124 97 203q-141 42 -220 165.5t-79 315.5q0 237 120.5 364.5t327.5 127.5t328 -127.5t121 -364.5q0 -223 -107 -353t-291 -144q-94 -46 -94 -144q0 -51 27.5 -79.5t75.5 -28.5q80 0 137 69l59 -123q-83 -106 -248 -106
q-110 0 -182 56t-72 169zM522 772q-207 0 -207 -297q0 -309 207 -309q106 0 157.5 76t51.5 233q0 297 -209 297z" />
    <glyph glyph-name="Ezhcaron" unicode="&#x1ee;" horiz-adv-x="1001" 
d="M297 557l197 285q31 44 62 81.5t46 52.5l16 15v8q-54 -8 -167 -8h-381v215h850v-172l-379 -502v-8q201 -9 305 -130.5t104 -309.5q0 -210 -130 -330.5t-351 -120.5q-208 0 -336.5 95.5t-157.5 273.5l207 98q20 -137 94 -207.5t187 -70.5q118 0 184 68t66 188
q0 139 -104.5 222t-311.5 87v170zM594 1325h-156l-268 287h236l63 -66q16 -17 27 -33t14 -23l2 -7h8q6 24 43 63l64 66h235z" />
    <glyph glyph-name="ezhcaron" unicode="&#x1ef;" horiz-adv-x="856" 
d="M238 451l116 149q33 44 65.5 81.5t48.5 52.5l17 16v8q-63 -8 -174 -8h-250v196h709v-155l-311 -375v-6q157 -9 244.5 -109t87.5 -254q0 -171 -115.5 -265.5t-313.5 -94.5q-158 0 -261 75.5t-128 210.5l224 80q9 -86 60 -131t126 -45q74 0 123 45.5t49 116.5
q0 224 -317 260v152zM504 1075h-150l-270 318h231l66 -76q17 -20 28 -38t13 -26l2 -8h10q4 27 43 72l66 76h231z" />
    <glyph glyph-name="jcaron" unicode="&#x1f0;" horiz-adv-x="514" 
d="M328 1075h-150l-270 318h231l66 -76q17 -20 28 -38t13 -26l2 -8h10q4 27 43 72l66 76h231zM135 946h244v-944q0 -153 -65 -250.5t-176.5 -136t-268.5 -29.5v205q140 -16 203 35.5t63 202.5v917z" />
    <glyph glyph-name="jcaron" unicode="&#xe10c;" horiz-adv-x="514" 
d="M328 1075h-150l-270 318h231l66 -76q17 -20 28 -38t13 -26l2 -8h10q4 27 43 72l66 76h231zM135 946h244v-944q0 -153 -65 -250.5t-176.5 -136t-268.5 -29.5v205q140 -16 203 35.5t63 202.5v917z" />
    <glyph glyph-name="Gacute" unicode="&#x1f4;" horiz-adv-x="1275" 
d="M647 637h508v-637h-166l-37 141q-41 -81 -130.5 -123.5t-200.5 -42.5q-243 0 -389 159.5t-146 463.5q0 300 155.5 466.5t426.5 166.5q177 0 297.5 -77t179.5 -224l-238 -115q-30 98 -94.5 148.5t-155.5 50.5q-62 0 -116.5 -23.5t-100 -71t-72 -131t-26.5 -192.5
q0 -91 18 -165.5t54.5 -132t98 -89t142.5 -31.5q121 0 190.5 53.5t69.5 145.5v57h-268v203zM768 1329h-223l131 279h311z" />
    <glyph glyph-name="gacute" unicode="&#x1f5;" horiz-adv-x="1015" 
d="M483 969q164 0 271 -66q31 26 44.5 55.5t26.5 88.5l197 -66q-7 -65 -54.5 -111t-111.5 -65q43 -67 43 -170q0 -106 -57.5 -181.5t-151 -111t-211.5 -35.5q-74 0 -117 15q-51 -30 -51 -84q0 -31 21.5 -48.5t62.5 -17.5h256q159 0 246.5 -73t87.5 -199q0 -64 -21 -116
t-60 -87.5t-89 -61t-112.5 -40t-124.5 -21t-132 -6.5q-89 0 -163 12t-136.5 38.5t-97.5 75.5t-35 116q0 87 62.5 138t185.5 60q-67 6 -106 52t-39 110q0 60 38 108.5t113 69.5q-192 80 -192 287q0 160 110 247t297 87zM240 -150q0 -116 233 -116q147 0 214 29t67 96
q0 47 -30.5 70.5t-100.5 23.5h-224q-74 0 -116.5 -26t-42.5 -77zM322 635q0 -74 42 -119t119 -45q79 0 122.5 42.5t43.5 121.5q0 82 -43.5 124t-122.5 40q-78 0 -119.5 -43t-41.5 -121zM610 1079h-219l146 310h311z" />
    <glyph glyph-name="Ngrave" unicode="&#x1f8;" horiz-adv-x="1366" 
d="M401 1206l443 -618q30 -44 58 -90t41 -70l13 -25h9q-9 111 -9 265v538h248v-1206h-231l-445 612q-34 46 -64.5 95.5t-43.5 75.5l-14 26h-9q13 -109 13 -277v-532h-248v1206h239zM809 1329h-223l-219 279h311z" />
    <glyph glyph-name="ngrave" unicode="&#x1f9;" horiz-adv-x="1077" 
d="M340 946l29 -182q74 205 303 205q122 0 201 -74t79 -223v-672h-243v586q0 176 -140 176q-83 0 -136.5 -54.5t-53.5 -179.5v-528h-244v946h205zM676 1079h-221l-238 310h311z" />
    <glyph glyph-name="uni004102DA00B4" unicode="&#x1fa;" horiz-adv-x="1228" 
d="M942 0l-98 279h-469l-94 -279h-261l439 1206h311l438 -1206h-266zM508 666l-64 -183h328l-63 181q-31 88 -55 171.5t-32 123.5l-8 40h-8q-30 -140 -98 -333zM610 1270q-106 0 -166.5 62.5t-60.5 158.5q0 89 63.5 151t163.5 62t164 -62t64 -151q0 -95 -61 -158t-167 -63z
M610 1593q-49 0 -76.5 -29t-27.5 -77q0 -43 27.5 -72t76.5 -29t77 29t28 72q0 48 -28 77t-77 29zM719 1767h-223l131 279h311z" />
    <glyph glyph-name="aringacute" unicode="&#x1fb;" horiz-adv-x="1011" 
d="M602 293v110q-155 4 -225 -32t-70 -111q0 -48 32 -78t89 -30q68 0 121 36.5t53 104.5zM846 664v-398q0 -88 69 -88q24 0 58 15v-181q-49 -28 -137 -28q-179 0 -215 149q-61 -158 -277 -158q-128 0 -204.5 69t-76.5 189q0 162 133.5 242.5t405.5 65.5v100q0 69 -33 105
t-96 36q-127 0 -137 -143l-240 43q10 143 118 215t271 72q169 0 265 -75.5t96 -229.5zM487 1032q-106 0 -166.5 62.5t-60.5 158.5q0 89 63.5 151t163.5 62t164 -62t64 -151q0 -95 -61 -158t-167 -63zM487 1356q-49 0 -76.5 -29.5t-27.5 -77.5q0 -43 27.5 -71.5t76.5 -28.5
t77 28.5t28 71.5q0 48 -28 77.5t-77 29.5zM590 1532h-223l131 278h311z" />
    <glyph glyph-name="AEacute" unicode="&#x1fc;" horiz-adv-x="1765" 
d="M1663 0h-789v279h-421l-172 -279h-273l725 1206h930v-215h-539v-278h475v-209h-475v-289h539v-215zM879 1026l-316 -543h311v222q0 92 3 172t7 115l3 34h-8zM1233 1329h-223l131 279h311z" />
    <glyph glyph-name="aeacute" unicode="&#x1fd;" horiz-adv-x="1503" 
d="M1038 172q131 0 179 131l210 -70q-33 -134 -140 -196t-257 -62q-221 0 -342 152q-44 -71 -127 -111.5t-199 -40.5q-137 0 -218 68.5t-81 189.5q0 156 130 241.5t397 86.5q11 70 22 105q-7 58 -43.5 87t-93.5 29q-62 0 -97 -37.5t-40 -105.5l-240 43q7 97 63.5 163
t140.5 95t190 29q170 0 262 -92q112 92 282 92q187 0 288 -116t103 -298q0 -75 -12 -137h-584q3 -110 55.5 -178t151.5 -68zM836 561h352q2 14 2 47q0 78 -42 127t-118 49q-85 0 -135.5 -62t-58.5 -161zM434 156q59 0 108 29.5t70 82.5q-23 74 -26 150q-141 -1 -204 -38.5
t-63 -111.5q0 -51 30.5 -81.5t84.5 -30.5zM831 1079h-219l146 310h311z" />
    <glyph glyph-name="Oslashacute" unicode="&#x1fe;" horiz-adv-x="1298" 
d="M174 -27l-92 82l117 131q-113 156 -113 416q0 301 149.5 465t413.5 164q224 0 369 -123l102 115l97 -82l-113 -127q108 -160 108 -412q0 -299 -149.5 -463t-413.5 -164q-223 0 -366 119zM649 1010q-149 0 -225 -107.5t-76 -302.5q0 -122 31 -213l475 537q-77 86 -205 86z
M950 600q0 120 -30 209l-478 -537q76 -82 207 -82q150 0 225.5 107t75.5 303zM748 1329h-224l131 279h312z" />
    <glyph glyph-name="oslashacute" unicode="&#x1ff;" horiz-adv-x="1044" 
d="M147 -31l-90 84l99 105q-82 127 -82 319q0 237 120.5 364.5t327.5 127.5q176 0 295 -99l90 99l97 -82l-105 -113q72 -122 72 -297q0 -238 -121.5 -370t-327.5 -132q-167 0 -284 91zM623 1079h-220l146 310h311zM522 772q-207 0 -207 -297q0 -79 11 -133l342 369
q-52 61 -146 61zM731 475q0 67 -8 111l-340 -365q49 -55 139 -55q106 0 157.5 76t51.5 233z" />
    <glyph glyph-name="Adoublegrave" unicode="&#x200;" horiz-adv-x="1228" 
d="M942 0l-98 279h-469l-94 -279h-261l439 1206h311l438 -1206h-266zM508 666l-64 -183h328l-63 181q-31 88 -55 171.5t-32 123.5l-8 40h-8q-30 -140 -98 -333zM879 1329h-174l-205 279h266zM553 1329h-191l-237 279h283z" />
    <glyph glyph-name="edoublegrave" unicode="&#x201;" horiz-adv-x="993" 
d="M526 164q138 0 181 137l208 -68q-32 -134 -139 -196t-258 -62q-201 0 -322.5 129t-121.5 357q0 241 120.5 374.5t329.5 133.5q189 0 290 -113.5t101 -300.5q0 -75 -14 -127h-592q5 -122 61 -193t156 -71zM315 573h365q2 14 2 35q0 78 -44.5 127t-123.5 49
q-84 0 -136 -56.5t-63 -154.5zM788 1079h-174l-204 310h266zM463 1079h-191l-237 310h282z" />
    <glyph glyph-name="edoublegrave" unicode="&#x205;" horiz-adv-x="993" 
d="M526 164q138 0 181 137l208 -68q-32 -134 -139 -196t-258 -62q-201 0 -322.5 129t-121.5 357q0 241 120.5 374.5t329.5 133.5q189 0 290 -113.5t101 -300.5q0 -75 -14 -127h-592q5 -122 61 -193t156 -71zM315 573h365q2 14 2 35q0 78 -44.5 127t-123.5 49
q-84 0 -136 -56.5t-63 -154.5zM788 1079h-174l-204 310h266zM463 1079h-191l-237 310h282z" />
    <glyph glyph-name="Ainvertedbreve" unicode="&#x202;" horiz-adv-x="1228" 
d="M942 0l-98 279h-469l-94 -279h-261l439 1206h311l438 -1206h-266zM508 666l-64 -183h328l-63 181q-31 88 -55 171.5t-32 123.5l-8 40h-8q-30 -140 -98 -333zM608 1624q148 0 222.5 -77.5t74.5 -213.5h-182q-3 60 -29 89.5t-86 29.5t-85 -29.5t-27 -89.5h-185
q0 136 74.5 213.5t222.5 77.5z" />
    <glyph glyph-name="ainvertedbreve" unicode="&#x203;" horiz-adv-x="1011" 
d="M602 293v110q-155 4 -225 -32t-70 -111q0 -48 32 -78t89 -30q68 0 121 36.5t53 104.5zM846 664v-398q0 -88 69 -88q24 0 58 15v-181q-49 -28 -137 -28q-179 0 -215 149q-61 -158 -277 -158q-128 0 -204.5 69t-76.5 189q0 162 133.5 242.5t405.5 65.5v100q0 69 -33 105
t-96 36q-127 0 -137 -143l-240 43q10 143 118 215t271 72q169 0 265 -75.5t96 -229.5zM479 1395q148 0 223.5 -86t75.5 -226h-184q-3 69 -26.5 102.5t-88.5 33.5q-64 0 -87 -33.5t-25 -102.5h-185q0 140 75.5 226t221.5 86z" />
    <glyph glyph-name="Edoublegrave" unicode="&#x204;" horiz-adv-x="1050" 
d="M948 215v-215h-786v1206h786v-215h-538v-278h475v-209h-475v-289h538zM819 1329h-174l-205 279h267zM494 1329h-191l-237 279h282z" />
    <glyph glyph-name="Einvertedbreve" unicode="&#x206;" horiz-adv-x="1050" 
d="M948 215v-215h-786v1206h786v-215h-538v-278h475v-209h-475v-289h538zM545 1626q148 0 222.5 -77.5t74.5 -213.5h-183q-3 60 -28.5 89.5t-85.5 29.5t-85.5 -29.5t-27.5 -89.5h-184q0 136 74.5 213.5t222.5 77.5z" />
    <glyph glyph-name="einvertedbreve" unicode="&#x207;" horiz-adv-x="993" 
d="M526 164q138 0 181 137l208 -68q-32 -134 -139 -196t-258 -62q-201 0 -322.5 129t-121.5 357q0 241 120.5 374.5t329.5 133.5q189 0 290 -113.5t101 -300.5q0 -75 -14 -127h-592q5 -122 61 -193t156 -71zM315 573h365q2 14 2 35q0 78 -44.5 127t-123.5 49
q-84 0 -136 -56.5t-63 -154.5zM518 1395q148 0 223.5 -86t75.5 -226h-184q-3 69 -26.5 102.5t-88.5 33.5q-64 0 -87 -33.5t-25 -102.5h-185q0 140 75.5 226t221.5 86z" />
    <glyph glyph-name="Idoublegrave" unicode="&#x208;" horiz-adv-x="571" 
d="M162 1206h248v-1206h-248v1206zM551 1329h-174l-205 279h266zM225 1329h-190l-238 279h283z" />
    <glyph glyph-name="idoublegrave" unicode="&#x209;" horiz-adv-x="514" 
d="M135 946h244v-946h-244v946zM524 1079h-174l-205 310h267zM199 1079h-191l-237 310h282z" />
    <glyph glyph-name="Iinvertedbreve" unicode="&#x20a;" horiz-adv-x="571" 
d="M162 1206h248v-1206h-248v1206zM287 1626q148 0 222.5 -77.5t74.5 -213.5h-183q-3 60 -28.5 89.5t-85.5 29.5t-85.5 -29.5t-27.5 -89.5h-184q0 136 74.5 213.5t222.5 77.5z" />
    <glyph glyph-name="iinvertedbreve" unicode="&#x20b;" horiz-adv-x="514" 
d="M135 946h244v-946h-244v946zM256 1395q148 0 223.5 -86t75.5 -226h-184q-3 69 -26.5 102.5t-88.5 33.5q-64 0 -87.5 -34t-25.5 -102h-184q0 140 75.5 226t221.5 86z" />
    <glyph glyph-name="Odoublegrave" unicode="&#x20c;" horiz-adv-x="1298" 
d="M649 -25q-264 0 -413.5 164t-149.5 463q0 301 149.5 465t413.5 164t413.5 -164t149.5 -465q0 -299 -149.5 -463t-413.5 -164zM649 1010q-150 0 -227.5 -108t-77.5 -302q0 -195 77.5 -302.5t227.5 -107.5t226.5 107t76.5 303q0 194 -77.5 302t-225.5 108zM913 1329h-174
l-204 279h266zM588 1329h-191l-237 279h282z" />
    <glyph glyph-name="odoublegrave" unicode="&#x20d;" horiz-adv-x="1044" 
d="M522 -25q-206 0 -327 132t-121 370q0 237 120.5 364.5t327.5 127.5t328 -127.5t121 -364.5q0 -238 -121.5 -370t-327.5 -132zM522 772q-207 0 -207 -297q0 -309 207 -309q106 0 157.5 76t51.5 233q0 297 -209 297zM791 1079h-175l-204 310h266zM465 1079h-191l-237 310
h282z" />
    <glyph glyph-name="Oinvertedbreve" unicode="&#x20e;" horiz-adv-x="1298" 
d="M649 -25q-264 0 -413.5 164t-149.5 463q0 301 149.5 465t413.5 164t413.5 -164t149.5 -465q0 -299 -149.5 -463t-413.5 -164zM649 1010q-150 0 -227.5 -108t-77.5 -302q0 -195 77.5 -302.5t227.5 -107.5t226.5 107t76.5 303q0 194 -77.5 302t-225.5 108zM649 1626
q148 0 222.5 -77.5t74.5 -213.5h-182q-3 60 -29 89.5t-86 29.5t-85 -29.5t-27 -89.5h-185q0 136 74.5 213.5t222.5 77.5z" />
    <glyph glyph-name="oinvertedbreve" unicode="&#x20f;" horiz-adv-x="1044" 
d="M522 -25q-206 0 -327 132t-121 370q0 237 120.5 364.5t327.5 127.5t328 -127.5t121 -364.5q0 -238 -121.5 -370t-327.5 -132zM522 772q-207 0 -207 -297q0 -309 207 -309q106 0 157.5 76t51.5 233q0 297 -209 297zM522 1395q148 0 223.5 -86t75.5 -226h-184
q-3 69 -26.5 102.5t-88.5 33.5q-64 0 -87 -33.5t-25 -102.5h-185q0 140 75.5 226t221.5 86z" />
    <glyph glyph-name="Rinvertedbreve" unicode="&#x212;" horiz-adv-x="1169" 
d="M1110 0h-276q-39 37 -60 121l-47 190q-19 82 -60 108.5t-124 26.5h-133v-446h-248v1206h456q210 0 319.5 -86.5t109.5 -273.5q0 -136 -74 -214t-195 -87v-6q86 -12 133 -53t70 -128l61 -229q23 -82 68 -129zM410 997v-344h192q96 0 143.5 41t47.5 131q0 83 -48 127.5
t-141 44.5h-194zM557 1626q148 0 222.5 -77.5t74.5 -213.5h-182q-3 60 -29 89.5t-86 29.5t-85.5 -29.5t-27.5 -89.5h-184q0 136 74.5 213.5t222.5 77.5z" />
    <glyph glyph-name="rinvertedbreve" unicode="&#x213;" horiz-adv-x="780" 
d="M752 967l-25 -271q-50 13 -98 13q-46 0 -88.5 -14.5t-80 -44t-59.5 -81.5t-22 -120v-449h-244v946h211l29 -258q69 295 377 279zM442 1395q148 0 223.5 -86t75.5 -226h-184q-3 69 -26.5 102.5t-88.5 33.5q-64 0 -87 -33.5t-25 -102.5h-185q0 140 75.5 226t221.5 86z" />
    <glyph glyph-name="Udoublegrave" unicode="&#x214;" horiz-adv-x="1226" 
d="M852 1206h248v-805q0 -94 -26.5 -168t-71 -121.5t-107.5 -79t-132 -44.5t-149 -13q-81 0 -150 13t-132.5 44.5t-108 79.5t-70.5 121.5t-26 167.5v805h248v-737q0 -145 55.5 -216t183.5 -71q127 0 182.5 71.5t55.5 215.5v737zM877 1329h-175l-204 279h266zM551 1329h-191
l-237 279h283z" />
    <glyph glyph-name="udoublegrave" unicode="&#x215;" horiz-adv-x="1071" 
d="M725 0l-29 174q-28 -100 -99 -149.5t-194 -49.5q-133 0 -208.5 74.5t-75.5 233.5v663h243v-602q0 -93 34.5 -138.5t109.5 -45.5q78 0 132 66.5t54 195.5v524h244v-946h-211zM795 1079h-174l-205 310h266zM469 1079h-190l-238 310h283z" />
    <glyph glyph-name="Uinvertedbreve" unicode="&#x216;" horiz-adv-x="1226" 
d="M852 1206h248v-805q0 -94 -26.5 -168t-71 -121.5t-107.5 -79t-132 -44.5t-149 -13q-81 0 -150 13t-132.5 44.5t-108 79.5t-70.5 121.5t-26 167.5v805h248v-737q0 -145 55.5 -216t183.5 -71q127 0 182.5 71.5t55.5 215.5v737zM612 1626q148 0 222.5 -77.5t74.5 -213.5
h-182q-3 60 -29 89.5t-86 29.5t-85 -29.5t-27 -89.5h-185q0 136 74.5 213.5t222.5 77.5z" />
    <glyph glyph-name="uinvertedbreve" unicode="&#x217;" horiz-adv-x="1071" 
d="M725 0l-29 174q-28 -100 -99 -149.5t-194 -49.5q-133 0 -208.5 74.5t-75.5 233.5v663h243v-602q0 -93 34.5 -138.5t109.5 -45.5q78 0 132 66.5t54 195.5v524h244v-946h-211zM526 1395q148 0 223.5 -86t75.5 -226h-184q-3 69 -26.5 102.5t-88.5 33.5q-64 0 -87 -33.5
t-25 -102.5h-185q0 140 75.5 226t221.5 86z" />
    <glyph glyph-name="Scommaaccent" unicode="&#x218;" horiz-adv-x="1030" 
d="M49 276l227 91q19 -95 82 -148t154 -53q81 0 129.5 35t48.5 102q0 65 -45.5 104.5t-171.5 81.5q-98 31 -165 65t-117 79.5t-73.5 105.5t-23.5 138q0 77 23.5 139t63 101.5t93 66.5t111.5 38t121 11q409 0 440 -315l-246 -58q-7 82 -60.5 126t-129.5 44
q-69 0 -113.5 -34.5t-44.5 -98.5q0 -68 51.5 -105t176.5 -77q94 -31 155 -61t112.5 -74.5t75 -106t23.5 -145.5q0 -92 -35 -161.5t-98.5 -110.5t-143 -61t-175.5 -20q-184 0 -295 71.5t-150 229.5zM686 -289q0 -227 -276 -227v86q67 2 99 20t32 62q-59 -9 -100.5 20
t-41.5 88t38.5 92t97.5 33q65 0 108 -48.5t43 -125.5z" />
    <glyph glyph-name="scommaaccent" unicode="&#x219;" horiz-adv-x="892" 
d="M43 217l205 76q13 -75 63.5 -110.5t126.5 -35.5q69 0 109.5 24.5t40.5 72.5q0 45 -29.5 71t-99.5 45l-140 33q-124 30 -182.5 99t-58.5 178q0 82 31.5 142.5t86.5 93.5t119 48t140 15q339 0 362 -262l-231 -33q-6 60 -41 86t-103 26q-59 0 -93 -25t-34 -69
q0 -41 24.5 -65.5t80.5 -34.5l133 -31q139 -31 206.5 -103.5t67.5 -193.5q0 -76 -29.5 -133t-83 -90.5t-123 -49.5t-155.5 -16q-175 0 -272 56.5t-121 185.5zM598 -289q0 -227 -276 -227v86q67 2 99 20t32 62q-59 -9 -100.5 20t-41.5 88t38 92t97 33q65 0 108.5 -48.5
t43.5 -125.5z" />
    <glyph glyph-name="Hcaron" unicode="&#x21e;" horiz-adv-x="1320" 
d="M410 0h-248v1206h248v-485h501v485h248v-1206h-248v504h-501v-504zM739 1325h-155l-269 287h236l63 -66q16 -17 27 -33t13 -23l3 -7h9q6 24 43 63l63 66h236z" />
    <glyph glyph-name="hcaron" unicode="&#x21f;" horiz-adv-x="1077" 
d="M379 1368v-602q73 203 293 203q122 0 201 -74t79 -223v-672h-243v586q0 176 -140 176q-84 0 -137 -54t-53 -180v-528h-244v1368h244zM338 1454h-156l-268 287h236l63 -66q16 -17 27 -33t14 -23l2 -7h8q6 24 43 63l64 66h235z" />
    <glyph glyph-name="Adotabove" unicode="&#x226;" horiz-adv-x="1228" 
d="M942 0l-98 279h-469l-94 -279h-261l439 1206h311l438 -1206h-266zM508 666l-64 -183h328l-63 181q-31 88 -55 171.5t-32 123.5l-8 40h-8q-30 -140 -98 -333zM457 1473q0 68 43 107.5t108 39.5q70 0 114 -39t44 -108q0 -66 -44.5 -106t-113.5 -40q-65 0 -108 40t-43 106z
" />
    <glyph glyph-name="adotabove" unicode="&#x227;" horiz-adv-x="1011" 
d="M602 293v110q-155 4 -225 -32t-70 -111q0 -48 32 -78t89 -30q68 0 121 36.5t53 104.5zM846 664v-398q0 -88 69 -88q24 0 58 15v-181q-49 -28 -137 -28q-179 0 -215 149q-61 -158 -277 -158q-128 0 -204.5 69t-76.5 189q0 162 133.5 242.5t405.5 65.5v100q0 69 -33 105
t-96 36q-127 0 -137 -143l-240 43q10 143 118 215t271 72q169 0 265 -75.5t96 -229.5zM322 1221q0 67 43.5 107t107.5 40q69 0 113.5 -39.5t44.5 -107.5q0 -66 -44.5 -106t-113.5 -40q-64 0 -107.5 40t-43.5 106z" />
    <glyph glyph-name="Otildemacron" unicode="&#x22c;" horiz-adv-x="1298" 
d="M649 -25q-264 0 -413.5 164t-149.5 463q0 301 149.5 465t413.5 164t413.5 -164t149.5 -465q0 -299 -149.5 -463t-413.5 -164zM649 1010q-150 0 -227.5 -108t-77.5 -302q0 -195 77.5 -302.5t227.5 -107.5t226.5 107t76.5 303q0 194 -77.5 302t-225.5 108zM801 1296
q-32 0 -59.5 6.5t-44.5 14.5t-48 26q-7 4 -22 13t-20.5 12l-16.5 9t-16.5 8t-14 5t-15.5 4t-14 1q-34 0 -52 -24.5t-11 -74.5h-139q-31 76 -20 142.5t63.5 111.5t126.5 45q43 0 74.5 -10.5t72.5 -34.5q75 -44 97 -50q12 -3 24 -3q68 0 55 96h146q50 -120 1 -208.5
t-167 -88.5zM946 1686h-592v196h592v-196z" />
    <glyph glyph-name="otildemacron" unicode="&#x22d;" horiz-adv-x="1044" 
d="M522 -25q-206 0 -327 132t-121 370q0 237 120.5 364.5t327.5 127.5t328 -127.5t121 -364.5q0 -238 -121.5 -370t-327.5 -132zM522 772q-207 0 -207 -297q0 -309 207 -309q106 0 157.5 76t51.5 233q0 297 -209 297zM676 1040q-48 0 -78.5 10.5t-73.5 36.5q-8 5 -25.5 15
t-23.5 13.5t-18 9.5t-18.5 8t-15 4t-17.5 2q-34 0 -52.5 -25.5t-11.5 -75.5h-139q-51 112 2.5 205.5t167.5 93.5q43 0 73.5 -11t73.5 -36q75 -44 97 -50q12 -3 24 -3q68 0 55 96h146q50 -119 1 -206t-167 -87zM813 1421h-580v199h580v-199z" />
    <glyph glyph-name="Odotabove" unicode="&#x22e;" horiz-adv-x="1298" 
d="M649 -25q-264 0 -413.5 164t-149.5 463q0 301 149.5 465t413.5 164t413.5 -164t149.5 -465q0 -299 -149.5 -463t-413.5 -164zM649 1010q-150 0 -227.5 -108t-77.5 -302q0 -195 77.5 -302.5t227.5 -107.5t226.5 107t76.5 303q0 194 -77.5 302t-225.5 108zM496 1473
q0 68 43 107.5t108 39.5q70 0 114 -39t44 -108q0 -66 -44.5 -106t-113.5 -40q-65 0 -108 40t-43 106z" />
    <glyph glyph-name="odotabove" unicode="&#x22f;" horiz-adv-x="1044" 
d="M522 -25q-206 0 -327 132t-121 370q0 237 120.5 364.5t327.5 127.5t328 -127.5t121 -364.5q0 -238 -121.5 -370t-327.5 -132zM522 772q-207 0 -207 -297q0 -309 207 -309q106 0 157.5 76t51.5 233q0 297 -209 297zM369 1219q0 67 43.5 107t107.5 40q69 0 113.5 -39.5
t44.5 -107.5q0 -66 -44.5 -106t-113.5 -40q-64 0 -107.5 40t-43.5 106z" />
    <glyph glyph-name="odotabovemacron" unicode="&#x231;" horiz-adv-x="1044" 
d="M369 1196q0 67 43.5 107t107.5 40q69 0 113.5 -39.5t44.5 -107.5q0 -66 -44.5 -105.5t-113.5 -39.5q-64 0 -107.5 39.5t-43.5 105.5zM522 -25q-206 0 -327 132t-121 370q0 237 120.5 364.5t327.5 127.5t328 -127.5t121 -364.5q0 -238 -121.5 -370t-327.5 -132zM522 772
q-207 0 -207 -297q0 -309 207 -309q106 0 157.5 76t51.5 233q0 297 -209 297zM813 1421h-580v199h580v-199z" />
    <glyph glyph-name="odotabovemacron" unicode="&#xe11e;" horiz-adv-x="1044" 
d="M369 1196q0 67 43.5 107t107.5 40q69 0 113.5 -39.5t44.5 -107.5q0 -66 -44.5 -105.5t-113.5 -39.5q-64 0 -107.5 39.5t-43.5 105.5zM522 -25q-206 0 -327 132t-121 370q0 237 120.5 364.5t327.5 127.5t328 -127.5t121 -364.5q0 -238 -121.5 -370t-327.5 -132zM522 772
q-207 0 -207 -297q0 -309 207 -309q106 0 157.5 76t51.5 233q0 297 -209 297zM813 1421h-580v199h580v-199z" />
    <glyph glyph-name="Ymacron" unicode="&#x232;" horiz-adv-x="1075" 
d="M303 1206l156 -319q33 -68 55 -128.5t28 -86.5l5 -27h8q12 92 86 242l152 319h262l-381 -786v-420h-248v420l-406 786h283zM834 1366h-592v197h592v-197z" />
    <glyph glyph-name="ymacron" unicode="&#x233;" horiz-adv-x="960" 
d="M274 946l138 -461q24 -82 40.5 -157.5t21.5 -110.5l5 -35h8q15 119 70 303l139 461h256l-364 -1028q-38 -106 -82 -175t-97.5 -105.5t-108.5 -50t-130 -13.5q-68 0 -158 23l33 213q57 -31 123 -31q70 0 113.5 37.5t76.5 130.5l-350 999h266zM776 1116h-579v199h579v-199z
" />
    <glyph glyph-name="dotlessj" unicode="&#x237;" horiz-adv-x="514" 
d="M135 946h244v-944q0 -153 -65 -250.5t-176.5 -136t-268.5 -29.5v205q140 -16 203 35.5t63 202.5v917z" />
    <glyph glyph-name="schwa" unicode="&#x259;" horiz-adv-x="993" 
d="M469 772q-131 0 -182 -139l-209 65q22 92 82 154t139 89.5t174 27.5q202 0 324.5 -129t122.5 -357q0 -241 -120 -374.5t-331 -133.5q-188 0 -289.5 114.5t-103.5 303.5q0 59 12 121h584q-3 117 -55.5 187.5t-147.5 70.5zM670 367h-355q-2 -12 -2 -33q0 -77 44 -126.5
t120 -49.5q85 0 134.5 56t58.5 153z" />
    <glyph glyph-name="ezh" unicode="&#x292;" horiz-adv-x="856" 
d="M238 451l116 149q33 44 65.5 81.5t48.5 52.5l17 16v8q-63 -8 -174 -8h-250v196h709v-155l-311 -375v-6q157 -9 244.5 -109t87.5 -254q0 -171 -115.5 -265.5t-313.5 -94.5q-158 0 -261 75.5t-128 210.5l224 80q9 -86 60 -131t126 -45q74 0 123 45.5t49 116.5
q0 224 -317 260v152z" />
    <glyph glyph-name="circumflex" unicode="&#x2c6;" horiz-adv-x="1017" 
d="M434 1393h150l270 -318h-231l-66 76q-17 20 -28 38t-13 26l-2 8h-10q-4 -27 -43 -72l-66 -76h-231z" />
    <glyph glyph-name="caron" unicode="&#x2c7;" horiz-adv-x="1017" 
d="M584 1075h-150l-270 318h231l66 -76q17 -20 28 -38t13 -26l2 -8h10q4 27 43 72l66 76h231z" />
    <glyph glyph-name="breve" unicode="&#x2d8;" horiz-adv-x="923" 
d="M461 1069q-146 0 -221.5 86t-75.5 225h184q2 -68 25.5 -101.5t87.5 -33.5q65 0 88 32.5t26 102.5h185q0 -139 -75.5 -225t-223.5 -86z" />
    <glyph glyph-name="dotaccent" unicode="&#x2d9;" horiz-adv-x="636" 
d="M164 1233q0 67 43.5 107t107.5 40q69 0 113.5 -39.5t44.5 -107.5q0 -66 -44.5 -106t-113.5 -40q-64 0 -107.5 40t-43.5 106z" />
    <glyph glyph-name="ring" unicode="&#x2da;" horiz-adv-x="782" 
d="M391 1047q-106 0 -166.5 62.5t-60.5 158.5q0 89 63.5 151t163.5 62t163.5 -62t63.5 -151q0 -96 -60.5 -158.5t-166.5 -62.5zM391 1370q-49 0 -76.5 -29t-27.5 -77q0 -43 27.5 -72t76.5 -29t77 29t28 72q0 48 -28 77t-77 29z" />
    <glyph glyph-name="ogonek" unicode="&#x2db;" horiz-adv-x="821" 
d="M135 -207q0 63 26 115t64.5 84t86.5 54.5t88 32t73 11.5l68 -90q-84 0 -143.5 -43t-59.5 -121q0 -51 27.5 -79.5t74.5 -28.5q78 0 138 69l59 -123q-83 -106 -248 -106q-110 0 -182 56t-72 169z" />
    <glyph glyph-name="tilde" unicode="&#x2dc;" horiz-adv-x="1017" 
d="M662 1073q-48 0 -78.5 10.5t-73.5 36.5q-5 3 -17.5 10t-17 9.5t-14 8t-13.5 7.5t-11.5 5.5t-12 4.5t-10.5 3t-11.5 2.5t-11.5 0.5q-34 0 -52 -25t-11 -75h-140q-51 112 2.5 205.5t167.5 93.5q43 0 74 -11.5t74 -35.5q75 -44 97 -50q12 -3 24 -3q68 0 55 96h145
q50 -118 1.5 -205.5t-166.5 -87.5z" />
    <glyph glyph-name="hungarumlaut" unicode="&#x2dd;" horiz-adv-x="1081" 
d="M340 1079h-176l112 310h269zM680 1079h-191l148 310h281z" />
    <glyph glyph-name="uni0312" unicode="&#x312;" horiz-adv-x="614" 
d="M164 1499q0 227 278 227v-86q-68 -2 -99.5 -19.5t-31.5 -61.5q58 9 99 -20.5t41 -88.5t-38.5 -92t-97.5 -33q-65 0 -108 48.5t-43 125.5z" />
    <glyph glyph-name="uni0320" unicode="&#x320;" horiz-adv-x="907" 
d="M743 -387h-579v197h579v-197z" />
    <glyph glyph-name="uni0323" unicode="&#x323;" horiz-adv-x="636" 
d="M164 -254q0 68 43 108t108 40q68 0 113 -40t45 -108q0 -66 -45 -105.5t-113 -39.5q-65 0 -108 39.5t-43 105.5z" />
    <glyph glyph-name="uni0329" unicode="&#x329;" horiz-adv-x="563" 
d="M164 -426v332h235v-316z" />
    <glyph glyph-name="pi" unicode="&#x3c0;" horiz-adv-x="1400" 
d="M332 985h921v-186h-206v-512q0 -58 18 -84.5t59 -26.5q40 0 68 23.5t55 70.5l92 -141q-38 -81 -104.5 -117.5t-167.5 -36.5q-133 0 -200.5 66.5t-67.5 222.5v535h-199l-94 -799h-248l102 799h-24q-60 0 -91.5 -36t-35.5 -114h-189q0 72 16 130.5t51 106t97 73.5t148 26z
" />
    <glyph glyph-name="uni0E3F" unicode="&#xe3f;" horiz-adv-x="1144" 
d="M537 -217v217h-365v985h365v191h102v-191h45q154 0 241 -64t87 -186q0 -194 -193 -227v-8q110 -9 173 -71t63 -159q0 -137 -91.5 -203.5t-275.5 -66.5h-49v-217h-102zM655 418h-16v-244h8q84 0 125 27.5t41 97.5q0 119 -158 119zM418 573h119v244h-119v-244zM418 418
v-244h119v244h-119zM778 694q0 59 -37 89.5t-102 33.5v-244q139 0 139 121z" />
    <glyph glyph-name="Ddotbelow" unicode="&#x1e0c;" horiz-adv-x="1255" 
d="M410 209h135q176 0 270 92t94 301q0 90 -17 158t-46.5 113t-74 73t-95.5 39.5t-115 11.5h-151v-788zM569 0h-407v1206h422q129 0 233 -33.5t184 -102t124 -184t44 -270.5q0 -131 -30 -235t-83.5 -174.5t-129.5 -117.5t-164.5 -68t-192.5 -21zM420 -274q0 67 43 107
t108 40q69 0 113.5 -39.5t44.5 -107.5q0 -66 -44.5 -106t-113.5 -40q-65 0 -108 40t-43 106z" />
    <glyph glyph-name="ddotbelow" unicode="&#x1e0d;" horiz-adv-x="1124" 
d="M748 387v188q0 103 -60 157t-143 54q-99 0 -162.5 -77t-63.5 -244q0 -144 60 -222.5t164 -78.5q79 0 142 60t63 163zM745 821v547h244v-1368h-213l-28 164q-54 -189 -297 -189q-163 0 -270 126.5t-107 353.5q0 243 110.5 378.5t311.5 135.5q90 0 159.5 -41.5t89.5 -106.5
zM377 -274q0 67 43 107t108 40q69 0 113.5 -39.5t44.5 -107.5q0 -66 -44.5 -106t-113.5 -40q-65 0 -108 40t-43 106z" />
    <glyph glyph-name="Dcedilla" unicode="&#x1e10;" horiz-adv-x="1255" 
d="M784 -246q0 -91 -63 -138.5t-164 -47.5q-68 0 -122.5 21t-82.5 55l49 120q59 -71 134 -71q65 0 65 59q0 73 -115 82l15 166h-338v1206h422q129 0 233 -33.5t184 -102t124 -184t44 -270.5q0 -156 -42 -274t-119 -190t-176 -109.5t-222 -42.5l-6 -78q180 -12 180 -168z
M410 209h135q176 0 270 92t94 301q0 90 -17 158t-46.5 113t-74 73t-95.5 39.5t-115 11.5h-151v-788z" />
    <glyph glyph-name="dcedilla" unicode="&#x1e11;" horiz-adv-x="1124" 
d="M741 -246q0 -91 -63 -138.5t-164 -47.5q-68 0 -122.5 21t-82.5 55l49 120q59 -71 134 -71q65 0 65 59q0 73 -115 82l13 141h-4q-163 0 -270 126.5t-107 353.5q0 243 110.5 378.5t311.5 135.5q90 0 159.5 -41.5t89.5 -106.5v547h244v-1368h-213l-28 164
q-41 -141 -181 -174l-6 -68q180 -12 180 -168zM748 387v188q0 103 -60 157t-143 54q-99 0 -162.5 -77t-63.5 -244q0 -144 60 -222.5t164 -78.5q79 0 142 60t63 163z" />
    <glyph glyph-name="Hdotbelow" unicode="&#x1e24;" horiz-adv-x="1320" 
d="M410 0h-248v1206h248v-485h501v485h248v-1206h-248v504h-501v-504zM506 -274q0 67 43 107t108 40q69 0 113.5 -39.5t44.5 -107.5q0 -66 -44.5 -106t-113.5 -40q-65 0 -108 40t-43 106z" />
    <glyph glyph-name="hdotbelow" unicode="&#x1e25;" horiz-adv-x="1077" 
d="M379 1368v-602q73 203 293 203q122 0 201 -74t79 -223v-672h-243v586q0 176 -140 176q-84 0 -137 -54t-53 -180v-528h-244v1368h244zM391 -274q0 67 43.5 107t108.5 40q69 0 113 -39.5t44 -107.5q0 -66 -44 -106t-113 -40q-65 0 -108.5 40t-43.5 106z" />
    <glyph glyph-name="Ldotbelow" unicode="&#x1e36;" horiz-adv-x="958" 
d="M162 1206h248v-991h495v-215h-743v1206zM379 -274q0 67 43 107t108 40q69 0 113.5 -39.5t44.5 -107.5q0 -66 -44.5 -106t-113.5 -40q-65 0 -108 40t-43 106z" />
    <glyph glyph-name="ldotbelow" unicode="&#x1e37;" horiz-adv-x="573" 
d="M520 209l-10 -205q-83 -22 -143 -22q-108 0 -178 56t-70 173v1157h243v-1089q0 -42 24 -63t63 -21q36 0 71 14zM166 -274q0 67 43 107t108 40q69 0 113.5 -39.5t44.5 -107.5q0 -66 -44.5 -106t-113.5 -40q-65 0 -108 40t-43 106z" />
    <glyph glyph-name="uni004C032300AF" unicode="&#x1e38;" horiz-adv-x="958" 
d="M162 1206h248v-991h495v-215h-743v1206zM379 -274q0 67 43 107t108 40q69 0 113.5 -39.5t44.5 -107.5q0 -66 -44.5 -106t-113.5 -40q-65 0 -108 40t-43 106zM623 1366h-592v197h592v-197z" />
    <glyph glyph-name="ldotbelowmacron" unicode="&#x1e39;" horiz-adv-x="573" 
d="M520 209l-10 -205q-83 -22 -143 -22q-108 0 -178 56t-70 173v1157h243v-1089q0 -42 24 -63t63 -21q36 0 71 14zM166 -274q0 67 43 107t108 40q69 0 113.5 -39.5t44.5 -107.5q0 -66 -44.5 -106t-113.5 -40q-65 0 -108 40t-43 106zM547 1505h-592v197h592v-197z" />
    <glyph glyph-name="Mdotbelow" unicode="&#x1e42;" horiz-adv-x="1499" 
d="M815 285h-131l-186 323q-29 49 -51.5 97t-30.5 71l-8 23h-9q11 -70 11 -209v-590h-248v1206h262l246 -456q28 -49 47.5 -91t24.5 -59l6 -18h8q17 57 78 168l247 456h256v-1206h-247v590q0 62 3 114t6 74l3 21h-8q-27 -80 -93 -191zM596 -274q0 67 43.5 107t108.5 40
q69 0 113 -39.5t44 -107.5q0 -66 -44 -106t-113 -40q-65 0 -108.5 40t-43.5 106z" />
    <glyph glyph-name="mdotbelow" unicode="&#x1e43;" horiz-adv-x="1615" 
d="M913 762q35 103 116.5 155t187.5 52q124 0 199 -72.5t75 -220.5v-676h-244v586q0 176 -137 176q-76 0 -125 -56t-49 -178v-528h-246v586q0 86 -31.5 131t-103.5 45q-76 0 -126 -56.5t-50 -177.5v-528h-244v946h205l29 -182q73 205 293 205q217 0 251 -207zM659 -274
q0 67 43.5 107t108.5 40q69 0 113.5 -39.5t44.5 -107.5q0 -66 -44.5 -106t-113.5 -40q-65 0 -108.5 40t-43.5 106z" />
    <glyph glyph-name="Ndotaccent" unicode="&#x1e44;" horiz-adv-x="1366" 
d="M401 1206l443 -618q30 -44 58 -90t41 -70l13 -25h9q-9 111 -9 265v538h248v-1206h-231l-445 612q-34 46 -64.5 95.5t-43.5 75.5l-14 26h-9q13 -109 13 -277v-532h-248v1206h239zM530 1473q0 68 43.5 107.5t108.5 39.5q70 0 114 -39t44 -108q0 -66 -44.5 -106t-113.5 -40
q-65 0 -108.5 40t-43.5 106z" />
    <glyph glyph-name="ndotaccent" unicode="&#x1e45;" horiz-adv-x="1077" 
d="M340 946l29 -182q74 205 303 205q122 0 201 -74t79 -223v-672h-243v586q0 176 -140 176q-83 0 -136.5 -54.5t-53.5 -179.5v-528h-244v946h205zM395 1221q0 67 44 107t108 40q69 0 113.5 -39.5t44.5 -107.5q0 -66 -44.5 -106t-113.5 -40q-64 0 -108 40t-44 106z" />
    <glyph glyph-name="Ndotbelow" unicode="&#x1e46;" horiz-adv-x="1366" 
d="M401 1206l443 -618q30 -44 58 -90t41 -70l13 -25h9q-9 111 -9 265v538h248v-1206h-231l-445 612q-34 46 -64.5 95.5t-43.5 75.5l-14 26h-9q13 -109 13 -277v-532h-248v1206h239zM530 -274q0 67 43.5 107t108.5 40q69 0 113.5 -39.5t44.5 -107.5q0 -66 -44.5 -106
t-113.5 -40q-65 0 -108.5 40t-43.5 106z" />
    <glyph glyph-name="ndotbelow" unicode="&#x1e47;" horiz-adv-x="1077" 
d="M340 946l29 -182q74 205 303 205q122 0 201 -74t79 -223v-672h-243v586q0 176 -140 176q-83 0 -136.5 -54.5t-53.5 -179.5v-528h-244v946h205zM393 -274q0 67 43.5 107t108.5 40q69 0 113 -39.5t44 -107.5q0 -66 -44 -106t-113 -40q-65 0 -108.5 40t-43.5 106z" />
    <glyph glyph-name="Rdotbelow" unicode="&#x1e5a;" horiz-adv-x="1169" 
d="M1110 0h-276q-39 37 -60 121l-47 190q-19 82 -60 108.5t-124 26.5h-133v-446h-248v1206h456q210 0 319.5 -86.5t109.5 -273.5q0 -136 -74 -214t-195 -87v-6q86 -12 133 -53t70 -128l61 -229q23 -82 68 -129zM410 997v-344h192q96 0 143.5 41t47.5 131q0 83 -48 127.5
t-141 44.5h-194zM403 -274q0 67 43.5 107t108.5 40q69 0 113.5 -39.5t44.5 -107.5q0 -66 -44.5 -106t-113.5 -40q-65 0 -108.5 40t-43.5 106z" />
    <glyph glyph-name="rdotbelow" unicode="&#x1e5b;" horiz-adv-x="780" 
d="M752 967l-25 -271q-50 13 -98 13q-46 0 -88.5 -14.5t-80 -44t-59.5 -81.5t-22 -120v-449h-244v946h211l29 -258q69 295 377 279zM102 -274q0 67 43.5 107t108.5 40q69 0 113.5 -39.5t44.5 -107.5q0 -66 -44.5 -106t-113.5 -40q-65 0 -108.5 40t-43.5 106z" />
    <glyph glyph-name="Rdotbelowmacron" unicode="&#x1e5c;" horiz-adv-x="1169" 
d="M1110 0h-276q-39 37 -60 121l-47 190q-19 82 -60 108.5t-124 26.5h-133v-446h-248v1206h456q210 0 319.5 -86.5t109.5 -273.5q0 -136 -74 -214t-195 -87v-6q86 -12 133 -53t70 -128l61 -229q23 -82 68 -129zM410 997v-344h192q96 0 143.5 41t47.5 131q0 83 -48 127.5
t-141 44.5h-194zM403 -274q0 67 43.5 107t108.5 40q69 0 113.5 -39.5t44.5 -107.5q0 -66 -44.5 -106t-113.5 -40q-65 0 -108.5 40t-43.5 106zM854 1366h-592v197h592v-197z" />
    <glyph glyph-name="rdotbelowmacron" unicode="&#x1e5d;" horiz-adv-x="780" 
d="M752 967l-25 -271q-50 13 -98 13q-46 0 -88.5 -14.5t-80 -44t-59.5 -81.5t-22 -120v-449h-244v946h211l29 -258q69 295 377 279zM733 1116h-579v199h579v-199zM102 -274q0 67 43.5 107t108.5 40q69 0 113.5 -39.5t44.5 -107.5q0 -66 -44.5 -106t-113.5 -40
q-65 0 -108.5 40t-43.5 106z" />
    <glyph glyph-name="Sdotbelow" unicode="&#x1e62;" horiz-adv-x="1030" 
d="M49 276l227 91q19 -95 82 -148t154 -53q81 0 129.5 35t48.5 102q0 65 -45.5 104.5t-171.5 81.5q-98 31 -165 65t-117 79.5t-73.5 105.5t-23.5 138q0 77 23.5 139t63 101.5t93 66.5t111.5 38t121 11q409 0 440 -315l-246 -58q-7 82 -60.5 126t-129.5 44
q-69 0 -113.5 -34.5t-44.5 -98.5q0 -68 51.5 -105t176.5 -77q94 -31 155 -61t112.5 -74.5t75 -106t23.5 -145.5q0 -92 -35 -161.5t-98.5 -110.5t-143 -61t-175.5 -20q-184 0 -295 71.5t-150 229.5zM369 -274q0 67 43 107t108 40q69 0 113.5 -39.5t44.5 -107.5
q0 -66 -44.5 -106t-113.5 -40q-65 0 -108 40t-43 106z" />
    <glyph glyph-name="sdotbelow" unicode="&#x1e63;" horiz-adv-x="892" 
d="M43 217l205 76q13 -75 63.5 -110.5t126.5 -35.5q69 0 109.5 24.5t40.5 72.5q0 45 -29.5 71t-99.5 45l-140 33q-124 30 -182.5 99t-58.5 178q0 82 31.5 142.5t86.5 93.5t119 48t140 15q339 0 362 -262l-231 -33q-6 60 -41 86t-103 26q-59 0 -93 -25t-34 -69
q0 -41 24.5 -65.5t80.5 -34.5l133 -31q139 -31 206.5 -103.5t67.5 -193.5q0 -76 -29.5 -133t-83 -90.5t-123 -49.5t-155.5 -16q-175 0 -272 56.5t-121 185.5zM299 -274q0 67 43.5 107t108.5 40q69 0 113 -39.5t44 -107.5q0 -66 -44 -106t-113 -40q-65 0 -108.5 40t-43.5 106
z" />
    <glyph glyph-name="Tdotbelow" unicode="&#x1e6c;" horiz-adv-x="964" 
d="M604 0h-248v991h-336v215h924v-215h-340v-991zM328 -274q0 67 43 107t108 40q69 0 113.5 -39.5t44.5 -107.5q0 -66 -44.5 -106t-113.5 -40q-65 0 -108 40t-43 106z" />
    <glyph glyph-name="tdotbelow" unicode="&#x1e6d;" horiz-adv-x="757" 
d="M684 240l43 -205q-114 -60 -270 -60q-142 0 -220.5 72t-78.5 221v488h-138v190h140v201l243 29v-230h281v-190h-283v-434q0 -74 30 -106t89 -32q81 0 164 56zM240 -274q0 67 43 107t108 40q69 0 113.5 -39.5t44.5 -107.5q0 -66 -44.5 -106t-113.5 -40q-65 0 -108 40
t-43 106z" />
    <glyph glyph-name="Wgrave" unicode="&#x1e80;" horiz-adv-x="1755" 
d="M1032 1206l162 -694q18 -79 33.5 -163t21.5 -129l6 -44h9q16 160 53 334l153 696h252l-280 -1206h-359l-153 635q-19 77 -31.5 160t-14.5 127l-3 45h-9q-8 -156 -51 -334l-157 -633h-351l-280 1206h264l156 -692q17 -79 31.5 -163.5t19.5 -129.5l6 -45h8q16 162 57 336
l162 694h295zM1004 1329h-224l-219 279h311z" />
    <glyph glyph-name="wgrave" unicode="&#x1e81;" horiz-adv-x="1443" 
d="M840 946l112 -414q24 -84 40 -172t20 -134l4 -46h8q8 157 53 350l103 416h243l-249 -946h-291l-105 375q-19 72 -32.5 147.5t-17.5 115.5l-3 40h-8q-10 -139 -51 -305l-95 -373h-288l-263 946h250l109 -416q22 -84 36.5 -171.5t18.5 -132.5l4 -46h8q11 164 58 352
l106 414h230zM850 1079h-221l-238 310h311z" />
    <glyph glyph-name="Wacute" unicode="&#x1e82;" horiz-adv-x="1755" 
d="M1032 1206l162 -694q18 -79 33.5 -163t21.5 -129l6 -44h9q16 160 53 334l153 696h252l-280 -1206h-359l-153 635q-19 77 -31.5 160t-14.5 127l-3 45h-9q-8 -156 -51 -334l-157 -633h-351l-280 1206h264l156 -692q17 -79 31.5 -163.5t19.5 -129.5l6 -45h8q16 162 57 336
l162 694h295zM975 1329h-223l131 279h311z" />
    <glyph glyph-name="wacute" unicode="&#x1e83;" horiz-adv-x="1443" 
d="M840 946l112 -414q24 -84 40 -172t20 -134l4 -46h8q8 157 53 350l103 416h243l-249 -946h-291l-105 375q-19 72 -32.5 147.5t-17.5 115.5l-3 40h-8q-10 -139 -51 -305l-95 -373h-288l-263 946h250l109 -416q22 -84 36.5 -171.5t18.5 -132.5l4 -46h8q11 164 58 352
l106 414h230zM813 1079h-219l145 310h312z" />
    <glyph glyph-name="Wdieresis" unicode="&#x1e84;" horiz-adv-x="1755" 
d="M1032 1206l162 -694q18 -79 33.5 -163t21.5 -129l6 -44h9q16 160 53 334l153 696h252l-280 -1206h-359l-153 635q-19 77 -31.5 160t-14.5 127l-3 45h-9q-8 -156 -51 -334l-157 -633h-351l-280 1206h264l156 -692q17 -79 31.5 -163.5t19.5 -129.5l6 -45h8q16 162 57 336
l162 694h295zM514 1475q0 66 40.5 104.5t100.5 38.5q64 0 105 -38t41 -105q0 -66 -41.5 -105t-104.5 -39q-59 0 -100 39.5t-41 104.5zM946 1473q0 67 40 105t101 38q63 0 103.5 -38t40.5 -105q0 -65 -40.5 -103.5t-103.5 -38.5q-60 0 -100.5 39t-40.5 103z" />
    <glyph glyph-name="wdieresis" unicode="&#x1e85;" horiz-adv-x="1443" 
d="M840 946l112 -414q24 -84 40 -172t20 -134l4 -46h8q8 157 53 350l103 416h243l-249 -946h-291l-105 375q-19 72 -32.5 147.5t-17.5 115.5l-3 40h-8q-10 -139 -51 -305l-95 -373h-288l-263 946h250l109 -416q22 -84 36.5 -171.5t18.5 -132.5l4 -46h8q11 164 58 352
l106 414h230zM358 1221q0 66 41 104.5t101 38.5q64 0 104.5 -38t40.5 -105q0 -66 -41 -105t-104 -39q-59 0 -100.5 39.5t-41.5 104.5zM791 1219q0 67 40 105t101 38q63 0 103 -38t40 -105q0 -65 -40 -103.5t-103 -38.5q-60 0 -100.5 39t-40.5 103z" />
    <glyph glyph-name="Idotbelow" unicode="&#x1eca;" horiz-adv-x="571" 
d="M162 1206h248v-1206h-248v1206zM133 -274q0 67 43.5 107t108.5 40q69 0 113 -39.5t44 -107.5q0 -66 -44 -106t-113 -40q-65 0 -108.5 40t-43.5 106z" />
    <glyph glyph-name="idotbelow" unicode="&#x1ecb;" horiz-adv-x="514" 
d="M104 1239q0 68 44 107.5t108 39.5q68 0 113 -39.5t45 -107.5q0 -66 -45 -104.5t-113 -38.5q-64 0 -108 39t-44 104zM135 946h244v-946h-244v946zM104 -274q0 67 43.5 107t108.5 40q69 0 113.5 -39.5t44.5 -107.5q0 -66 -44.5 -106t-113.5 -40q-65 0 -108.5 40t-43.5 106z
" />
    <glyph glyph-name="Odotbelow" unicode="&#x1ecc;" horiz-adv-x="1298" 
d="M649 -25q-264 0 -413.5 164t-149.5 463q0 301 149.5 465t413.5 164t413.5 -164t149.5 -465q0 -299 -149.5 -463t-413.5 -164zM649 1010q-150 0 -227.5 -108t-77.5 -302q0 -195 77.5 -302.5t227.5 -107.5t226.5 107t76.5 303q0 194 -77.5 302t-225.5 108zM496 -274
q0 67 43 107t108 40q69 0 113.5 -39.5t44.5 -107.5q0 -66 -44.5 -106t-113.5 -40q-65 0 -108 40t-43 106z" />
    <glyph glyph-name="odotbelow" unicode="&#x1ecd;" horiz-adv-x="1044" 
d="M522 -25q-206 0 -327 132t-121 370q0 237 120.5 364.5t327.5 127.5t328 -127.5t121 -364.5q0 -238 -121.5 -370t-327.5 -132zM522 772q-207 0 -207 -297q0 -309 207 -309q106 0 157.5 76t51.5 233q0 297 -209 297zM369 -274q0 67 43 107t108 40q69 0 113.5 -39.5
t44.5 -107.5q0 -66 -44.5 -106t-113.5 -40q-65 0 -108 40t-43 106z" />
    <glyph glyph-name="Udotbelow" unicode="&#x1ee4;" horiz-adv-x="1226" 
d="M852 1206h248v-805q0 -94 -26.5 -168t-71 -121.5t-107.5 -79t-132 -44.5t-149 -13q-81 0 -150 13t-132.5 44.5t-108 79.5t-70.5 121.5t-26 167.5v805h248v-737q0 -145 55.5 -216t183.5 -71q127 0 182.5 71.5t55.5 215.5v737zM459 -274q0 67 43 107t108 40
q69 0 113.5 -39.5t44.5 -107.5q0 -66 -44.5 -106t-113.5 -40q-65 0 -108 40t-43 106z" />
    <glyph glyph-name="udotbelow" unicode="&#x1ee5;" horiz-adv-x="1071" 
d="M725 0l-29 174q-28 -100 -99 -149.5t-194 -49.5q-133 0 -208.5 74.5t-75.5 233.5v663h243v-602q0 -93 34.5 -138.5t109.5 -45.5q78 0 132 66.5t54 195.5v524h244v-946h-211zM375 -274q0 67 43 107t108 40q69 0 113.5 -39.5t44.5 -107.5q0 -66 -44.5 -106t-113.5 -40
q-65 0 -108 40t-43 106z" />
    <glyph glyph-name="Ygrave" unicode="&#x1ef2;" horiz-adv-x="1075" 
d="M303 1206l156 -319q33 -68 55 -128.5t28 -86.5l5 -27h8q12 92 86 242l152 319h262l-381 -786v-420h-248v420l-406 786h283zM664 1329h-224l-219 279h311z" />
    <glyph glyph-name="ygrave" unicode="&#x1ef3;" horiz-adv-x="960" 
d="M274 946l138 -461q24 -82 40.5 -157.5t21.5 -110.5l5 -35h8q15 119 70 303l139 461h256l-364 -1028q-38 -106 -82 -175t-97.5 -105.5t-108.5 -50t-130 -13.5q-68 0 -158 23l33 213q57 -31 123 -31q70 0 113.5 37.5t76.5 130.5l-350 999h266zM614 1079h-221l-237 310h311z
" />
    <glyph glyph-name="Ytilde" unicode="&#x1ef8;" horiz-adv-x="1075" 
d="M303 1206l156 -319q33 -68 55 -128.5t28 -86.5l5 -27h8q12 92 86 242l152 319h262l-381 -786v-420h-248v420l-406 786h283zM688 1331q-46 0 -75.5 10.5t-75.5 36.5q-7 4 -22 13t-20.5 12l-16.5 9t-16.5 8t-14 5t-15.5 4t-14 1q-35 0 -53 -24.5t-11 -74.5h-139
q-31 76 -20 142.5t63.5 111.5t126.5 45q43 0 74.5 -10.5t72.5 -34.5q75 -44 97 -50q12 -3 24 -3q69 0 56 96h145q50 -120 1 -208.5t-167 -88.5z" />
    <glyph glyph-name="ytilde" unicode="&#x1ef9;" horiz-adv-x="960" 
d="M274 946l138 -461q24 -82 40.5 -157.5t21.5 -110.5l5 -35h8q15 119 70 303l139 461h256l-364 -1028q-38 -106 -82 -175t-97.5 -105.5t-108.5 -50t-130 -13.5q-68 0 -158 23l33 213q57 -31 123 -31q70 0 113.5 37.5t76.5 130.5l-350 999h266zM641 1073q-48 0 -78.5 10.5
t-73.5 36.5q-7 4 -20 11.5t-18 10.5t-15 8.5t-14.5 7.5t-12.5 5.5t-13 4.5t-11.5 2t-13.5 1q-35 0 -53 -25t-11 -75h-139q-51 112 2.5 205.5t167.5 93.5q43 0 73.5 -11t73.5 -36q75 -44 97 -50q12 -3 24 -3q69 0 56 96h145q50 -118 1 -205.5t-167 -87.5z" />
    <glyph glyph-name="enspace" unicode="&#x2002;" horiz-adv-x="921" 
 />
    <glyph glyph-name="emspace" unicode="&#x2003;" horiz-adv-x="1843" 
 />
    <glyph glyph-name="threeperemspace" unicode="&#x2004;" horiz-adv-x="614" 
 />
    <glyph glyph-name="fourperemspace" unicode="&#x2005;" horiz-adv-x="460" 
 />
    <glyph glyph-name="sixperemspace" unicode="&#x2006;" horiz-adv-x="307" 
 />
    <glyph glyph-name="figurespace" unicode="&#x2007;" horiz-adv-x="1050" 
 />
    <glyph glyph-name="punctuationspace" unicode="&#x2008;" horiz-adv-x="350" 
 />
    <glyph glyph-name="thinspace" unicode="&#x2009;" horiz-adv-x="184" 
 />
    <glyph glyph-name="hairspace" unicode="&#x200a;" horiz-adv-x="92" 
 />
    <glyph glyph-name="zerowidthspace" unicode="&#x200b;" horiz-adv-x="0" 
 />
    <glyph glyph-name="figuredash" unicode="&#x2012;" horiz-adv-x="1202" 
d="M131 436v166h940v-166h-940z" />
    <glyph glyph-name="endash" unicode="&#x2013;" horiz-adv-x="1024" 
d="M131 436v166h762v-166h-762z" />
    <glyph glyph-name="emdash" unicode="&#x2014;" horiz-adv-x="2048" 
d="M131 436v166h1786v-166h-1786z" />
    <glyph glyph-name="uni2015" unicode="&#x2015;" horiz-adv-x="2560" 
d="M131 436v166h2298v-166h-2298z" />
    <glyph glyph-name="doublebar" unicode="&#x2016;" horiz-adv-x="993" 
d="M403 -416h-198v1784h198v-1784zM788 -416h-198v1784h198v-1784z" />
    <glyph glyph-name="quoteleft" unicode="&#x2018;" horiz-adv-x="497" 
d="M70 1057q0 171 95 252t263 84v-105q-186 -20 -186 -153q71 12 121.5 -26.5t50.5 -111.5q0 -71 -45 -110t-117 -39q-79 0 -130.5 57.5t-51.5 151.5z" />
    <glyph glyph-name="quoteright" unicode="&#x2019;" horiz-adv-x="497" 
d="M428 1184q0 -326 -358 -336v104q184 20 184 154q-70 -11 -121 26.5t-51 110.5q0 71 46 110.5t116 39.5q79 0 131.5 -57.5t52.5 -151.5z" />
    <glyph glyph-name="quotesinglbase" unicode="&#x201a;" horiz-adv-x="497" 
d="M428 80q0 -326 -358 -336v104q184 20 184 154q-70 -11 -121 26.5t-51 110.5q0 71 46 110.5t116 39.5q79 0 131.5 -57.5t52.5 -151.5z" />
    <glyph glyph-name="reversequoteleft" unicode="&#x201b;" horiz-adv-x="497" 
d="M70 1184q0 94 52.5 151.5t131.5 57.5q70 0 116 -39.5t46 -110.5q0 -73 -51 -110.5t-121 -26.5q0 -134 184 -154v-104q-358 10 -358 336z" />
    <glyph glyph-name="quotedblleft" unicode="&#x201c;" horiz-adv-x="946" 
d="M70 1057q0 171 95 252t263 84v-105q-186 -20 -186 -153q71 12 121.5 -26.5t50.5 -111.5q0 -71 -45 -110t-117 -39q-79 0 -130.5 57.5t-51.5 151.5zM518 1057q0 171 95.5 252t263.5 84v-105q-187 -20 -187 -153q71 12 121.5 -26.5t50.5 -111.5q0 -71 -45 -110t-117 -39
q-79 0 -130.5 57.5t-51.5 151.5z" />
    <glyph glyph-name="quotedblright" unicode="&#x201d;" horiz-adv-x="946" 
d="M428 1184q0 -171 -95 -252t-263 -84v104q186 20 186 154q-71 -12 -121.5 26t-50.5 111q0 71 45 110.5t117 39.5q79 0 130.5 -57.5t51.5 -151.5zM877 1184q0 -171 -95.5 -252t-263.5 -84v104q187 20 187 154q-71 -12 -122 26t-51 111q0 71 45 110.5t117 39.5
q79 0 131 -57.5t52 -151.5z" />
    <glyph glyph-name="quotedblbase" unicode="&#x201e;" horiz-adv-x="946" 
d="M428 80q0 -171 -95 -252t-263 -84v104q186 20 186 154q-71 -12 -121.5 26t-50.5 111q0 71 45 110.5t117 39.5q79 0 130.5 -57.5t51.5 -151.5zM877 80q0 -171 -95.5 -252t-263.5 -84v104q187 20 187 154q-71 -12 -122 26t-51 111q0 71 45 110.5t117 39.5q79 0 131 -57.5
t52 -151.5z" />
    <glyph glyph-name="reversequotedblleft" unicode="&#x201f;" horiz-adv-x="946" 
d="M70 1184q0 94 51.5 151.5t130.5 57.5q72 0 117 -39.5t45 -110.5q0 -73 -50.5 -111t-121.5 -26q0 -134 186 -154v-104q-168 3 -263 84t-95 252zM518 1184q0 94 51.5 151.5t130.5 57.5q72 0 117 -39.5t45 -110.5q0 -73 -50.5 -111t-121.5 -26q0 -134 187 -154v-104
q-168 3 -263.5 84t-95.5 252z" />
    <glyph glyph-name="dagger" unicode="&#x2020;" horiz-adv-x="1128" 
d="M463 543l-373 -23v228l371 -21l-21 479h248l-20 -479l370 21v-228l-370 23l20 -850h-246z" />
    <glyph glyph-name="daggerdbl" unicode="&#x2021;" horiz-adv-x="1128" 
d="M668 612l-2 -303l372 21v-226l-370 23l20 -434h-244l21 434l-375 -23v226l373 -21v303l-373 -22v227l373 -22l-21 411h246l-22 -411l372 22v-227z" />
    <glyph glyph-name="bullet" unicode="&#x2022;" horiz-adv-x="714" 
d="M137 516q0 91 65 156t154 65q91 0 156.5 -65t65.5 -156q0 -89 -65.5 -154t-156.5 -65q-89 0 -154 65t-65 154z" />
    <glyph glyph-name="ellipsis" unicode="&#x2026;" horiz-adv-x="1781" 
d="M133 150q0 71 47 119t115 48q71 0 118.5 -47.5t47.5 -119.5q0 -68 -48 -114t-118 -46q-68 0 -115 46.5t-47 113.5zM727 150q0 71 47 119t115 48q71 0 118.5 -47.5t47.5 -119.5q0 -68 -48 -114t-118 -46q-68 0 -115 46.5t-47 113.5zM1321 150q0 71 47 119t115 48
q71 0 118.5 -47.5t47.5 -119.5q0 -68 -48 -114t-118 -46q-68 0 -115 46.5t-47 113.5z" />
    <glyph glyph-name="perthousand" unicode="&#x2030;" horiz-adv-x="2510" 
d="M365 469q-151 0 -228.5 103.5t-77.5 273.5q0 166 81.5 271.5t224.5 105.5t224 -105.5t81 -271.5q0 -170 -77.5 -273.5t-227.5 -103.5zM365 1063q-59 0 -91 -59t-32 -162q0 -98 33 -159.5t90 -61.5t89.5 61.5t32.5 159.5q0 103 -31.5 162t-90.5 59zM506 0l624 1206h154
l-629 -1206h-149zM1432 -14q-151 0 -228.5 103t-77.5 273q0 166 81.5 271.5t224.5 105.5t224 -105.5t81 -271.5q0 -170 -77.5 -273t-227.5 -103zM1432 580q-59 0 -91 -59.5t-32 -162.5q0 -98 33 -159.5t90 -61.5t89.5 61.5t32.5 159.5q0 103 -31.5 162.5t-90.5 59.5z
M2148 -14q-151 0 -228 103t-77 273q0 166 81 271.5t224 105.5t224.5 -105.5t81.5 -271.5q0 -170 -78 -273t-228 -103zM2148 580q-59 0 -91 -59.5t-32 -162.5q0 -98 33 -159.5t90 -61.5t90 61.5t33 159.5q0 103 -32 162.5t-91 59.5z" />
    <glyph glyph-name="tripleprime" unicode="&#x2034;" horiz-adv-x="1144" 
d="M129 844v524h246l-99 -524h-147zM471 844v524h246l-99 -524h-147zM811 844v524h246l-99 -524h-147z" />
    <glyph glyph-name="guilsinglleft" unicode="&#x2039;" horiz-adv-x="645" 
d="M281 483v-8q40 -12 108 -88l195 -221l-125 -119l-398 434l398 437l125 -125l-195 -220q-31 -34 -58 -56.5t-39 -28.5z" />
    <glyph glyph-name="guilsinglright" unicode="&#x203a;" horiz-adv-x="645" 
d="M365 475v8q-39 14 -107 90l-195 220l123 125l398 -437l-398 -434l-125 119l195 221q30 34 57.5 56t39.5 27z" />
    <glyph glyph-name="fraction" unicode="&#x2044;" horiz-adv-x="344" 
d="M-217 0l625 1206h153l-629 -1206h-149z" />
    <glyph glyph-name="uni2070" unicode="&#x2070;" horiz-adv-x="729" 
d="M365 469q-151 0 -228.5 103.5t-77.5 273.5q0 166 81.5 271.5t224.5 105.5t224 -105.5t81 -271.5q0 -170 -77.5 -273.5t-227.5 -103.5zM365 1063q-59 0 -91 -59t-32 -162q0 -98 33 -159.5t90 -61.5t89.5 61.5t32.5 159.5q0 103 -31.5 162t-90.5 59z" />
    <glyph glyph-name="uni2074" unicode="&#x2074;" horiz-adv-x="716" 
d="M385 483v154h-360v129l362 440h182v-434h107v-135h-107v-154h-184zM389 768v145q0 34 2 70.5t4 56.5l2 19h-8q-18 -52 -63 -109l-72 -90q-21 -25 -45 -48.5t-37 -34.5l-14 -11v-8q38 10 114 10h117z" />
    <glyph glyph-name="uni2075" unicode="&#x2075;" horiz-adv-x="663" 
d="M92 791l19 415h458v-151h-317l-8 -154q45 51 145 51q97 0 158 -61t61 -166q0 -126 -83 -191t-220 -65q-117 0 -189 45t-87 127l157 72q8 -50 40.5 -78.5t84.5 -28.5q55 0 88 28.5t33 84.5q0 51 -27 80.5t-71 29.5q-60 0 -90 -38h-152z" />
    <glyph glyph-name="uni2076" unicode="&#x2076;" horiz-adv-x="694" 
d="M627 1098l-127 -97q-30 74 -117 74q-73 0 -113.5 -64t-40.5 -194h9q15 59 62 92t120 33q100 0 161.5 -63t61.5 -164q0 -110 -75.5 -178t-209.5 -68q-142 0 -220.5 91t-78.5 267q0 192 94.5 294t237.5 102q164 0 236 -125zM262 711q0 -48 31 -77.5t78 -29.5t78.5 29.5
t31.5 77.5q0 49 -31 78.5t-77 29.5q-49 0 -80 -29t-31 -79z" />
    <glyph glyph-name="uni2077" unicode="&#x2077;" horiz-adv-x="641" 
d="M416 1055h-228v-113h-153v264h579v-125l-276 -598h-195z" />
    <glyph glyph-name="uni2078" unicode="&#x2078;" horiz-adv-x="706" 
d="M354 786q-46 0 -77 -23t-31 -71q0 -41 29.5 -66.5t78.5 -25.5t78 25t29 67q0 47 -31 70.5t-76 23.5zM354 469q-133 0 -212 52t-79 151q0 69 43 115.5t121 58.5v8q-70 7 -107.5 53t-37.5 107q0 97 73 153t199 56q125 0 198 -56t73 -153q0 -61 -38 -107t-108 -53v-8
q78 -12 121 -58.5t43 -115.5q0 -98 -78.5 -150.5t-210.5 -52.5zM354 1094q-47 0 -74.5 -24.5t-27.5 -63.5t29.5 -60.5t72.5 -21.5q42 0 72.5 21.5t30.5 60.5t-28 63.5t-75 24.5z" />
    <glyph glyph-name="uni2079" unicode="&#x2079;" horiz-adv-x="694" 
d="M63 594l127 96q35 -74 117 -74q74 0 116 64t42 194h-8q-15 -59 -63 -91.5t-122 -32.5q-99 0 -160 63.5t-61 163.5q0 110 75.5 178t209.5 68q142 0 220.5 -91.5t78.5 -267.5q0 -192 -94 -293.5t-238 -101.5q-165 0 -240 125zM432 979q0 49 -31 77.5t-79 28.5
q-47 0 -78 -29t-31 -77q0 -50 31 -80.5t78 -30.5q48 0 79 30.5t31 80.5z" />
    <glyph glyph-name="uni207A" unicode="&#x207a;" horiz-adv-x="909" 
d="M92 918h299v288h121v-288h305v-121h-305v-314h-121v314h-299v121z" />
    <glyph glyph-name="uni207B" unicode="&#x207b;" horiz-adv-x="909" 
d="M817 797h-725v121h725v-121z" />
    <glyph glyph-name="uni207C" unicode="&#x207c;" horiz-adv-x="909" 
d="M817 676h-725v121h725v-121zM817 938h-725v121h725v-121z" />
    <glyph glyph-name="uni207D" unicode="&#x207d;" horiz-adv-x="473" 
d="M225 836q0 -73 12.5 -136.5t40 -122t53 -100.5t68.5 -104h-143q-35 46 -60 87.5t-50 99t-38.5 127.5t-13.5 149q0 151 44 260t118 207h143q-57 -80 -90 -138t-58.5 -145.5t-25.5 -183.5z" />
    <glyph glyph-name="uni207E" unicode="&#x207e;" horiz-adv-x="473" 
d="M268 836q0 96 -25.5 183.5t-58.5 145.5t-90 138h144q74 -98 117.5 -207t43.5 -260q0 -150 -43.5 -257.5t-117.5 -205.5h-144q43 62 68.5 104t53 100.5t40 122t12.5 136.5z" />
    <glyph glyph-name="n.superior" unicode="&#x207f;" horiz-adv-x="833" 
d="M283 1214l22 -120q47 137 209 137q92 0 152.5 -53t60.5 -164v-426h-197v375q0 60 -21 90t-71 30q-52 0 -89.5 -35t-37.5 -126v-334h-194v626h166z" />
    <glyph glyph-name="uni2080" unicode="&#x2080;" horiz-adv-x="729" 
d="M365 -14q-151 0 -228.5 103t-77.5 273q0 166 81.5 271.5t224.5 105.5t224 -105.5t81 -271.5q0 -170 -77.5 -273t-227.5 -103zM365 580q-59 0 -91 -59.5t-32 -162.5q0 -98 33 -159.5t90 -61.5t89.5 61.5t32.5 159.5q0 103 -31.5 162.5t-90.5 59.5z" />
    <glyph glyph-name="uni2081" unicode="&#x2081;" horiz-adv-x="632" 
d="M600 0h-528v137h182v416l-201 -18v145l383 43v-586h164v-137z" />
    <glyph glyph-name="uni2082" unicode="&#x2082;" horiz-adv-x="665" 
d="M616 143v-143h-561v123q196 139 269 212t73 152q0 44 -23.5 68.5t-66.5 24.5q-48 0 -78 -34.5t-30 -96.5l-154 63q3 94 77 160.5t206 66.5q116 0 189 -59t73 -170q0 -211 -301 -358v-9h327z" />
    <glyph glyph-name="uni2083" unicode="&#x2083;" horiz-adv-x="659" 
d="M395 371v-4q102 -7 151.5 -55t49.5 -130q0 -94 -78 -145t-215 -51q-116 0 -191 44t-92 122l154 61q11 -44 44.5 -69t86.5 -25q98 0 98 78q0 49 -41.5 77t-150.5 29v111q101 3 139.5 30t38.5 72q0 37 -22 57.5t-60 20.5q-41 0 -69 -22t-35 -62l-150 55q15 82 88 128
t183 46t178.5 -48t68.5 -142q0 -149 -176 -178z" />
    <glyph glyph-name="uni2084" unicode="&#x2084;" horiz-adv-x="716" 
d="M385 0v154h-360v129l362 440h182v-434h107v-135h-107v-154h-184zM389 285v145q0 34 2 70t4 56l2 19h-8q-18 -51 -63 -108l-72 -90q-21 -25 -45 -48.5t-37 -34.5l-14 -11v-9q38 11 114 11h117z" />
    <glyph glyph-name="uni2085" unicode="&#x2085;" horiz-adv-x="663" 
d="M92 307l19 416h458v-152h-317l-8 -153q45 51 145 51q97 0 158 -61t61 -166q0 -126 -83 -191t-220 -65q-117 0 -189 45t-87 127l157 71q8 -50 40.5 -78t84.5 -28q55 0 88 28.5t33 84.5q0 51 -27 80.5t-71 29.5q-59 0 -90 -39h-152z" />
    <glyph glyph-name="uni2086" unicode="&#x2086;" horiz-adv-x="694" 
d="M627 614l-127 -96q-30 74 -117 74q-73 0 -113.5 -64t-40.5 -194h9q15 59 62 92t120 33q100 0 161.5 -63.5t61.5 -164.5q0 -110 -75.5 -177.5t-209.5 -67.5q-142 0 -220.5 91t-78.5 267q0 192 94 293.5t238 101.5q164 0 236 -125zM262 227q0 -48 31 -77t78 -29t78.5 29
t31.5 77q0 50 -31 79.5t-77 29.5q-48 0 -79.5 -29.5t-31.5 -79.5z" />
    <glyph glyph-name="uni2087" unicode="&#x2087;" horiz-adv-x="641" 
d="M416 571h-228v-112h-153v264h579v-125l-276 -598h-195z" />
    <glyph glyph-name="uni2088" unicode="&#x2088;" horiz-adv-x="706" 
d="M354 303q-46 0 -77 -23t-31 -71q0 -41 29.5 -66.5t78.5 -25.5t78 25t29 67q0 47 -31 70.5t-76 23.5zM354 -14q-133 0 -212 52t-79 150q0 69 43 115.5t121 58.5v9q-70 7 -107.5 52.5t-37.5 106.5q0 97 73 153t199 56q125 0 198 -56t73 -153q0 -61 -38 -106.5t-108 -52.5
v-9q78 -12 121 -58.5t43 -115.5q0 -98 -78.5 -150t-210.5 -52zM354 610q-47 0 -74.5 -24.5t-27.5 -63.5t29.5 -60.5t72.5 -21.5q42 0 72.5 21.5t30.5 60.5t-28 63.5t-75 24.5z" />
    <glyph glyph-name="uni2089" unicode="&#x2089;" horiz-adv-x="694" 
d="M63 111l127 96q35 -74 117 -74q74 0 116 64t42 194h-8q-15 -59 -63 -92t-122 -33q-99 0 -160 63.5t-61 164.5q0 110 75.5 177.5t209.5 67.5q142 0 220.5 -91t78.5 -267q0 -192 -94 -293.5t-238 -101.5q-165 0 -240 125zM432 496q0 49 -31 77.5t-79 28.5q-47 0 -78 -29
t-31 -77q0 -50 31 -80.5t78 -30.5q48 0 79 30.5t31 80.5z" />
    <glyph glyph-name="uni208A" unicode="&#x208a;" horiz-adv-x="909" 
d="M92 434h299v291h121v-291h305v-119h-305v-315h-121v315h-299v119z" />
    <glyph glyph-name="uni208B" unicode="&#x208b;" horiz-adv-x="909" 
d="M817 313h-725v121h725v-121z" />
    <glyph glyph-name="uni208C" unicode="&#x208c;" horiz-adv-x="909" 
d="M817 195h-725v118h725v-118zM817 455h-725v123h725v-123z" />
    <glyph glyph-name="uni208D" unicode="&#x208d;" horiz-adv-x="473" 
d="M225 354q0 -74 12.5 -137.5t40 -122.5t53 -101t68.5 -104h-143q-76 103 -119 209t-43 256t44 258.5t118 206.5h143q-57 -80 -90 -138t-58.5 -145t-25.5 -182z" />
    <glyph glyph-name="uni208E" unicode="&#x208e;" horiz-adv-x="473" 
d="M268 354q0 95 -25.5 182t-58.5 145t-90 138h144q74 -98 117.5 -206.5t43.5 -258.5t-43 -256.5t-118 -208.5h-144q43 62 68.5 104t53 101t40 122.5t12.5 137.5z" />
    <glyph glyph-name="uni20A1" unicode="&#x20a1;" horiz-adv-x="1052" 
d="M223 -137l66 186q-95 62 -147 173t-52 267q0 249 133 385t365 136q29 0 43 -2l59 168l96 -35l-53 -148q43 -12 78 -30l57 159l97 -35l-66 -186q53 -53 96 -147l-182 -92l-176 -494q109 22 166 149l192 -120q-67 -117 -169 -169.5t-259 -52.5l-69 -198l-97 33l62 174
q-50 11 -80 20l-61 -176zM332 496q0 -127 41 -211l192 538q-111 -3 -172 -86.5t-61 -240.5zM453 197q40 -24 75 -29l207 580q-27 37 -67 55z" />
    <glyph glyph-name="uni20A2" unicode="&#x20a2;" horiz-adv-x="1064" 
d="M825 307l174 -110q-67 -117 -169 -169.5t-259 -52.5q-218 0 -347.5 131.5t-129.5 382.5q0 249 133 385t365 136q156 0 253.5 -62t153.5 -194l-211 -107q-27 85 -76.5 130.5t-136.5 45.5q-112 0 -175.5 -83.5t-63.5 -243.5q0 -128 41 -213.5t119 -116.5v395h149l19 -137
q39 151 202 151l-16 -190q-27 10 -53 10q-22 0 -42.5 -5.5t-41.5 -18t-34 -38.5t-13 -61v-110q103 26 159 145z" />
    <glyph glyph-name="franc" unicode="&#x20a3;" horiz-adv-x="946" 
d="M754 297h-299v-297h-246v297h-135v106h135v99h-135v106h135v377h702v-201h-456v-176h299v-106h-299v-99h299v-106z" />
    <glyph glyph-name="lira" unicode="&#x20a4;" horiz-adv-x="1042" 
d="M692 322h-213q-16 -90 -82 -121h285q27 0 46.5 3t41.5 12.5t38 30t26 52.5l172 -98q-17 -96 -93.5 -148.5t-189.5 -52.5h-617v203h64q50 0 74 34.5t26 84.5h-192v106h170q-6 14 -18 38.5t-17 35.5h-135v106h100q-6 37 -6 88q0 98 54 171.5t136 108t179 34.5
q149 0 246 -66t118 -211l-217 -51q-26 135 -147 135q-146 0 -146 -141q0 -31 11 -68h286v-106h-237q17 -39 22 -74h215v-106z" />
    <glyph glyph-name="uni20A6" unicode="&#x20a6;" horiz-adv-x="1406" 
d="M1343 317h-157v-317h-232l-360 461q-37 48 -69 96.5t-45 72.5l-13 25h-8q10 -118 10 -284v-371h-246v317h-160v107h160v102h-157v107h157v352h266l338 -446q36 -46 64 -91t39 -66l10 -22h8q-8 123 -8 277v348h246v-352h155v-107h-155v-102h157v-107z" />
    <glyph glyph-name="peseta" unicode="&#x20a7;" horiz-adv-x="2529" 
d="M406 0h-246v985h385q312 0 395 -184h698q18 56 56 98t90.5 65.5t110.5 34.5t124 11q174 0 273 -69t106 -204l-239 -26q-9 120 -154 120q-64 0 -100.5 -28t-36.5 -78q0 -93 114 -115l142 -28q139 -27 212.5 -108.5t73.5 -201.5q0 -78 -30.5 -136.5t-86.5 -93t-128.5 -51
t-161.5 -16.5q-365 0 -410 254l199 72q36 -149 223 -149q156 0 156 100q0 50 -28 73t-107 44l-150 32q-202 44 -248 199h-227v-600h-246v600h-192q-7 -171 -113.5 -256.5t-298.5 -85.5h-155v-258zM406 788v-333h124q102 0 148.5 38.5t46.5 131.5q0 88 -46.5 125.5
t-146.5 37.5h-126z" />
    <glyph glyph-name="uni20A8" unicode="&#x20a8;" horiz-adv-x="1773" 
d="M406 788v-272h155q85 0 122.5 31.5t37.5 103.5q0 137 -160 137h-155zM586 985q389 0 389 -311q0 -120 -69 -183t-185 -71v-8q37 -4 68.5 -15t46 -20.5t47 -34t45.5 -33.5l153 -98q106 -76 256 -76q111 0 111 60q0 29 -19 46t-71 27l-119 27q-184 44 -184 219
q0 64 25.5 110.5t70.5 72t96.5 37t112.5 11.5q281 0 293 -204l-197 -21q-8 82 -108 82q-84 0 -84 -63q0 -29 18.5 -45.5t67.5 -26.5l88 -18q118 -24 171.5 -85t53.5 -165q0 -114 -92 -169t-254 -55q-173 0 -287 35t-215 115l-121 94q-4 3 -23 18.5t-24 19t-21.5 16t-23.5 16
t-21.5 12.5t-24.5 12t-24 7.5t-27.5 6t-27.5 1.5h-71v-328h-246v985h426z" />
    <glyph glyph-name="uni20A9" unicode="&#x20a9;" horiz-adv-x="1804" 
d="M1722 344h-258l-86 -344h-303l-127 467q-17 62 -28.5 133.5t-13.5 112.5l-3 41h-6q-6 -144 -45 -289l-123 -465h-305l-86 344h-256v105h229l-26 104h-201v104h176l-82 328h256l125 -528q16 -64 26 -135t13 -110l2 -38h6q10 138 45 281l129 530h252l133 -528
q16 -64 27.5 -134.5t14.5 -108.5l3 -38h7q3 138 36 279l129 530h244l-82 -328h176v-104h-202l-27 -104h231v-105z" />
    <glyph glyph-name="uni20AA" unicode="&#x20aa;" horiz-adv-x="1617" 
d="M1096 291h-215v383q0 61 -30.5 94t-105.5 33h-325v-801h-248v985h610q172 0 243 -81t71 -230v-383zM1221 985h245v-674q0 -151 -70 -231t-243 -80h-608v692h215v-508h332q65 0 97 33.5t32 89.5v678z" />
    <glyph glyph-name="Euro" unicode="&#x20ac;" horiz-adv-x="1130" 
d="M696 334h-241q25 -78 78.5 -119t130.5 -41q78 0 127.5 35t85.5 113l192 -125q-64 -117 -164 -169.5t-254 -52.5q-174 0 -292.5 91.5t-155.5 267.5h-154v106h139v49q0 38 2 56h-141v106h156q38 173 160 266t309 93q150 0 245 -62.5t148 -193.5l-207 -111q-27 82 -74 126
t-129 44q-75 0 -127 -41.5t-77 -120.5h299l-21 -106h-299v-49q0 -40 2 -56h283z" />
    <glyph glyph-name="uni20AE" unicode="&#x20ae;" horiz-adv-x="968" 
d="M604 0h-246v254l-213 -37v105l213 36v101l-213 -37v104l213 37v221h-317v201h887v-201h-324v-180l213 37v-104l-213 -37v-101l213 37v-104l-213 -37v-295z" />
    <glyph glyph-name="uni20B1" unicode="&#x20b1;" horiz-adv-x="1206" 
d="M1165 561h-149q-17 -152 -122 -227.5t-286 -75.5h-153v-258h-246v561h-148v107h148v317h383q202 0 308 -76.5t118 -240.5h147v-107zM455 799v-131h315q-10 69 -56 100t-132 31h-127zM580 442q84 0 129.5 27.5t58.5 91.5h-313v-119h125z" />
    <glyph glyph-name="afii61289" unicode="&#x2113;" horiz-adv-x="768" 
d="M80 252l-62 108l154 107v483q0 222 77 321t230 99q252 0 252 -262q0 -403 -332 -680v-88q0 -90 30.5 -124t98.5 -34q63 0 127 29l-10 -205q-99 -31 -188 -31q-128 0 -206.5 62t-78.5 199v79zM399 997v-407q195 186 195 522q0 117 -90 117q-105 0 -105 -232z" />
    <glyph glyph-name="afii61352" unicode="&#x2116;" horiz-adv-x="2101" 
d="M1378 0v178h625v-178h-625zM414 504v-211q0 -174 -78.5 -250t-237.5 -90l-49 227q62 6 89.5 39.5t27.5 112.5v874h237l418 -594q31 -44 59.5 -90t41.5 -70l12 -24h8q-6 110 -6 264v201q0 173 78 249.5t237 90.5l47 -229q-62 -6 -88 -38.5t-26 -111.5v-854h-232l-420 588
q-35 46 -65.5 95t-43.5 75l-13 26h-9q13 -112 13 -280zM1688 311q-145 0 -231.5 88t-86.5 246q0 157 86 241.5t232 84.5q144 0 229.5 -85t85.5 -241q0 -158 -85.5 -246t-229.5 -88zM1686 821q-109 0 -109 -180q0 -184 109 -184q108 0 108 184q0 180 -108 180z" />
    <glyph glyph-name="published" unicode="&#x2117;" horiz-adv-x="1439" 
d="M776 467h-110v-238h-203v764h319q144 0 219.5 -65t75.5 -193q0 -141 -83 -204.5t-218 -63.5zM666 829v-206h90q63 0 92 25t29 79q0 102 -121 102h-90zM92 602q0 179 84.5 323.5t227.5 225t315 80.5q128 0 244 -47.5t200.5 -129.5t134.5 -200t50 -252t-50 -251.5
t-134.5 -199.5t-200.5 -129t-244 -47t-243.5 47t-200 129t-134 199.5t-49.5 251.5zM156 602q0 -163 77 -294t206 -202t284 -71q115 0 218 42t179.5 115.5t121 180t44.5 229.5q0 122 -44.5 228.5t-120.5 181t-179.5 117t-218.5 42.5t-219.5 -42.5t-181 -117t-121.5 -181
t-45 -228.5z" />
    <glyph glyph-name="servicemark" unicode="&#x2120;" horiz-adv-x="1255" 
d="M41 823l123 39q20 -74 102 -74q70 0 70 48q0 41 -66 55l-77 18q-63 13 -98.5 52.5t-35.5 95.5q0 87 60.5 124.5t154.5 37.5t149.5 -35.5t59.5 -104.5l-139 -18q-5 55 -74 55q-61 0 -61 -45q0 -21 12.5 -33.5t46.5 -19.5l64 -14q76 -13 115.5 -56t39.5 -106
q0 -152 -221 -152q-202 0 -225 133zM1165 698h-139v301h-10l-88 -186h-94l-89 186h-10v-301h-141v508h162l123 -235h4l123 235h159v-508z" />
    <glyph glyph-name="trademark" unicode="&#x2122;" horiz-adv-x="1239" 
d="M324 698h-140v392h-143v116h428v-116h-145v-392zM1149 698h-139v299h-11l-88 -184h-94l-88 184h-10v-299h-141v508h161l123 -235h4l123 235h160v-508z" />
    <glyph glyph-name="ohm" unicode="&#x2126;" horiz-adv-x="1372" 
d="M686 1012q-148 0 -225.5 -103.5t-77.5 -279.5q0 -151 58 -256.5t141 -149.5v-223h-467v223h235q-92 45 -159.5 162.5t-67.5 269.5q0 265 151.5 420.5t411.5 155.5t411.5 -155.5t151.5 -420.5q0 -152 -67.5 -269.5t-159.5 -162.5h238v-223h-469v223q84 44 141 149.5
t57 256.5q0 176 -77.5 279.5t-225.5 103.5z" />
    <glyph glyph-name="estimated" unicode="&#x212e;" horiz-adv-x="1325" 
d="M662 1231q145 0 257.5 -53t179.5 -143t100.5 -199.5t33.5 -233.5v-53h-883v-346q119 -119 312 -119q266 0 376 213h136q-62 -149 -190.5 -235.5t-321.5 -86.5q-116 0 -211.5 35t-161 94.5t-111 140t-66 170.5t-20.5 187q0 98 21 188t66 171t110.5 140.5t161 94.5
t211.5 35zM662 1122q-197 0 -312 -118v-349h625v349q-115 118 -313 118z" />
    <glyph glyph-name="uni2153" unicode="&#x2153;" horiz-adv-x="1777" 
d="M629 483h-529v138h183v415l-201 -18v145l383 43v-585h164v-138zM500 0l624 1206h154l-629 -1206h-149zM1456 371v-4q102 -7 151.5 -55t49.5 -130q0 -94 -78 -145t-215 -51q-116 0 -191 44t-92 122l154 61q11 -44 44.5 -69t86.5 -25q98 0 98 78q0 49 -41.5 77t-150.5 29
v111q101 3 139.5 30t38.5 72q0 37 -22 57.5t-60 20.5q-41 0 -69 -22t-35 -62l-150 55q15 82 87.5 128t182.5 46t179 -48t69 -142q0 -149 -176 -178z" />
    <glyph glyph-name="uni2154" unicode="&#x2154;" horiz-adv-x="1777" 
d="M653 627v-144h-561v123q80 57 126.5 92t93.5 75t70 69.5t37.5 62t14.5 66.5q0 44 -23.5 68t-66.5 24q-48 0 -78 -34.5t-30 -96.5l-154 63q3 94 77 161t206 67q116 0 189 -59.5t73 -170.5q0 -211 -301 -358v-8h327zM500 0l624 1206h154l-629 -1206h-149zM1456 371v-4
q102 -7 151.5 -55t49.5 -130q0 -94 -78 -145t-215 -51q-116 0 -191 44t-92 122l154 61q11 -44 44.5 -69t86.5 -25q98 0 98 78q0 49 -41.5 77t-150.5 29v111q101 3 139.5 30t38.5 72q0 37 -22 57.5t-60 20.5q-41 0 -69 -22t-35 -62l-150 55q15 82 87.5 128t182.5 46t179 -48
t69 -142q0 -149 -176 -178z" />
    <glyph glyph-name="uni215B" unicode="&#x215b;" horiz-adv-x="1777" 
d="M629 483h-529v138h183v415l-201 -18v145l383 43v-585h164v-138zM500 0l624 1206h154l-629 -1206h-149zM1415 303q-46 0 -77 -23t-31 -71q0 -41 29.5 -66.5t78.5 -25.5t78 25t29 67q0 47 -31 70.5t-76 23.5zM1415 -14q-133 0 -212 52t-79 150q0 69 43 115.5t121 58.5v9
q-70 7 -107.5 52.5t-37.5 106.5q0 97 73 153t199 56q125 0 198 -56t73 -153q0 -61 -38 -106.5t-108 -52.5v-9q78 -12 121 -58.5t43 -115.5q0 -98 -78.5 -150t-210.5 -52zM1415 610q-47 0 -74.5 -24.5t-27.5 -63.5t29.5 -60.5t72.5 -21.5q42 0 72.5 21.5t30.5 60.5t-28 63.5
t-75 24.5z" />
    <glyph glyph-name="uni215C" unicode="&#x215c;" horiz-adv-x="1777" 
d="M444 854v-4q201 -14 201 -184q0 -94 -78 -145.5t-215 -51.5q-115 0 -190 44t-92 122l153 61q11 -44 44.5 -69t86.5 -25q45 0 72 19.5t27 58.5q0 49 -41.5 77t-151.5 29v111q101 3 139.5 30t38.5 72q0 37 -22 57.5t-60 20.5q-41 0 -69 -22t-35 -62l-150 56q15 82 88 128
t183 46t179 -48.5t69 -142.5q0 -149 -177 -178zM500 0l624 1206h154l-629 -1206h-149zM1415 303q-46 0 -77 -23t-31 -71q0 -41 29.5 -66.5t78.5 -25.5t78 25t29 67q0 47 -31 70.5t-76 23.5zM1415 -14q-133 0 -212 52t-79 150q0 69 43 115.5t121 58.5v9q-70 7 -107.5 52.5
t-37.5 106.5q0 97 73 153t199 56q125 0 198 -56t73 -153q0 -61 -38 -106.5t-108 -52.5v-9q78 -12 121 -58.5t43 -115.5q0 -98 -78.5 -150t-210.5 -52zM1415 610q-47 0 -74.5 -24.5t-27.5 -63.5t29.5 -60.5t72.5 -21.5q42 0 72.5 21.5t30.5 60.5t-28 63.5t-75 24.5z" />
    <glyph glyph-name="uni215D" unicode="&#x215d;" horiz-adv-x="1777" 
d="M131 791l19 415h458v-151h-317l-8 -154q45 51 145 51q97 0 158 -61t61 -166q0 -126 -83 -191t-220 -65q-117 0 -189 45t-87 127l157 72q8 -50 40.5 -78.5t84.5 -28.5q55 0 88 28.5t33 84.5q0 51 -27 80.5t-71 29.5q-60 0 -90 -38h-152zM500 0l624 1206h154l-629 -1206
h-149zM1415 303q-46 0 -77 -23t-31 -71q0 -41 29.5 -66.5t78.5 -25.5t78 25t29 67q0 47 -31 70.5t-76 23.5zM1415 -14q-133 0 -212 52t-79 150q0 69 43 115.5t121 58.5v9q-70 7 -107.5 52.5t-37.5 106.5q0 97 73 153t199 56q125 0 198 -56t73 -153q0 -61 -38 -106.5
t-108 -52.5v-9q78 -12 121 -58.5t43 -115.5q0 -98 -78.5 -150t-210.5 -52zM1415 610q-47 0 -74.5 -24.5t-27.5 -63.5t29.5 -60.5t72.5 -21.5q42 0 72.5 21.5t30.5 60.5t-28 63.5t-75 24.5z" />
    <glyph glyph-name="uni215E" unicode="&#x215e;" horiz-adv-x="1677" 
d="M451 1055h-228v-113h-153v264h579v-125l-276 -598h-195zM410 0l624 1206h154l-629 -1206h-149zM1325 303q-46 0 -77 -23t-31 -71q0 -41 29.5 -66.5t78.5 -25.5t78 25t29 67q0 47 -31 70.5t-76 23.5zM1325 -14q-133 0 -212 52t-79 150q0 69 43 115.5t121 58.5v9
q-70 7 -107.5 52.5t-37.5 106.5q0 97 73 153t199 56q125 0 197.5 -56t72.5 -153q0 -61 -37.5 -106.5t-107.5 -52.5v-9q78 -12 121 -58.5t43 -115.5q0 -98 -78.5 -150t-210.5 -52zM1325 610q-47 0 -74.5 -24.5t-27.5 -63.5t29.5 -60.5t72.5 -21.5q42 0 72 21.5t30 60.5
t-27.5 63.5t-74.5 24.5z" />
    <glyph glyph-name="arrowleft" unicode="&#x2190;" horiz-adv-x="1423" 
d="M432 711h899v-213h-901l369 -373l-152 -150l-600 627l598 629l154 -150z" />
    <glyph glyph-name="arrowup" unicode="&#x2191;" horiz-adv-x="1402" 
d="M809 848v-848h-213v848l-373 -369l-149 154l626 598l629 -596l-151 -156z" />
    <glyph glyph-name="arrowright" unicode="&#x2192;" horiz-adv-x="1423" 
d="M47 711h899l-362 370l153 150l594 -629l-594 -627l-153 150l364 373h-901v213z" />
    <glyph glyph-name="arrowdown" unicode="&#x2193;" horiz-adv-x="1402" 
d="M594 360v846h213v-848l373 369l149 -152l-627 -600l-628 598l151 154z" />
    <glyph glyph-name="uni2196" unicode="&#x2196;" horiz-adv-x="1400" 
d="M1212 0l-850 854v-653h-206v1005h970v-200h-614l852 -854z" />
    <glyph glyph-name="uni2197" unicode="&#x2197;" horiz-adv-x="1400" 
d="M1038 854l-852 -854l-149 152l852 854h-615v200h971v-1005h-207v653z" />
    <glyph glyph-name="uni2198" unicode="&#x2198;" horiz-adv-x="1400" 
d="M186 1206l852 -852v652h207v-1006h-971v201h615l-852 854z" />
    <glyph glyph-name="uni2199" unicode="&#x2199;" horiz-adv-x="1400" 
d="M362 354l850 852l152 -151l-852 -854h614v-201h-970v1006h206v-652z" />
    <glyph glyph-name="partialdiff" unicode="&#x2202;" horiz-adv-x="1081" 
d="M281 1268l194 125q244 -124 380 -345t136 -501q0 -285 -119 -423t-331 -138q-207 0 -329 128t-122 361q0 114 33 205t89 147t124.5 85.5t144.5 29.5q90 0 150 -34.5t104 -96.5q-66 147 -176 258t-278 199zM752 463q0 134 -55.5 206t-157.5 72q-205 0 -205 -278
q0 -137 53 -212t156 -75q105 0 157 75t52 212z" />
    <glyph glyph-name="increment" unicode="&#x2206;" horiz-adv-x="1228" 
d="M1208 0h-1188l439 1206h311zM868 207l-159 457q-31 88 -55.5 170.5t-33.5 121.5l-8 39h-8q-30 -136 -96 -329l-156 -459h516z" />
    <glyph glyph-name="product" unicode="&#x220f;" horiz-adv-x="1310" 
d="M403 -416h-245v1622h995v-1622h-246v1397h-504v-1397z" />
    <glyph glyph-name="summation" unicode="&#x2211;" horiz-adv-x="952" 
d="M846 991h-303q-50 0 -90.5 1.5t-56.5 3.5l-15 1v-8q41 -29 111 -131l178 -254l-183 -256q-31 -45 -59 -78t-40 -43l-13 -10v-8q51 6 162 6h309v-215h-846l397 606l-397 600h846v-215z" />
    <glyph glyph-name="minus" unicode="&#x2212;" horiz-adv-x="1019" 
d="M928 438h-836v140h836v-140z" />
    <glyph glyph-name="radical" unicode="&#x221a;" horiz-adv-x="1257" 
d="M434 954l266 -700h7l305 1137l225 -29l-410 -1362h-233l-289 670l-188 -95l-88 181z" />
    <glyph glyph-name="infinity" unicode="&#x221e;" horiz-adv-x="1767" 
d="M287 500q0 -99 51 -152t127 -53q114 0 203 92l106 113l-106 112q-90 93 -203 93q-76 0 -127 -53t-51 -152zM885 377l-97 -98q-58 -59 -100 -91.5t-102 -54.5t-133 -22q-153 0 -255 101.5t-102 287.5t102 287.5t255 101.5q107 0 179.5 -40t155.5 -128l95 -98l96 98
q88 88 160 128t178 40q151 0 252.5 -101.5t101.5 -287.5t-101.5 -287.5t-252.5 -101.5q-107 0 -180 40t-158 128zM1483 500q0 99 -51.5 152t-128.5 53q-115 0 -201 -93l-109 -112l109 -113q85 -92 201 -92q77 0 128.5 53t51.5 152z" />
    <glyph glyph-name="integral" unicode="&#x222b;" horiz-adv-x="612" 
d="M168 -41v1096q0 70 20 125.5t54 92t81.5 61t99 35t109.5 11.5q118 0 216 -37l-39 -225q-74 47 -154 47q-143 0 -143 -161v-1096q0 -87 -30.5 -151.5t-83 -101t-115.5 -54t-136 -17.5q-115 0 -215 35l39 223q74 -47 154 -47q143 0 143 164z" />
    <glyph glyph-name="approxequal" unicode="&#x2248;" horiz-adv-x="1019" 
d="M737 506q-69 0 -225 45t-213 45q-116 0 -207 -88v137q87 90 213 90q69 0 216 -43t210 -43q112 0 197 80v-149q-68 -74 -191 -74zM737 248q-69 0 -225 45t-213 45q-117 0 -207 -90v139q90 90 213 90q69 0 216 -44t210 -44q109 0 197 82v-149q-68 -74 -191 -74z" />
    <glyph glyph-name="notequal" unicode="&#x2260;" horiz-adv-x="1019" 
d="M928 582h-258l-117 -156h375v-137h-479l-189 -248l-110 82l126 166h-184v137h287l119 156h-406v137h508l174 227l111 -82l-113 -145h156v-137z" />
    <glyph glyph-name="lessequal" unicode="&#x2264;" horiz-adv-x="868" 
d="M731 860l-377 -252l377 -258l-98 -123l-531 379l539 373zM776 41h-684v137h684v-137z" />
    <glyph glyph-name="greaterequal" unicode="&#x2265;" horiz-adv-x="868" 
d="M512 608l-377 252l92 119l537 -373l-531 -379l-96 123zM776 41h-684v137h684v-137z" />
    <glyph glyph-name="blacksquare" unicode="&#x25a0;" horiz-adv-x="1529" 
d="M162 0v1206h1206v-1206h-1206z" />
    <glyph glyph-name="whitesquare" unicode="&#x25a1;" horiz-adv-x="1529" 
d="M162 0v1206h1206v-1206h-1206zM250 1118v-1030h1032v1030h-1032z" />
    <glyph glyph-name="blacksmallsquare" unicode="&#x25aa;" horiz-adv-x="989" 
d="M162 285v665h665v-665h-665z" />
    <glyph glyph-name="whitesmallsquare" unicode="&#x25ab;" horiz-adv-x="991" 
d="M162 285v665h667v-665h-667zM250 862v-489h491v489h-491z" />
    <glyph glyph-name="triagup" unicode="&#x25b2;" 
d="M82 0l502 1231l501 -1231h-1003z" />
    <glyph glyph-name="triagrt" unicode="&#x25ba;" horiz-adv-x="1392" 
d="M162 1098l1231 -502l-1231 -502v1004z" />
    <glyph glyph-name="triagdn" unicode="&#x25bc;" 
d="M584 -25l-502 1231h1003z" />
    <glyph glyph-name="triaglf" unicode="&#x25c4;" horiz-adv-x="1392" 
d="M0 596l1231 502v-1004z" />
    <glyph glyph-name="lozenge" unicode="&#x25ca;" horiz-adv-x="1056" 
d="M967 618l-351 -688h-178l-348 688l348 672h178zM768 616l-238 476l-235 -476l235 -489z" />
    <glyph glyph-name="circle" unicode="&#x25cb;" horiz-adv-x="1062" 
d="M86 604q0 185 130 316t314 131t315.5 -131.5t131.5 -315.5t-131 -314t-316 -130q-184 0 -314 130t-130 314zM180 602q0 -148 102.5 -252t249.5 -104q143 0 247 104.5t104 251.5q0 148 -104 253.5t-247 105.5q-147 0 -249.5 -104.5t-102.5 -254.5z" />
    <glyph glyph-name="blackcircle" unicode="&#x25cf;" horiz-adv-x="1427" 
d="M86 602q0 170 84 315t228.5 229.5t314.5 84.5q127 0 243.5 -50t200.5 -134.5t134 -201t50 -243.5t-50 -243.5t-134 -200.5t-200.5 -133.5t-243.5 -49.5q-170 0 -314.5 84t-228.5 228.5t-84 314.5z" />
    <glyph glyph-name="whitecircle" unicode="&#x25ef;" horiz-adv-x="1427" 
d="M86 602q0 170 84 315t228.5 229.5t314.5 84.5q127 0 243.5 -50t200.5 -134.5t134 -201t50 -243.5t-50 -243.5t-134 -200.5t-200.5 -133.5t-243.5 -49.5q-170 0 -314.5 84t-228.5 228.5t-84 314.5zM176 602q0 -148 72 -273.5t195.5 -198.5t269.5 -73q145 0 268.5 73
t195.5 198.5t72 273.5q0 147 -72 272.5t-195.5 199t-268.5 73.5q-146 0 -270 -73.5t-195.5 -199t-71.5 -272.5z" />
    <glyph glyph-name="anglebracketleft" unicode="&#x3008;" horiz-adv-x="694" 
d="M633 -416h-244l-313 901l313 883h244l-309 -889z" />
    <glyph glyph-name="anglebracketright" unicode="&#x3009;" horiz-adv-x="694" 
d="M305 -416h-244l310 895l-310 889h244l313 -883z" />
    <glyph glyph-name="lcedilla" unicode="&#xe100;" horiz-adv-x="573" 
d="M537 -246q0 -91 -63.5 -138.5t-164.5 -47.5q-68 0 -122.5 21t-82.5 55l50 120q59 -71 133 -71q65 0 65 59q0 73 -114 82l14 166q-133 53 -133 211v1157h243v-1089q0 -42 24 -63t63 -21q36 0 71 14l-10 -205q-83 -22 -143 -22h-7l-4 -60q181 -12 181 -168z" />
    <glyph glyph-name="uni004500600323" unicode="&#xe101;" horiz-adv-x="1050" 
d="M948 215v-215h-786v1206h786v-215h-538v-278h475v-209h-475v-289h538zM401 -274q0 67 43.5 107t108.5 40q69 0 113.5 -39.5t44.5 -107.5q0 -66 -44.5 -106t-113.5 -40q-65 0 -108.5 40t-43.5 106zM653 1329h-223l131 279h311z" />
    <glyph glyph-name="uni006500600323" unicode="&#xe102;" horiz-adv-x="993" 
d="M526 164q138 0 181 137l208 -68q-32 -134 -139 -196t-258 -62q-201 0 -322.5 129t-121.5 357q0 241 120.5 374.5t329.5 133.5q189 0 290 -113.5t101 -300.5q0 -75 -14 -127h-592q5 -122 61 -193t156 -71zM315 573h365q2 14 2 35q0 78 -44.5 127t-123.5 49
q-84 0 -136 -56.5t-63 -154.5zM600 1079h-219l145 310h312zM354 -274q0 67 43.5 107t108.5 40q69 0 113.5 -39.5t44.5 -107.5q0 -66 -44.5 -106t-113.5 -40q-65 0 -108.5 40t-43.5 106z" />
    <glyph glyph-name="uni004500B40323" unicode="&#xe103;" horiz-adv-x="1050" 
d="M948 215v-215h-786v1206h786v-215h-538v-278h475v-209h-475v-289h538zM401 -274q0 67 43.5 107t108.5 40q69 0 113.5 -39.5t44.5 -107.5q0 -66 -44.5 -106t-113.5 -40q-65 0 -108.5 40t-43.5 106zM682 1329h-223l-219 279h311z" />
    <glyph glyph-name="uni006500B40323" unicode="&#xe104;" horiz-adv-x="993" 
d="M526 164q138 0 181 137l208 -68q-32 -134 -139 -196t-258 -62q-201 0 -322.5 129t-121.5 357q0 241 120.5 374.5t329.5 133.5q189 0 290 -113.5t101 -300.5q0 -75 -14 -127h-592q5 -122 61 -193t156 -71zM315 573h365q2 14 2 35q0 78 -44.5 127t-123.5 49
q-84 0 -136 -56.5t-63 -154.5zM635 1079h-221l-238 310h311zM354 -274q0 67 43.5 107t108.5 40q69 0 113.5 -39.5t44.5 -107.5q0 -66 -44.5 -106t-113.5 -40q-65 0 -108.5 40t-43.5 106z" />
    <glyph glyph-name="Gtilde" unicode="&#xe105;" horiz-adv-x="1275" 
d="M647 637h508v-637h-166l-37 141q-41 -81 -130.5 -123.5t-200.5 -42.5q-243 0 -389 159.5t-146 463.5q0 300 155.5 466.5t426.5 166.5q177 0 297.5 -77t179.5 -224l-238 -115q-30 98 -94.5 148.5t-155.5 50.5q-62 0 -116.5 -23.5t-100 -71t-72 -131t-26.5 -192.5
q0 -91 18 -165.5t54.5 -132t98 -89t142.5 -31.5q121 0 190.5 53.5t69.5 145.5v57h-268v203zM821 1331q-46 0 -75.5 10.5t-75.5 36.5q-7 4 -22 13t-20.5 12l-16.5 9t-16.5 8t-14 5t-15.5 4t-14 1q-35 0 -53 -24.5t-11 -74.5h-139q-31 76 -20 142.5t63.5 111.5t126.5 45
q70 0 148 -45q6 -4 18 -11t17 -10t14.5 -8.5t13.5 -7.5t11.5 -5.5t12 -4.5t10.5 -3t11.5 -2.5t11.5 -0.5q69 0 56 96h145q50 -120 1 -208.5t-167 -88.5z" />
    <glyph glyph-name="gtilde" unicode="&#xe106;" horiz-adv-x="1015" 
d="M483 969q164 0 271 -66q31 26 44.5 55.5t26.5 88.5l197 -66q-7 -65 -54.5 -111t-111.5 -65q43 -67 43 -170q0 -106 -57.5 -181.5t-151 -111t-211.5 -35.5q-74 0 -117 15q-51 -30 -51 -84q0 -31 21.5 -48.5t62.5 -17.5h256q159 0 246.5 -73t87.5 -199q0 -64 -21 -116
t-60 -87.5t-89 -61t-112.5 -40t-124.5 -21t-132 -6.5q-89 0 -163 12t-136.5 38.5t-97.5 75.5t-35 116q0 87 62.5 138t185.5 60q-67 6 -106 52t-39 110q0 60 38 108.5t113 69.5q-192 80 -192 287q0 160 110 247t297 87zM240 -150q0 -116 233 -116q147 0 214 29t67 96
q0 47 -30.5 70.5t-100.5 23.5h-224q-74 0 -116.5 -26t-42.5 -77zM322 635q0 -74 42 -119t119 -45q79 0 122.5 42.5t43.5 121.5q0 82 -43.5 124t-122.5 40q-78 0 -119.5 -43t-41.5 -121zM647 1073q-47 0 -77.5 10.5t-73.5 36.5q-5 3 -17.5 10t-17 9.5t-14 8t-13.5 7.5
t-11.5 5.5t-12 4.5t-10.5 3t-11.5 2.5t-11.5 0.5q-35 0 -53 -25t-11 -75h-139q-51 112 2.5 205.5t167.5 93.5q43 0 74 -11.5t74 -35.5q6 -4 18 -11t17 -10t14.5 -8.5t13.5 -7.5t11.5 -5.5t12 -4.5t10.5 -3t11.5 -2.5t11.5 -0.5q69 0 56 96h145q50 -118 1 -205.5t-167 -87.5z
" />
    <glyph glyph-name="Gcommaturnedabove" unicode="&#xe107;" horiz-adv-x="1275" 
d="M647 637h508v-637h-166l-37 141q-41 -81 -130.5 -123.5t-200.5 -42.5q-243 0 -389 159.5t-146 463.5q0 300 155.5 466.5t426.5 166.5q177 0 297.5 -77t179.5 -224l-238 -115q-30 98 -94.5 148.5t-155.5 50.5q-62 0 -116.5 -23.5t-100 -71t-72 -131t-26.5 -192.5
q0 -91 18 -165.5t54.5 -132t98 -89t142.5 -31.5q121 0 190.5 53.5t69.5 145.5v57h-268v203zM496 1499q0 227 278 227v-86q-68 -2 -99.5 -19.5t-31.5 -61.5q58 9 98.5 -20.5t40.5 -88.5t-38 -92t-97 -33q-65 0 -108 48.5t-43 125.5z" />
    <glyph glyph-name="gcommaturnedabove" unicode="&#xe108;" horiz-adv-x="1015" 
d="M483 969q164 0 271 -66q31 26 44.5 55.5t26.5 88.5l197 -66q-7 -65 -54.5 -111t-111.5 -65q43 -67 43 -170q0 -106 -57.5 -181.5t-151 -111t-211.5 -35.5q-74 0 -117 15q-51 -30 -51 -84q0 -31 21.5 -48.5t62.5 -17.5h256q159 0 246.5 -73t87.5 -199q0 -64 -21 -116
t-60 -87.5t-89 -61t-112.5 -40t-124.5 -21t-132 -6.5q-89 0 -163 12t-136.5 38.5t-97.5 75.5t-35 116q0 87 62.5 138t185.5 60q-67 6 -106 52t-39 110q0 60 38 108.5t113 69.5q-192 80 -192 287q0 160 110 247t297 87zM240 -150q0 -116 233 -116q147 0 214 29t67 96
q0 47 -30.5 70.5t-100.5 23.5h-224q-74 0 -116.5 -26t-42.5 -77zM322 635q0 -74 42 -119t119 -45q79 0 122.5 42.5t43.5 121.5q0 82 -43.5 124t-122.5 40q-78 0 -119.5 -43t-41.5 -121zM344 1247q0 228 279 228v-86q-68 -2 -99.5 -20t-31.5 -62q58 9 98.5 -20.5t40.5 -88.5
t-38 -92t-97 -33q-65 0 -108.5 48.5t-43.5 125.5z" />
    <glyph glyph-name="Hmacronbelow" unicode="&#xe109;" horiz-adv-x="1320" 
d="M410 0h-248v1206h248v-485h501v485h248v-1206h-248v504h-501v-504zM950 -387h-579v197h579v-197z" />
    <glyph glyph-name="hmacronbelow" unicode="&#xe10a;" horiz-adv-x="1077" 
d="M379 1368v-602q73 203 293 203q122 0 201 -74t79 -223v-672h-243v586q0 176 -140 176q-84 0 -137 -54t-53 -180v-528h-244v1368h244zM834 -387h-580v197h580v-197z" />
    <glyph glyph-name="Jcaron" unicode="&#xe10b;" horiz-adv-x="937" 
d="M563 1206h248v-856q0 -100 -32 -174.5t-89.5 -117t-129 -63t-157.5 -20.5q-284 0 -403 234l186 160q41 -99 90 -144t125 -45q91 0 126.5 53t35.5 164v809zM762 1325h-156l-268 287h235l64 -66q16 -17 27 -33t14 -23l2 -7h8q6 24 43 63l64 66h235z" />
    <glyph glyph-name="Kcedilla" unicode="&#xe10d;" horiz-adv-x="1159" 
d="M1130 0h-296l-345 504h-79v-504h-248v1206h248v-485h84l315 485h287l-394 -583zM778 -246q0 -91 -63 -138.5t-164 -47.5q-68 0 -122.5 21t-82.5 55l49 120q59 -71 133 -71q66 0 66 59q0 73 -115 82l19 197h110l-10 -109q180 -12 180 -168z" />
    <glyph glyph-name="kcedilla" unicode="&#xe10e;" horiz-adv-x="1028" 
d="M635 506l377 -506h-289l-287 401h-57v-401h-244v1368h244v-778h51l264 356h287zM741 -246q0 -91 -63 -138.5t-164 -47.5q-68 0 -122.5 21t-82.5 55l49 120q59 -71 134 -71q65 0 65 59q0 73 -115 82l19 197h110l-10 -109q180 -12 180 -168z" />
    <glyph glyph-name="Lcedilla" unicode="&#xe10f;" horiz-adv-x="958" 
d="M743 -246q0 -91 -63 -138.5t-164 -47.5q-68 0 -122.5 21t-82.5 55l49 120q59 -71 134 -71q65 0 65 59q0 73 -115 82l15 166h-297v1206h248v-991h495v-215h-336l-6 -78q180 -12 180 -168z" />
    <glyph glyph-name="ocedilla" unicode="&#xe110;" horiz-adv-x="1044" 
d="M741 -246q0 -91 -63 -138.5t-164 -47.5q-68 0 -122.5 21t-82.5 55l49 120q59 -71 134 -71q65 0 65 59q0 73 -115 82l13 146q-176 21 -278.5 150t-102.5 347q0 237 120.5 364.5t327.5 127.5t328 -127.5t121 -364.5q0 -225 -109 -355.5t-297 -144.5l-4 -55
q180 -12 180 -168zM522 772q-207 0 -207 -297q0 -309 207 -309q106 0 157.5 76t51.5 233q0 297 -209 297z" />
    <glyph glyph-name="Mmacron" unicode="&#xe111;" horiz-adv-x="1499" 
d="M815 285h-131l-186 323q-29 49 -51.5 97t-30.5 71l-8 23h-9q11 -70 11 -209v-590h-248v1206h262l246 -456q28 -49 47.5 -91t24.5 -59l6 -18h8q17 57 78 168l247 456h256v-1206h-247v590q0 62 3 114t6 74l3 21h-8q-27 -80 -93 -191zM1047 1366h-592v197h592v-197z" />
    <glyph glyph-name="mmacron" unicode="&#xe112;" horiz-adv-x="1615" 
d="M913 762q35 103 116.5 155t187.5 52q124 0 199 -72.5t75 -220.5v-676h-244v586q0 176 -137 176q-76 0 -125 -56t-49 -178v-528h-246v586q0 86 -31.5 131t-103.5 45q-76 0 -126 -56.5t-50 -177.5v-528h-244v946h205l29 -182q73 205 293 205q217 0 251 -207zM1104 1116
h-580v199h580v-199z" />
    <glyph glyph-name="Mcedilla" unicode="&#xe113;" horiz-adv-x="1499" 
d="M815 285h-131l-186 323q-29 49 -51.5 97t-30.5 71l-8 23h-9q11 -70 11 -209v-590h-248v1206h262l246 -456q28 -49 47.5 -91t24.5 -59l6 -18h8q17 57 78 168l247 456h256v-1206h-247v590q0 62 3 114t6 74l3 21h-8q-27 -80 -93 -191zM961 -246q0 -91 -63.5 -138.5
t-164.5 -47.5q-68 0 -122.5 21t-82.5 55l50 120q59 -71 133 -71q65 0 65 59q0 73 -114 82l18 197h111l-11 -109q181 -12 181 -168z" />
    <glyph glyph-name="mcedilla" unicode="&#xe114;" horiz-adv-x="1615" 
d="M1034 -246q0 -91 -63 -138.5t-164 -47.5q-68 0 -122.5 21t-82.5 55l49 120q59 -71 133 -71q66 0 66 59q0 73 -115 82l15 166h-60v586q0 86 -31.5 131t-103.5 45q-76 0 -126 -56.5t-50 -177.5v-528h-244v946h205l29 -182q73 205 293 205q217 0 251 -207q35 103 116.5 155
t187.5 52q124 0 199 -72.5t75 -220.5v-676h-244v586q0 176 -137 176q-76 0 -125 -56t-49 -178v-528h-76l-6 -78q180 -12 180 -168z" />
    <glyph glyph-name="Ndieresis" unicode="&#xe115;" horiz-adv-x="1366" 
d="M401 1206l443 -618q30 -44 58 -90t41 -70l13 -25h9q-9 111 -9 265v538h248v-1206h-231l-445 612q-34 46 -64.5 95.5t-43.5 75.5l-14 26h-9q13 -109 13 -277v-532h-248v1206h239zM319 1475q0 66 41 104.5t101 38.5q64 0 104.5 -38t40.5 -105q0 -66 -41 -105t-104 -39
q-59 0 -100.5 39.5t-41.5 104.5zM752 1473q0 67 40 105t101 38q63 0 103 -38t40 -105q0 -65 -40 -103.5t-103 -38.5q-60 0 -100.5 39t-40.5 103z" />
    <glyph glyph-name="ndieresis" unicode="&#xe116;" horiz-adv-x="1077" 
d="M340 946l29 -182q74 205 303 205q122 0 201 -74t79 -223v-672h-243v586q0 176 -140 176q-83 0 -136.5 -54.5t-53.5 -179.5v-528h-244v946h205zM186 1221q0 66 41 104.5t101 38.5q64 0 104.5 -38t40.5 -105q0 -66 -41 -105t-104 -39q-59 0 -100.5 39.5t-41.5 104.5z
M618 1219q0 67 40.5 105t101.5 38q63 0 103 -38t40 -105q0 -65 -40 -103.5t-103 -38.5q-60 0 -101 39t-41 103z" />
    </font>
</defs>
</svg>
