<?xml version="1.0" encoding="UTF-8"?> <svg xmlns="http://www.w3.org/2000/svg" id="DARK" viewBox="0 0 249 249"><defs><style>.cls-1{fill:#fff;}.cls-2,.cls-3{fill:none;stroke-linecap:round;stroke-miterlimit:10;}.cls-2{stroke:#c04d4e;stroke-width:2px;}.cls-3{stroke:#fff;stroke-dasharray:13 17;}</style></defs><path class="cls-1" d="M131.75,137.57H99.85v-1.9L132,94.86h1.9v40.71h9.8v2h-9.8v18.5h-2.1Zm0-2V104.06a60.35,60.35,0,0,1,.3-6.5h-.2s-1.5,2.4-5,6.9l-18.8,24.11a88,88,0,0,1-5.9,7v.2s3.4-.2,6.5-.2Z"></path><path class="cls-1" d="M124.5,22h.25V0h-.5V22Z"></path><path class="cls-1" d="M124.5,227h-.25v22h.5V227Z"></path><path class="cls-1" d="M22,124.5v-.25H0v.5H22Z"></path><path class="cls-1" d="M227,124.25v.5h22v-.5Z"></path><circle class="cls-2" cx="124.5" cy="124.66" r="76.5"></circle><circle class="cls-3" cx="124.5" cy="124.66" r="85.26"></circle></svg> 