<?xml version="1.0" encoding="UTF-8"?> <svg xmlns="http://www.w3.org/2000/svg" id="DARK" viewBox="0 0 249 249"><defs><style>.cls-1{fill:#fff;}.cls-2,.cls-3{fill:none;stroke-linecap:round;stroke-miterlimit:10;}.cls-2{stroke:#c04d4e;stroke-width:2px;}.cls-3{stroke:#fff;stroke-dasharray:13 17;}</style></defs><path class="cls-1" d="M124.5,22h.25V0h-.5V22Z"></path><path class="cls-1" d="M124.5,227h-.25v22h.5V227Z"></path><path class="cls-1" d="M22,124.5v-.25H0v.5H22Z"></path><path class="cls-1" d="M227,124.25v.5h22v-.5Z"></path><circle class="cls-2" cx="124.5" cy="124.66" r="76.5"></circle><circle class="cls-3" cx="124.5" cy="124.66" r="85.26"></circle><path class="cls-1" d="M124.55,124.47c9.5.6,17.6,6.2,17.6,16,0,10.3-8.6,16.3-18.3,16.3-11.2,0-17.9-5.4-18.9-13.9l2-.4c1.3,8.6,7.4,12.3,16.9,12.3,9,0,16.2-5.4,16.2-14.3,0-9.4-7.6-14.9-22.3-14.9v-2c11.1,0,20.3-4.5,20.3-14.71,0-8.9-6.8-12.6-14.4-12.6-8,0-13.6,4.3-15,12.7l-2-.5c1.2-8.2,7.1-14.2,17-14.2,8.6,0,16.5,4.4,16.5,14.6,0,8.71-6.6,14.71-15.6,15.41Z"></path></svg> 