<?xml version="1.0" encoding="UTF-8"?> <svg xmlns="http://www.w3.org/2000/svg" id="DARK" viewBox="0 0 249 249"><defs><style>.cls-1{fill:#fff;}.cls-2,.cls-3{fill:none;stroke:#fff;stroke-linecap:round;stroke-miterlimit:10;}.cls-2{stroke-width:2px;}.cls-3{stroke-dasharray:13 17;}</style></defs><path class="cls-1" d="M124.5,22h.25V0h-.5V22Z"></path><path class="cls-1" d="M124.5,227h-.25v22h.5V227Z"></path><path class="cls-1" d="M22,124.5v-.25H0v.5H22Z"></path><path class="cls-1" d="M227,124.25v.5h22v-.5Z"></path><circle class="cls-2" cx="124.5" cy="124.66" r="76.5"></circle><circle class="cls-3" cx="124.5" cy="124.66" r="85.26"></circle><path class="cls-1" d="M143,149.17h-36.5v-2c17.3-6.4,30.8-16.7,30.8-30.5,0-9.9-6.4-14.2-14.2-14.2-7.4,0-13,3.9-14.3,13.7l-2-.5c1.6-11.6,8.7-15.2,16.3-15.2,8.7,0,16.3,5,16.3,16.2,0,15.3-15.6,26.2-28.5,30.3v.2H143Z"></path></svg> 