<?xml version="1.0" encoding="UTF-8"?> <svg xmlns="http://www.w3.org/2000/svg" id="DARK" viewBox="0 0 249 249"><defs><style>.cls-1{fill:#fff;}.cls-2,.cls-3{fill:none;stroke-linecap:round;stroke-miterlimit:10;}.cls-2{stroke:#c04d4e;stroke-width:2px;}.cls-3{stroke:#fff;stroke-dasharray:13 17;}</style></defs><path class="cls-1" d="M141.35,107.09c-2.3-6.9-6.8-10.1-14.1-10.1-10.3,0-19.2,9.5-19.2,29.71v5.9h.2c1-9.9,8-15.81,17.6-15.81,11.3,0,18.7,7.61,18.7,19.21,0,10.3-6.2,19.1-18.7,19.1-7.4,0-13.2-3.2-16.6-10.1-2.2-4.5-3.3-10.5-3.3-18.3,0-21.51,9.6-31.71,21.3-31.71,8.2,0,13.7,3.9,16,11.4Zm-15.5,46c10.7,0,16.6-7.4,16.6-17.1s-6.1-17.21-16.6-17.21-16.5,7.5-16.5,17.21C109.35,145.5,115.65,153.1,125.85,153.1Z"></path><path class="cls-1" d="M124.5,22h.25V0h-.5V22Z"></path><path class="cls-1" d="M124.5,227h-.25v22h.5V227Z"></path><path class="cls-1" d="M22,124.5v-.25H0v.5H22Z"></path><path class="cls-1" d="M227,124.25v.5h22v-.5Z"></path><circle class="cls-2" cx="124.5" cy="124.66" r="76.5"></circle><circle class="cls-3" cx="124.5" cy="124.66" r="85.26"></circle></svg> 