<?xml version="1.0" encoding="UTF-8"?> <svg xmlns="http://www.w3.org/2000/svg" id="DARK" viewBox="0 0 249 249"><defs><style>.cls-1{fill:#fff;}.cls-2,.cls-3{fill:none;stroke-linecap:round;stroke-miterlimit:10;}.cls-2{stroke:#c04d4e;stroke-width:2px;}.cls-3{stroke:#fff;stroke-dasharray:13 17;}</style></defs><path class="cls-1" d="M112.05,94.86H140v2h-25.9L112.75,125c2.1-2.9,6.4-5.8,12.9-5.8,9.7,0,17,6.5,17,18.7,0,12.4-8,19-19.3,19-10.6,0-17.1-6-18-14.4l2-.3c1,8.3,7.5,12.7,16,12.7,9.9,0,17.2-5.8,17.2-17,0-10.6-6.2-16.7-14.9-16.7-6.2,0-10.2,2.7-13.4,6.3h-1.7Z"></path><path class="cls-1" d="M124.5,22h.25V0h-.5V22Z"></path><path class="cls-1" d="M124.5,227h-.25v22h.5V227Z"></path><path class="cls-1" d="M22,124.5v-.25H0v.5H22Z"></path><path class="cls-1" d="M227,124.25v.5h22v-.5Z"></path><circle class="cls-2" cx="124.5" cy="124.66" r="76.5"></circle><circle class="cls-3" cx="124.5" cy="124.66" r="85.26"></circle></svg> 