<?xml version="1.0" encoding="UTF-8"?> <svg xmlns="http://www.w3.org/2000/svg" id="Livello_1" data-name="Livello 1" viewBox="0 0 200 200"><defs><style>.cls-1{fill:#fff;}</style></defs><path class="cls-1" d="M183.53,151.41l-8-4a2.66,2.66,0,0,0-3.48,3.71H38.48A126.72,126.72,0,0,0,73.8,136.26l2-1.33a13.27,13.27,0,0,1-3.45-4.11l-1.24.8a122.58,122.58,0,0,1-46.82,16.85V52.52A2.66,2.66,0,0,0,28,49l-4-8a2.67,2.67,0,0,0-3.57-1.2,2.71,2.71,0,0,0-1.19,1.2l-4,8A2.66,2.66,0,0,0,19,52.49v101.3a2.65,2.65,0,0,0,2.65,2.65H172.08a2.66,2.66,0,0,0,3.48,3.71l8-4a2.66,2.66,0,0,0,1.19-3.56A2.69,2.69,0,0,0,183.53,151.41Z"></path><path class="cls-1" d="M135.66,148.37l1.42.1h.12a2.66,2.66,0,0,0,.12-5.31l-1.21-.09a2.66,2.66,0,0,0-.45,5.31Z"></path><path class="cls-1" d="M49.55,46.22h.11a2.65,2.65,0,0,0,2.65-2.55V42.34a2.63,2.63,0,1,0-5.26-.22v1.33A2.66,2.66,0,0,0,49.55,46.22Z"></path><path class="cls-1" d="M50.1,61.73a2.65,2.65,0,0,0-2.34,2.94h0c.1.89.22,1.77.33,2.66a2.65,2.65,0,0,0,2.66,2.29h.37a2.65,2.65,0,0,0,2.27-3c-.12-.84-.22-1.68-.32-2.53a2.66,2.66,0,0,0-2.89-2.4Z"></path><path class="cls-1" d="M51.74,73.28a2.67,2.67,0,0,0-2,3.17h0c.2.88.4,1.75.61,2.59a2.67,2.67,0,0,0,2.58,2,2.82,2.82,0,0,0,.65-.08,2.67,2.67,0,0,0,1.94-3.22c-.2-.81-.4-1.63-.58-2.45a2.66,2.66,0,0,0-3.16-2Z"></path><path class="cls-1" d="M72,119.06a13.22,13.22,0,0,1,3.16-4.32,2.66,2.66,0,0,0-3.56,3.91Z"></path><path class="cls-1" d="M57.74,99c.41.8.83,1.59,1.25,2.36A2.65,2.65,0,1,0,63.74,99a1.14,1.14,0,0,0-.1-.19c-.4-.72-.79-1.46-1.18-2.22A2.66,2.66,0,0,0,57.73,99Z"></path><path class="cls-1" d="M49.68,58h.12a2.65,2.65,0,0,0,2.54-2.77h0q0-1.26-.09-2.55a2.66,2.66,0,0,0-2.66-2.59h0A2.66,2.66,0,0,0,47,52.72c0,.88,0,1.77.09,2.65A2.65,2.65,0,0,0,49.68,58Z"></path><path class="cls-1" d="M53,88c.3.89.6,1.72.91,2.5a2.66,2.66,0,0,0,4.92-1.9c-.3-.78-.6-1.57-.88-2.36A2.66,2.66,0,1,0,52.9,87.8L53,88Z"></path><path class="cls-1" d="M113.85,138.41a2.65,2.65,0,0,0-1.63,5l2.55.8a2.65,2.65,0,0,0,1.5-5.07Z"></path><path class="cls-1" d="M123.78,146.55l2.66.52a4,4,0,0,0,.49,0,2.67,2.67,0,0,0,.49-5.32l-2.49-.49a2.66,2.66,0,0,0-1.11,5.19Z"></path><path class="cls-1" d="M92.48,134.85l.22.12a2.65,2.65,0,0,0,3.13-4.22A13.4,13.4,0,0,1,92.48,134.85Z"></path><path class="cls-1" d="M103.2,134.32a2.66,2.66,0,0,0-2.18,4.86l2.45,1.06a2.65,2.65,0,0,0,2-4.9Z"></path><path class="cls-1" d="M64,109.34c.52.73,1.05,1.46,1.58,2.16a2.66,2.66,0,0,0,4.34-3.06l-.1-.14c-.51-.66-1-1.34-1.49-2A2.66,2.66,0,0,0,64,109.34Z"></path><path class="cls-1" d="M95.6,117.93c14.41-16.12,25.77-40.24,24.19-75.81a2.66,2.66,0,1,0-5.32.24c1.33,29.45-6.18,53.46-22.32,71.71A13.26,13.26,0,0,1,95.6,117.93Z"></path><path class="cls-1" d="M84.08,132.54a8,8,0,1,0-8-8A8,8,0,0,0,84.08,132.54Zm0-10.63a2.66,2.66,0,1,1-2.66,2.66A2.66,2.66,0,0,1,84.08,121.91Z"></path><path class="cls-1" d="M82,110.26a2.67,2.67,0,0,0,3.73.46,2.92,2.92,0,0,0,.47-.46l4-5.16a2.66,2.66,0,0,0-3.43-4V92.7a2.66,2.66,0,1,0-5.31,0v8.49a2.65,2.65,0,0,0-3.42,4Z"></path><path class="cls-1" d="M32.29,68.8h2.65a2.66,2.66,0,1,0,0-5.32H32.29a2.66,2.66,0,1,0,0,5.32Z"></path><path class="cls-1" d="M32.29,84.73h2.65a2.66,2.66,0,1,0,0-5.31H32.29a2.66,2.66,0,1,0,0,5.31Z"></path><path class="cls-1" d="M32.29,100.67h2.65a2.66,2.66,0,1,0,0-5.31H32.29a2.66,2.66,0,1,0,0,5.31Z"></path><path class="cls-1" d="M32.29,116.6h2.65a2.66,2.66,0,1,0,0-5.31H32.29a2.66,2.66,0,1,0,0,5.31Z"></path><path class="cls-1" d="M32.29,132.54h2.65a2.66,2.66,0,1,0,0-5.31H32.29a2.66,2.66,0,1,0,0,5.31Z"></path></svg> 