<?xml version="1.0" encoding="UTF-8"?> <svg xmlns="http://www.w3.org/2000/svg" id="Livello_1" data-name="Livello 1" viewBox="0 0 200 200"><defs><style>.cls-1{fill:#fff;}</style></defs><path class="cls-1" d="M17.3,128.19l5.54,2.54c-7,10.46-7.26,17.72-7.27,18.18a1.32,1.32,0,0,0,1.24,1.33c.28,0,.57,0,.86,0,4.39,0,9.45-2,15.08-5.93a58.29,58.29,0,0,1,22.16-9.55,32.19,32.19,0,0,0,4.26-1.14A46.83,46.83,0,0,1,81.9,132a59.93,59.93,0,0,0,12.86.62,43.94,43.94,0,0,0,12.53-2.84c12.14-4.47,25.33-2.9,27.85-2.54a.69.69,0,0,1,.39.21,26.54,26.54,0,0,0,9.4,5.78,41.36,41.36,0,0,1,16.38,10.67l.86.94a1.34,1.34,0,0,0,.84.41L175,146.44a1.32,1.32,0,0,0,1.44-1.31c0-2.55-3.38-7.35-7-11.74l5-2.26a3.88,3.88,0,0,0,2.25-2.92,4,4,0,0,0-1.19-3.55A84.27,84.27,0,0,1,162.5,109c.15-.17.29-.33.4-.44,10,.28,16.76-1.75,20-6a10.7,10.7,0,0,0,1.72-9.06c-1.21-7.45-6.53-13.22-15.4-16.7a48.17,48.17,0,0,0-12-2.91c-4.61-16.63-24.49-29.92-25.34-30.49a1.32,1.32,0,0,0-2,1.41l3,12.48a79.85,79.85,0,0,0-23.45-4.48,1.29,1.29,0,0,0-1.17.68,1.33,1.33,0,0,0,.06,1.36l5.19,7.87c5.35,8.09,10.94,12.38,19.29,14.82l3.8,1.11a14.25,14.25,0,0,1-18.36,5.1l-12.46-6.2-.35-.14-1.51-.6a46.7,46.7,0,0,0-49.28,10.8l-.75.74-4.71-3.53a5.86,5.86,0,0,0-5.47-1c-2.12.75-3.44,2.59-3.82,5.33a11.66,11.66,0,0,0,.9,6.13,24.75,24.75,0,0,1,2.3,9.05c-4,1.69-21.18,9.36-27.33,18a4,4,0,0,0-.62,3.36A4,4,0,0,0,17.3,128.19Zm156.32-1.62a1.32,1.32,0,0,1,.41,1.2,1.27,1.27,0,0,1-.75,1l-5.62,2.55c-2.73-3.19-5.3-5.89-6.3-6.93a8.76,8.76,0,0,1-2.93-6.43,12.75,12.75,0,0,1,2.37-6.73A86.61,86.61,0,0,0,173.62,126.57ZM152.4,68.72a52.54,52.54,0,0,0-16.56-10.38l-2.57-10.77C138,51.16,147.46,59.15,152.4,68.72ZM42.49,89.46c.24-1.72.94-2.8,2.09-3.2a2.58,2.58,0,0,1,.92-.16,3.55,3.55,0,0,1,2.09.74l5.62,4.22a1.33,1.33,0,0,0,1.72-.12l1.55-1.54C68.88,77.15,87.13,73.14,103,79.19l1.45.58L117.05,86a16.87,16.87,0,0,0,22.67-7.69,1.3,1.3,0,0,0-.81-1.84l-5.38-1.57c-7.7-2.24-12.87-6.23-17.84-13.74l-3.75-5.69a79.88,79.88,0,0,1,22.29,5h0c9.1,3.6,16.13,8.74,20.9,15.28a1.31,1.31,0,0,0,1,.54c.5,0,23.45,1.78,25.94,17.57a1.33,1.33,0,0,0,.05.19s.62,4.76-1.28,6.78c-2.74,3.61-9.11,5.33-18.41,5a1.26,1.26,0,0,0-.95.35,19.84,19.84,0,0,0-1.61,1.79l0,0c-1.66,2.07-4,5.71-4,9.85a11.27,11.27,0,0,0,3.69,8.31c2.12,2.2,4.55,4.89,6.8,7.56h0c3.18,3.8,6,7.56,7,9.86l-9.57-.93-.53-.57a43.83,43.83,0,0,0-17.41-11.35,23.89,23.89,0,0,1-8.47-5.2,3.31,3.31,0,0,0-1.85-.93c-3.69-.52-16.72-1.89-29.13,2.68A41.25,41.25,0,0,1,94.6,130a56,56,0,0,1-12.29-.59,49.43,49.43,0,0,0-24,1.73,28.49,28.49,0,0,1-3.91,1.05,60.69,60.69,0,0,0-23.16,10c-4.87,3.41-9.19,5.23-12.88,5.43.69-4.2,4.36-17.8,23.58-33.32.31-.23,7.47-5.89,1.25-20.11A9,9,0,0,1,42.49,89.46ZM17.89,123.8c5.19-7.28,19.65-14.18,25-16.55a8.33,8.33,0,0,1-2.55,5,87.61,87.61,0,0,0-15.94,16.32l-6-2.75a1.31,1.31,0,0,1-.71-.85A1.36,1.36,0,0,1,17.89,123.8Z"></path><path class="cls-1" d="M17.67,151.4c-.31,0-.63,0-.93,0a2.45,2.45,0,0,1-2.3-2.49c0-.78.33-7.69,6.73-17.68l-4.35-2a5.09,5.09,0,0,1-2-7.6c5.93-8.33,21.38-15.59,27.07-18.06a24.79,24.79,0,0,0-2.16-7.87,12.81,12.81,0,0,1-1-6.74c.43-3.14,2.05-5.35,4.56-6.24a7,7,0,0,1,6.53,1.12l3.93,2.94,0,0a47.83,47.83,0,0,1,50.48-11l1.53.61.36.14,12.53,6.23a13.11,13.11,0,0,0,16-3.44l-2.27-.66c-8.63-2.52-14.4-7-19.92-15.28l-5.19-7.88a2.46,2.46,0,0,1,2.1-3.8,81.63,81.63,0,0,1,21.83,3.89L128.79,45a2.45,2.45,0,0,1,3.73-2.61c.85.56,20.51,13.71,25.6,30.39a49.56,49.56,0,0,1,11.54,2.9c9.24,3.61,14.8,9.67,16.09,17.51a11.77,11.77,0,0,1-1.92,10c-3.29,4.34-9.72,6.53-19.12,6.53h-.4a85,85,0,0,0,11.9,14.15,5.09,5.09,0,0,1-1.37,8.34l-3.62,1.64c4.24,5.33,6.31,9,6.31,11.32a2.47,2.47,0,0,1-2.7,2.44l-11.92-1.16a2.43,2.43,0,0,1-1.57-.77l-.87-.94a40.16,40.16,0,0,0-15.93-10.38,27.53,27.53,0,0,1-9.72-5.95c-2.82-.39-15.48-1.79-27.14,2.51a45.45,45.45,0,0,1-12.85,2.9,60.3,60.3,0,0,1-13.11-.63,45.82,45.82,0,0,0-22.18,1.57,34.08,34.08,0,0,1-4.41,1.19,57,57,0,0,0-21.73,9.36C27.58,149.34,22.29,151.4,17.67,151.4Zm.1-24.24,6.75,3.1-.74,1.11c-6.86,10.22-7.07,17.27-7.07,17.56a.18.18,0,0,0,.17.18c4.33.27,9.44-1.66,15.22-5.7a59.38,59.38,0,0,1,22.59-9.73,31.47,31.47,0,0,0,4.11-1.1,47.94,47.94,0,0,1,23.27-1.67,58.32,58.32,0,0,0,12.62.61,43,43,0,0,0,12.2-2.77c12.41-4.57,25.84-3,28.41-2.6a1.84,1.84,0,0,1,1,.51,25.14,25.14,0,0,0,9,5.53,42.58,42.58,0,0,1,16.82,11l.87.94a.16.16,0,0,0,.11.05l11.94,1.16a.16.16,0,0,0,.14-.05.16.16,0,0,0,.06-.13c0-1-.87-3.89-6.72-11L167.6,133l6.3-2.86a2.81,2.81,0,0,0,1.61-2.08,2.87,2.87,0,0,0-.86-2.54,84.29,84.29,0,0,1-13.11-15.91l-.44-.72.55-.63c.16-.18.31-.35.43-.47l.35-.37h.51c9.63.28,16.06-1.61,19.08-5.6a9.42,9.42,0,0,0,1.53-8.06l0-.13c-1.14-7-6.22-12.5-14.7-15.82a47,47,0,0,0-11.71-2.84l-.76-.09-.21-.74c0-.11-.06-.23-.1-.34l-4.43-4.23a51.48,51.48,0,0,0-16.21-10.15l-.54-.22-3.44-14.43L134,46.66c5.13,3.91,14.47,11.89,19.45,21.54l2.3,4.46c-5.21-15.54-23.63-27.86-24.44-28.39a.18.18,0,0,0-.28.19L134.45,59l-2-.7a79.12,79.12,0,0,0-23.08-4.42.21.21,0,0,0-.16.1.19.19,0,0,0,0,.19L114.44,62c5.19,7.83,10.6,12,18.67,14.35l5.24,1.53-.8,1.27a15.39,15.39,0,0,1-19.83,5.52L105,78.38c-.5-.21-1-.41-1.48-.59A45.56,45.56,0,0,0,55.43,88.33L54,89.76l-5.5-4.12a4.74,4.74,0,0,0-4.41-.79c-1.72.61-2.75,2.09-3.07,4.41a10.43,10.43,0,0,0,.81,5.53,25.92,25.92,0,0,1,2.39,9.46l0,.78-.71.3c-3.43,1.46-20.82,9.16-26.85,17.6a2.86,2.86,0,0,0-.44,2.4,2.82,2.82,0,0,0,1.54,1.83Zm119-69.65a57.75,57.75,0,0,1,11,6,74.42,74.42,0,0,0-12.66-13ZM17,148.83l.23-1.39c2.58-15.68,19-30,24-34,.31-.24,6.79-5.36.93-18.78a10,10,0,0,1-.79-5.33h0c.37-2.71,1.74-3.74,2.83-4.12a4.43,4.43,0,0,1,4.07.74l5.62,4.22a.19.19,0,0,0,.24,0l1.56-1.54a45.18,45.18,0,0,1,47.69-10.46c.48.18,1,.38,1.48.59L117.56,85a15.74,15.74,0,0,0,21.15-7.17.2.2,0,0,0,0-.15.17.17,0,0,0-.12-.1L133.21,76c-8-2.33-13.33-6.44-18.46-14.2l-5-7.63,2.31.18a80.12,80.12,0,0,1,22.62,5.11l.22.08c9.2,3.68,16.33,8.92,21.18,15.58a.23.23,0,0,0,.14.08,46.24,46.24,0,0,1,12.57,3c8.35,3.3,13.34,8.68,14.42,15.57,0,0,.85,5.32-1.48,7.88-3,3.88-9.68,5.74-19.32,5.39-.08,0-.1,0-.14,0a21,21,0,0,0-1.5,1.67c-1.73,2.16-3.78,5.48-3.81,9.18a10.17,10.17,0,0,0,3.36,7.49c2.26,2.35,4.69,5,6.86,7.64,2.62,3.11,6,7.39,7.22,10.13l.81,1.79-12-1.16-.83-.89a42.85,42.85,0,0,0-17-11.06,24.88,24.88,0,0,1-8.86-5.45,2.18,2.18,0,0,0-1.23-.61c-3.63-.52-16.41-1.86-28.58,2.62a43.07,43.07,0,0,1-12.1,2.75,58.28,58.28,0,0,1-12.54-.61,48.43,48.43,0,0,0-23.45,1.68,30.75,30.75,0,0,1-4.06,1.1,59.55,59.55,0,0,0-22.73,9.78c-5,3.53-9.57,5.43-13.47,5.64ZM45.5,87.24a1.61,1.61,0,0,0-.54.09c-.27.09-1.08.38-1.34,2.29h0a7.82,7.82,0,0,0,.63,4.12c6.57,15-1.27,21.21-1.61,21.46C25.58,129,21,141.21,19.78,146.32c3.15-.54,6.77-2.24,10.81-5.06A61.85,61.85,0,0,1,54.18,131.1a27.74,27.74,0,0,0,3.76-1,50.54,50.54,0,0,1,24.54-1.78,55.66,55.66,0,0,0,12,.58A40.52,40.52,0,0,0,106,126.28c12.66-4.67,25.92-3.27,29.68-2.74a4.44,4.44,0,0,1,2.48,1.23,22.72,22.72,0,0,0,8.07,5,45.05,45.05,0,0,1,17.85,11.65l.24.26,7,.67a76,76,0,0,0-5.89-7.79c-2.16-2.56-4.55-5.23-6.75-7.52a12.24,12.24,0,0,1-4-9.1c0-4.35,2.35-8.14,4.28-10.55a25.75,25.75,0,0,1,1.73-1.93,2.47,2.47,0,0,1,1.78-.67c8.91.34,15-1.24,17.47-4.54l.08-.09c1.23-1.32,1.13-4.62,1-5.77,0-.09,0-.18-.05-.26-2.35-14.89-24.67-16.59-24.89-16.6a2.45,2.45,0,0,1-1.83-1c-4.64-6.37-11.5-11.38-20.4-14.89l-.22-.09a77.35,77.35,0,0,0-19.41-4.65l2.45,3.72c4.81,7.26,9.79,11.11,17.2,13.27l5.39,1.57a2.43,2.43,0,0,1,1.55,1.37,2.4,2.4,0,0,1,0,2.06A18,18,0,0,1,116.55,87l-12.63-6.26-1.35-.53a42.94,42.94,0,0,0-45.29,10l-1.55,1.54a2.45,2.45,0,0,1-3.19.22l-5.63-4.21A2.39,2.39,0,0,0,45.5,87.24Zm121.85,45.44-.55-.65c-2.85-3.33-5.51-6.11-6.26-6.89a9.82,9.82,0,0,1-3.24-7.22,13.56,13.56,0,0,1,2.55-7.35l1-1.44.94,1.46a85.07,85.07,0,0,0,12.65,15.15h0a2.47,2.47,0,0,1,.75,2.22,2.43,2.43,0,0,1-1.4,1.81Zm-6.5-19.35a10.54,10.54,0,0,0-1.29,4.61,7.67,7.67,0,0,0,2.59,5.6c.73.76,3.14,3.28,5.81,6.37l4.86-2.2a.18.18,0,0,0,.09-.13.19.19,0,0,0-.07-.19h0A87.8,87.8,0,0,1,160.85,113.33ZM24.75,130l-6.83-3.13a2.41,2.41,0,0,1-1.34-1.58,2.52,2.52,0,0,1,.39-2.11h0c5.29-7.42,19.56-14.31,25.44-16.93l2-.87L44,107.46a9.43,9.43,0,0,1-3,5.66,87.52,87.52,0,0,0-15.72,16.1Zm-5.94-5.5a.24.24,0,0,0,0,.2.18.18,0,0,0,.1.11L24,127.13a91.11,91.11,0,0,1,15.59-15.78,6.19,6.19,0,0,0,1.42-2c-6,2.81-17.79,8.91-22.22,15.12Z"></path><path class="cls-1" d="M160.89,91.9A4.88,4.88,0,1,0,156,87,4.88,4.88,0,0,0,160.89,91.9Zm0-7.12A2.25,2.25,0,1,1,158.64,87,2.24,2.24,0,0,1,160.89,84.78Z"></path><path class="cls-1" d="M160.89,92.47A5.45,5.45,0,1,1,166.33,87,5.46,5.46,0,0,1,160.89,92.47Zm0-9.76A4.31,4.31,0,1,0,165.2,87,4.32,4.32,0,0,0,160.89,82.71Zm0,7.13A2.82,2.82,0,1,1,163.7,87,2.82,2.82,0,0,1,160.89,89.84Zm0-4.5A1.68,1.68,0,1,0,162.57,87,1.68,1.68,0,0,0,160.89,85.34Z"></path><path class="cls-1" d="M96.14,38.17a1.32,1.32,0,0,0-1.32-1.32H50.26a1.32,1.32,0,1,0,0,2.63H94.82A1.32,1.32,0,0,0,96.14,38.17Z"></path><path class="cls-1" d="M42.67,38.17a1.32,1.32,0,0,0-1.32-1.32H33.46a1.32,1.32,0,1,0,0,2.63h7.89A1.32,1.32,0,0,0,42.67,38.17Z"></path><path class="cls-1" d="M36.38,54H80.94a1.32,1.32,0,1,0,0-2.63H36.38a1.32,1.32,0,1,0,0,2.63Z"></path><path class="cls-1" d="M19.58,54h7.89a1.32,1.32,0,1,0,0-2.63H19.58a1.32,1.32,0,1,0,0,2.63Z"></path><path class="cls-1" d="M100.08,161.83a1.31,1.31,0,0,0-1.31-1.31H54.21a1.32,1.32,0,1,0,0,2.63H98.77A1.31,1.31,0,0,0,100.08,161.83Z"></path><path class="cls-1" d="M45.3,163.15a1.32,1.32,0,0,0,0-2.63H37.41a1.32,1.32,0,1,0,0,2.63Z"></path><path class="cls-1" d="M170.5,97.72c2.87,3.38,7.55,4,11.73,3.77a1.7,1.7,0,1,0,0-3.4,22.51,22.51,0,0,1-3,0,10.72,10.72,0,0,1-2.61-.44,6.56,6.56,0,0,1-2.06-.9,5.93,5.93,0,0,1-1.7-1.47,1.7,1.7,0,0,0-2.4,0,1.74,1.74,0,0,0,0,2.41Z"></path></svg> 