<?xml version="1.0" encoding="UTF-8"?> <svg xmlns="http://www.w3.org/2000/svg" id="Livello_1" data-name="Livello 1" viewBox="0 0 200 200"><defs><style>.cls-1{fill:#fff;}</style></defs><path class="cls-1" d="M71.73,33.31,80.9,80.84h0L33,74.87a3,3,0,0,0-2.55,1,2.77,2.77,0,0,0-.19,2.84l2.05,3.62a37.16,37.16,0,0,0,27.3,18.6l24.5,2.7L86.1,115c-5.47,6.21-8.73,15.9-7.67,26.68,1.43,16.63,12.79,29.19,25.23,28s21.44-15.58,19.71-32.21c-.79-8.69-4.28-16.52-9.16-21.52a27.13,27.13,0,0,0-5.77-4.41l-.84-5.1,8.22.86c4.7,6.94,13.31,12.13,23,13,8.81.86,17.22-1.43,23.27-6.44a20.22,20.22,0,0,0,7.81-14.12,22.12,22.12,0,0,0-6.51-17.28c-4.88-5-12-8.39-20.08-9.39-12.11-1.2-23.69,3.89-28.74,12.66l-11.2-1.49-4.47-25.2A36.7,36.7,0,0,0,79.52,32.51l-3.72-2a2.23,2.23,0,0,0-2.7.27A2.21,2.21,0,0,0,71.73,33.31ZM60.75,96c-10-1.47-18.16-6.81-23-15.1L81.22,86.7l2.1,11.84Zm57.37,42.18c1.18,13.63-5.56,25.51-15,26.44-4.34.39-8.35-1.6-11.75-5.09-4.14-4.24-7.05-10.86-7.85-18.35-1.17-13.63,5.56-25.52,15-26.44C108.11,114,117,124.26,118.12,138.19ZM143,78.51c13.15,1.36,22.9,10.76,21.88,20.92-.36,4.19-2.5,7.75-6.12,10.7-5,4-12.2,6-19.37,5.29a27.78,27.78,0,0,1-16.81-7.85,19.2,19.2,0,0,1-2.94-3.93,15.61,15.61,0,0,1-2.13-9.15,11.88,11.88,0,0,1,1.41-4.62h0C122.13,82,132.21,77.47,143,78.51ZM112.59,91h0a24.79,24.79,0,0,0-.49,3.13,10,10,0,0,0,0,3v.6a21.84,21.84,0,0,0,.42,2.85c.14.15,0,.3.14.45.14.45.14.75.28,1.2l-6.42-.83-2-11.39ZM93.83,59.93,101.65,104a.21.21,0,0,1,0,.3l1,5.25a14.29,14.29,0,0,0-4.34-.2,19.38,19.38,0,0,0-7.06,2.15L86.35,83.77a.21.21,0,0,1,0-.3L78,37.58A31.69,31.69,0,0,1,93.83,59.93Z"></path><path class="cls-1" d="M139.72,110.63a22.71,22.71,0,0,0,13.34-2.37c4.07-2.19,6.66-5.6,7-9.49a11.6,11.6,0,0,0-3.62-9.47,22.17,22.17,0,0,0-14-6.16h0c-6.13-.53-12.13.89-16.06,4.13A11.34,11.34,0,0,0,122.11,95C121.12,102.77,129,109.6,139.72,110.63ZM129.64,91.5c2.87-2.21,7.37-3.35,12.15-3,7.48.7,13.4,5.26,12.9,9.89a7.37,7.37,0,0,1-4.26,5.34,17.81,17.81,0,0,1-10.35,1.81,17.42,17.42,0,0,1-10.71-4.63,6.71,6.71,0,0,1-2.18-5.26A5.86,5.86,0,0,1,129.64,91.5Z"></path><path class="cls-1" d="M87.57,140.79h0c1.05,11.09,7.68,19.4,15,18.74,3.75-.4,6.92-2.9,9.22-7.21a26.45,26.45,0,0,0,2.12-13.89,27.69,27.69,0,0,0-4.62-13.22c-.59-.61-.88-1.21-1.47-1.82-2.66-2.72-5.64-4-8.79-3.55C91.71,120.5,86.66,129.56,87.57,140.79Zm12-15.86c2.54-.11,4.61,2,5.64,3.37a23,23,0,0,1,2.12,21.57c-.62,1.49-2.29,4-5,4.28A5.9,5.9,0,0,1,97.9,152c-2.37-2.42-4.26-6.48-4.64-11.72h0C92.17,131.87,95.84,125.34,99.59,124.93Z"></path></svg> 