<?xml version="1.0" encoding="UTF-8"?> <svg xmlns="http://www.w3.org/2000/svg" id="Livello_1" data-name="Livello 1" viewBox="0 0 200 200"><defs><style>.cls-1{fill:#fff;}</style></defs><path class="cls-1" d="M166.72,117.14H33.28A3.28,3.28,0,0,1,30,113.86V33.28A3.28,3.28,0,0,1,33.28,30H166.72A3.28,3.28,0,0,1,170,33.28v80.58A3.28,3.28,0,0,1,166.72,117.14ZM36.56,110.57H163.44v-74H36.56Z"></path><path class="cls-1" d="M166.72,141.56H33.28A3.28,3.28,0,0,1,30,138.28V113.86a3.28,3.28,0,0,1,3.28-3.29H166.72a3.28,3.28,0,0,1,3.28,3.29v24.42A3.28,3.28,0,0,1,166.72,141.56ZM36.56,135H163.44V117.14H36.56Z"></path><path class="cls-1" d="M127.89,152.5H72.11a3.28,3.28,0,0,1-3.28-3.28V138.28A3.28,3.28,0,0,1,72.11,135h55.78a3.28,3.28,0,0,1,3.28,3.28v10.94A3.28,3.28,0,0,1,127.89,152.5Zm-52.5-6.56h49.22v-4.38H75.39Z"></path><path class="cls-1" d="M149.22,170H50.78a3.29,3.29,0,0,1-3-4.56l7.38-17.5a3.28,3.28,0,0,1,3-2h83.68a3.28,3.28,0,0,1,3,2l7.38,17.5a3.29,3.29,0,0,1-3,4.56Zm-93.49-6.56h88.54l-4.61-10.94H60.34Z"></path><circle class="cls-1" cx="100" cy="126.07" r="4.08"></circle><path class="cls-1" d="M99.11,94.61a10.53,10.53,0,0,1-7.36-2.83,11.12,11.12,0,0,1-3.25-8.36,3.28,3.28,0,1,1,6.56,0c0,4,2.54,4.63,4,4.63a5.79,5.79,0,0,0,5.83-6c0-3.83-2.78-5.43-7.31-7.72-4-2-9-4.56-9-10.38s3-9.88,7.89-11.12c8.55-2.14,14.15,5.49,14.38,5.82a3.28,3.28,0,0,1-5.31,3.85c-.17-.22-3.34-4.33-7.48-3.31-1.25.32-2.92,1.15-2.92,4.76,0,1.61,1.74,2.66,5.42,4.52C105.2,70.85,111.5,74,111.5,82.1A12.33,12.33,0,0,1,99.11,94.61Z"></path><path class="cls-1" d="M100,59.07a3.28,3.28,0,0,1-3.28-3.28V48.41a3.28,3.28,0,0,1,6.56,0v7.38A3.28,3.28,0,0,1,100,59.07Z"></path><path class="cls-1" d="M100,102a3.28,3.28,0,0,1-3.28-3.28V91.28a3.28,3.28,0,0,1,6.56,0v7.44A3.28,3.28,0,0,1,100,102Z"></path></svg> 