<?xml version="1.0" encoding="UTF-8"?> <svg xmlns="http://www.w3.org/2000/svg" id="Livello_1" data-name="Livello 1" viewBox="0 0 200 200"><defs><style>.cls-1{fill:#fff;}</style></defs><path class="cls-1" d="M157,92.85,96.13,32a9.7,9.7,0,0,0-8.08-3L52.76,32.58a10.2,10.2,0,0,0-9.12,9.12L40.05,77a9.8,9.8,0,0,0,3,8.22l21.24,21.24a41,41,0,1,0,74.62,23.47c0-1.49-.15-3-.3-4.48l18.24-18.25A9.88,9.88,0,0,0,157,92.85ZM97.92,163.73a33.8,33.8,0,1,1,33.65-33.8A33.76,33.76,0,0,1,97.92,163.73Zm54-61.61L136.8,117.07a40.89,40.89,0,0,0-67.74-16.15L48.13,80.14a2.77,2.77,0,0,1-.75-2.4l3.44-35.29a3,3,0,0,1,2.69-2.69L88.8,36.32c0-.15.15-.15.3-.15a2.94,2.94,0,0,1,2.09.9l60.87,60.86A3.4,3.4,0,0,1,151.91,102.12Z"></path><path class="cls-1" d="M72.05,47.54a13.53,13.53,0,0,0,0,27.06,13.53,13.53,0,1,0,0-27.06Zm0,19.74A6.29,6.29,0,1,1,78.33,61,6.32,6.32,0,0,1,72.05,67.28Z"></path><path class="cls-1" d="M100.61,126.34H95.23a4,4,0,1,1,0-8.07h5.38a4,4,0,0,1,3.59,2.09,3.68,3.68,0,1,0,6.58-3.29,11.2,11.2,0,0,0-9.12-6V107.5a3.59,3.59,0,0,0-7.18,0v3.44a11.31,11.31,0,0,0,.9,22.58h5.38a4,4,0,1,1,0,8.08H95.38a3.9,3.9,0,0,1-3.29-1.8,3.63,3.63,0,0,0-3.44-2.24,3.58,3.58,0,0,0-3.59,3.74,3,3,0,0,0,.45,1.64,11,11,0,0,0,9,5.84v3.58a3.59,3.59,0,1,0,7.18,0v-3.58a11.28,11.28,0,0,0,10.47-11.22A11.57,11.57,0,0,0,100.61,126.34Z"></path></svg> 