<?xml version="1.0" encoding="UTF-8"?> <svg xmlns="http://www.w3.org/2000/svg" id="Livello_1" data-name="Livello 1" viewBox="0 0 200 200"><defs><style>.cls-1{fill:#fff;}</style></defs><path class="cls-1" d="M45.21,142.48l17.72-11.27a5.73,5.73,0,0,0,8,.53l9.31,6.19a5.75,5.75,0,0,0-.09.93,5.84,5.84,0,0,0,11.67,0,5.43,5.43,0,0,0-.14-1.22l12.91-8.57a5.74,5.74,0,0,0,7.73,0l12.06,8a5.77,5.77,0,0,0-.31,1.77,5.84,5.84,0,0,0,11.67,0,5.51,5.51,0,0,0-.22-1.48l19.92-13.23-1.61-2.43-19.73,13.1a5.79,5.79,0,0,0-8.17-.2l-12-8a5.83,5.83,0,1,0-11.32-1.92,5.72,5.72,0,0,0,.35,1.9L90.38,135a5.77,5.77,0,0,0-8.89.21l-8.82-5.86a5.83,5.83,0,1,0-11.27-2.06,5.66,5.66,0,0,0,.16,1.31L45.21,139V93.32l13.89,8.32a5.69,5.69,0,0,0-.3,1.75,5.84,5.84,0,0,0,11.67,0,5.72,5.72,0,0,0-.74-2.79L81.62,88.71a5.75,5.75,0,0,0,2.77.74,5.81,5.81,0,0,0,4.91-2.73l10.19,4.45A5.83,5.83,0,1,0,111,92.36a5.92,5.92,0,0,0-.28-1.69l7.58-4.39a5.8,5.8,0,0,0,4,1.63A5.73,5.73,0,0,0,126,86.57l9,7.13a5.64,5.64,0,0,0-.35,1.93,5.83,5.83,0,1,0,11.66,0,5.72,5.72,0,0,0-.27-1.67l12.14-8.32-1.65-2.41-12,8.22a5.82,5.82,0,0,0-4.06-1.66,5.76,5.76,0,0,0-3.85,1.49l-8.93-7.06a5.83,5.83,0,1,0-11.25-2.14,6.06,6.06,0,0,0,.28,1.71l-7.57,4.39a5.78,5.78,0,0,0-8.44.38L90.19,83.93c0-.11,0-.21,0-.32a5.84,5.84,0,1,0-10.75,3.12L67.74,98.47a5.77,5.77,0,0,0-7.1.69L45.21,89.92V73.47L59.38,61.21a5.77,5.77,0,0,0,8.42-1.43l9.31,3.32c0,.1,0,.19,0,.29a5.84,5.84,0,1,0,11.4-1.67l8.24-4.91a5.79,5.79,0,0,0,8.36-.19l10.23,5.51a5.83,5.83,0,1,0,11.52,1.26,5.32,5.32,0,0,0-.06-.56l14.33-6.52a5.76,5.76,0,0,0,8.49.6L160.81,64l1.55-2.47-11.21-7.06a5.78,5.78,0,0,0,.3-1.78,5.83,5.83,0,1,0-11.66,0,5.56,5.56,0,0,0,.1,1l-14.1,6.42a5.79,5.79,0,0,0-9.14-.54l-10.18-5.48A5.83,5.83,0,1,0,95,52.66a5.51,5.51,0,0,0,.26,1.63L87,59.22a5.8,5.8,0,0,0-9,1.09L68.71,57c0-.14,0-.27,0-.4a5.83,5.83,0,1,0-11.66,0,5.75,5.75,0,0,0,.48,2.31L45.21,69.61V30H42.29V48.48h-7.5V51.4h7.5V69.86h-7.5v2.92h7.5V91.25h-7.5v2.92h7.5v18.47h-7.5v2.91h7.5V134h-7.5v2.92h7.5V155.5H30v2.91H42.29V170h2.92V158.41h18v7.51H66.1v-7.51H84.56v7.51h2.92v-7.51H106v7.51h2.92v-7.51h18.46v7.51h2.92v-7.51h18.47v7.51h2.92v-7.51H170V155.5H45.21Zm84.73-6.54a2.92,2.92,0,1,1-2.91,2.92A2.92,2.92,0,0,1,129.94,135.94ZM108.5,121.82a2.92,2.92,0,1,1-2.91,2.92A2.92,2.92,0,0,1,108.5,121.82ZM86,135.94a2.92,2.92,0,1,1-2.91,2.92A2.92,2.92,0,0,1,86,135.94ZM67.23,124.39a2.92,2.92,0,1,1-2.92,2.92A2.92,2.92,0,0,1,67.23,124.39Zm73.33-31.68a2.92,2.92,0,1,1-2.92,2.91A2.92,2.92,0,0,1,140.56,92.71Zm-18.2-13.55a2.92,2.92,0,1,1-2.91,2.92A2.92,2.92,0,0,1,122.36,79.16ZM105.2,89.45a2.92,2.92,0,1,1-2.92,2.91A2.91,2.91,0,0,1,105.2,89.45ZM84.39,80.7a2.92,2.92,0,1,1-2.92,2.91A2.91,2.91,0,0,1,84.39,80.7ZM64.64,100.47a2.92,2.92,0,1,1-2.92,2.92A2.91,2.91,0,0,1,64.64,100.47Zm81-50.72a2.92,2.92,0,1,1-2.92,2.91A2.92,2.92,0,0,1,145.62,49.75ZM121,60.47a2.92,2.92,0,1,1-2.92,2.92A2.92,2.92,0,0,1,121,60.47ZM100.82,49.75a2.92,2.92,0,1,1-2.92,2.91A2.92,2.92,0,0,1,100.82,49.75ZM82.91,60.47A2.92,2.92,0,1,1,80,63.39,2.92,2.92,0,0,1,82.91,60.47Zm-20-6.78A2.92,2.92,0,1,1,60,56.61,2.92,2.92,0,0,1,62.92,53.69Z"></path></svg> 