<?xml version="1.0" encoding="UTF-8"?> <svg xmlns="http://www.w3.org/2000/svg" id="Livello_1" data-name="Livello 1" viewBox="0 0 200 200"><defs><style>.cls-1{fill:#fff;}</style></defs><path class="cls-1" d="M155.88,56.9a8.56,8.56,0,1,0-4.58-1.33l-5.62,20.61h-.5a12.41,12.41,0,0,0-2.58.26l-5.44-20a8.54,8.54,0,1,0-4.37.27L138.59,78a12.86,12.86,0,0,0-6.26,11v.1a33.82,33.82,0,0,1-3.55,15.07l-6.7,13.39-2.52-8a41.68,41.68,0,0,0-75.49-8.9,38.05,38.05,0,0,0-4.14,29.11l.39,1.48A35.1,35.1,0,0,0,51,148.67a26.91,26.91,0,0,0-14.84,14.4,2.13,2.13,0,0,0,1.12,2.81,2,2,0,0,0,.84.18h97.08a5.89,5.89,0,0,0,4.6-9.57l-2.34-2.92A51,51,0,0,0,156,119.48l1.44-13.71A113.22,113.22,0,0,0,158,93.84V89a12.86,12.86,0,0,0-8.15-12l5.51-20.17Zm-25.69-8.56a4.29,4.29,0,1,1,4.28,4.28A4.28,4.28,0,0,1,130.19,48.34ZM44.46,130.19l-.4-1.49a33.8,33.8,0,0,1,3.68-25.82,37.44,37.44,0,0,1,60.47-5.11,9.82,9.82,0,0,1-8,4.08,2.14,2.14,0,0,0,0,4.28,14.12,14.12,0,0,0,10.65-4.84,37.53,37.53,0,0,1,4.6,9.57l.12.4a12.35,12.35,0,0,1-8.58,3.43h-.37a2.14,2.14,0,0,0,0,4.28H107a16.64,16.64,0,0,0,10-3.29l2.27,7.2-.64.9a73.38,73.38,0,0,1-21.14,19.8L99.56,136A31.46,31.46,0,0,0,98,115a22.33,22.33,0,0,0-39-3.32l-.54.82A17.52,17.52,0,0,0,57.36,130a13.93,13.93,0,0,0,26.2-8.52l-.48-2.9a2.14,2.14,0,1,0-4.23.67v0l.48,2.9a9.65,9.65,0,0,1-18.15,5.91A13.26,13.26,0,0,1,62,114.88l.54-.81a18,18,0,0,1,31.5,2.68,27.17,27.17,0,0,1,1.38,18.12l-3.51,12.84a30.88,30.88,0,0,1-47.46-17.52ZM153.74,89v4.83a110.07,110.07,0,0,1-.61,11.48L151.69,119a46.69,46.69,0,0,1-18.36,32.37l-.14.1a2.14,2.14,0,0,0-.43,3l0,.05,3.69,4.62a1.59,1.59,0,0,1-.25,2.25,1.63,1.63,0,0,1-1,.36H41.68a22.7,22.7,0,0,1,13.49-10,35.14,35.14,0,0,0,43-3.66,77.44,77.44,0,0,0,23.91-21.88l1.37-1.94s9.12-18.24,9.12-18.24a38.07,38.07,0,0,0,4-17V89a8.56,8.56,0,1,1,17.12,0Zm2.14-44.95a4.28,4.28,0,1,1-4.28,4.28A4.28,4.28,0,0,1,155.88,44.06Z"></path><circle class="cls-1" cx="134.47" cy="48.34" r="2.14"></circle><circle class="cls-1" cx="155.88" cy="48.34" r="2.14"></circle><path class="cls-1" d="M140.9,121.11a2.14,2.14,0,0,0-2.14,2.14v2.14a2.14,2.14,0,1,0,4.28,0v-2.14A2.14,2.14,0,0,0,140.9,121.11Z"></path><path class="cls-1" d="M132.33,125.39a2.14,2.14,0,0,0-2.14,2.14v2.14a2.14,2.14,0,1,0,4.28,0v-2.14A2.14,2.14,0,0,0,132.33,125.39Z"></path><path class="cls-1" d="M138.76,131.81a2.14,2.14,0,0,0-2.14,2.14v2.14a2.14,2.14,0,0,0,4.28,0V134A2.14,2.14,0,0,0,138.76,131.81Z"></path><path class="cls-1" d="M123.77,153.21h-4.28a2.14,2.14,0,1,0,0,4.28h4.28a2.14,2.14,0,1,0,0-4.28Z"></path><path class="cls-1" d="M110.93,153.21h-10.7a2.14,2.14,0,1,0,0,4.28h10.7a2.14,2.14,0,1,0,0-4.28Z"></path><path class="cls-1" d="M148.53,96.2a2.14,2.14,0,0,0,1.91-3.83,11.76,11.76,0,0,0-10.47,0,2.14,2.14,0,1,0,1.88,3.84h0A7.48,7.48,0,0,1,148.53,96.2Z"></path></svg> 