<?xml version="1.0" encoding="UTF-8"?> <svg xmlns="http://www.w3.org/2000/svg" id="Livello_1" data-name="Livello 1" viewBox="0 0 200 200"><defs><style>.cls-1{fill:#fff;}</style></defs><path class="cls-1" d="M67.08,121.44H55.92a3.34,3.34,0,0,0-3.29,3.28v44.15l3.29-3.28H34.43l3.28,3.28V124.72a3.33,3.33,0,0,0-3.28-3.28H23.27q1.15,2.81,2.32,5.6L33,117.58q5.89-7.5,11.77-15l2.71-3.46H42.83l7.42,9.45,11.77,15L64.73,127c1.07,1.36,3.54,1.19,4.64,0a3.38,3.38,0,0,0,0-4.65L62,112.94l-11.77-15-2.71-3.47a3.3,3.3,0,0,0-4.65,0l-7.41,9.46q-5.9,7.5-11.77,15l-2.71,3.46a3.33,3.33,0,0,0-.67,3.58,3.29,3.29,0,0,0,3,2H34.43l-3.28-3.28v44.15a3.33,3.33,0,0,0,3.28,3.28H55.92a3.33,3.33,0,0,0,3.28-3.28V124.71L55.92,128H67.08a3.28,3.28,0,1,0,0-6.55Z"></path><path class="cls-1" d="M121.9,88.61H110.73a3.34,3.34,0,0,0-3.28,3.29v67.49c0,3.11-.13,6.25,0,9.35v.13l3.28-3.28H89.25l3.28,3.28V101.38c0-3.12.09-6.25,0-9.35V91.9a3.34,3.34,0,0,0-3.28-3.29H78.09c.77,1.87,1.54,3.75,2.31,5.6l7.42-9.45,11.77-15,2.71-3.47H97.65c2.48,3.15,4.94,6.3,7.42,9.46q5.9,7.5,11.77,15l2.71,3.46c1.07,1.36,3.54,1.2,4.64,0a3.37,3.37,0,0,0,0-4.64q-3.7-4.74-7.42-9.46-5.88-7.5-11.76-15c-.91-1.15-1.81-2.31-2.71-3.46a3.3,3.3,0,0,0-4.65,0L90.24,71.1l-11.77,15c-.91,1.15-1.81,2.32-2.71,3.47a3.3,3.3,0,0,0,2.33,5.59H89.25L86,91.88v67.49c0,3.12-.08,6.25,0,9.35v.14a3.33,3.33,0,0,0,3.28,3.28h21.48a3.34,3.34,0,0,0,3.29-3.28V101.37c0-3.12.13-6.26,0-9.36v-.13l-3.29,3.28H121.9a3.28,3.28,0,1,0,0-6.55Z"></path><path class="cls-1" d="M176.71,55.79H165.55a3.33,3.33,0,0,0-3.28,3.28v96.29c0,4.44-.15,8.9,0,13.33v.18l3.28-3.28H144.07l3.28,3.28V72.58c0-4.43.1-8.88,0-13.33v-.18a3.33,3.33,0,0,0-3.28-3.28H132.91c.77,1.87,1.54,3.74,2.31,5.59l7.42-9.45c3.92-5,7.85-10,11.77-15,.9-1.15,1.8-2.31,2.71-3.46h-4.65l7.42,9.45q5.88,7.52,11.77,15c.9,1.15,1.8,2.32,2.71,3.46,1.06,1.37,3.54,1.2,4.64,0a3.38,3.38,0,0,0,0-4.64l-7.42-9.45-11.76-15c-.91-1.14-1.81-2.31-2.71-3.46a3.3,3.3,0,0,0-4.65,0c-2.48,3.15-4.94,6.3-7.42,9.46l-11.76,15c-.91,1.15-1.81,2.31-2.71,3.46a3.33,3.33,0,0,0-.67,3.58,3.28,3.28,0,0,0,3,2h11.16l-3.28-3.29v96.3c0,4.43-.1,8.88,0,13.33v.18a3.33,3.33,0,0,0,3.28,3.28h21.48a3.34,3.34,0,0,0,3.29-3.28V72.56c0-4.43.14-8.89,0-13.33v-.18l-3.29,3.29h11.16a3.28,3.28,0,1,0,0-6.55Z"></path></svg> 