<?xml version="1.0" encoding="UTF-8"?> <svg xmlns="http://www.w3.org/2000/svg" id="Livello_1" data-name="Livello 1" viewBox="0 0 200 200"><defs><style>.cls-1{fill:#fff;}</style></defs><path class="cls-1" d="M57.39,121.3H33a3,3,0,0,0-3,3V167a3,3,0,0,0,3,3H57.39a3,3,0,0,0,3-3V124.35A3,3,0,0,0,57.39,121.3Zm-3,42.61H36.09V127.39H54.35Z"></path><path class="cls-1" d="M93.91,109.13H69.57a3,3,0,0,0-3,3V167a3,3,0,0,0,3,3H93.91a3,3,0,0,0,3-3V112.17A3,3,0,0,0,93.91,109.13Zm-3,54.78H72.61V115.22H90.87Z"></path><path class="cls-1" d="M130.43,90.87H106.09a3,3,0,0,0-3,3V167a3,3,0,0,0,3,3h24.34a3,3,0,0,0,3-3V93.91A3,3,0,0,0,130.43,90.87Zm-3,73H109.13V97h18.26Z"></path><path class="cls-1" d="M167,66.52H142.61a3,3,0,0,0-3,3V167a3,3,0,0,0,3,3H167a3,3,0,0,0,3-3V69.57A3,3,0,0,0,167,66.52Zm-3.05,97.39H145.65V72.61h18.26Z"></path><path class="cls-1" d="M147.87,54.35a3,3,0,0,0,3-3.05V33c0-.06,0-.11,0-.17a2.55,2.55,0,0,0-.13-.61,3.09,3.09,0,0,0-.17-.54,4.51,4.51,0,0,0-.72-.93c-.05-.05-.07-.1-.11-.14a3.59,3.59,0,0,0-.34-.17,2.93,2.93,0,0,0-.56-.28,2.54,2.54,0,0,0-.61-.12,2.21,2.21,0,0,0-.37-.08H130.43a3,3,0,0,0,0,6.09h10.93C122.59,57.44,81.06,90.87,33,90.87A3,3,0,0,0,33,97c49.2,0,91.74-33.38,111.79-55.6V51.3A3,3,0,0,0,147.87,54.35Z"></path></svg> 