<?xml version="1.0" encoding="UTF-8"?> <svg xmlns="http://www.w3.org/2000/svg" id="Livello_1" data-name="Livello 1" viewBox="0 0 200 200"><defs><style>.cls-1{fill:#fff;}</style></defs><path class="cls-1" d="M172.22,174.31H27.78A2.77,2.77,0,0,1,25,171.53V93.76A2.77,2.77,0,0,1,27.78,91H172.22A2.77,2.77,0,0,1,175,93.76v77.77A2.77,2.77,0,0,1,172.22,174.31ZM30.56,168.76H169.44V96.53H30.56Z"></path><path class="cls-1" d="M170.58,96.53H60.72a2.78,2.78,0,0,1-1.47-5.19l82.42-47.58a2.77,2.77,0,0,1,3.79,1h0L173,92.37a2.78,2.78,0,0,1-2.42,4.16ZM71.08,91h94.7l-23.7-41Z"></path><path class="cls-1" d="M60.72,96.53H48.06a2.78,2.78,0,0,1-2.42-4.16L83.33,27.09A2.84,2.84,0,0,1,85,25.78a2.78,2.78,0,0,1,2.11.28l44.05,25.45a2.77,2.77,0,0,1,0,4.83L62.06,96.2A2.72,2.72,0,0,1,60.72,96.53ZM52.78,91H60l64.28-37.11L86.81,32.23Z"></path><path class="cls-1" d="M150,163.2H50a2.78,2.78,0,0,1-2.78-2.78,8.33,8.33,0,0,0-8.33-8.33,2.77,2.77,0,0,1-2.78-2.78V116a2.77,2.77,0,0,1,2.78-2.78,8.33,8.33,0,0,0,8.33-8.33A2.78,2.78,0,0,1,50,102.09H150a2.78,2.78,0,0,1,2.78,2.78,8.33,8.33,0,0,0,8.33,8.33,2.77,2.77,0,0,1,2.78,2.78v33.33a2.77,2.77,0,0,1-2.78,2.78,8.33,8.33,0,0,0-8.33,8.33A2.78,2.78,0,0,1,150,163.2Zm-97.5-5.56h95a13.89,13.89,0,0,1,10.83-10.83V118.48a13.89,13.89,0,0,1-10.83-10.84h-95a13.89,13.89,0,0,1-10.83,10.84v28.33A13.89,13.89,0,0,1,52.5,157.64Z"></path><path class="cls-1" d="M157.72,96.53H82.94a2.78,2.78,0,0,1-1.47-5.19l46.47-26.83a2.78,2.78,0,0,1,3.81,1,8.31,8.31,0,0,0,11.36,3.06,2.79,2.79,0,0,1,2.11-.31,3,3,0,0,1,1.7,1.31l13.14,22.78a2.78,2.78,0,0,1-2.34,4.16ZM93.31,91h59.61l-9.5-16.45a13.9,13.9,0,0,1-14.78-3.94Z"></path><path class="cls-1" d="M61.11,96.53a2.73,2.73,0,0,1-2-.8,2.77,2.77,0,0,1-.45-3.36L82,52a3,3,0,0,1,1.69-1.31,2.81,2.81,0,0,1,2.12.31,8.33,8.33,0,0,0,11.36-3.06,2.74,2.74,0,0,1,1.69-1.3,2.92,2.92,0,0,1,2.11.27L120.25,58a2.77,2.77,0,0,1,0,4.83L62.5,96.17A2.7,2.7,0,0,1,61.11,96.53ZM85.56,56.92,68.56,86l44.61-25.61-13-7.44a13.87,13.87,0,0,1-14.8,3.94Z"></path><path class="cls-1" d="M100,152.09a19.45,19.45,0,1,1,19.44-19.45A19.44,19.44,0,0,1,100,152.09Zm0-33.33a13.89,13.89,0,1,0,13.89,13.88A13.88,13.88,0,0,0,100,118.76Z"></path></svg> 