<?xml version="1.0" encoding="UTF-8"?> <svg xmlns="http://www.w3.org/2000/svg" id="Livello_1" data-name="Livello 1" viewBox="0 0 200 200"><defs><style>.cls-1{fill:#fff;}</style></defs><path class="cls-1" d="M97.74,147.76v4.93h4.52v-4.52h4.51V141.4a6.78,6.78,0,0,0-6.77-6.78,2.26,2.26,0,0,1-2.26-2.25v-2.26H100a2.26,2.26,0,0,1,2.26,2.26v2.25h4.51v-2.25a6.76,6.76,0,0,0-4.51-6.36v-4.93H97.74v4.51H93.23v6.78a6.78,6.78,0,0,0,6.77,6.77,2.26,2.26,0,0,1,2.26,2.26v2.26H100a2.26,2.26,0,0,1-2.26-2.26v-2.26H93.23v2.26A6.77,6.77,0,0,0,97.74,147.76Z"></path><path class="cls-1" d="M165.48,103H123.71l16.94-22.58h-9V57.85H113.55V80.43h-9L121.45,103H102.26V64.62c0-6.44-16.93-6.77-20.32-6.77-1.13,0-3.77,0-6.78.33V37.53c0-6.45-16.93-6.78-20.32-6.78s-20.32.33-20.32,6.78V103A4.53,4.53,0,0,0,30,107.53v58.71a4.52,4.52,0,0,0,4.52,4.51h131a4.52,4.52,0,0,0,4.52-4.51V107.53A4.53,4.53,0,0,0,165.48,103ZM118.06,85V62.37h9V85h4.51l-9,12-9-12ZM66.13,103V96.33c5.26,2,13.54,2.16,15.81,2.16s10.54-.15,15.8-2.16V103ZM39,82.78C44.3,84.79,52.57,85,54.84,85s4.62-.12,6.77-.33v9a66.53,66.53,0,0,1-6.77.34C45.61,94,40.09,92.27,39,91.31Zm0-13.55c5.27,2,13.54,2.17,15.81,2.17s4.62-.11,6.77-.32v9a66.53,66.53,0,0,1-6.77.34c-9.23,0-14.75-1.7-15.81-2.67Zm58.71,8.53c-1.06,1-6.58,2.67-15.8,2.67s-14.75-1.7-15.81-2.67V69.23c5.26,2,13.54,2.17,15.81,2.17s10.54-.16,15.8-2.17Zm0,13.55c-1.06,1-6.58,2.67-15.8,2.67s-14.75-1.71-15.81-2.67V82.78c5.26,2,13.54,2.17,15.81,2.17s10.54-.16,15.8-2.17Zm-.61-26.69c-1.95,1-7.2,2.26-15.19,2.26s-13.25-1.28-15.2-2.26c2-1,7.2-2.25,15.2-2.25S95.18,63.65,97.13,64.62Zm-35.52,0v1.92a66.53,66.53,0,0,1-6.77.34c-9.23,0-14.75-1.7-15.81-2.67V55.68c5.27,2,13.54,2.17,15.81,2.17s10.54-.16,15.81-2.17V58.8C65.93,59.67,61.61,61.37,61.61,64.62ZM39,42.13c5.27,2,13.54,2.17,15.81,2.17s10.54-.15,15.81-2.17v8.53c-1.07,1-6.59,2.67-15.81,2.67S40.09,51.63,39,50.66Zm15.81-6.86c8,0,13.24,1.29,15.19,2.26-2,1-7.19,2.26-15.19,2.26S41.6,38.5,39.65,37.53C41.6,36.56,46.84,35.27,54.84,35.27ZM39,96.33c5.27,2,13.54,2.16,15.81,2.16s4.62-.11,6.77-.32V103H39Zm-4.51,69.91V107.53h131v58.71Z"></path><path class="cls-1" d="M39,112v49.68H161V112Zm13.32,4.52a11.3,11.3,0,0,1-8.8,8.8v-8.8Zm-8.8,31.84a11.32,11.32,0,0,1,8.8,8.8h-8.8Zm13.37,8.8a15.81,15.81,0,0,0-13.37-13.36V129.93a15.83,15.83,0,0,0,13.37-13.37H85.76a24.78,24.78,0,0,0,0,40.64ZM100,116.56a20.32,20.32,0,1,1-20.32,20.32A20.34,20.34,0,0,1,100,116.56Zm47.65,40.64a11.32,11.32,0,0,1,8.8-8.8v8.8Zm8.8-31.84a11.3,11.3,0,0,1-8.8-8.8h8.8Zm-13.37-8.8a15.83,15.83,0,0,0,13.37,13.37v13.91a15.81,15.81,0,0,0-13.37,13.36H114.24a24.78,24.78,0,0,0,0-40.64Z"></path><path class="cls-1" d="M142.9,75.91H161V53.33h9L151.94,29.25,133.87,53.33h9Zm9-39.13,9,12h-4.52V71.4h-9V48.82H142.9Z"></path></svg> 