<?xml version="1.0" encoding="UTF-8"?> <svg xmlns="http://www.w3.org/2000/svg" id="Livello_1" data-name="Livello 1" viewBox="0 0 311 432.8"><defs><style>.cls-1{fill:#fff;}</style></defs><path class="cls-1" d="M307.2,264l-82.5-28.4-12.4-18.3a5.59,5.59,0,0,0-4.3-2.4,6.28,6.28,0,0,0-1.9.3V193.3c7.6-11.9,11.5-25.1,13.4-36.9a15.44,15.44,0,0,0,5.5-1.6c5.7-2.9,9.9-8.9,12.5-18.1,2.5-8.8,1.8-15.4-2.1-19.6a13.91,13.91,0,0,0-3.7-2.8c5.1-9.3,9-21.9,8.7-38.7-.3-18.5-5.7-32.7-16.1-42.1C213,23.3,199,21.8,192.8,21.6A54.87,54.87,0,0,0,155.3.4C125.9-3,91.5,15.4,53.4,55.1a5.4,5.4,0,0,0-1.1,5.7A5.57,5.57,0,0,0,57,64.3c1.9.1,18.3,1.9,17.8,22.2-.3,11.8,1.5,20.8,4.1,27.5a13.36,13.36,0,0,0-4.6,3.1c-3.9,4.3-4.6,10.9-2.1,19.7,2.6,9.1,6.8,15.2,12.5,18.1a17,17,0,0,0,6.7,1.7c1.9,12.6,6,26.4,14.3,38.6v20.6a5.2,5.2,0,0,0-2.9-.7,5.46,5.46,0,0,0-4.3,2.4L86.1,235.8,3.6,264.2A5.38,5.38,0,0,0,0,269.3V427.4a5.38,5.38,0,0,0,5.4,5.4H305.6a5.38,5.38,0,0,0,5.4-5.4V269.1A5.71,5.71,0,0,0,307.2,264Zm-91.7-22.7-9.6,46.1c-8.2-17.8-22-28.7-32.9-34.9,15.5-5.6,27.9-16.7,34.3-23.4ZM129.2,422l-1.9-10.2,12.5-100.6H171l8.6,102-1.9,8.9-48.5-.1Zm9.9-200.2a42.8,42.8,0,0,0,16.4,3.2,44.55,44.55,0,0,0,17.7-3.7,74.77,74.77,0,0,0,22.1-14.7v19.1c-8.7,8.1-23.4,18.9-39.9,19.5-15.9-.6-30.1-10.6-38.9-18.6v-19A74.56,74.56,0,0,0,139.1,221.8Zm16.4,34.4a76,76,0,0,1,30.7,20.6l-13.5,23.5H138.1l-13.2-22.8A86.37,86.37,0,0,1,155.5,256.2Zm-37.6,30.7,11.6,20L120.8,377l-12.2-64.9A63.57,63.57,0,0,1,117.9,286.9Zm69.4,89.3-5.9-69.4,11.8-20.4a63.8,63.8,0,0,1,8.1,23ZM67.7,55.9c32.5-32,62.2-47.5,86.1-44.9a44,44,0,0,1,31.6,18.7,5.4,5.4,0,0,0,5.1,2.6c.2,0,15.3-1.2,26.6,9,8.1,7.3,12.3,18.9,12.6,34.2.2,12.8-2.2,23.8-7,32.9v-8c-1-37.6-29.2-49-30.4-49.5a6.82,6.82,0,0,0-2.3-.5,4.28,4.28,0,0,0-2.2.6,4.91,4.91,0,0,0-2.6,3.5c0,.1-4.8,11-45.7,12.7-17.8.7-31.4,6.5-40.5,17.3a49.87,49.87,0,0,0-10.7,23.3,61.29,61.29,0,0,1-2.6-21.2C85.9,68.9,76.7,59.9,67.7,55.9Zm27.7,87.6a5.07,5.07,0,0,0-3.8,2.1,4.91,4.91,0,0,1-2.3-.7c-2.7-1.5-5.2-5.5-6.8-11.3-1.5-5.4-1.2-8.4-.3-9.4a3.33,3.33,0,0,1,1.8-.8,30.87,30.87,0,0,0,4.9,5.5,5.4,5.4,0,0,0,6.1.8,5.53,5.53,0,0,0,2.9-5.5c0-.2-2.3-19.4,9.2-32.9,7.1-8.3,18.1-12.9,32.7-13.5,33.7-1.4,47.1-9.1,52.4-14.9,6.6,4.1,19.1,14.9,19.7,37.6v23.8a5.29,5.29,0,0,0,2.4,4.5,5.45,5.45,0,0,0,6.8-.6,41.12,41.12,0,0,0,4.4-4.8,3.34,3.34,0,0,1,2.1.8c.9,1,1.3,3.9-.3,9.4-1.6,5.8-4.1,9.8-6.8,11.3a5.25,5.25,0,0,1-2.4.7,5.38,5.38,0,0,0-2.5-.9,5.57,5.57,0,0,0-6,4.8c-2.3,21.1-11.3,48.9-40.7,61.9a33.69,33.69,0,0,1-25.7.5c-31.2-12.9-40-41.6-42-63.4A5.39,5.39,0,0,0,95.4,143.5Zm8.1,85.6c6.5,6.8,19.1,18.1,35,23.6-11.1,6.6-25.6,18.2-34.2,36.5l-9-47.9ZM10.7,273l74.7-25.7L97.7,313a.37.37,0,0,0,.1.3L118.2,422H10.7ZM300.1,422H188.7l1.5-7.4v-.1l35-167.4L300,272.9V422Z"></path></svg> 