<?xml version="1.0" encoding="UTF-8"?> <svg xmlns="http://www.w3.org/2000/svg" id="Livello_1" data-name="Livello 1" viewBox="0 0 458 154"><defs><style>.cls-1{fill:none;stroke:#ff585b;stroke-miterlimit:10;stroke-width:7px;}.cls-2{fill:#fff;}</style></defs><polyline class="cls-1" points="12 43 12 11 44 11"></polyline><polyline class="cls-1" points="44 143 12 143 12 111"></polyline><polyline class="cls-1" points="446 111 446 143 414 143"></polyline><polyline class="cls-1" points="414 11 446 11 446 43"></polyline><path class="cls-2" d="M99.18,81.05c.7,4.25,3.35,6.25,7.35,6.25,4.15,0,6.85-1.85,6.85-5.55,0-3.5-2-5-7.15-6.7-4.4-1.4-8.55-2.9-8.55-8.25,0-5.75,4.4-7.8,8.75-7.8,5.15,0,8.8,2.15,9.4,7.75l-2.55.4c-.55-4.1-3-6-6.8-6-3.55,0-6.2,1.7-6.2,5.45s2.75,4.75,7.5,6.3c4.6,1.5,8.25,3.3,8.25,8.55s-4,8-9.55,8-9-2.55-9.8-7.85Z"></path><path class="cls-2" d="M144.48,83.15c-2.25,4.2-5.65,6.25-10.95,6.25-7.65,0-12.75-5.25-12.75-15.1s5.4-15.25,13.2-15.25c5.1,0,8.6,2.25,10.5,7l-2.35,1.15a8.26,8.26,0,0,0-8.3-5.9c-6.55,0-10.3,5-10.3,13s3.5,12.75,10.1,12.75a9.13,9.13,0,0,0,9-5.4Z"></path><path class="cls-2" d="M148.38,74.25c0-9.75,5-15.2,12.8-15.2S174,64.5,174,74.25s-5,15.15-12.8,15.15S148.38,84,148.38,74.25Zm2.75,0c0,8,3.5,12.85,10.05,12.85s10.1-4.85,10.1-12.85-3.55-12.9-10.1-12.9S151.13,66.25,151.13,74.25Z"></path><path class="cls-2" d="M180.73,89V59.5h7.9c7,0,10,3.2,10,8.7,0,5.9-3.25,9.15-9.8,9.15h-5.45V89Zm2.65-13.8h5.2c5.25,0,7.3-2.35,7.3-6.85,0-4.25-2.3-6.55-7.35-6.55h-5.15Z"></path><path class="cls-2" d="M221.93,89a6,6,0,0,1-1.4-3l-1.2-5.25c-.85-3.55-2.85-4.75-6.65-4.75h-5.55V89h-2.65V59.5h9.1c6.65,0,9.65,2.9,9.65,8.1A7,7,0,0,1,216.38,75v.1c2.9.3,4.55,1.65,5.4,5l1.4,5.7A7.68,7.68,0,0,0,224.83,89Zm-14.8-15.2h6.4c4.65,0,6.95-2,6.95-6s-2.2-6-6.95-6h-6.4Z"></path><path class="cls-2" d="M233.63,59.5V89H231V59.5Z"></path><path class="cls-2" d="M252.67,89V59.5h8.16c8.3,0,14.15,4,14.15,14.4,0,10.9-6.55,15-14.2,15Zm7.86-2.25c7.15,0,11.7-4.2,11.7-12.7s-4.45-12.25-11.45-12.25h-5.45v25Z"></path><path class="cls-2" d="M284.38,59.5V89h-2.66V59.5Z"></path><path class="cls-2" d="M303.42,89V59.5h7.9c7,0,10,3.2,10,8.7,0,5.9-3.25,9.15-9.8,9.15h-5.45V89Zm2.65-13.8h5.2c5.25,0,7.3-2.35,7.3-6.85,0-4.25-2.3-6.55-7.35-6.55h-5.15Z"></path><path class="cls-2" d="M329.82,59.5V89h-2.65V59.5Z"></path><path class="cls-2" d="M359.47,59.5V78.9c0,7.6-5.25,10.5-11,10.5s-10.95-2.9-10.95-10.5V59.5h2.65V78.35c0,6.4,3.7,8.85,8.3,8.85s8.35-2.45,8.35-8.75v-19Zm-12-2.65-4.45-6.05h3.5l3.2,6.05Z"></path></svg> 