<?xml version="1.0" encoding="UTF-8"?> <svg xmlns="http://www.w3.org/2000/svg" id="Livello_1" data-name="Livello 1" viewBox="0 0 458 154"><defs><style>.cls-1{fill:none;stroke:#ff585b;stroke-miterlimit:10;stroke-width:7px;}.cls-2{fill:#fff;}</style></defs><polyline class="cls-1" points="12 43 12 11 44 11"></polyline><polyline class="cls-1" points="44 143 12 143 12 111"></polyline><polyline class="cls-1" points="446 111 446 143 414 143"></polyline><polyline class="cls-1" points="414 11 446 11 446 43"></polyline><path class="cls-2" d="M148.23,83.15c-2.25,4.2-5.65,6.25-10.95,6.25-7.65,0-12.75-5.25-12.75-15.1s5.4-15.25,13.2-15.25c5.1,0,8.6,2.25,10.5,7l-2.35,1.15a8.26,8.26,0,0,0-8.3-5.9c-6.55,0-10.3,5-10.3,13s3.5,12.75,10.1,12.75a9.13,9.13,0,0,0,9-5.4Z"></path><path class="cls-2" d="M169.78,79.6h-13.2L153.08,89h-2.75l11.2-29.45H165L176.08,89h-2.8Zm-12.4-2.25h11.55l-3.25-8.75a71.21,71.21,0,0,1-2.4-7.35h-.2a73.34,73.34,0,0,1-2.4,7.3Z"></path><path class="cls-2" d="M197.78,80a57,57,0,0,1,3.3,5.45h.15s-.15-2.9-.15-6.2V59.5h2.6V89h-2.8l-14-20.5a55.22,55.22,0,0,1-3.3-5.45h-.2s.2,2.9.2,6.2V89h-2.6V59.5h2.85Z"></path><path class="cls-2" d="M212.38,89V59.5h8.15c8.3,0,14.15,4,14.15,14.4,0,10.9-6.55,15-14.2,15Zm7.85-2.25c7.15,0,11.7-4.2,11.7-12.7s-4.45-12.25-11.45-12.25H215v25Z"></path><path class="cls-2" d="M244.08,59.5V89h-2.66V59.5Z"></path><path class="cls-2" d="M252.77,89V59.5h8.16c8.3,0,14.15,4,14.15,14.4,0,10.9-6.55,15-14.2,15Zm7.85-2.25c7.16,0,11.71-4.2,11.71-12.7s-4.45-12.25-11.45-12.25h-5.46v25Z"></path><path class="cls-2" d="M297,79.6h-13.2L280.27,89h-2.75l11.2-29.45h3.46L303.28,89h-2.8Zm-12.41-2.25h11.55l-3.24-8.75a73.26,73.26,0,0,1-2.41-7.35h-.19a73.34,73.34,0,0,1-2.4,7.3Z"></path><path class="cls-2" d="M311.58,89V61.8H302V59.5h21.86v2.3h-9.6V89Z"></path><path class="cls-2" d="M331.53,59.5V89h-2.65V59.5Z"></path></svg> 