<?xml version="1.0" encoding="UTF-8"?> <svg xmlns="http://www.w3.org/2000/svg" id="Livello_1" data-name="Livello 1" viewBox="0 0 785 431"><defs><style>.cls-1{fill:#fff;}</style></defs><path class="cls-1" d="M134.56,251.62V175.68H107.71v-6.43h61.11v6.43H142v75.94Zm44.19,0V169.25h7.41v37.48h47.55V169.25H241v82.37h-7.27V213.3H186.16v38.32Zm129.36,0H261.26V169.25h46.85v6.43H268.67v31.47h35.1v6.43h-35.1v31.6h39.44Zm101.52-40.28v40.28H403.2l-1-14.13c-2.94,9.65-12.87,15.38-23.91,15.38-21.4,0-35.66-14.82-35.66-42.23S357.75,168,379.56,168c14.83,0,24.34,6.29,29.37,19.58l-6.57,3.21c-3.92-10.9-12-16.5-23.21-16.5-18.32,0-28.81,13.85-28.81,36.36,0,21.82,9.79,35.94,28.25,35.94,12,0,23.63-6.15,23.63-22.23v-6.3H380v-6.71Zm11.89-.84c0-27.27,14-42.51,35.8-42.51s35.8,15.24,35.8,42.51-14,42.37-35.8,42.37S421.52,237.77,421.52,210.5Zm7.69,0c0,22.37,9.79,35.94,28.11,35.94s28.25-13.57,28.25-35.94-9.93-36.08-28.25-36.08S429.21,188.13,429.21,210.5Zm73.14,0c0-27.27,14-42.51,35.8-42.51S574,183.23,574,210.5s-14,42.37-35.8,42.37S502.35,237.77,502.35,210.5Zm7.69,0c0,22.37,9.79,35.94,28.11,35.94s28.25-13.57,28.25-35.94-9.93-36.08-28.25-36.08S510,188.13,510,210.5Zm78.59,41.12V169.25h22.8c23.21,0,39.57,11.33,39.57,40.27,0,30.49-18.32,42.1-39.71,42.1Zm22-6.3c20,0,32.72-11.74,32.72-35.52,0-24.05-12.45-34.26-32-34.26H596v69.78ZM118.9,359.7c-6.3,11.75-15.81,17.48-30.63,17.48-21.4,0-35.66-14.68-35.66-42.23s15.1-42.65,36.92-42.65c14.26,0,24,6.29,29.37,19.58l-6.58,3.21c-3.91-10.91-12-16.5-23.21-16.5-18.32,0-28.81,13.84-28.81,36.36,0,22.23,9.79,35.66,28.25,35.66,12,0,19.58-4.76,25-15.11Zm6.71-24.89c0-27.27,14-42.51,35.79-42.51s35.8,15.24,35.8,42.51-14,42.37-35.8,42.37S125.61,362.08,125.61,334.81Zm7.69,0c0,22.37,9.79,35.94,28.1,35.94s28.25-13.57,28.25-35.94-9.92-36.08-28.25-36.08S133.3,312.43,133.3,334.81ZM259,350.89a159.39,159.39,0,0,1,9.24,15.24h.41s-.41-8.11-.41-17.34V293.56h7.27v82.36h-7.83l-39.3-57.33a154.85,154.85,0,0,1-9.23-15.25h-.56s.56,8.12.56,17.35v55.23h-7.27V293.56h8Zm35.81,2.94c1.95,11.88,9.36,17.48,20.55,17.48,11.61,0,19.16-5.18,19.16-15.52,0-9.79-5.59-14-20-18.74-12.3-3.92-23.91-8.11-23.91-23.08,0-16.08,12.31-21.81,24.47-21.81,14.41,0,24.61,6,26.3,21.67L334.25,315c-1.54-11.47-8.25-16.78-19-16.78-9.93,0-17.34,4.76-17.34,15.24s7.7,13.29,21,17.62c12.87,4.2,23.07,9.23,23.07,23.92,0,15-11.32,22.23-26.71,22.23-15.66,0-25.17-7.13-27.4-22Zm120.26-60.27v54.25c0,21.26-14.68,29.37-30.62,29.37s-30.63-8.11-30.63-29.37V293.56h7.41v52.72c0,17.89,10.35,24.75,23.22,24.75s23.35-6.86,23.35-24.48v-53Zm24.9,0v75.93h38.31v6.43H432.56V293.56Zm57.89,82.36V300H471v-6.43h61.11V300H505.28v75.93Zm80.83-26.15H541.78L532,375.92H524.3l31.33-82.36h9.65l31,82.36h-7.83ZM544,343.48h32.31L567.23,319a200.4,200.4,0,0,1-6.71-20.56H560a206.44,206.44,0,0,1-6.71,20.42Zm108.8,7.41a160.48,160.48,0,0,1,9.23,15.24h.42s-.42-8.11-.42-17.34V293.56h7.27v82.36h-7.83l-39.3-57.33A154.85,154.85,0,0,1,613,303.34h-.56s.56,8.12.56,17.35v55.23h-7.27V293.56h8Zm53.28,25V300H679.25v-6.43h61.11V300H713.51v75.93ZM230.1,2.18a10.72,10.72,0,0,0-2.07,0l.46.1A6.54,6.54,0,0,1,230.1,2.18Zm-43.24.07.82.18,1.39-.05Zm72.54,45c0-3.66-2.15-5.81-6.36-5.81h-6.57V53.07H253C257.18,53.07,259.4,51.41,259.4,47.26ZM676.08,2.47h1.24a6.61,6.61,0,0,0,1-.42Zm-293-2,.21,0C384.52.41,383.82.42,383.06.49ZM1.41,79.52c.78-5,1,8,1.87.6C2.94,80.82,1.92,73.35,1.41,79.52ZM355.1,2.26l-2-.12C353.88,2.22,354.53,2.25,355.1,2.26ZM274.53,1.4c0-.09-.29-.2-1.11-.38A4,4,0,0,0,274.53,1.4Zm156.12.21,1.53.07A4.58,4.58,0,0,0,430.65,1.61ZM611.11,3.55l-.12,0Zm-.58-.12.46.09a2,2,0,0,0-.19-.07ZM639.2,2.28a1,1,0,0,0-.47-.31C638.73,2.08,638.92,2.19,639.2,2.28Zm-182.55.46c1.16,0,1.64-.12,1.7-.22C457.28,2.59,456.39,2.65,456.65,2.74Zm271-.42c-1.16,0-1.57.83-2,1.21a6.26,6.26,0,0,1,2.55-.6C728.14,2.77,728,2.57,727.6,2.32Zm-186.85,44c0-3.38-2-5.94-5.67-5.94s-6.22,2.76-6.7,7.12h12.3A7,7,0,0,0,540.75,46.29Zm68.19-43L604.87,3C604.59,3.32,607,3.23,608.94,3.31Zm-54.72-.56.44-.79C551.3,2.07,554.62,2.27,554.22,2.75Zm-104,68.67c0,2.14,1.45,3.67,4.08,3.67s5.87-1.46,5.87-4.77V66.58C453,66.37,450.26,68.17,450.26,71.42ZM352.64,2.63a10.87,10.87,0,0,1-1.31.19C352.31,2.74,353.56,2.75,352.64,2.63Zm-1.6.22.29,0Zm150.22,110,.11,0ZM386,.84c.63,0,1.22,0,1.76-.07C387,.78,386.4.81,386,.84ZM291.34,46.29c0-3.38-2-5.94-5.67-5.94-3.81,0-6.23,2.76-6.71,7.12h12.31A7,7,0,0,0,291.34,46.29ZM768.62,10.72A17.91,17.91,0,0,0,765.17,8c-.42-.23-.25,0-.12.27s.25.53-.26.37-1.61-.79-4.11-2a36.66,36.66,0,0,1,7.08,4.48C766.79,10,765.46,8.45,768.62,10.72Zm-33-8.65c-2.76.31-3.43.39-.18.69C739.8,2.6,735.41,2.27,735.64,2.07ZM253.48,114.33l-2.34-.06-2.64.33ZM783,49.5c0-.38-.09-1-.12-1.45ZM397.65,54.14c-4.63,0-7,3.18-7,10,0,7,2.28,10.44,7,10.44s7.05-3.39,7.05-10.44C404.7,57.32,402.35,54.14,397.65,54.14ZM63.31,2.48a18.28,18.28,0,0,0-7.41-.33C58.86,2.22,61.8,2.6,63.31,2.48Zm437.26-1.4L495,1.37l4.13-.17Zm-305.86.4,1,1C198,2.28,198.47,1.18,194.71,1.48ZM783.26,113l1,2.23-.27-4.86C783.75,109.28,783.14,109.92,783.26,113Zm.13,10.57c-.27-1.1.22-4.86-.42-6.54a48.37,48.37,0,0,0-.17,14.62c-.23,1.16-.5,0-.69-.23.5,3.68,1.38,7.92,2.32,5.54-1-3.64-.57-4.53-1.75-8.45C782.56,125.42,783,123.09,783.39,123.61ZM758.15,423.36c-.52.07-1.15.19-1.86.36Zm-191,.47a5.36,5.36,0,0,0,2.12-.22C567.88,423.68,566.78,423.74,567.1,423.83Zm-32.36-1.13,1.91.07A7.56,7.56,0,0,0,534.74,422.7ZM751.48,424c-.16.18.46.21,1.42.19s2.23-.28,3.39-.46A31,31,0,0,1,751.48,424Zm33.11-250.34a24.14,24.14,0,0,0-.27-2.75c0,.87.07,1.71.11,2.58A.88.88,0,0,1,784.59,173.65Zm-4.92,180.17v-1.54a9.6,9.6,0,0,0-.42-1.28Zm-.15-64.12c0,1.45.83,1.95,1.21,2.51a9.36,9.36,0,0,1-.6-3.17C780,289,779.77,289.21,779.52,289.7ZM781.05,188c0-.55-.09-1.34-.12-1.81ZM778.57,399.7c.11,0,.24-.16.39-.47A1.11,1.11,0,0,0,778.57,399.7ZM475.52,421.58l.26,0C477.34,421.5,476.45,421.52,475.52,421.58ZM8.64,338.86c-.78,6.16-1-10-1.87-.75C7.11,337.25,8.13,346.54,8.64,338.86ZM784.48,175.31c0,.86,0,1.74,0,2.63C784.52,176.74,784.51,175.93,784.48,175.31ZM339.05,422.11a6,6,0,0,0,1.4.38C340.4,422.4,340.09,422.29,339.05,422.11Zm101.67,1.24-2.52-.12C439.2,423.31,440,423.34,440.72,423.35Zm-155.57-.08,1.12.07C285.85,423.3,285.48,423.28,285.15,423.27Zm0,0a16.62,16.62,0,0,0-2.58,0l.57.11A9.31,9.31,0,0,1,285.15,423.27Zm-53.82.07,1,.18,1.74,0ZM784.1,173.67a3.25,3.25,0,0,1,.38,1.64c0-.63,0-1.24-.05-1.83C784.3,173.32,784.18,173.28,784.1,173.67ZM284,430.23l-8.73-.13C277.75,430.19,280.92,430.23,284,430.23Zm-34.63,0a37.82,37.82,0,0,0-4.92-.6,5.49,5.49,0,0,0-1,.22ZM784.09,252.44c-1-9.67,1.26-22.73-.16-36.64-.59-12-1.61-14.21-2.12-25.34.49-3.76,1.11,3.07,1.11,3.07a112.67,112.67,0,0,0,0-16.33c.27,1.16.49,0,.83-1.77-.08-4.59-1.1-3.07-.66-9.11a24.13,24.13,0,0,1,1.22,4.58c-.28-5.41-.84-10.74-1.12-16.33.53-1.48.81,3.37,1.15,5.35-.24-6.29-.48-16.29-1.31-18.23l-.23,3c.2-.71.68.24.8,1.56.65,5.38-.29,7.76-.6,8.07l-.19-4c-1.78,4.09.28,16,.18,24L781.71,171l1.07,8.22c-.34,1.75-1.06,2.95-1.25-1-.64,5.75.46,5.09-.25,10-.11.55-.18.3-.23-.2l.39,5.61c-.27-1.1-.91.94-.73-2.51-.74,10.07,1,16.25,0,20l-.08-.84c.44,14,1,1.35,2.07,11.84l-2.35,7.06.95,1.37c0,1.44-.1,4.3-.48,3.77.65,5.37.41-.92,1,2.2-.86,6.94.41,19.14-1.1,20.71.72,2.49.55-6.64,1,.77-1.62,2.12.28,8.57-.46,14.91-.84-1.95-.4-7.95-1.15-1.61,1.42,3.83-.31,12.35,0,17.7,1.13.25.47,11.64.85,20.61-.38-.56-.62,16.9-1,25.25l-.19-.25c1.14,1.62.93,10.23,1.16,16.51-.68-.25-.95-1.38-1.25-4.78v5.9a33,33,0,0,1,.69,7.06l-.85-1.49c0,7.85,1,15.81.43,25.91.8.56,2.22-8,2.75,2.64-.43.4-1.17.79-1.34-2a31.59,31.59,0,0,1,.17,5.11l-.72-4.27c-.32,4.6.6,2.41.54,6.08-.62-.07-.44,2.72-.93,2.2a39.11,39.11,0,0,0,0-4.62,56,56,0,0,1-.4,6.26,14.16,14.16,0,0,1-1.06,4.07c.37-.27.91.16.22,3-1.09,3.58-1.66,4-2,4.16s-.49-.09-1.59,1.7c-.44,1.79-3.57,5.24-3.07,5.85a5.63,5.63,0,0,1-2.87,1.91,25.48,25.48,0,0,1-7.94,5.52c-3.13,1.4-5.53,2-3.28,2a6.64,6.64,0,0,0,1-.23,3.75,3.75,0,0,1-.6.24c-6,2.4-13.1,1.5-20,1.47-6.9-.2-13.79-.46-20.39-.26l0-.31c-7.89.35-17.55.21-23.18.87-2.34,0-5.51-.56-4.51-.93-6,.23-6.7.58-15.41.07,6.06-.53-2.09-.47,6.21-.39-7.83-.27-9.61-.76-18,.08,2.87-.78-5.89-1-9.62-.75l5.49.56c-4.18.11-7.84,0-11.56,0l2-1c-16-1.25-28.91,2.14-41.11,0-4.24.72,8.71.51,4.92,1.35-7.38-.14-15.06-1.62-17.37-1.62-10.1-.58-9.42,1.51-20,1.12,1.35.36,2.63,1.35-5.27,1.7-7.38-.14-9.07-1.55-4.41-1.85,1.77,0,2.62.09,2.55.21,2.38-.13,5.51-.29,2.59-.69l-1,.37c-3.66-.38-13.81-.34-11.42-.94-4.77.3-3.12.53,0,.71-8.43-.39-13.68.05-22.82-.29,1.55.2,3,.64,1.43.63-14.29-.45-6.29.7-16,.86-5.5-.56,2-1.34-7.77-.87-6-.38-1.26-1,1.1-1.28-8.88.72-16.59-.46-21.66-.59l4.68-.3c-2.8.18-5.09.17-7.42.17l2.67.74c-2.75-.13-5.07-.14-5-.44-2.83.48,2.17,1.22-3.45,1.89-3.66-.38-11.15.4-12.41-.58,10.43.3.92-.75,6.28-1.07-1.4,0-3,0-4.73-.09-.42-.11.38-.2,1.14-.26-11-.87-5.07,1.11-16.48,1.09,1.45-.56-2.65-1.05-4.51-.93,4.6,0,2.2.92-2,1.34-7.33-.43-8,.32-11.79.27l4.37.2c-1.48.55-5.14.48-10.25.65-.13-.13.27-.21.82-.26-5.31.33-11.71-1.15-18.71-.57-3.66-.38-.35-1-3.57-1.29-8.85.71-9.58-.76-18.89-.17,2.68.75,3.15.56-3.4,1.29l15.3-.52-9.82,1.07c4.61,0,9.74-.46,12.51-.34-4.68.61-4.2.42-2,1-6.32-1.11-12.53.65-19.83-.1l.22-1.84c-11-.82-19.51.94-33.77.48l4.58.32c-1.91.73-8.8.1-13.42.4.43-.62-2.45-.84-4.42-1.22.24.45-10.44,0-11.74,1.18l-6.36-.81c-11.51-.33-13.14,1.75-24.21,1.54,3.34-.66-1.69-1.1,5.72-1.57-3.7,0-7-.12-7.08.3-2.16-.38-10.24.83-13.64.25-1.56.27-2.07.91-6.22.86-.27-.08-.21-.17-.11-.24-.87.26-6.07.4-2.74,1-11.38-1.92-31.81.13-41.72-1.51-8.07.21-17.78.4-25.11.45.47-.19,0-.31,1.41-.24-10.1-.57-6.21,1.76-17.7,1.12-5.87-1,6.1-.54,2.44-.91-1.59-2-13.87.27-21.6-.9l1.87-.12c-5.91-.69-14.42.76-24.08.62,0,0,.47-.18.06-.31-6.61,1-19.11,1.37-28.4,1.66,2.89-.79,4.22-.42,2.46-1.22-4.17.11,1.22,1.29-7.1,1.51-2.7-.43-8.7-.81-9.49-1.67l7.84,0c-4-1.11-10.15,0-14.28-.16l.52-.48c-12,.16-12.18,1.38-25.1,1.29l1.34.37c-7.06,1.21-5.92-.68-13,.22l-2.13-1.23c-4.66.29-16.31,1.18-24.67,1.42,4.73-.91,14.51-1.38,20.56-1.92-4.62,0-15.69.09-18.1.7a39.52,39.52,0,0,1,6-.23,83.19,83.19,0,0,1-9.8,1,25.7,25.7,0,0,1-11.75-2.25c1.21-.83-4.14-2.91-8.67-7.67-4.69-4.63-7.41-11.94-6.92-15.05l-.55-2.68-.25-2.73c-.08-2-.08-4.05-.09-6.07,0-4.09.06-8.21.15-12.41.19-8.41.46-17.15.39-26.63-1.85,6.72,0-5.54-1.95-4.37a42.92,42.92,0,0,1,0-6.49l-.08.93c0-.4.06-.62.09-1h0L7.9,324.75c.55-3.18.42,4.2.85,3.79.14-9.67.8-4.06,1.31-10.45-.68,1.31-1-3.37-.72-8.88L8.46,317c-1-13.51,1.6-11.68.6-25.3l.6,4.31c-.36-7,0-25.78-1.52-32.63.22-1.24.74-2.87.88.2.23-16.7-1.63-37.18-.69-50.16l.47,1.26c-.14-3.11-.87-5.42-.41-9.32.19.2.47,1.25.49-.19a93.7,93.7,0,0,1-.54-12.41l.52,3.53c.61-16.29-1.27-25-1.59-38.67,1.37,0,1.81-12.78,2-19.18l.19.22c.05-5.3,0-10.16-.16-14.79-.08-2.31-.16-4.57-.24-6.8L9,115.42,9,115.06V115l12.81-.28a83.6,83.6,0,0,0,11.88-.92l2.28.1c.33.21.2.42-1.26.5,4.2.07,8.7-.06,13.22-.25,11,.11,23.42,0,33.2.51-1.64-.15-1.1-.51.26-.8-.26.18-.75.38.25.41a60.43,60.43,0,0,1,10-.55l-2.83.53c2.84.13,5.38.14,7.75.08,4,.52,10.34.32,15.56.35l1.09-1.64h0a102,102,0,0,0,10.17.8c3.46.48,8.69.71,11.9.85l-.18.19c11.06.12,19.71-.53,29-1.1a29,29,0,0,1,3.75.52c3.41-.34,7.48-.4,11.11-.63l2.26.16-.14.53c11.54.23,17.31.34,31.57.13l-2.91.63a28.91,28.91,0,0,0,6.3-.6l2.83.14c-2.15-.24.35-1.06,2.85-1.2a65.13,65.13,0,0,0,6.75-.26l.93.55h-.24c2.49,1.23,9.28.91,14.58.94l.31-.58a247,247,0,0,0,27.64-.32c-.23.2-.64.58-2.91.63,5.86,0,21.45.71,23.2-.4l1.31-.08a51.24,51.24,0,0,0,6,0l-.08.4c9.27.23,13.9.34,25.37.13l-2.34.63c6.47.06,8.17-2.54,14.13-2.59l1.79,1.31c11.29,0,22.71,1.14,33.85-.06-.18.2-.51.58-2.34.63,3.72,0,12.28.45,16.44.08a11,11,0,0,1-2.06.5c2.9-.28,6.77-.71,10.84-1.06,2-.1,4.16-.26,6.24-.42,1.56-.08,3.1-.12,4.57-.12L405,114l2.46-.55,1.06,0a5.07,5.07,0,0,1,1,.28l-.79.09a35.36,35.36,0,0,0,4.8-.13c2.42.13,4,.23,6.29.24.9.66,8.94.35,12.82.39-.32-.87,4.64-.74.14-1.43a30.72,30.72,0,0,1-3.46.11c-.58,0-1.27,0-1.65.09l.26-.07-9.66.06a40.38,40.38,0,0,1,8.68-.5l-1.51.33c1.2,0,2.12,0,2.87,0l-.38.12,1.39,0c.38,0,.58,0,1.07-.06l-.73-.09A28.51,28.51,0,0,0,434,112a32,32,0,0,1,3.53-.1c2.7.42,5.8.77,8.4,1.09h0a26.79,26.79,0,0,1,5.3.93c3.51-.14,7.38-.23,11.29-.32,1.42.33,2.79.65-.37,1.35,5-.61,13.62-1.91,19.72-1.54a3.34,3.34,0,0,1,.81.28l-.63.09a22.76,22.76,0,0,0,3.85-.13c2,.13,3.19.23,5.06.24.72.66,7.18.35,10.3.39-.26-.87,3.72-.74.11-1.43a19.75,19.75,0,0,1-2.78.11c-.47,0-1,0-1.33.09l.21-.07-7.75.06.83-.15c2.43-.07,5.12-.12,7.65-.18l-.73.27,1.12,0c.3,0,.47,0,.86-.06l-1.23-.19a76.64,76.64,0,0,0,8.45-.54c4.09.7,8.71,1.2,9.55,1.75,7.71-.39,17.64-.36,24.32-1.2,2.35-.16,4.7-.33,7.08-.48a11.39,11.39,0,0,0,1.18.45c-1.57.16-3.43.14-4.27.37,5.42-.42,16.05-.16,17.35-1.31,6.83.52-3.84,1.06,5.54.87l-1.26.35c10.11,1,18.15,0,26.72-.67,7,0,14.07-.08,21.13-.16.87.08,1.73.15,2.63.26a19.56,19.56,0,0,1-2-.27l2.68,0c10,.34,20.19.18,30.39,0,4.73.11,9.41.27,14,.53a45.08,45.08,0,0,0,11.12-.56c1.28,0,2.55.06,3.82.11l.83.43,2.35-.29c1.84.08,3.68.18,5.51.31,6.54.34,7.25-.4,11.25-1l1.42.93,3.41-.54a105.5,105.5,0,0,0,19.41.37,59.51,59.51,0,0,0,13-.1l-1.58-.64c.84,0,1.86,0,3,0s1.55.16,1.33.34a12.47,12.47,0,0,1,1.73-.38l1.59,0,.62.07.16.49,4.81-.3s0,.09,0,.14c.13,0,.3-.1.52-.17l2.61-.17h0l.13.49,8.36-.65c4.79.55-2.69,1.77,10.59,1.85l.82,0c.58,0,1.24,0,2,0,3.82-.15,10.34-1,11.33-1.53.21-.08.21-.15,0-.2,0,0,0,0-.05,0-1.84,0-4.69-.31-4.83-.8l3.1-.19c.09.09.18.08.27,0l.58,0a.89.89,0,0,0-.21.47l.27-.12a.53.53,0,0,0,0,.12l1-.53-.82,0a2.63,2.63,0,0,1,.16-.26H782v-.89c.32-.4.46-.79,0-1.17V61.23l.24.5L782,60.25V53.9a4.09,4.09,0,0,1,.42,2c.64-4.62-.46-4.09.25-8,.11-.44.17-.24.23.16l-.39-4.51c.27.89.91-.75.73,2a27.77,27.77,0,0,0-.67-10.1c-.26-1.34-.72-2.45-1-3.46a18.05,18.05,0,0,1-.5-2.72l.31.64a19.83,19.83,0,0,0-2.29-4.68c-.45-.64-.6-.62-.72-.51s-.23.3-.6,0A37.28,37.28,0,0,0,775,20.31c-.1-.37-.2-.73-.29-1.11a20.36,20.36,0,0,0-.94-3L772.3,16c-.71-.95-2.47-2.49-1.88-2.51-3.7-2.45.29.79-2-.42a25.91,25.91,0,0,0-8.35-5.49c-1.52-.69-3-1.14-4.07-1.68a4,4,0,0,1-2.15-1.26c-2.12.2,5.1,1.89-.85.87-.64-1-2.44-1.19-4.62-1.31a50.28,50.28,0,0,1-7.33-.08c1.57-.84,6.4-.4,1.3-1.15-3.08,1.42-9.93-.31-14.22,0-.21,1.13-9.35.47-16.56.85.45-.38-13.58-.62-20.29-1l.2-.19c-1.3,1.14-8.22.93-13.26,1.16.2-.68,1.1-1,3.83-1.25h-4.73a21.61,21.61,0,0,1-5.67.69l1.19-.85c-6.31,0-12.7,1-20.81.43-.31.54,2.75,1.37,2.09,2h-4.39c.15-.27.62-.51,1.78-.6a20.5,20.5,0,0,1-4.11.17l3.43-.72c-3.69-.32-1.93.6-4.88.53,0-.61-2.19-.43-1.77-.92a25.24,25.24,0,0,0,3.71,0,43.31,43.31,0,0,1-8.69-.94c.29.35,0,.83-2.44.91-6.3.05-2.16-.74-5.83-1-1.53.42-5.56,0-5.66.9a5.67,5.67,0,0,1-2.9-.68c-3.26.4-15.24.11-11.57,1.09l.84.06-.53,0c-10.7.92-22.22-.52-32.84-.12l0-.31c-6.34.35-14.1.21-18.63.87-1.87,0-4.42-.56-3.62-.93-4.84.23-5.39.58-12.38.07,4.87-.54-1.68-.47,5-.39-6.29-.27-7.72-.76-14.48.08,2.3-.79-4.73-1-7.73-.75l4.41.56c-3.36.11-6.3,0-9.29,0l1.62-1c-12.88-1.26-23.23,2.14-33,0-3.41.72,7,.51,4,1.35-5.93-.14-12.1-1.62-14-1.62-8.12-.58-7.58,1.51-16.07,1.11,1.09.37,2.11,1.36-4.23,1.7-5.93-.13-7.29-1.54-3.55-1.84,1.43,0,2.11.09,2.05.21,1.92-.13,4.43-.29,2.08-.69l-.77.37c-2.94-.38-11.09-.34-9.18-.94-3.83.3-2.5.53,0,.71-6.78-.39-11,.05-18.34-.29,1.24.2,2.39.64,1.15.63-11.48-.46-5.05.7-12.83.86-4.42-.56,1.58-1.34-6.25-.87-4.78-.38-1-1,.89-1.28-7.13.71-13.33-.46-17.4-.6L401.5.13c-2.25.17-4.09.17-6,.17l2.15.73c-2.21-.12-4.07-.13-4-.43-2.28.48,1.74,1.22-2.77,1.88-2.95-.37-9,.41-10-.57,8.38.3.74-.75,5.05-1.07-1.13,0-2.38,0-3.8-.09-.34-.11.31-.2.91-.26C374.21-.38,379,1.6,369.82,1.57,371,1,367.69.53,366.2.65c3.69,0,1.76.92-1.63,1.34-5.88-.43-6.39.32-9.47.27l3.52.2c-1.2.55-4.14.48-8.24.65-.11-.13.21-.21.66-.26-4.27.33-9.41-1.15-15-.57-2.94-.38-.29-1-2.87-1.29C326,1.7,325.43.23,318,.82c2.15.74,2.53.56-2.74,1.29l12.3-.53-7.89,1.08c3.71,0,7.83-.46,10.05-.34-3.76.61-3.37.42-1.6,1C323,2.25,318,4,312.15,3.25l.18-1.83c-8.83-.82-15.68.94-27.14.48l3.69.32c-1.54.73-7.08.1-10.79.4.35-.62-2-.84-3.56-1.22.2.45-8.38,0-9.42,1.18L260,1.77c-9.25-.33-10.55,1.75-19.45,1.54,2.68-.66-1.36-1.1,4.6-1.58-3,0-5.64-.11-5.69.31-1.73-.38-8.23.83-11,.24-1.25.27-1.66.92-5,.87-.22-.08-.16-.18-.08-.24-.67.26-4.9.4-2.21,1-9.14-1.91-25.56.14-33.52-1.5-6.48.21-14.29.4-20.17.45.37-.19,0-.31,1.13-.24-8.12-.58-5,1.76-14.22,1.12-4.72-1,4.9-.54,2-.91-1.28-2-11.15.27-17.36-.91l1.51-.11c-4.75-.69-11.59.76-19.35.62,0,0,.37-.18,0-.31-5.3,1-15.35,1.37-22.82,1.66,2.33-.79,3.39-.42,2-1.22-3.35.11,1,1.29-5.7,1.51-2.17-.43-7-.81-7.63-1.67l6.3,0c-3.23-1.11-8.16,0-11.48-.16l.43-.48C72.64,1.9,72.51,3.12,62.13,3l1.07.37c-5.67,1.2-4.75-.68-10.41.21L51.08,2.39l-8.8.73A50.09,50.09,0,0,0,31.14,5.44,30.82,30.82,0,0,1,34.5,4,40.48,40.48,0,0,1,39,2.87c3.27-.53,6.37-.69,8.81-1-1.92,0-4.86-.09-8.1.24a19.49,19.49,0,0,0-6.86,1.62,17.18,17.18,0,0,1,5-1.15,66.18,66.18,0,0,0-17,7.67c0-1.34-4.55,1.23-8.57,5.75-4.18,4.42-7,10.8-8.69,13.32A50.78,50.78,0,0,0,2,39.86C1.83,43.44,1.9,46.53,1.76,50c-.18,6.76-.46,13.78-.39,21.4,1.85-5.41,0,4.44,1.95,3.51a27.77,27.77,0,0,1,0,5.21l.08-.75c0,.32-.06.5-.09.77h0L2.16,90.86c-.56,2.55-.42-3.37-.85-3C1.16,95.58.5,91.07,0,96.21c.68-1,1,2.71.71,7.13l.88-6.23a36,36,0,0,1,0,8c0,.26,0,.53-.07.79H.5c.11,10.22.19,17.37.3,27.57.88.25.68,5.18,1.39,8.94-.28,9.27-1,19.56-.89,30.73.43,7.85.74,2.29,1.26,5.82-.8.58-.72,11.73-1.29,5.94.12,13.41.15,17.13.8,34.08.33-1.84.47-3.91.74-2.84.13,3.08-.33,7-.72,6.56L2,221.87c1.19,19-2.32,43.92-.66,59.07l-.08-.85.86,15.71c-.14,7.23-.6-4.33-1.09,1,1.33,16.95-.19,26.78.69,40.74C-.61,348.36,1.9,375.9.4,390.48l.55-.84a12.31,12.31,0,0,1,0,4,26.47,26.47,0,0,0-.29,3.74c.4-.51.27-4.63.69-2a36.58,36.58,0,0,0,35.83,34.39l49.62,1.09c12,.15,6.8-2.86,21.89-1.54l-4.28,1c24.16-1.23,49.4,0,73.06-1a12.52,12.52,0,0,1-3.76.54c5,.75,18.47,0,18.56-.57,3.68.07.85.55,3.12.86,5,.44,12.58-.95,15.24-.21.29.08-.35.15-1.09.21,4.3-.19,13.67.09,10.86-.68,8.87.41,17-.38,24.06.13,4.62-1,15.2.46,16.66-.9-.63,1.41,15.57,1.13,21.18.47-1.88.43,4.88.44,2.68,1,6.41,0,12.28-.28,11.16-1,11.8,1.68,23.72-1.36,30.37.8,19-.76,36.64-1.27,53.75-1.6-.62,1.41-18.92.14-18.18,1.61,16.23-.57,25.6-1.78,41.7-1.44,4.17.19-2.36.61-3.77.85,16.22-.58,31.36.13,45.79-.64-2.6-.85,10.51-1.74,12.12-2.23-4.18,1.73,14.31.42,6.74,2.7,1.87-.12,4.22-.42,3.79-.85,2.78.13,3.66.38.84.86,10.19-.35,6.57-1,15.81-1,0,.31-1.9.43-2.85.79a94.19,94.19,0,0,1,17.17-.94c-.41.16.22.37-1.14.41,13-.14,22.37-1.58,36.79-1-4.34,1.34,5,.44,5.78,1.6l7.9-.34-3.17-.57c6.92,0,13-.82,19-.44l-5.14.48,13-.22-7.34-.44c7-.6-.75-1.47,8.47-1.15-1.88.12,6.92,0,10.53.7h0a66.44,66.44,0,0,1,12.07-.47c1.33.37-1.07,1.29-.21,1.53,3.38-1,16.22-.27,20.5-1.3-1.43.24-1.5.85-1,1l2.83-.79c3.21.25,3.68.37,3.16.86,9.65.14-3.07-1.47,8.38-.84-.9.06-.47.18-2.34.3,11.5.33,22.22-.5,32.79-.11,3.12,1.17-9.23.29-5.66,1.27,15.23-.21,31.55-1.4,46.29-1.12l-2.75-.13c2-1.65,11,.81,18.44,0-1.82.13-2.39.92-1.9.74,10.11.24,20.62-.37,36-1-.66.18-1.29.31-1.92.46A32.47,32.47,0,0,0,760,426.34,35.74,35.74,0,0,0,770.64,421c1.41-1.52,4.18-4.18,2.06-3a26.71,26.71,0,0,0,9.07-12.14,33.6,33.6,0,0,0,1.88-14.46c-.37-9.17-.79-18.07.21-26.86,0,2.1.37,5,.37,3.34l-.39-15c-.71,1.19-.43,2-1,5.11a56,56,0,0,1-.76-9.83c.48,6.73,1.16-.06,1.56-3-.22.48-.46-.51-.69-.27,1.28-7.82-1.44-1.31-.58-12l.37.57c-.19-4-.69-7.69-.58-12,.83-1.79.39,4.26,1.07,4.53,0-6.05-1.57-11.95-.74-17.43.23,2.57.23,6.27.46,8.84a57.92,57.92,0,0,0,.88-11.09l0,.43.44-10.25L784,299.1c-2.17-7.58-.4-15.43-1.82-25.64,1.35,9.92.78,1.64,1.72,2.4.26-2.6.56-6.57.82-5.44-.76-4.82.6-8.05-.51-14.86.3-.31,0-5.17.79-4.08C784.76,245.21,784.47,253,784.09,252.44ZM425.36,113.82l.31-.11a2.89,2.89,0,0,1-1,.44c-2.59.12-3.45-.05-3.81-.23Zm70.08,0,.24-.11a2.08,2.08,0,0,1-.82.44c-2.08.12-2.77-.05-3.06-.23ZM782,44.23c0,.6.09,1.18.14,1.86a4.39,4.39,0,0,1-.14.61ZM10.32,114.74c-.17.05-.88.1-1.39.15h0l-.05-.27h.77l.71,0,.54,0,1.16-.1ZM423,80.2l-11.2-31.94h8.78l4.77,15.56a71.4,71.4,0,0,1,2.29,10.3h.27a70.52,70.52,0,0,1,2.28-10.3L435,48.26h8.51L432.15,80.2ZM412.79,64.09c0,10.86-6,16.94-15.14,16.94S382.51,75,382.51,64.09s6-16.59,15.14-16.59S412.79,53.24,412.79,64.09ZM379.27,80.2H371V60.43c0-3.66-1.25-6-4.7-6s-6.43,1.8-6.43,7.88V80.2h-8.23V48.26h6.91l1,6.15c1.73-4.77,5.33-6.91,10.23-6.91s9.48,2.9,9.48,10Zm-32.91,0h-8.23V60.43c0-3.66-1.24-6-4.7-6S327,56.28,327,62.36V80.2h-8.22V48.26h6.91l1,6.15c1.73-4.77,5.32-6.91,10.23-6.91s9.47,2.9,9.47,10Zm-48.43.52H253v-7.6h44.93Zm237.5-46.59c8.78,0,13.2,5.87,13.2,14a16.93,16.93,0,0,1-.48,4.29h-20c.21,5.32,2.69,8.92,7.33,8.92,2.83,0,5-1.11,6.08-4.63l7,2.28c-1.52,6.43-7.19,8.71-13.41,8.71-8.92,0-15-5.95-15-16.39C520.22,40.35,526.09,34.13,535.43,34.13Zm13.44,39v7.6H490.8v-7.6ZM476,34.4h8.85l8.3,15.42a25.89,25.89,0,0,1,2.63,5.67h.27a31.33,31.33,0,0,1,2.63-5.67l8.37-15.42h8.64V68.9h-8.37V55.21a44.81,44.81,0,0,1,.42-7.05h-.28a37.07,37.07,0,0,1-3.11,6.43L498.1,65.51h-4.43l-6.29-10.92a33.23,33.23,0,0,1-3-6.43h-.28a53.61,53.61,0,0,1,.35,7.05V80.72H476Zm-3.31,39.3v6.09a9.08,9.08,0,0,1-4.63,1c-3.94,0-6.43-1.52-7.26-5-1.52,3.94-5.12,5.32-9.34,5.32-5.66,0-9.47-3.25-9.47-8.71,0-7.12,5.67-11.06,18.18-10.37V58.56c0-3.11-1.52-4.77-4.35-4.77s-4.43,1.8-4.63,4.84l-8.09-1.45c.48-6.78,6.29-9.68,13.13-9.68,7.33,0,12.17,3.11,12.17,10.3V71.21c0,2.29,1,3,2.35,3A4.42,4.42,0,0,0,472.73,73.7ZM318.67,34.4h150.7V42H318.67Zm-14.82,0h8.36V80.72h-8.36ZM286,34.13c8.78,0,13.21,5.87,13.21,14a16.47,16.47,0,0,1-.49,4.29h-20c.21,5.32,2.7,8.92,7.33,8.92,2.84,0,5-1.11,6.08-4.63L299.22,59c-1.52,6.43-7.19,8.71-13.41,8.71-8.92,0-15-5.95-15-16.39C270.8,40.35,276.68,34.13,286,34.13Zm-47.91.27h15.42c9.2,0,14.45,3.53,14.45,12.17,0,6.36-3.87,9.75-9.06,10.16v.21c3.81.55,5.81,2.14,6.85,6.08l1.68,6.29h-9.09l-1.17-4.7c-.89-3.87-2.76-4.56-6.22-4.56h-4.49V80.72H238.1ZM209.57,430.18c-.48,0-.9.05-1.23.09Zm239.5-1.42-2.78.18a4,4,0,0,1-.45-.12,14.49,14.49,0,0,1-3.07.37C445.62,429.15,449.39,429.4,449.07,428.76Zm49.24-.22h0Zm-65.7-315.68.14,0Zm13.23,316h0Zm33.27-6.88c.78,0,1.52,0,2.19-.07C480.39,421.87,479.67,421.9,479.11,421.93Zm303.7-277.25a4.29,4.29,0,0,0-.07,1ZM435.66,423.94l.36,0Zm2-.22c-.53.09-1.08.15-1.64.19C437.24,423.83,438.8,423.84,437.66,423.72ZM276.81,424c.07,0,.13,0,.13-.07Zm482-.69h0Zm-.7.05c.21,0,.4,0,.56,0l-.24,0Zm25.5-78.21a4.77,4.77,0,0,0,.22-1.18A5,5,0,0,0,783.65,345.15Zm.19-38.84.31-5.49C784,303.19,783.89,304.92,783.84,306.31Zm.44-29.86a1.4,1.4,0,0,0-.38-.59v.06ZM442.77,429.19l-1.15,0C438.92,429.4,440.75,429.34,442.77,429.19Zm141.3-2c-1.5.16-3,.32-4.55.42C582,427.63,584,427.65,584.07,427.15ZM285,430.25v0h-1Zm288-2.7a49.76,49.76,0,0,0,6.57,0C577.46,427.51,575,427.42,573,427.55Zm211.76-282c-.06,0-.11-.06-.14-.17l.1,1.61Zm-.24-1.77a6.18,6.18,0,0,0,.1,1.6Zm-.22-3.36.22,3.36A13.67,13.67,0,0,0,784.25,140.45Zm0,46.1.32.45C784.52,186.76,784.42,186.6,784.27,186.55Zm.09,12c.07-2.86.68-7.18.48-11.18l-.25-.38C785.06,188.88,783.83,195.84,784.36,198.56Zm-3.66,40.08c-.34,1.76-.79,4.07-.87-.5-1,12.68.75-2.62.62,10.57Zm-1.43,41.06c.31,3.43.39,4.26.69.22C779.8,274.51,779.47,280,779.27,279.7Zm-90.2,143.35c-4.16.11,0,.31-.54.79Zm-39.6,5.4,1.93-.73-6,.23Zm-29.53-6.16,1.82-.11-7,.28Zm-378.84.28,1.26,1C245.18,423.38,245.77,422.28,241.1,422.57Zm-163.54,1a28.19,28.19,0,0,0-9.22-.32C72,423.31,75.69,423.7,77.56,423.57Zm46.67-309.24-2.91-.06-3.29.33Z"></path></svg> 