<?xml version="1.0" encoding="UTF-8"?> <svg xmlns="http://www.w3.org/2000/svg" id="Livello_1" data-name="Livello 1" viewBox="0 0 1000 500"><defs><style>.cls-1{fill:#fff;}</style></defs><path class="cls-1" d="M215.1,218.86l19.83,6.41c-4.28,18.08-20.21,24.5-37.71,24.5-25.08,0-42.18-16.72-42.18-46.07,0-30.72,16.52-48.21,42.76-48.21,24.69,0,37.13,16.52,37.13,39.26a46.82,46.82,0,0,1-1.36,12.06H177.39c.59,15,7.58,25.07,20.61,25.07C206,231.88,212,228.77,215.1,218.86ZM212.58,193a20.36,20.36,0,0,0,.19-3.3c0-9.53-5.64-16.72-15.94-16.72-10.69,0-17.49,7.78-18.85,20Z"></path><path class="cls-1" d="M271.47,156.27V286.5H248V156.27Z"></path><path class="cls-1" d="M312.09,212.53c4.86-13.41,15-19.44,28.77-19.44,14.19,0,26.63,8.17,26.63,28.19V285H344.36v-55.6c0-10.3-3.5-16.72-13.22-16.72-9.33,0-18.08,5.06-18.08,22.16V285H289.93V195.23h19.44Z"></path><path class="cls-1" d="M404.61,212.53c4.86-13.41,15-19.44,28.77-19.44,14.19,0,26.63,8.17,26.63,28.19V285H436.88v-55.6c0-10.3-3.5-16.72-13.22-16.72-9.33,0-18.08,5.06-18.08,22.16V285H382.45V195.23h19.44Z"></path><path class="cls-1" d="M469.14,239.74c0-30.52,16.91-46.65,42.57-46.65s42.57,16.13,42.57,46.65-16.91,47.63-42.57,47.63S469.14,270.26,469.14,239.74Zm22.94.2c0,19.83,6.41,29.35,19.63,29.35,13.41,0,19.83-9.52,19.83-29.35,0-19.25-6.61-28.19-19.83-28.19C498.69,211.75,492.08,220.69,492.08,239.94Z"></path><path class="cls-1" d="M551.36,195.23h24.69L589.46,239a199.32,199.32,0,0,1,6.41,29h.78a198.62,198.62,0,0,1,6.42-29l13.6-43.74h23.91L608.7,285H582.85Z"></path><path class="cls-1" d="M710.75,259.77c0,6.41,2.72,8.36,6.61,8.36a12.47,12.47,0,0,0,5.44-1.37v17.11c-3.3,1.94-7.58,2.72-13,2.72-11.08,0-18.08-4.27-20.41-14.19-4.28,11.08-14.39,15-26.24,15-15.94,0-26.63-9.14-26.63-24.49,0-20,15.94-31.1,51.12-29.16v-9.53c0-8.74-4.28-13.41-12.25-13.41-8.16,0-12.44,5.05-13,13.61l-22.74-4.08c1.36-19.05,17.68-27.22,36.93-27.22,20.6,0,34.21,8.75,34.21,29Zm-23.13-13c-20.22-.58-28,4.47-28,13.61,0,6,4.08,10.3,11.47,10.3,7.58,0,16.52-4.08,16.52-13.41Z"></path><path class="cls-1" d="M781.7,243.74,764,213A93.76,93.76,0,0,1,755.45,195h-.77a152.92,152.92,0,0,1,1,19.82V286.5H732.13V156.27H757l23.33,43.34c6,10.5,7.38,15.94,7.38,15.94h.78s1.55-5.44,7.39-15.94l23.52-43.34h24.3v97H820.18V214.77c0-13.21,1.17-19.82,1.17-19.82h-.78A103.62,103.62,0,0,1,811.83,213l-17.69,30.72Z"></path><rect class="cls-1" x="773.63" y="265.12" width="163.28" height="21.38"></rect><rect class="cls-1" x="289.63" y="156.27" width="423.74" height="21.38" transform="translate(1003 333.91) rotate(180)"></rect><path class="cls-1" d="M116.75,241.21,120,254.42h25.57l-4.74-17.68c-2.91-11.08-8.55-15.55-19.24-17.11v-.58c14.58-1.17,25.46-10.69,25.46-28.57,0-24.3-14.77-34.21-40.62-34.21H63.1V286.5H86.62V228.38H99.25C109,228.38,114.22,230.33,116.75,241.21ZM86.62,176.09h18.47c11.85,0,17.88,6,17.88,16.33,0,11.66-6.22,16.33-18.08,16.33H86.62Z"></path><rect class="cls-1" x="104.98" y="265.12" width="126.34" height="21.38"></rect><path class="cls-1" d="M916.4,218.86l19.82,6.41c-4.27,18.08-20.21,24.5-37.71,24.5-25.07,0-42.18-16.72-42.18-46.07,0-30.72,16.52-48.21,42.77-48.21,24.68,0,37.12,16.52,37.12,39.26a46.39,46.39,0,0,1-1.36,12.06H878.69c.58,15,7.58,25.07,20.6,25.07C907.26,231.88,913.29,228.77,916.4,218.86ZM913.87,193a20.36,20.36,0,0,0,.19-3.3c0-9.53-5.63-16.72-15.94-16.72-10.69,0-17.49,7.78-18.85,20Z"></path><path class="cls-1" d="M66.21,315.46v28.61H63.64V315.46Z"></path><path class="cls-1" d="M97.36,335.38a55,55,0,0,1,3.21,5.29h.14s-.14-2.82-.14-6V315.46h2.52v28.61h-2.72L86.72,324.16a54,54,0,0,1-3.21-5.3h-.19s.19,2.82.19,6v19.19H81V315.46h2.77Z"></path><path class="cls-1" d="M134.24,335.38a55,55,0,0,1,3.21,5.29h.14s-.14-2.82-.14-6V315.46H140v28.61h-2.73L123.6,324.16a55,55,0,0,1-3.2-5.3h-.2s.2,2.82.2,6v19.19h-2.53V315.46h2.77Z"></path><path class="cls-1" d="M152.86,329.79c0-9.47,4.86-14.77,12.44-14.77s12.43,5.3,12.43,14.77-4.86,14.72-12.43,14.72S152.86,339.26,152.86,329.79Zm2.67,0c0,7.77,3.4,12.49,9.77,12.49s9.81-4.72,9.81-12.49-3.45-12.53-9.81-12.53S155.53,322,155.53,329.79Z"></path><path class="cls-1" d="M196.49,336.35a59.6,59.6,0,0,1,1.8,6h.15a40.06,40.06,0,0,1,1.7-5.92l7.28-20.94h2.63L200,344.07h-3.45l-10-28.61h2.76Z"></path><path class="cls-1" d="M234.83,335H222l-3.4,9.08h-2.67l10.88-28.61h3.36L241,344.07h-2.72Zm-12.05-2.19H234l-3.16-8.5a71.25,71.25,0,0,1-2.34-7.14h-.19a71.33,71.33,0,0,1-2.33,7.09Z"></path><path class="cls-1" d="M255.34,344.07V317.69H246v-2.23h21.23v2.23h-9.33v26.38Z"></path><path class="cls-1" d="M281.05,315.46v28.61h-2.58V315.46Z"></path><path class="cls-1" d="M293.92,329.79c0-9.47,4.86-14.77,12.44-14.77s12.44,5.3,12.44,14.77-4.86,14.72-12.44,14.72S293.92,339.26,293.92,329.79Zm2.68,0c0,7.77,3.4,12.49,9.76,12.49s9.81-4.72,9.81-12.49-3.44-12.53-9.81-12.53S296.6,322,296.6,329.79Z"></path><path class="cls-1" d="M348.05,335.38a55,55,0,0,1,3.21,5.29h.14s-.14-2.82-.14-6V315.46h2.52v28.61h-2.72l-13.65-19.91a55,55,0,0,1-3.2-5.3H334s.2,2.82.2,6v19.19h-2.53V315.46h2.77Z"></path><path class="cls-1" d="M390.72,344.07V317.69h-9.33v-2.23h21.23v2.23H393.3v26.38Z"></path><path class="cls-1" d="M413.85,344.07V315.46h2.58v13H433v-13h2.52v28.61H433V330.76H416.43v13.31Z"></path><path class="cls-1" d="M467.25,344.07a5.8,5.8,0,0,1-1.36-2.86l-1.16-5.1c-.83-3.45-2.77-4.62-6.46-4.62h-5.4v12.58H450.3V315.46h8.84c6.46,0,9.38,2.81,9.38,7.87a6.76,6.76,0,0,1-6.66,7.14v.1c2.82.29,4.42,1.6,5.25,4.81l1.36,5.54a7.39,7.39,0,0,0,1.6,3.15ZM452.87,329.3h6.22c4.52,0,6.75-2,6.75-5.82s-2.13-5.84-6.75-5.84h-6.22Z"></path><path class="cls-1" d="M480.18,329.79c0-9.47,4.86-14.77,12.44-14.77s12.44,5.3,12.44,14.77-4.86,14.72-12.44,14.72S480.18,339.26,480.18,329.79Zm2.67,0c0,7.77,3.41,12.49,9.77,12.49s9.81-4.72,9.81-12.49-3.44-12.53-9.81-12.53S482.85,322,482.85,329.79Z"></path><path class="cls-1" d="M538.3,315.46v18.85c0,7.38-5.11,10.2-10.64,10.2S517,341.69,517,334.31V315.46h2.57v18.31c0,6.22,3.6,8.6,8.07,8.6s8.11-2.38,8.11-8.5V315.46Z"></path><path class="cls-1" d="M573.53,330.08v14h-2.24l-.34-4.9c-1,3.35-4.47,5.34-8.31,5.34-7.43,0-12.39-5.15-12.39-14.67S555.5,315,563.08,315c5.15,0,8.45,2.19,10.2,6.8L571,322.94a8,8,0,0,0-8.07-5.73c-6.36,0-10,4.81-10,12.63,0,7.58,3.4,12.48,9.81,12.48,4.18,0,8.21-2.13,8.21-7.72v-2.19h-7.72v-2.33Z"></path><path class="cls-1" d="M587.33,344.07V315.46h2.58v13h16.51v-13H609v28.61h-2.53V330.76H589.91v13.31Z"></path><path class="cls-1" d="M642.73,315.46v28.61h-2.58V315.46Z"></path><path class="cls-1" d="M673.87,335.38a57.5,57.5,0,0,1,3.21,5.29h.14s-.14-2.82-.14-6V315.46h2.52v28.61h-2.72l-13.65-19.91a54,54,0,0,1-3.21-5.3h-.19s.19,2.82.19,6v19.19H657.5V315.46h2.77Z"></path><path class="cls-1" d="M694.09,336.4c.68,4.13,3.25,6.07,7.14,6.07s6.66-1.8,6.66-5.39c0-3.4-1.95-4.86-6.95-6.51-4.27-1.36-8.31-2.82-8.31-8,0-5.59,4.28-7.58,8.5-7.58,5,0,8.56,2.09,9.14,7.53l-2.48.39c-.53-4-2.87-5.83-6.61-5.83-3.45,0-6,1.65-6,5.3s2.67,4.61,7.29,6.12c4.47,1.46,8,3.2,8,8.31s-3.93,7.72-9.28,7.72-8.74-2.48-9.52-7.63Z"></path><path class="cls-1" d="M723.3,344.07V315.46H731c6.8,0,9.72,3.11,9.72,8.45,0,5.73-3.16,8.89-9.53,8.89h-5.29v11.27Zm2.57-13.41h5c5.1,0,7.1-2.28,7.1-6.65,0-4.13-2.24-6.37-7.15-6.37h-5Z"></path><path class="cls-1" d="M755.27,315.46v28.61h-2.58V315.46Z"></path><path class="cls-1" d="M787,344.07a5.8,5.8,0,0,1-1.36-2.86l-1.17-5.1c-.83-3.45-2.77-4.62-6.46-4.62h-5.39v12.58H770V315.46h8.84c6.47,0,9.38,2.81,9.38,7.87a6.76,6.76,0,0,1-6.66,7.14v.1c2.82.29,4.42,1.6,5.25,4.81l1.36,5.54a7.39,7.39,0,0,0,1.6,3.15ZM772.62,329.3h6.21c4.52,0,6.76-2,6.76-5.82s-2.14-5.84-6.76-5.84h-6.21Z"></path><path class="cls-1" d="M817.27,335H804.44l-3.4,9.08h-2.67l10.88-28.61h3.36l10.78,28.61h-2.72Zm-12-2.19h11.22l-3.16-8.5a69.21,69.21,0,0,1-2.33-7.14h-.19a71.33,71.33,0,0,1-2.33,7.09Z"></path><path class="cls-1" d="M837.78,344.07V317.69h-9.33v-2.23h21.23v2.23h-9.33v26.38Z"></path><path class="cls-1" d="M863.49,315.46v28.61h-2.58V315.46Z"></path><path class="cls-1" d="M876.37,329.79c0-9.47,4.85-14.77,12.43-14.77s12.44,5.3,12.44,14.77-4.86,14.72-12.44,14.72S876.37,339.26,876.37,329.79Zm2.67,0c0,7.77,3.4,12.49,9.76,12.49s9.81-4.72,9.81-12.49-3.44-12.53-9.81-12.53S879,322,879,329.79Z"></path><path class="cls-1" d="M930.49,335.38a55,55,0,0,1,3.21,5.29h.14s-.14-2.82-.14-6V315.46h2.52v28.61H933.5l-13.65-19.91a55,55,0,0,1-3.2-5.3h-.2s.2,2.82.2,6v19.19h-2.53V315.46h2.77Z"></path></svg> 