<?xml version="1.0" encoding="UTF-8"?> <svg xmlns="http://www.w3.org/2000/svg" id="Livello_1" data-name="Livello 1" viewBox="0 0 1000 500"><defs><style>.cls-1{fill:#fff;}</style></defs><path class="cls-1" d="M215.15,222.5,235,228.92c-4.28,18.07-20.22,24.49-37.71,24.49-25.08,0-42.18-16.72-42.18-46.07,0-30.71,16.52-48.21,42.76-48.21,24.69,0,37.13,16.53,37.13,39.27a46.74,46.74,0,0,1-1.36,12H177.44c.58,15,7.58,25.08,20.61,25.08C206,235.53,212,232.42,215.15,222.5Zm-2.52-25.85a20.48,20.48,0,0,0,.19-3.31c0-9.52-5.64-16.71-15.94-16.71-10.69,0-17.49,7.77-18.86,20Z"></path><path class="cls-1" d="M271.52,159.91V290.14H248V159.91Z"></path><path class="cls-1" d="M312.14,216.18c4.86-13.42,15-19.44,28.77-19.44,14.19,0,26.63,8.16,26.63,28.18v63.76H344.41V233.09c0-10.3-3.5-16.72-13.22-16.72-9.33,0-18.08,5-18.08,22.16v50.15H290v-89.8h19.44Z"></path><path class="cls-1" d="M404.66,216.18c4.86-13.42,15-19.44,28.77-19.44,14.19,0,26.63,8.16,26.63,28.18v63.76H436.93V233.09c0-10.3-3.5-16.72-13.22-16.72-9.33,0-18.08,5-18.08,22.16v50.15H382.5v-89.8h19.44Z"></path><path class="cls-1" d="M469.19,243.39c0-30.52,16.91-46.65,42.57-46.65s42.57,16.13,42.57,46.65S537.42,291,511.76,291,469.19,273.91,469.19,243.39Zm22.94.19c0,19.83,6.41,29.36,19.63,29.36,13.41,0,19.83-9.53,19.83-29.36,0-19.24-6.61-28.18-19.83-28.18C498.73,215.4,492.13,224.34,492.13,243.58Z"></path><path class="cls-1" d="M551.41,198.88H576.1l13.41,43.73a199.63,199.63,0,0,1,6.41,29h.78a198.92,198.92,0,0,1,6.42-29l13.6-43.73h23.91l-31.88,89.8H582.9Z"></path><path class="cls-1" d="M710.8,263.41c0,6.42,2.72,8.36,6.61,8.36a12.46,12.46,0,0,0,5.44-1.36v17.1c-3.3,1.95-7.58,2.73-13,2.73-11.08,0-18.08-4.28-20.41-14.2-4.28,11.09-14.39,15-26.25,15-15.93,0-26.63-9.13-26.63-24.49,0-20,15.94-31.1,51.13-29.16v-9.52c0-8.75-4.28-13.41-12.25-13.41-8.16,0-12.44,5-13,13.6L639.65,224c1.37-19,17.69-27.21,36.94-27.21,20.6,0,34.21,8.74,34.21,29Zm-23.13-13c-20.22-.59-28,4.47-28,13.6,0,6,4.08,10.31,11.47,10.31,7.58,0,16.52-4.09,16.52-13.42Z"></path><path class="cls-1" d="M781.75,247.38l-17.69-30.71a94,94,0,0,1-8.56-18.08h-.78a151.47,151.47,0,0,1,1,19.83v71.72H732.18V159.91h24.88l23.32,43.35c6,10.49,7.39,15.94,7.39,15.94h.78s1.55-5.45,7.38-15.94l23.53-43.35h24.29v97H820.23V218.42c0-13.22,1.17-19.83,1.17-19.83h-.78a103.87,103.87,0,0,1-8.74,18.08l-17.69,30.71Z"></path><rect class="cls-1" x="773.68" y="268.76" width="163.28" height="21.38"></rect><rect class="cls-1" x="289.68" y="159.91" width="423.74" height="21.38" transform="translate(1003.1 341.2) rotate(180)"></rect><path class="cls-1" d="M116.8,244.86l3.26,13.21h25.58l-4.74-17.68c-2.91-11.08-8.55-15.55-19.24-17.11v-.58c14.58-1.17,25.46-10.7,25.46-28.58,0-24.3-14.77-34.21-40.62-34.21H63.15V290.14H86.67V232H99.3C109,232,114.27,234,116.8,244.86ZM86.67,179.74h18.46c11.86,0,17.89,6,17.89,16.33,0,11.66-6.22,16.32-18.08,16.32H86.67Z"></path><rect class="cls-1" x="105.03" y="268.76" width="126.34" height="21.38"></rect><path class="cls-1" d="M916.45,222.5l19.82,6.42C932,247,916.06,253.41,898.56,253.41c-25.07,0-42.18-16.72-42.18-46.07,0-30.71,16.52-48.21,42.76-48.21,24.69,0,37.13,16.53,37.13,39.27a46.74,46.74,0,0,1-1.36,12H878.73c.59,15,7.59,25.08,20.61,25.08C907.31,235.53,913.34,232.42,916.45,222.5Zm-2.53-25.85a20.48,20.48,0,0,0,.19-3.31c0-9.52-5.64-16.71-15.94-16.71-10.69,0-17.49,7.77-18.85,20Z"></path><path class="cls-1" d="M75.14,327.64c3.25.38,5.49,2.41,5.49,5.79,0,4.22-2.7,6.93-8.79,6.93H63.05V315.47h8.83c5,0,7.74,2.19,7.74,6.29a5.4,5.4,0,0,1-4.48,5.75Zm-3.93-1.44c2.36,0,3.88-1.06,3.88-3.47s-1.48-3.46-4.1-3.46H67.57v6.93Zm-3.64,10.36h4.31c2.66,0,4.23-1,4.23-3.64,0-2-1.27-3.25-4.23-3.25H67.57Z"></path><path class="cls-1" d="M105.39,315.47v16.69c0,6.55-4.73,8.71-9.84,8.71s-9.81-2.16-9.81-8.71V315.47h4.52v15.46c0,4.19,1.69,6.22,5.29,6.22s5.32-2,5.32-6.17V315.47Z"></path><path class="cls-1" d="M113.46,333.09a4.74,4.74,0,0,0,5,4.31c2.41,0,4.1-1.06,4.1-3.17s-1-3-4.82-4.31c-4.48-1.52-7.52-3.3-7.52-7.82,0-5.32,4.14-7.18,8.2-7.18,4.73,0,8.32,1.77,8.79,6.5l-4.48,1a4,4,0,0,0-4.23-3.85c-2.11,0-3.63,1.06-3.63,3.17s1.77,3,5,4.14c4.31,1.48,7.31,3.09,7.31,7.78,0,5.07-4.06,7.19-9,7.19s-8-1.82-8.92-6.34Z"></path><path class="cls-1" d="M137.38,315.47v24.89h-4.52V315.47Z"></path><path class="cls-1" d="M158.68,329a36.18,36.18,0,0,1,2.58,4.27h.17s-.17-2.49-.17-5.62V315.47h4.52v24.89h-4.31L151.92,327a33.54,33.54,0,0,1-2.71-4.44H149s.26,2.45.26,5.79v12.05h-4.52V315.47h4.43Z"></path><path class="cls-1" d="M189,340.36H173.17V315.47H189v3.93H177.7V326h10v3.84h-10v6.64H189Z"></path><path class="cls-1" d="M196.92,333.09a4.74,4.74,0,0,0,5,4.31c2.41,0,4.1-1.06,4.1-3.17s-1-3-4.82-4.31c-4.48-1.52-7.52-3.3-7.52-7.82,0-5.32,4.14-7.18,8.2-7.18,4.73,0,8.32,1.77,8.79,6.5l-4.48,1a4,4,0,0,0-4.23-3.85c-2.11,0-3.63,1.06-3.63,3.17s1.77,3,5,4.14c4.31,1.48,7.31,3.09,7.31,7.78,0,5.07-4.06,7.19-9,7.19s-7.95-1.82-8.92-6.34Z"></path><path class="cls-1" d="M218.18,333.09a4.73,4.73,0,0,0,5,4.31c2.41,0,4.1-1.06,4.1-3.17s-1-3-4.81-4.31c-4.48-1.52-7.53-3.3-7.53-7.82,0-5.32,4.14-7.18,8.2-7.18,4.74,0,8.33,1.77,8.79,6.5l-4.48,1a4,4,0,0,0-4.22-3.85c-2.12,0-3.64,1.06-3.64,3.17s1.78,3,5,4.14c4.31,1.48,7.31,3.09,7.31,7.78,0,5.07-4,7.19-9,7.19s-7.94-1.82-8.92-6.34Z"></path><path class="cls-1" d="M247.46,333.09a4.74,4.74,0,0,0,5,4.31c2.41,0,4.1-1.06,4.1-3.17s-1-3-4.82-4.31c-4.48-1.52-7.52-3.3-7.52-7.82,0-5.32,4.14-7.18,8.19-7.18,4.74,0,8.33,1.77,8.8,6.5l-4.48,1a4,4,0,0,0-4.23-3.85c-2.11,0-3.64,1.06-3.64,3.17s1.78,3,5,4.14c4.32,1.48,7.32,3.09,7.32,7.78,0,5.07-4.06,7.19-9,7.19s-7.94-1.82-8.91-6.34Z"></path><path class="cls-1" d="M265.25,327.93c0-8.32,4.39-13,11.41-13s11.41,4.65,11.41,13-4.39,12.94-11.41,12.94S265.25,336.22,265.25,327.93ZM270,328c0,5.57,2.24,9,6.68,9s6.72-3.43,6.72-9-2.28-9.05-6.72-9.05S270,322.35,270,328Z"></path><path class="cls-1" d="M298.38,315.47v21H309v3.93H293.86V315.47Z"></path><path class="cls-1" d="M332.06,315.47v16.69c0,6.55-4.73,8.71-9.85,8.71s-9.8-2.16-9.8-8.71V315.47h4.52v15.46c0,4.19,1.69,6.22,5.28,6.22s5.33-2,5.33-6.17V315.47Z"></path><path class="cls-1" d="M342.79,340.36v-21h-7.1v-3.93h18.77v3.93h-7.19v21Z"></path><path class="cls-1" d="M363.37,315.47v24.89h-4.52V315.47Z"></path><path class="cls-1" d="M369.16,327.93c0-8.32,4.4-13,11.41-13s11.41,4.65,11.41,13-4.39,12.94-11.41,12.94S369.16,336.22,369.16,327.93Zm4.73.05c0,5.57,2.24,9,6.68,9s6.72-3.43,6.72-9-2.28-9.05-6.72-9.05S373.89,322.35,373.89,328Z"></path><path class="cls-1" d="M411.68,329a35.31,35.31,0,0,1,2.57,4.27h.17s-.17-2.49-.17-5.62V315.47h4.53v24.89h-4.32L404.91,327a34.09,34.09,0,0,1-2.7-4.44H402s.25,2.45.25,5.79v12.05h-4.52V315.47h4.44Z"></path><path class="cls-1" d="M428.79,334.36a3.13,3.13,0,1,1-3.09,3.12A3.07,3.07,0,0,1,428.79,334.36Z"></path><path class="cls-1" d="M446.91,340.36V315.47h8c6.21,0,8.88,2.87,8.88,7.9s-3,8.24-8.46,8.24h-3.88v8.75Zm4.53-12.47h3.38c3.25,0,4.35-1.65,4.35-4.31,0-2.87-1.48-4.35-4.4-4.35h-3.33Z"></path><path class="cls-1" d="M484.82,340.36H469V315.47h15.81v3.93H473.54V326h10v3.84h-10v6.64h11.28Z"></path><path class="cls-1" d="M504.85,340.36a4.24,4.24,0,0,1-1.18-2.41l-1-4.1c-.68-2.66-2-3.17-4.23-3.17h-3v9.68H490.9V315.47h9c5.66,0,8.7,2.28,8.7,7.26A5.81,5.81,0,0,1,503,329V329c2.32.34,3.59,1.35,4.27,3.89l1.27,4.82a6.29,6.29,0,0,0,1.31,2.62ZM495.43,327h4.26c2.84,0,4.23-1.18,4.23-3.85,0-2.45-1.35-3.84-4.23-3.84h-4.26Z"></path><path class="cls-1" d="M515.16,340.36V315.47h15.17v3.93H519.68v7.05H529v3.85h-9.34v10.06Z"></path><path class="cls-1" d="M533.71,327.93c0-8.32,4.4-13,11.41-13s11.41,4.65,11.41,13-4.39,12.94-11.41,12.94S533.71,336.22,533.71,327.93Zm4.73.05c0,5.57,2.24,9,6.68,9s6.72-3.43,6.72-9-2.28-9.05-6.72-9.05S538.44,322.35,538.44,328Z"></path><path class="cls-1" d="M576.27,340.36a4.25,4.25,0,0,1-1.19-2.41l-1-4.1c-.67-2.66-2-3.17-4.22-3.17h-3v9.68h-4.52V315.47h9c5.67,0,8.71,2.28,8.71,7.26a5.81,5.81,0,0,1-5.66,6.22V329c2.32.34,3.59,1.35,4.26,3.89l1.27,4.82a6.54,6.54,0,0,0,1.31,2.62ZM566.84,327h4.27c2.83,0,4.23-1.18,4.23-3.85,0-2.45-1.35-3.84-4.23-3.84h-4.27Z"></path><path class="cls-1" d="M597.19,334.4l-4.27-7.65a23.15,23.15,0,0,1-1.9-4.14h-.17a29.44,29.44,0,0,1,.25,4.39v13.36h-4.52V315.47h4.94L597.06,326a19.87,19.87,0,0,1,1.44,3.21h.17A15.52,15.52,0,0,1,600.1,326l5.5-10.48h4.82v24.89h-4.53V327a35,35,0,0,1,.21-4.39h-.17a21.17,21.17,0,0,1-1.85,4.14l-4.27,7.65Z"></path><path class="cls-1" d="M631.63,334.1H621.7l-2.2,6.26h-4.69l9-24.89h5.79l9.05,24.89h-4.87ZM623,330.34h7.32l-1.61-4.65a52.49,52.49,0,0,1-1.95-6.72h-.16a66.39,66.39,0,0,1-1.95,6.68Z"></path><path class="cls-1" d="M657,329a36.18,36.18,0,0,1,2.58,4.27h.17s-.17-2.49-.17-5.62V315.47h4.52v24.89h-4.31L650.22,327a33.54,33.54,0,0,1-2.71-4.44h-.17s.26,2.45.26,5.79v12.05h-4.52V315.47h4.43Z"></path><path class="cls-1" d="M691.17,335.54c-2.24,3.59-5.07,5.33-10.23,5.33-6.55,0-11.07-4.65-11.07-12.94s4.65-13,11.79-13c4.73,0,7.9,2.11,9.64,6.08L687,323.16c-.93-2.79-2.79-4.27-5.58-4.27-4.36,0-6.89,3.46-6.89,9.09s2.28,8.87,6.8,8.87a6.61,6.61,0,0,0,6.22-3.76Z"></path><path class="cls-1" d="M712,340.36H696.15V315.47H712v3.93H700.67V326h10v3.84h-10v6.64H712Z"></path><path class="cls-1" d="M741.88,340.36H726.07V315.47h15.81v3.93H730.59V326h10v3.84h-10v6.64h11.29Z"></path><path class="cls-1" d="M754.51,330.43a49,49,0,0,1,1.56,6.42h.17a38.17,38.17,0,0,1,1.44-6.38l4.65-15h4.73l-8.2,24.89h-5.75L745,315.47h4.82Z"></path><path class="cls-1" d="M769.34,327.93c0-8.32,4.4-13,11.41-13s11.41,4.65,11.41,13-4.39,12.94-11.41,12.94S769.34,336.22,769.34,327.93Zm4.73.05c0,5.57,2.24,9,6.68,9s6.72-3.43,6.72-9-2.28-9.05-6.72-9.05S774.07,322.35,774.07,328Z"></path><path class="cls-1" d="M802.47,315.47v21h10.65v3.93H798V315.47Z"></path><path class="cls-1" d="M836.15,315.47v16.69c0,6.55-4.73,8.71-9.84,8.71s-9.81-2.16-9.81-8.71V315.47H821v15.46c0,4.19,1.69,6.22,5.29,6.22s5.32-2,5.32-6.17V315.47Z"></path><path class="cls-1" d="M846.89,340.36v-21h-7.11v-3.93h18.77v3.93h-7.19v21Z"></path><path class="cls-1" d="M867.46,315.47v24.89h-4.52V315.47Z"></path><path class="cls-1" d="M873.25,327.93c0-8.32,4.4-13,11.41-13s11.42,4.65,11.42,13-4.4,12.94-11.42,12.94S873.25,336.22,873.25,327.93ZM878,328c0,5.57,2.24,9,6.67,9s6.72-3.43,6.72-9-2.28-9.05-6.72-9.05S878,322.35,878,328Z"></path><path class="cls-1" d="M915.77,329a35.31,35.31,0,0,1,2.57,4.27h.17s-.17-2.49-.17-5.62V315.47h4.53v24.89h-4.31L909,327a34.09,34.09,0,0,1-2.7-4.44h-.17s.25,2.45.25,5.79v12.05h-4.52V315.47h4.44Z"></path><path class="cls-1" d="M932.88,334.36a3.13,3.13,0,1,1-3.09,3.12A3.07,3.07,0,0,1,932.88,334.36Z"></path></svg> 