<?xml version="1.0" encoding="UTF-8"?> <!-- Generator: Adobe Illustrator 24.1.2, SVG Export Plug-In . SVG Version: 6.00 Build 0) --> <svg xmlns="http://www.w3.org/2000/svg" xmlns:xlink="http://www.w3.org/1999/xlink" version="1.1" id="SATELLITE" x="0px" y="0px" viewBox="0 0 1339 907" style="enable-background:new 0 0 1339 907;" xml:space="preserve"> <style type="text/css"> .st0{fill:#FFFFFF;} </style> <g id="SATELLITE-2"> <g id="shutterstock_1528979042_trasp_copia_copy"> <image style="overflow:visible;enable-background:new ;" width="339" height="247" id="image" transform="matrix(1 0 0 1 415 296)"> </image> </g> <g id="shutterstock_1528979042_trasp_copia_copy_2"> <image style="overflow:visible;enable-background:new ;" width="339" height="247" id="image_2_" transform="matrix(1 0 0 1 415 296)"> </image> </g> </g> <image style="overflow:visible;enable-background:new ;" width="1339" height="819" id="Vector_Smart_Object"> </image> <g> <g> <path class="st0" d="M516.2,859.4l-1.6-14.8l-5.2,0.6l-0.1-1.3l11.9-1.3l0.1,1.3l-5.2,0.6l1.6,14.8L516.2,859.4z"></path> <path class="st0" d="M524.8,858.5l-1.8-16l1.4-0.2l0.8,7.3l9.3-1l-0.8-7.3l1.4-0.2l1.8,16l-1.4,0.2l-0.8-7.5l-9.3,1l0.8,7.5 L524.8,858.5z"></path> <path class="st0" d="M550,855.7l-9.1,1l-1.8-16l9.1-1l0.1,1.3l-7.7,0.9l0.7,6.1l6.8-0.8l0.1,1.3l-6.8,0.8l0.7,6.1l7.7-0.9 L550,855.7z"></path> <path class="st0" d="M568.9,845.7l0.9,7.8l-1.3,0.1l-0.5-2.7c-0.4,1.9-2.2,3.3-4.3,3.5c-4.2,0.5-7.3-2.1-7.8-7.4 c-0.6-5.4,2-8.6,6.3-9.1c2.9-0.3,4.9,0.7,6.1,3.2l-1.2,0.8c-1-2-2.7-3-4.9-2.7c-3.6,0.4-5.3,3.3-4.8,7.7c0.5,4.2,2.7,6.8,6.3,6.4 c2.3-0.3,4.5-1.7,4.1-4.8l-0.1-1.2l-4.3,0.5l-0.1-1.3L568.9,845.7z"></path> <path class="st0" d="M571.2,845.3c-0.6-5.3,1.8-8.6,6-9c4.2-0.5,7.3,2.2,7.9,7.5s-1.8,8.5-6.1,9 C574.8,853.2,571.7,850.6,571.2,845.3z M572.7,845.1c0.5,4.4,2.7,6.8,6.2,6.4c3.6-0.4,5.2-3.2,4.7-7.6c-0.5-4.4-2.7-6.8-6.3-6.4 C573.8,837.9,572.2,840.7,572.7,845.1z"></path> <path class="st0" d="M586.9,843.5c-0.6-5.3,1.8-8.6,6-9c4.2-0.5,7.3,2.2,7.9,7.5s-1.8,8.5-6.1,9S587.5,848.8,586.9,843.5z M588.4,843.4c0.5,4.4,2.7,6.8,6.2,6.4s5.2-3.2,4.7-7.6c-0.5-4.4-2.7-6.8-6.3-6.4C589.5,836.1,587.9,839,588.4,843.4z"></path> <path class="st0" d="M604.6,849.7l-1.8-16l4.4-0.5c4.5-0.5,7.9,1.4,8.6,7c0.7,5.9-2.7,8.6-6.8,9L604.6,849.7z M608.7,848 c3.9-0.4,6.1-3,5.6-7.6c-0.5-4.7-3.2-6.4-7-6l-3,0.3l1.5,13.6L608.7,848z"></path> <path class="st0" d="M515.5,880.8c-1,2.4-2.7,3.7-5.6,4.1c-4.2,0.5-7.3-2.1-7.8-7.4c-0.6-5.4,2-8.6,6.3-9.1 c2.8-0.3,4.8,0.7,6.1,3.2l-1.2,0.8c-1-2-2.7-3-4.9-2.7c-3.6,0.4-5.3,3.3-4.8,7.7c0.5,4.3,2.7,6.7,6.3,6.3c2.3-0.3,3.7-1.3,4.5-3.5 L515.5,880.8z"></path> <path class="st0" d="M516.3,875.8c-0.6-5.3,1.8-8.6,6-9c4.2-0.5,7.3,2.2,7.9,7.5c0.6,5.3-1.8,8.5-6.1,9 C519.9,883.8,516.9,881.1,516.3,875.8z M517.8,875.7c0.5,4.4,2.7,6.8,6.2,6.4c3.6-0.4,5.2-3.2,4.7-7.6c-0.5-4.4-2.7-6.8-6.3-6.4 C518.9,868.4,517.3,871.3,517.8,875.7z"></path> <path class="st0" d="M542.6,876.1c1.2,1.4,2.1,2.8,2.1,2.8l0.1,0c0,0-0.3-1.6-0.5-3.4l-1.2-10.7l1.4-0.2l1.8,16l-1.5,0.2 l-8.9-10.3c-1.2-1.3-2.1-2.8-2.1-2.8l-0.1,0c0,0,0.3,1.6,0.5,3.4l1.2,10.7l-1.4,0.2l-1.8-16l1.6-0.2L542.6,876.1z"></path> <path class="st0" d="M549.6,875.9c0.6,2.3,2.2,3.2,4.4,3c2.3-0.3,3.6-1.4,3.4-3.4c-0.2-1.9-1.4-2.6-4.3-3.2 c-2.5-0.5-4.8-1.1-5.1-4c-0.3-3.1,1.9-4.5,4.3-4.8c2.8-0.3,4.9,0.6,5.6,3.6l-1.4,0.4c-0.5-2.2-2-3.1-4.1-2.9 c-1.9,0.2-3.3,1.3-3,3.3c0.2,2,1.8,2.4,4.5,3c2.6,0.5,4.7,1.3,5,4.2c0.3,2.9-1.7,4.6-4.7,4.9c-3,0.3-5.1-0.8-5.8-3.7L549.6,875.9z "></path> <path class="st0" d="M571.7,861.6l1.2,10.6c0.5,4.1-2.2,6-5.3,6.4c-3.1,0.3-6.1-0.9-6.6-5.1l-1.2-10.6l1.4-0.2l1.1,10.3 c0.4,3.5,2.5,4.6,5,4.3c2.5-0.3,4.4-1.8,4-5.3l-1.1-10.3L571.7,861.6z"></path> <path class="st0" d="M576.5,861l1.6,14.8l7.5-0.8l0.1,1.3l-8.9,1l-1.8-16L576.5,861z"></path> <path class="st0" d="M589.6,875.8l-1.6-14.8l-5.2,0.6l-0.1-1.3l11.9-1.3l0.1,1.3l-5.2,0.6l1.6,14.8L589.6,875.8z"></path> <path class="st0" d="M604.7,869l-7.2,0.8l-1.3,5.3l-1.5,0.2l4.3-16.7l1.9-0.2l7.8,15.4l-1.5,0.2L604.7,869z M597.9,868.5l6.3-0.7 l-2.3-4.6c-1.2-2.3-1.7-3.9-1.7-3.9l-0.1,0c0,0-0.2,1.6-0.9,4.1L597.9,868.5z"></path> <path class="st0" d="M619.2,867.6c1.2,1.4,2.1,2.8,2.1,2.8l0.1,0c0,0-0.3-1.6-0.5-3.4l-1.2-10.7l1.4-0.2l1.8,16l-1.5,0.2 l-8.9-10.3c-1.2-1.3-2.1-2.8-2.1-2.8l-0.1,0c0,0,0.3,1.6,0.5,3.4l1.2,10.7l-1.4,0.2l-1.8-16l1.6-0.2L619.2,867.6z"></path> <path class="st0" d="M630.1,871.3l-1.6-14.8l-5.2,0.6l-0.1-1.3l11.9-1.3l0.1,1.3l-5.2,0.6l1.6,14.8L630.1,871.3z"></path> </g> <g> <path class="st0" d="M529,808.9C529.1,808.9,529.1,808.9,529,808.9c0.2,0,0.3,0,0.4,0C529.3,808.9,529.2,808.9,529,808.9z"></path> <path class="st0" d="M584.1,824.6c0.1,0,0.1,0,0.2,0C584.1,824.6,584.1,824.6,584.1,824.6c-0.1,0-0.2,0-0.2,0 C583.9,824.7,584,824.6,584.1,824.6z"></path> <path class="st0" d="M521,809.8c0,0,0.1,0,0.2,0c0.1,0,0.2,0,0.3,0L521,809.8z"></path> <path class="st0" d="M536.1,817c-0.1-0.7-0.5-1.1-1.4-1l-1.3,0.1l0.3,2.3l1.3-0.1C535.8,818.2,536.2,817.8,536.1,817z"></path> <path class="st0" d="M616.2,799.3l0.2,0c0.1,0,0.1-0.1,0.2-0.1L616.2,799.3z"></path> <path class="st0" d="M559.2,805.2C559.2,805.2,559.2,805.2,559.2,805.2C559.4,805.2,559.3,805.2,559.2,805.2z"></path> <path class="st0" d="M486.6,828.8c0-1,0.4,1.5,0.4,0.1C486.9,829.1,486.6,827.6,486.6,828.8z"></path> <path class="st0" d="M553.7,806.2l-0.4,0C553.5,806.2,553.6,806.2,553.7,806.2z"></path> <path class="st0" d="M538.1,807.8c0,0-0.1,0-0.2-0.1C537.9,807.7,538,807.7,538.1,807.8z"></path> <path class="st0" d="M568.4,804.4c0.1,0,0.2,0,0.3,0C568.6,804.4,568.5,804.4,568.4,804.4z"></path> <path class="st0" d="M603.5,800.9c0,0,0.1,0,0.1,0C603.5,800.9,603.5,800.9,603.5,800.9L603.5,800.9z"></path> <path class="st0" d="M609,800.1C609,800,609,800,609,800.1C608.9,800,609,800,609,800.1z"></path> <path class="st0" d="M573.5,804.1c0.2,0,0.3-0.1,0.3-0.1C573.6,804,573.5,804.1,573.5,804.1z"></path> <path class="st0" d="M626.2,798.2c-0.2,0-0.3,0.2-0.4,0.3c0.1-0.1,0.3-0.1,0.5-0.2C626.3,798.2,626.3,798.2,626.2,798.2z"></path> <path class="st0" d="M590.8,810.7c-0.1-0.7-0.5-1.1-1.2-1c-0.7,0.1-1.2,0.7-1.2,1.5l2.4-0.3C590.8,810.9,590.8,810.8,590.8,810.7z "></path> <path class="st0" d="M603.2,800.9l-0.8,0C602.3,801,602.8,800.9,603.2,800.9z"></path> <path class="st0" d="M592.5,802l0.1-0.2C591.9,801.9,592.6,801.9,592.5,802z"></path> <path class="st0" d="M573.8,817.6c0,0.4,0.4,0.7,0.9,0.6c0.5-0.1,1.1-0.4,1-1.1l-0.1-0.7C574.2,816.5,573.7,817,573.8,817.6z"></path> <path class="st0" d="M637.6,803.4c-0.1-0.3-0.2-0.5-0.3-0.7c-0.1-0.2-0.1-0.4-0.2-0.5l0.1,0.1c-0.3-0.5-0.4-0.7-0.5-0.9 c-0.1-0.1-0.1-0.1-0.2-0.1c0,0,0,0.1-0.1,0c-0.2-0.3-0.4-0.6-0.6-0.8c0-0.1-0.1-0.1-0.1-0.2c-0.1-0.2-0.2-0.4-0.2-0.6l-0.3,0 c-0.2-0.2-0.5-0.4-0.4-0.4c-0.8-0.4,0.1,0.1-0.4,0c-0.4-0.4-1.1-0.7-1.7-0.9c-0.3-0.1-0.6-0.2-0.8-0.2c-0.2-0.1-0.4-0.1-0.4-0.2 c-0.4,0.1,1,0.3-0.1,0.2c-0.1-0.2-0.5-0.2-0.9-0.2c-0.4,0.1-0.9,0.2-1.4,0.1c0.3-0.2,1.2-0.2,0.2-0.3c-0.6,0.3-1.9,0.2-2.8,0.3 c0,0.2-1.8,0.3-3.2,0.5c0.1-0.1-2.7,0.2-4,0.2l0,0c-0.2,0.2-1.6,0.4-2.6,0.5c0-0.1,0.2-0.2,0.7-0.3l-0.9,0.1 c-0.2,0.1-0.5,0.2-1.1,0.3l0.2-0.2c-1.2,0.1-2.4,0.5-4,0.5c0,0.1,0.6,0.2,0.5,0.3l-0.9,0.1c0-0.1,0.1-0.1,0.3-0.2 c-0.1,0-0.5,0.1-0.8,0.1l0.7-0.2c-0.7,0-0.4,0.2-0.9,0.2c0-0.1-0.4,0-0.4-0.1c0.1,0,0.5,0,0.7-0.1c-0.7,0.1-1.4,0.1-1.7,0 c0.1,0.1,0,0.2-0.5,0.2c-1.2,0.1-0.4-0.1-1.2-0.1c-0.3,0.1-1.1,0.1-1.1,0.3c-0.4,0-0.4,0-0.6-0.1c-0.6,0.1-3,0.4-2.2,0.5l0.2,0 c0,0-0.1,0-0.1,0c-2.1,0.4-4.3,0.4-6.4,0.7l0-0.1c-1.2,0.2-2.7,0.3-3.6,0.6c-0.4,0-0.9,0-0.7-0.1c-0.9,0.1-1,0.2-2.4,0.3 c0.9-0.2-0.3-0.1,1-0.2c-1.2,0.1-1.5,0-2.8,0.3c0.4-0.2-0.9-0.1-1.5,0l0.9,0c-0.7,0.1-1.2,0.1-1.8,0.2l0.3-0.2 c-2.5,0-4.5,0.9-6.4,0.7c-0.6,0.2,1.4-0.1,0.8,0.2c-1.2,0.1-2.4-0.1-2.7,0c-1.6,0.1-1.4,0.5-3.1,0.6c0.2,0,0.4,0.2-0.8,0.4 c-1.2,0.1-1.5-0.1-0.7-0.3c0.3,0,0.4,0,0.4,0c0.4-0.1,0.9-0.2,0.4-0.2l-0.1,0.1c-0.6,0-2.2,0.2-1.8,0c-0.9,0.2-0.4,0.2,0.3,0.1 c-1.5,0.1-2.3,0.3-3.8,0.4c0.2,0,0.5,0.1,0.2,0.1c-2.2,0.2-1,0.2-2.5,0.4c-0.9,0,0.3-0.3-1.2,0c-0.9,0-0.2-0.2,0.1-0.3 c-1.4,0.3-2.6,0.2-3.4,0.3l0.7-0.1c-0.4,0.1-0.8,0.1-1.2,0.2l0.4,0.1c-0.4,0-0.8,0.1-0.8,0c-0.4,0.1,0.4,0.2-0.5,0.4 c-0.6,0-1.7,0.3-2,0.1c1.8-0.1-0.2-0.2,1.3-0.4c-0.3,0.1-0.6,0.1-1.1,0.1c-0.1,0,0.1,0,0.2-0.1c-1.7,0-0.8,0.3-2.6,0.5 c0.2-0.1-0.4-0.2-0.7-0.1c0.7-0.1,0.4,0.1-0.3,0.3c-1.2,0-1.2,0.2-1.8,0.3l0.7,0c-0.2,0.1-0.8,0.2-1.6,0.3 c-0.1-0.1,0.7-0.1,0.4-0.1c-0.9,0.3-2,0-3.2,0.3c-0.6,0-0.1-0.2-0.6-0.2c-1.4,0.3-1.5,0-3,0.3c0.4,0.1,0.5,0.1-0.5,0.3l2.4-0.4 l-1.5,0.4c0.7-0.1,1.5-0.3,1.9-0.3c-0.7,0.2-0.6,0.2-0.3,0.2c-1-0.1-1.9,0.3-3.1,0.3l0-0.4c-1.7,0-3,0.5-5.3,0.7l0.7,0 c-0.3,0.2-1.4,0.2-2.1,0.3c0.1-0.1-0.4-0.1-0.7-0.2c0,0.1-1.6,0.2-1.8,0.4l-1,0c-1.8,0.1-2,0.6-3.8,0.7c0.5-0.2-0.3-0.2,0.9-0.4 c-0.6,0.1-1.1,0.1-1.1,0.2c-0.3,0-1.6,0.3-2.1,0.3c-0.2,0.1-0.3,0.2-1,0.3c0,0,0,0,0,0c-0.1,0.1-0.9,0.2-0.4,0.2 c-1.8-0.2-5,0.6-6.6,0.4c-1.3,0.2-2.8,0.4-3.9,0.5c0.1,0,0-0.1,0.2-0.1c-1.6,0.1-0.9,0.5-2.7,0.5c-0.9-0.1,0.9-0.2,0.4-0.2 c-0.3-0.4-2.2,0.3-3.4,0.2l0.3-0.1c-0.9,0-2.2,0.4-3.8,0.5c0,0,0.1,0,0-0.1c-1,0.3-3,0.6-4.4,0.8c0.4-0.2,0.7-0.2,0.4-0.3 c-0.6,0.1,0.2,0.2-1.1,0.4c-0.4,0-1.4,0-1.5-0.2l1.2-0.1c-0.7-0.1-1.6,0.2-2.2,0.2l0.1-0.1c-1.9,0.2-1.9,0.5-3.9,0.7l0.2,0 c-1.1,0.4-0.9,0-2,0.3l-0.4-0.2c-0.4,0.1-1,0.2-1.7,0.3c-0.7,0.1-1.5,0.4-2.1,0.7c0.2-0.1,0.4-0.2,0.6-0.4 c0.3-0.1,0.5-0.2,0.8-0.3c0.6-0.2,1.2-0.3,1.7-0.4c-0.4,0-0.9,0.1-1.6,0.2c-0.6,0.1-1.1,0.3-1.3,0.5c0.3-0.1,0.6-0.3,1-0.3 c-0.9,0.4-2,0.9-3.1,1.9c0-0.3-0.9,0.3-1.5,1.3c-0.7,0.9-1.1,2.3-1.4,2.8c-0.1,0.7-0.1,1.4-0.1,2.1c0,0.7,0.1,1.3,0.2,2 c0.1,1.3,0.2,2.7,0.4,4.2c0.2-1.1,0.1,0.9,0.5,0.6c0.1,0.7,0.1,0.9,0.1,1l0-0.1c0,0.1,0,0.1,0,0.2l0,0l0,2.1 c-0.1,0.5-0.2-0.6-0.2-0.6c0.1,1.5-0.1,0.7-0.1,1.7c0.1-0.2,0.2,0.5,0.3,1.4l0-1.2c0.2,0.7,0.2,1.2,0.2,1.6c0,0.5,0,1.1,0.1,1.9 c0.3,0,0.6,0,1-0.1c0.2,0,0.4-0.1,0.7-0.1c0,0,0.1,0,0.1,0l0.1,0c0.1,0,0.1,0,0.2,0l-0.3,0.1c0,0-0.2,0-0.3,0.1l-0.3,0.1 c0.6-0.1,1.7-0.2,2.8-0.4c1-0.1,2-0.3,2.5-0.5c0.2,0,0.5,0.1,0,0.2c2.6-0.2,5.8-1,7.8-1l-0.2,0.1c0.5-0.1,0.8-0.3,1.4-0.2 c0,0-0.2,0.1,0,0.1c0.3-0.1,1.3-0.3,1.9-0.3l-0.5,0.2c2.6-0.2,3.9-0.7,6-1c0,0.3,2,0.1,3,0.1l0,0c3-0.3,5-0.8,7.7-1.2 c1.7,0.1,5.8-0.5,8.5-0.7c-0.4,0,0-0.2,0.5-0.3c0.6,0,1.8-0.4,1.7-0.1l-0.2,0c0.5,0.2,1.8,0,2.9-0.1l0.1-0.3 c2.8,0.2,7.1-1,8.6-0.7c0.6-0.2,1.4-0.2,2.1-0.4l0,0.2c1.8-0.2,2.7-0.2,4.9-0.5l-0.4,0.2c1.3-0.1,1.5-0.7,2.7-0.8l0.4,0.2 c2.2-0.2,4.4-0.3,6.6-0.7c0,0-0.1,0.1-0.4,0.2c1-0.1,4-0.3,3.6-0.6c0.1,0.2,2.3-0.2,3.4-0.5l-0.2,0.2c1-0.3,1-0.4,2.4-0.6 c0.3,0,0.3,0.1-0.1,0.1c1.1,0,0.8-0.3,2.2-0.3l-0.5,0.2c1.1-0.1,1-0.2,1.7-0.4c0.7-0.1,2.2-0.2,2.3-0.1c0.1-0.1,0.8-0.3,1.4-0.3 c0.1,0-0.1,0.1-0.3,0.1c1.9-0.1,2.8-0.5,4.1-0.5c0,0.1,0.1,0.1,0.2,0.1c-1.5,0.2-2.7,0.3-2.6,0.3c0,0.2,1.2,0,0.3,0.4 c1-0.2,2.6-0.7,3.8-0.7c0.1,0,0.1,0,0.2,0l-0.1,0c0.3,0,0.5-0.1,0.7-0.1c0.4,0,0.6,0,1-0.1c0.2,0.1,1.4-0.1,2-0.1 c-0.1-0.2,0.7-0.2,0-0.3c0.1,0-0.1,0-0.5,0.1c-0.1,0-0.2,0-0.3,0c0,0,0,0,0,0c-0.4,0-0.9,0.1-1.5,0.2c0.5-0.1,1-0.3,1.6-0.2 c0.3-0.1,0.6-0.3,0.8-0.4c0.9,0.1,2.5,0.1,2.7,0.2c1.8-0.3,4.4-0.5,5.5-1c0.5-0.1,0.6,0,0.8,0.1c-0.3,0.1-0.7,0.1-0.8,0.2 c1-0.2,3.1-0.4,3.3-0.6c1.3,0-0.7,0.3,1.1,0l-0.2,0.1c3.6,0,5.8-1.2,9.8-1.2c-0.3,0-0.4,0-0.5,0c4.6-0.3,9.3-1.2,13.8-1.4 c1.3-0.1,1.4-0.2,2.2-0.4l0.3,0.2l1.3-0.4c1.9-0.4,3.3,0.1,5.7-0.5l-0.3-0.1c0.9-0.1,2.7-0.4,2.6-0.2c0.1,0,0.3-0.2,0.6-0.1l0,0.1 l2.1-0.4c1.6-0.1-0.2,0.4,2.2,0.2c0.9-0.1,2.5-0.6,2.1-0.6c-0.4,0-0.9,0-1-0.1l0.6-0.1c0,0,0,0,0.1,0l0.2,0c0,0,0,0,0-0.1l0.1,0 l0-0.2c0-0.1,0.1-0.2,0-0.2l-1-9.2l0.1,0.1l-0.1-0.3l-0.1-1.2c0,0,0.1,0.1,0.1,0.4c0-0.9-0.2-0.8-0.1-1.6c0-0.1,0-0.1,0,0 l-0.2-0.9c0.1,0.2,0.2-0.2,0.2,0.4C638,804.6,637.8,803.9,637.6,803.4z M533.9,819.8l0.4,4l-1.6,0.2l-1-9l3-0.3 c1.8-0.2,2.9,0.4,3.1,2.1c0.1,1.2-0.5,2-1.5,2.2l0,0c0.8,0,1.2,0.3,1.5,1l0.5,1.2l-1.8,0.2l-0.3-0.9c-0.3-0.7-0.6-0.8-1.3-0.8 L533.9,819.8z M544.3,822.7l-8.7,1l-0.2-1.5l8.7-1L544.3,822.7z M541.6,819.2c0.6-0.1,0.9-0.3,1.1-1l1.4,0.3 c-0.2,1.3-1.2,1.8-2.4,2c-1.7,0.2-3-0.8-3.3-2.9c-0.2-2.1,0.8-3.5,2.6-3.7c1.7-0.2,2.7,0.9,2.9,2.4c0,0.3,0,0.6,0,0.8l-3.9,0.4 C540.1,818.6,540.7,819.3,541.6,819.2z M547.1,822.4l-1.6,0.2l-1-9l1.6-0.2L547.1,822.4z M553.7,821.5l-1.6,0.2l-0.4-3.8 c-0.1-0.7-0.4-1.1-1-1.1c-0.6,0.1-1.2,0.5-1.1,1.7l0.4,3.5l-1.6,0.2l-0.7-6.2l1.3-0.1l0.3,1.2c0.2-1,0.9-1.5,1.8-1.6 c1-0.1,1.9,0.4,2.1,1.7L553.7,821.5z M560.1,820.8l-1.6,0.2l-0.4-3.8c-0.1-0.7-0.4-1.1-1-1.1c-0.6,0.1-1.2,0.5-1.1,1.7l0.4,3.5 l-1.6,0.2l-0.7-6.2l1.3-0.1l0.3,1.2c0.2-1,0.9-1.5,1.8-1.6c1-0.1,1.9,0.4,2.1,1.7L560.1,820.8z M547.5,814.7l-0.2-1.5l29.3-3.2 l0.2,1.5L547.5,814.7z M563.7,820.6c-1.8,0.2-3.1-0.9-3.3-3c-0.2-2.1,0.8-3.4,2.6-3.6c1.8-0.2,3.1,0.8,3.3,2.9 S565.5,820.4,563.7,820.6z M570.4,819.7l-1.8,0.2l-2.9-6l1.7-0.2l1.3,2.9c0.4,1,0.7,2,0.7,2l0.1,0c0,0,0-1,0.2-2.1l0.6-3.1 l1.7-0.2L570.4,819.7z M578.3,818.7c-0.2,0.2-0.5,0.2-0.9,0.3c-0.8,0.1-1.3-0.2-1.5-0.8c-0.2,0.8-0.9,1.1-1.7,1.2 c-1.1,0.1-1.9-0.4-2-1.5c-0.2-1.4,0.9-2.3,3.3-2.4l-0.1-0.7c-0.1-0.6-0.4-0.9-1-0.8c-0.6,0.1-0.8,0.4-0.8,1l-1.6-0.1 c-0.1-1.3,1-2,2.3-2.2c1.4-0.2,2.4,0.3,2.6,1.7l0.3,2.6c0,0.4,0.3,0.6,0.5,0.5c0.1,0,0.3-0.1,0.4-0.1L578.3,818.7z M583.5,824.9 C583.5,824.9,583.5,824.8,583.5,824.9c0,0,0,0-0.1,0.1c-0.4,0.1-0.5,0.1-0.6,0C582.9,824.9,583.2,824.9,583.5,824.9z M589.5,808.5 c1.7-0.2,2.7,0.9,2.9,2.4c0,0.3,0,0.6,0,0.8l-3.9,0.4c0.2,1,0.7,1.7,1.6,1.6c0.6-0.1,0.9-0.3,1.1-1l1.4,0.3 c-0.2,1.3-1.2,1.8-2.4,2c-1.7,0.2-3-0.8-3.3-2.9C586.7,810,587.7,808.7,589.5,808.5z M580.6,813.5c-0.5-0.7-0.7-1.2-0.7-1.2 l-0.1,0c0,0,0.1,0.4,0.2,1.4l0.5,5l-1.6,0.2l-1-9l1.7-0.2l1.9,2.8c0.5,0.7,0.6,1,0.6,1l0.1,0c0,0,0.1-0.4,0.4-1.2l1.3-3.2l1.7-0.2 l0.7,6.7l-1.6,0.2l-0.3-2.7c-0.1-0.9-0.1-1.4-0.1-1.4l-0.1,0c0,0-0.1,0.5-0.5,1.3l-1,2.3l-0.9,0.1L580.6,813.5z M593.1,817.3 l-11.3,1.3l-0.2-1.5l11.3-1.3L593.1,817.3z M637.8,805.6l-0.1-0.5c0,0.1,0,0.2,0.1,0.4C637.8,805.6,637.8,805.6,637.8,805.6z"></path> <path class="st0" d="M541.1,815.1c-0.7,0.1-1.2,0.7-1.2,1.5l2.4-0.3c0-0.1,0-0.1,0-0.2C542.2,815.5,541.8,815,541.1,815.1z"></path> <path class="st0" d="M634.4,798.9c-0.4-0.3-0.6-0.4-0.7-0.5c-0.1,0,0,0,0,0.1c0,0,0.1,0.1,0,0.1c-0.1,0-0.3-0.1-0.8-0.3 c0.5,0.2,1,0.4,1.5,0.7C634,798.8,633.7,798.5,634.4,798.9z"></path> <path class="st0" d="M627.8,798.1c0.8-0.1,0-0.1,0-0.1C627.2,798.1,627.1,798.1,627.8,798.1z"></path> <polygon class="st0" points="535.4,830.3 536.4,830.2 535.9,830.2 "></polygon> <path class="st0" d="M638,805.9l0.1,0.3C638,806.1,638,806,638,805.9z"></path> <path class="st0" d="M639.1,818.1l-0.2,0c0,0,0,0.1,0,0.1L639.1,818.1z"></path> <path class="st0" d="M563.1,815.4c-0.9,0.1-1.3,0.8-1.1,2.1c0.2,1.4,0.7,2,1.6,1.9c0.9-0.1,1.3-0.8,1.1-2.2 C564.6,815.8,564.1,815.3,563.1,815.4z"></path> <path class="st0" d="M497,812.5c-0.3-0.1-1,0-1.4,0.1C496.1,812.6,496.7,812.6,497,812.5z"></path> <polygon class="st0" points="582,802.8 580.9,803 581.7,802.9 "></polygon> <path class="st0" d="M522.5,809.5l0.2,0.2C523.2,809.6,523.3,809.4,522.5,809.5z"></path> </g> <g> <path class="st0" d="M639.5,818c-0.1-0.2-0.2-0.1-0.1,0.5l0.2,0.4L639.5,818z"></path> <path class="st0" d="M639.6,822.1c0.2,0.7,0.4,1.5,0.6,1c-0.3-0.7-0.2-0.9-0.5-1.6c-0.1-0.6-0.1-1.1,0-1c-0.1-0.2-0.1-1-0.2-1.3 c-0.1,0.8,0,1.8,0.3,2.8C639.7,822.4,639.7,822.2,639.6,822.1z"></path> <path class="st0" d="M640.9,879.5l0.4-0.1C641.1,879.4,641,879.5,640.9,879.5z"></path> <path class="st0" d="M604.1,883.6c0.3,0,0.4-0.1,0.4-0.1C604.2,883.6,604,883.6,604.1,883.6z"></path> <path class="st0" d="M597.8,884.1c0.1,0,0.2,0,0.4,0C598,884.1,597.8,884.1,597.8,884.1z"></path> <path class="st0" d="M640.9,879.5c-0.3,0.1-0.6,0.1-0.9,0.2c0,0,0.1,0,0.3,0C640.4,879.6,640.7,879.6,640.9,879.5z"></path> <path class="st0" d="M641,830.3c0-0.2-0.1-0.4-0.1-0.5C640.9,829.9,640.9,830.1,641,830.3C641,830.2,641,830.3,641,830.3z"></path> <path class="st0" d="M643.9,865.4l0-0.3c0-0.1-0.1-0.2-0.1-0.2L643.9,865.4z"></path> <path class="st0" d="M642.5,853c0,0.3,0.2,0.4,0.3,0.5c-0.1-0.2-0.1-0.4-0.2-0.6C642.6,852.8,642.6,852.9,642.5,853z"></path> <path class="st0" d="M640.6,833.1l-0.1-0.3C640.6,832.9,640.6,833,640.6,833.1z"></path> <path class="st0" d="M644.8,874.3C644.7,874.3,644.7,874.3,644.8,874.3C644.7,874.4,644.7,874.3,644.8,874.3z"></path> <path class="st0" d="M624.6,818.8C624.6,818.8,624.6,818.8,624.6,818.8C624.6,818.8,624.7,818.8,624.6,818.8z"></path> <path class="st0" d="M639.1,818.1l-0.2,0c0,0,0,0.1,0,0.1L639.1,818.1z"></path> <path class="st0" d="M586.2,885.2C586.2,885.2,586.2,885.2,586.2,885.2C586.6,885.1,586.4,885.1,586.2,885.2z"></path> <path class="st0" d="M493.6,879.1c0,1.2-0.4-1.9-0.4-0.1C493.3,878.9,493.7,880.6,493.6,879.1z"></path> <path class="st0" d="M641,830.6c0,0.2,0,0.3,0.1,0.5C641.1,830.9,641,830.7,641,830.6z"></path> <path class="st0" d="M493.2,879L493.2,879l0,0.2C493.2,879.1,493.2,879.1,493.2,879z"></path> <path class="st0" d="M559.7,888.2c0.1,0,0.2,0,0.3,0C559.9,888.2,559.9,888.2,559.7,888.2z"></path> <path class="st0" d="M579.5,886.3l-0.5,0C579.2,886.3,579.3,886.3,579.5,886.3z"></path> <path class="st0" d="M549.4,889.6c-0.3,0-0.4,0-0.7,0.1c0,0,0.1,0,0.1,0C549,889.6,549.1,889.6,549.4,889.6z"></path> <path class="st0" d="M538.7,890.8c0.1,0,0.1,0,0.2,0c0.1,0,0.2,0,0.3,0L538.7,890.8z"></path> <path class="st0" d="M592.1,822.5c0.2,0,0.4,0.1,0.5,0.1C592.4,822.5,594,822.3,592.1,822.5z"></path> <path class="st0" d="M640.9,830.3c0,0.1,0.1,0.1,0.1,0.3C641,830.5,641,830.4,640.9,830.3C640.9,830.2,640.9,830.2,640.9,830.3z"></path> <path class="st0" d="M549.2,891l-1.7,0.2C547.9,891.1,548.5,891,549.2,891z"></path> <path class="st0" d="M515.4,831l0.4-0.1C515.7,831,515.5,831,515.4,831z"></path> <path class="st0" d="M542.4,891.7c-0.3,0-0.6,0-1,0c-0.1,0-0.1,0-0.2,0.1L542.4,891.7z"></path> <path class="st0" d="M592.6,822.6C592.6,822.6,592.6,822.6,592.6,822.6C592.6,822.6,592.6,822.6,592.6,822.6z"></path> <path class="st0" d="M603.8,821c-1.6,0.2-0.7,0.3-1.1,0.5c-1.9,0.3-0.9-0.1-1.6-0.1c-1.2,0.2-2.1,0.5-3,0.6c-0.1,0-0.2,0,0-0.1 c-1.3,0.3-3.8,0.4-5.2,0.8c-0.1,0-0.2,0-0.2,0c0.3,0.1,0.3,0.2,0.3,0.3c-0.7,0.1-1.3,0.3-1.6,0.2c0.4,0,0.5-0.1,0.7-0.2l-0.8,0.1 c-0.7-0.1,1-0.2,1-0.3c-1.5,0.2-3.2,0.6-4.3,0.7c-0.3-0.2,2.6-0.4,1.1-0.4l1.8-0.1c-1.4-0.2,1.1-0.1-0.2-0.3 c-2.3,0.2-2.6,0.4-4.9,0.6c-0.5,0.2,0.2,0.1-0.3,0.3c-3.3,0.6-2.6-0.2-5,0.3c-0.6,0.2-0.8,0.5-2.6,0.5l0.6-0.3 c-2.2,0.2-1.2,0.5-3.6,0.6c0.4-0.1,1.8-0.3,1.4-0.3c-1.5,0-1.1,0.3-2.2,0.4l-0.3-0.2c-2.4,0.3-5,0.7-7.6,1.1 c0.1-0.1,0.6-0.2,0-0.2c-3.3,0.5-7.1,0.8-10.3,1l-1.2,0.3c-0.3,0-0.5,0-0.2-0.1c-1.3,0.1-0.1,0.1-0.6,0.3c-0.7,0.1-1,0-0.5-0.1 c-2.2,0.4-6.3,1-8.6,1.1l0.4-0.1c-1.8,0.1-2,0.6-3.7,0.6l0.3-0.1c-3.9,0.4-8.3,1-11.3,1.1c-0.5,0.3-3.9,0.3-4.1,0.7 c-2.3,0.1-1.6-0.1-4.8,0.2c-0.8,0.1-1.2,0.4-2.3,0.5l0-0.2l-1.4,0.4l-0.8-0.1l-1,0.2c0.4,0,0.8,0,0.8,0.1 c-1.5,0.3-3.7,0.3-3.8,0.2l-3.6,0.6c0.1-0.1,0.7-0.2,1.1-0.3c-1.9,0.4-0.4-0.2-2.1,0.2c0.2,0-0.1,0.1-0.2,0.2 c-0.9,0-2.9,0.2-4.4,0.4l0.3-0.2c-2.7,0.3-5.7,0.7-8.7,1c1.1-0.1,0.9,0.2,0,0.3l-0.4-0.2c-0.6,0.2,0.9,0-0.2,0.3 c-1.1,0.1-0.8-0.1-0.1-0.3l-1.4,0.2c-0.1,0,0.2-0.1,0.3-0.2c-0.5,0.2-2.4,0.1-3.2,0.4l-0.1,0c-1.3,0.2-2.4,0.3-3.2,0.4 c0.2,2,0.4,3.4,0.7,5.4c0.2,0,0.2,1,0.5,1.7c0.1,1.8,0.2,3.8,0.5,6c0.3,1.5,0.2,0.4,0.4,1.1c-0.1,0.1,0.1,2.3-0.1,1.2 c0.3,2.6,0.4,3.3,0.9,6.6c0-0.4,0-0.8,0.1-0.6c0.1,0.6,0.1,1.4,0,1.3l0-0.2c0.6,3.7,0.5,8.6,1.1,11.5l0-0.2l0.5,3 c0.1,1.4-0.2-0.8-0.2,0.2c0.6,3.3,0.5,5.2,1,7.9c-0.2,2.2,0.9,7.5,0.9,10.3l0.1-0.2c0.1,0.4,0.1,0.6,0.1,0.8c0,0.2,0,0.4,0,0.7 c0.1-0.1,0-0.9,0.1-0.4c0.3,1.7,1.2,3.3,2.7,4.4c1.4,1.1,3.3,1.7,5.1,1.5c3.2-0.3,6.5-0.6,9.7-0.9c2.3-0.2,1.3-0.7,4.2-0.8 l-0.8,0.3c4.7-0.8,9.6-1.1,14.2-1.8c-0.3,0.1-0.3,0.1-0.7,0.2c1,0,3.6-0.4,3.6-0.5c0.7-0.1,0.2,0.1,0.6,0.1c1,0,2.4-0.5,3-0.4 c0.1,0-0.3,0.1-0.4,0.1c0.6-0.1,3-0.3,2.3-0.4c1.7-0.1,3.3-0.4,4.7-0.5c0.9-0.3,3-0.2,3.2-0.5c-0.1,0.3,3.1-0.1,4.1-0.4 c-0.4,0.1,1,0,0.5,0.1c1.2-0.1,2.4-0.3,2.1-0.4c2.3,0.1,4.6-0.8,5.9-0.5c3.7-0.6,7.1-1,10.4-1.5c-0.1,0.3-3.7,0.4-3.5,0.7 c3.1-0.5,4.9-0.9,8.1-1.2c0.8-0.1-0.4,0.2-0.7,0.2c3.1-0.5,6.1-0.7,8.9-1.1c0,0-0.3,0.1-0.6,0.1c0.6-0.1,1.3-0.1,1.2-0.2l-0.5,0.1 c-0.9-0.1,2.2-0.6,2.2-0.7c-0.9,0.5,2.8-0.2,1.3,0.4c0.4-0.1,0.8-0.2,0.7-0.2c0.5,0,0.7,0,0.2,0.1c2-0.3,1.3-0.3,3.1-0.5 c0,0.1-0.4,0.1-0.5,0.2c0.9-0.2,1.8-0.4,3.3-0.6c-0.1,0,0.1,0.1-0.4,0.1c2.6-0.3,4.4-0.8,7.3-1c-0.8,0.4,1,0,1.2,0.2l1.5-0.2 l-0.6,0c1.3-0.1,2.5-0.4,3.7-0.5l-1,0.2l2.5-0.3l-1.4,0.1c1.4-0.3-0.2-0.3,1.6-0.4c-0.4,0.1,1.3-0.1,2.1-0.1l0,0 c0.7-0.1,1.3-0.3,2.3-0.4c0.3,0-0.2,0.3,0,0.3c0.6-0.3,3.1-0.4,4-0.7c-0.3,0.1-0.3,0.2-0.2,0.2l0.5-0.2c0.6,0,0.7,0,0.6,0.1 c1.9-0.2-0.6-0.2,1.6-0.3c-0.2,0-0.1,0-0.4,0.1c2.2-0.2,4.3-0.6,6.4-0.7c0.6,0.2-1.8,0.3-1.1,0.4c3-0.4,6.1-1,9-1.2l-0.5,0 c0.4-0.4,2.2-0.1,3.6-0.4c-0.4,0.1-0.4,0.2-0.4,0.2c2-0.2,4-0.5,7-1c-0.1,0.1-0.2,0.1-0.4,0.1c0.6,0,1.4-0.2,2.2-0.5 c0.8-0.3,1.5-0.8,1.9-1.3c0.2-0.3,0.7-0.9,0.3-0.6c0.8-0.7,1.3-1.6,1.5-2.6c0.3-0.9,0.2-2,0.1-2.9c-0.3-1.8-0.5-3.5-0.5-5.2 c0,0.4,0.2,1,0.1,0.6l-0.4-2.9c-0.1,0.2,0,0.4-0.1,1c-0.1-0.4-0.3-1.2-0.4-1.9c0.2,1.3,0.2,0,0.2-0.6c0,0.1-0.1-0.1-0.1,0 c0.1-1.5-0.3-0.2-0.4-2.3l0.1,0.1c-0.1-0.8-0.3-1.5-0.4-2.3c0.1-0.4,0.2,0.8,0.3,0.9c-0.1-1.2-0.6-2.3-0.5-3.4 c0.1,0.5,0.2,1.2,0.3,1.7c0.1-1.2,0-1.3-0.1-2.2l0,0.1l-0.1-2l0,0.5c-0.6-1.4-0.4-3-0.9-4.9c0.5,1.9,0.2,0.3,0.4,0.4 c0-0.5,0-1.3,0-1.1c-0.3-0.9-0.1-1.6-0.4-2.9c0.1-0.1-0.1-1,0.1-0.8c-0.2-1.2-0.1,0.3-0.2,0.2c-0.4-1.9-0.2-4.4-0.8-7.1 c-0.4-2.3-0.6-2.7-1-4.9c0-0.7,0.3,0.6,0.3,0.6c0-1.2-0.2-2.1-0.3-3.2c0.1,0.2,0.1,0,0.1-0.4c-0.1-0.9-0.3-0.6-0.3-1.8 c0.1,0.2,0.2,0.4,0.3,0.9c-0.2-1-0.4-2.1-0.6-3.2c0.1-0.3,0.2,0.6,0.3,1c-0.2-1.2-0.4-3.2-0.6-3.5l0,0.8c-0.1-0.4,0.1-0.2,0.2,0.1 c0.2,1,0.1,1.5,0.1,1.6l-0.1-0.8c-0.3,0.8,0.4,3.1,0.6,4.7l-0.3-0.6l0.4,1.6c0,0.3-0.1,0.6-0.3-0.2c0,1.1,0.2,1,0.2,2 c0,0.1,0,0.1,0,0l0.2,1.1c-0.1-0.2-0.2,0.2-0.2-0.5c0.1,2,0.5,3.1,0.4,3.9l0-0.2c0.4,2.7,0.2,0.2,0.7,2.3l-0.3,1.4l0.2,0.2 c0,0.3,0.1,0.8,0,0.7c0.2,1,0.1-0.2,0.2,0.4c0,1.4,0.5,3.7,0.2,4.1c0.2,0.5,0-1.3,0.2,0.1c-0.3,0.4,0.2,1.7,0.2,2.9 c-0.2-0.4-0.2-1.5-0.3-0.3c0.4,0.7,0.2,2.4,0.4,3.4c0.2,0,0.3,2.3,0.6,4c-0.1-0.1,0.2,3.3,0.3,4.9l0,0c0.3,0.3,0.4,2,0.6,3.2 c-0.1,0-0.2-0.2-0.3-0.9l0.1,1.1c0.1,0.3,0.2,0.6,0.3,1.4l-0.2-0.3c0.2,1.5,0.5,3.1,0.6,5c0.2,0.1,0.3-1.6,0.6,0.5 c-0.1,0.1-0.2,0.2-0.3-0.4c0,0.2,0.1,0.6,0.1,1l-0.2-0.8c0,0.9,0.2,0.5,0.2,1.2c-0.1,0,0,0.5-0.1,0.4c0-0.2,0-0.6-0.1-0.9 c0,0.4,0.1,0.9,0.1,1.2c0,0.4-0.1,0.7-0.1,0.8c0.1-0.1,0.2,0,0.1,0.6c-0.1,0.7-0.2,0.8-0.3,0.9c-0.1,0-0.1,0-0.3,0.4 c0,0.4-0.6,1.1-0.5,1.2c-0.2,0.3-0.4,0.3-0.5,0.4c-0.2,0.3-0.8,0.9-1.4,1.2c-0.6,0.3-1,0.5-0.6,0.5c0.1,0,0.1,0,0.2-0.1 c0,0-0.1,0-0.1,0.1c0,0,0,0,0,0l0,0c-1.1,0.6-2.5,0.6-3.9,0.7c-1.3,0.1-2.7,0.2-4,0.4l0-0.1c-1.5,0.2-3.4,0.4-4.5,0.7 c-0.5,0.1-1.1,0-0.9-0.1c-1.2,0.2-1.3,0.3-3,0.3c1.2-0.2-0.4,0,1.2-0.2c-1.5,0.1-1.9,0.1-3.5,0.4c0.5-0.2-1.2-0.1-1.9,0.1l1.1,0 c-0.8,0.1-1.5,0.2-2.3,0.2l0.4-0.2c-3.1,0.1-5.6,1-8,0.9c-0.8,0.2,1.7-0.1,1,0.2c-1.4,0.1-3,0-3.4,0.1c-2,0.1-1.8,0.5-3.9,0.6 c0.3,0,0.5,0.2-1,0.4c-1.4,0.1-1.8-0.1-0.9-0.3c0.3,0,0.5,0,0.5,0c0.5-0.1,1.1-0.2,0.5-0.2l-0.2,0.1c-0.7,0-2.7,0.2-2.2,0.1 c-1.1,0.2-0.5,0.2,0.4,0.1c-1.9,0.1-2.9,0.3-4.8,0.5c0.3,0,0.6,0.1,0.3,0.1c-2.8,0.2-1.2,0.3-3.1,0.5c-1.1,0,0.4-0.3-1.5,0 c-1.2,0.1-0.3-0.2,0.2-0.3c-1.7,0.3-3.2,0.3-4.2,0.4l0.9-0.2c-0.5,0.1-1,0.1-1.4,0.2l0.5,0.1c-0.5,0-1,0.1-1,0 c-0.5,0.2,0.4,0.2-0.6,0.4c-0.7,0-2.2,0.3-2.4,0.2c2.2-0.2-0.3-0.2,1.6-0.4c-0.4,0.1-0.8,0.1-1.3,0.1c-0.1,0,0.1,0,0.2-0.1 c-2.2,0.1-1,0.3-3.2,0.6c0.3-0.1-0.5-0.1-0.9-0.1c0.9-0.1,0.4,0.1-0.4,0.3c-1.4,0.1-1.5,0.2-2.3,0.3l0.9-0.1c-0.3,0.1-1,0.2-2,0.3 c-0.1-0.1,0.9-0.2,0.5-0.2c-1.1,0.3-2.5,0.1-4,0.4c-0.7,0-0.1-0.2-0.7-0.2c-1.7,0.3-1.9,0.1-3.7,0.4c0.5,0.1,0.6,0-0.6,0.3l3-0.4 l-1.9,0.4c0.9-0.1,1.9-0.3,2.4-0.3c-0.9,0.2-0.8,0.2-0.4,0.2c-1.3-0.1-2.4,0.4-3.9,0.4l0-0.4c-2.2,0.1-3.8,0.6-6.6,0.8l0.9,0 c-0.4,0.2-1.7,0.2-2.6,0.4c0.1-0.1-0.5-0.1-0.9-0.1c0.1,0.1-2,0.2-2.3,0.5l-1.3,0c-2.2,0.2-2.5,0.6-4.7,0.8 c0.6-0.2-0.4-0.2,1.1-0.4c-0.7,0.1-1.4,0.1-1.4,0.2c-0.4,0-2,0.4-2.6,0.3c-0.3,0.1-0.4,0.2-1.2,0.3c-0.1,0,0-0.1,0-0.1 c0,0.1-1.3,0.2-0.5,0.3c-2.3-0.1-6.2,0.7-8.1,0.6c-1.6,0.2-3.5,0.5-4.9,0.6c0.1,0,0-0.1,0.3-0.1c-2,0.1-1.2,0.5-3.4,0.6 c-1.2-0.1,1.2-0.2,0.5-0.2c-0.4-0.4-2.7,0.4-4.2,0.3l0.4-0.1c-1.2,0-2.8,0.5-4.7,0.6c0,0,0.1,0,0-0.1c-1.3,0.3-3.7,0.7-5.5,0.9 c0.5-0.2,0.8-0.2,0.5-0.3c-0.8,0.1,0.3,0.2-1.3,0.4c-0.5,0-1.7,0-1.9-0.1l1.5-0.2c-0.8-0.1-2,0.2-2.8,0.3l0.1-0.1 c-2.3,0.3-2.3,0.5-4.9,0.8l0.3,0c-1.3,0.4-1.2,0-2.5,0.3l-0.4-0.2c-0.9,0.2-3.1,0.6-4.8,0.8c0.9-0.3,2.8-0.6,4-0.8 c-0.9,0.1-3.1,0.4-3.5,0.5c0.4-0.1,0.8-0.2,1.2-0.2c-0.5,0.2-1.2,0.3-1.9,0.4c-0.7,0.1-1.5,0.1-2.3-0.2c0.2-0.2-0.9-0.5-1.9-1.3 c-1-0.8-1.7-2.2-1.7-2.8l-0.2-0.5l-0.1-0.5c-0.1-0.4-0.1-0.8-0.1-1.2c-0.1-0.8-0.2-1.6-0.2-2.4c-0.1-1.6-0.3-3.3-0.5-5.2 c-0.2,1.3-0.1-1.1-0.5-0.8c-0.1-0.9-0.1-1.2-0.1-1.3l-0.1-2.6c0-0.6,0.2,0.8,0.2,0.7c-0.2-1.9,0.1-0.8,0-2.1 c-0.1,0.3-0.3-0.6-0.3-1.7l0,1.5c-0.5-2.6,0.1-2.3-0.4-4.9l0.2,0.8c-0.2-1.4-0.6-5-1-6.3c0-0.2,0.1-0.6,0.2,0 c-0.3-3.3-1.1-7.2-1.2-9.7l0.1,0.2c-0.1-0.6-0.3-1-0.3-1.8c0,0,0.1,0.2,0.1,0c-0.1-0.3-0.3-1.6-0.4-2.4l0.2,0.7 c-0.2-3.2-0.8-4.8-1.1-7.5c0.3,0,0.1-2.5,0-3.8l0,0c-0.1-1-0.2-2-0.3-2.9c-0.1-0.4-0.1-0.9-0.2-1.3l0-0.3l0-0.1l0-0.2 c0.1,0,0.1,0,0.3-0.1c0.3-0.1,0.7-0.1,1-0.2c0.7-0.1,1.4-0.2,2.1-0.3c2.2,0.1,7.2-0.7,10.6-0.9c-0.5,0,0.1-0.2,0.7-0.3 c0.8,0,2.2-0.4,2.1-0.2l-0.3,0c0.6,0.2,2.3-0.1,3.6-0.2l0.2-0.3c3.4,0.1,8.8-1.1,10.7-0.9c0.8-0.2,1.8-0.3,2.6-0.4l0,0.2 c2.3-0.2,3.4-0.3,6.1-0.7l-0.6,0.2c1.6-0.2,1.9-0.7,3.4-0.9l0.5,0.2c2.7-0.3,5.5-0.4,8.2-0.9c0,0-0.1,0.1-0.6,0.2 c1.3-0.1,5-0.4,4.5-0.7c0.1,0.2,2.8-0.3,4.3-0.6l-0.2,0.2c1.2-0.4,1.3-0.4,3-0.7c0.4,0,0.4,0.1-0.2,0.1c1.4-0.1,1.1-0.3,2.7-0.4 l-0.6,0.2c1.4-0.1,1.3-0.2,2.1-0.4c0.9-0.2,2.7-0.3,2.9-0.1c0.2-0.1,0.9-0.3,1.8-0.4c0.1,0-0.2,0.1-0.3,0.1 c2.4-0.1,3.5-0.6,5.1-0.6c0,0.1,0.1,0.1,0.3,0.1c-1.9,0.2-3.4,0.4-3.2,0.3c0,0.2,1.5,0,0.4,0.4c1.2-0.3,3.3-0.7,4.7-0.8 c0.1,0,0.1,0,0.2,0l-0.2,0c0.3,0,0.6-0.1,0.9-0.1c0.5,0,0.8,0,1.2-0.1c0.2,0.1,1.7-0.1,2.5-0.2c-0.1-0.2,0.9-0.2,0-0.3 c0.1,0-0.1,0-0.6,0.1c-0.1,0-0.2,0-0.3,0.1c0,0,0,0,0,0c-0.5,0.1-1.1,0.1-1.9,0.2c0.6-0.2,1.2-0.3,2-0.3c0.4-0.2,0.8-0.3,1-0.4 c1.1,0.1,3.1,0,3.4,0.1c2.3-0.4,5.4-0.7,6.8-1.1c0.7-0.1,0.8,0,1,0c-0.4,0.1-0.8,0.1-1,0.2c1.3-0.2,3.9-0.5,4.2-0.7 c1.7-0.1-0.9,0.3,1.4,0l-0.3,0.1c4.5-0.1,7.2-1.4,12.2-1.5c-0.3,0-0.5,0-0.6,0c5.7-0.4,11.6-1.5,17.2-1.8c1.6-0.1,1.7-0.3,2.7-0.5 l0.4,0.1l1.6-0.4c2.3-0.4,4.1,0,7-0.6l-0.4-0.1c1.1-0.1,3.4-0.4,3.2-0.3c0.1,0,0.3-0.2,0.8-0.1l0,0.1l2.6-0.5 c2-0.2-0.3,0.4,2.7,0.1c1.1-0.2,3.1-0.6,2.7-0.6c-0.4,0-1.1,0.1-1.2,0l1-0.2c0.2-0.3,0.9-0.7-1.6-0.6l-1.7,0.4l-0.6-0.1l1.4-0.2 c-0.8,0-1.3,0.1-1.9,0.3c-0.1-0.1-0.4-0.1-0.7-0.1l-1.7,0.5c-0.2-0.1,0.7-0.3-0.4-0.2c-0.8,0.2,0.8,0.2-0.5,0.4 c-0.8,0-0.6-0.2-1.6,0c-0.1-0.1,0.1-0.1,0.4-0.2c-0.9,0.2-2.3,0.3-2.7,0.5c-0.9-0.1-2.9,0.4-2.8,0.1c-0.3,0.1-1.5,0.4-2.3,0.5 c1.4-0.5-3,0.3-2.6-0.1c-1,0.4-3.8,0.6-5.7,0.9c0.1,0,0.3-0.1,0.5-0.1c-1.1,0.1-1.4,0-2.1,0.1c-0.1,0.3-1.8,0.5-2.6,0.7 c-1.3-0.1,0.8-0.4,0.3-0.5c0.1,0.2-2.2,0.4-1.8,0.6c-1,0-0.9,0-1.4-0.1c-0.1,0.3-0.9,0.2-1.7,0.4c-1.5,0-0.4-0.2-2,0 C602.4,821.2,603.8,821,603.8,821z M566,825.7L566,825.7c0.3,0,0.6-0.1,0.8-0.1C566.6,825.6,566.4,825.6,566,825.7z M562.8,826 c0.4,0,0.9-0.1,1.4-0.1c0.1,0,0,0.1-0.3,0.2C564.1,826,563.3,826,562.8,826z M569.7,826.5c-0.5,0.1-0.7,0.1-0.7,0 c0.2,0,0.5-0.1,0.9-0.1c0,0,0,0,0.1,0C569.8,826.4,569.8,826.4,569.7,826.5z"></path> <path class="st0" d="M570.6,826.1c0.1,0,0.1,0,0.2,0C570.7,826.1,570.6,826.1,570.6,826.1c-0.2,0-0.2,0-0.3,0 C570.4,826.1,570.5,826.1,570.6,826.1z"></path> <path class="st0" d="M641.3,879.4L641.3,879.4C641.3,879.4,641.3,879.4,641.3,879.4C641.3,879.4,641.3,879.4,641.3,879.4z"></path> <polygon class="st0" points="519,830.6 519,830.6 519.2,830.5 "></polygon> <path class="st0" d="M644.5,863.7c0,0,0-0.1,0-0.2C644.5,863.4,644.5,863.5,644.5,863.7z"></path> <path class="st0" d="M643.7,856.1l-0.1-1.1C643.7,855.5,643.7,855.8,643.7,856.1z"></path> <path class="st0" d="M643.2,850.3c0-0.1-0.1-0.1-0.1-0.1L643.2,850.3L643.2,850.3z"></path> <path class="st0" d="M580,887.4c-0.1,0-0.2,0-0.2,0C579.3,887.5,579.6,887.4,580,887.4z"></path> <path class="st0" d="M607.5,883.9c-0.3,0.1-0.6,0.1-0.9,0.2C607.1,884,607.5,884,607.5,883.9z"></path> <path class="st0" d="M549.3,891C549.3,891,549.3,891,549.3,891c-0.1,0-0.1,0-0.2,0L549.3,891z"></path> <path class="st0" d="M605.3,884.2c0.5,0,0.9-0.1,1.3-0.1C606.2,884.1,605.7,884.2,605.3,884.2z"></path> <path class="st0" d="M640.4,825.1l0-0.3c0,0,0,0,0,0L640.4,825.1z"></path> <path class="st0" d="M640.4,824.8l-0.1-0.3C640.3,824.6,640.4,824.7,640.4,824.8z"></path> <path class="st0" d="M640.2,823.8l0.1,0.6C640.3,824.2,640.3,824,640.2,823.8z"></path> <path class="st0" d="M641.2,832.8L641.2,832.8C641.3,832.8,641.2,832.8,641.2,832.8z"></path> <path class="st0" d="M641.5,835.1c0-0.6,0-1.4-0.1-2.2l-0.1-0.1C641.4,833.2,641.3,834.6,641.5,835.1z"></path> <path class="st0" d="M641.8,845l-0.2-2c0,0.3-0.1,0.8-0.2-0.1C641.5,845.4,641.6,842.4,641.8,845z"></path> <path class="st0" d="M642.4,851c-0.1-1-0.1,0-0.1,0C642.4,851.7,642.4,851.8,642.4,851z"></path> <path class="st0" d="M627.7,881l0.1-0.2C627,881,627.8,880.9,627.7,881z"></path> <polygon class="st0" points="619.4,882.7 620.2,882.8 620.6,882.6 "></polygon> <polygon class="st0" points="614.3,882.2 614.7,882.1 613.3,882.3 "></polygon> <path class="st0" d="M540.6,890.4l0.3,0.2C541.4,890.5,541.5,890.3,540.6,890.4z"></path> <path class="st0" d="M508.8,894.1c-0.4-0.1-1.3,0-1.8,0.1C507.8,894.2,508.5,894.2,508.8,894.1z"></path> <polygon class="st0" points="510.7,833 510.1,833.2 511.3,833 "></polygon> </g> </g> </svg> 