<?xml version="1.0" encoding="UTF-8"?> <svg xmlns="http://www.w3.org/2000/svg" xmlns:xlink="http://www.w3.org/1999/xlink" id="Livello_1" data-name="Livello 1" viewBox="0 0 1920 1080"><defs><style>.cls-1,.cls-11,.cls-14,.cls-17,.cls-20,.cls-23,.cls-3,.cls-5,.cls-7,.cls-9{fill:none;stroke-miterlimit:10;}.cls-1{stroke:url(#Sfumatura_senza_nome_8);}.cls-2{fill:url(#Sfumatura_senza_nome_8-2);}.cls-3{stroke:url(#Sfumatura_senza_nome_51);}.cls-4{fill:url(#Sfumatura_senza_nome_51-2);}.cls-5{stroke:url(#Sfumatura_senza_nome_20);}.cls-6{fill:url(#Sfumatura_senza_nome_20-2);}.cls-7{stroke:url(#Sfumatura_senza_nome_25);}.cls-8{fill:url(#Sfumatura_senza_nome_25-2);}.cls-9{stroke:url(#Sfumatura_senza_nome_44);}.cls-10{fill:url(#Sfumatura_senza_nome_44-2);}.cls-11{stroke:url(#Sfumatura_senza_nome_31);}.cls-12{fill:url(#Sfumatura_senza_nome_31-2);}.cls-13{opacity:0.8;}.cls-14{stroke:url(#Sfumatura_senza_nome_57);}.cls-15{fill:url(#Sfumatura_senza_nome_57-2);}.cls-16{opacity:0.45;}.cls-17{stroke:url(#Sfumatura_senza_nome_67);}.cls-18{fill:url(#Sfumatura_senza_nome_67-2);}.cls-19{opacity:0.6;}.cls-20{stroke:url(#Sfumatura_senza_nome_62);}.cls-21{fill:url(#Sfumatura_senza_nome_62-2);}.cls-22{opacity:0.3;}.cls-23{stroke:url(#Sfumatura_senza_nome_37);}.cls-24{fill:url(#Sfumatura_senza_nome_37-2);}.cls-25{fill:#fff;}.cls-26{opacity:0.4;}</style><linearGradient id="Sfumatura_senza_nome_8" x1="1071.65" y1="252.68" x2="1307.3" y2="252.68" gradientUnits="userSpaceOnUse"><stop offset="0" stop-color="#fff" stop-opacity="0"></stop><stop offset="0.07" stop-color="#fff" stop-opacity="0.13"></stop><stop offset="0.22" stop-color="#fff" stop-opacity="0.36"></stop><stop offset="0.36" stop-color="#fff" stop-opacity="0.55"></stop><stop offset="0.5" stop-color="#fff" stop-opacity="0.71"></stop><stop offset="0.64" stop-color="#fff" stop-opacity="0.84"></stop><stop offset="0.77" stop-color="#fff" stop-opacity="0.93"></stop><stop offset="0.89" stop-color="#fff" stop-opacity="0.98"></stop><stop offset="1" stop-color="#fff"></stop></linearGradient><linearGradient id="Sfumatura_senza_nome_8-2" x1="1071.65" y1="152.96" x2="1307.3" y2="152.96" xlink:href="#Sfumatura_senza_nome_8"></linearGradient><linearGradient id="Sfumatura_senza_nome_51" x1="334.7" y1="344.51" x2="727.26" y2="344.51" gradientUnits="userSpaceOnUse"><stop offset="0" stop-color="#fff"></stop><stop offset="0.1" stop-color="#fff" stop-opacity="0.98"></stop><stop offset="0.22" stop-color="#fff" stop-opacity="0.92"></stop><stop offset="0.36" stop-color="#fff" stop-opacity="0.82"></stop><stop offset="0.51" stop-color="#fff" stop-opacity="0.68"></stop><stop offset="0.66" stop-color="#fff" stop-opacity="0.5"></stop><stop offset="0.82" stop-color="#fff" stop-opacity="0.28"></stop><stop offset="0.99" stop-color="#fff" stop-opacity="0.02"></stop><stop offset="1" stop-color="#fff" stop-opacity="0"></stop></linearGradient><linearGradient id="Sfumatura_senza_nome_51-2" x1="334.7" y1="213.61" x2="727.26" y2="213.61" xlink:href="#Sfumatura_senza_nome_51"></linearGradient><linearGradient id="Sfumatura_senza_nome_20" x1="1001.91" y1="492.27" x2="1365.05" y2="492.27" gradientUnits="userSpaceOnUse"><stop offset="0" stop-color="#fff" stop-opacity="0"></stop><stop offset="0.06" stop-color="#fff" stop-opacity="0.1"></stop><stop offset="0.21" stop-color="#fff" stop-opacity="0.34"></stop><stop offset="0.36" stop-color="#fff" stop-opacity="0.54"></stop><stop offset="0.5" stop-color="#fff" stop-opacity="0.7"></stop><stop offset="0.64" stop-color="#fff" stop-opacity="0.83"></stop><stop offset="0.77" stop-color="#fff" stop-opacity="0.93"></stop><stop offset="0.89" stop-color="#fff" stop-opacity="0.98"></stop><stop offset="1" stop-color="#fff"></stop></linearGradient><linearGradient id="Sfumatura_senza_nome_20-2" x1="1001.91" y1="466.06" x2="1365.05" y2="466.06" xlink:href="#Sfumatura_senza_nome_20"></linearGradient><linearGradient id="Sfumatura_senza_nome_25" x1="957.6" y1="762.66" x2="1086.36" y2="762.66" gradientUnits="userSpaceOnUse"><stop offset="0" stop-color="#fff" stop-opacity="0"></stop><stop offset="0.08" stop-color="#fff" stop-opacity="0.14"></stop><stop offset="0.22" stop-color="#fff" stop-opacity="0.36"></stop><stop offset="0.36" stop-color="#fff" stop-opacity="0.56"></stop><stop offset="0.5" stop-color="#fff" stop-opacity="0.72"></stop><stop offset="0.64" stop-color="#fff" stop-opacity="0.84"></stop><stop offset="0.77" stop-color="#fff" stop-opacity="0.93"></stop><stop offset="0.89" stop-color="#fff" stop-opacity="0.98"></stop><stop offset="1" stop-color="#fff"></stop></linearGradient><linearGradient id="Sfumatura_senza_nome_25-2" x1="957.6" y1="835.66" x2="1086.36" y2="835.66" gradientTransform="matrix(0.66, 0.75, -0.75, 0.66, 993.89, -529.74)" xlink:href="#Sfumatura_senza_nome_25"></linearGradient><linearGradient id="Sfumatura_senza_nome_44" x1="366.73" y1="757.63" x2="598.23" y2="757.63" gradientUnits="userSpaceOnUse"><stop offset="0" stop-color="#fff"></stop><stop offset="0.11" stop-color="#fff" stop-opacity="0.98"></stop><stop offset="0.23" stop-color="#fff" stop-opacity="0.93"></stop><stop offset="0.36" stop-color="#fff" stop-opacity="0.84"></stop><stop offset="0.5" stop-color="#fff" stop-opacity="0.71"></stop><stop offset="0.64" stop-color="#fff" stop-opacity="0.55"></stop><stop offset="0.78" stop-color="#fff" stop-opacity="0.36"></stop><stop offset="0.92" stop-color="#fff" stop-opacity="0.13"></stop><stop offset="1" stop-color="#fff" stop-opacity="0"></stop></linearGradient><linearGradient id="Sfumatura_senza_nome_44-2" x1="366.73" y1="822.65" x2="598.23" y2="822.65" xlink:href="#Sfumatura_senza_nome_44"></linearGradient><linearGradient id="Sfumatura_senza_nome_31" x1="828.48" y1="804.23" x2="838.48" y2="804.23" gradientUnits="userSpaceOnUse"><stop offset="0" stop-color="#fff"></stop><stop offset="0.11" stop-color="#fff" stop-opacity="0.98"></stop><stop offset="0.23" stop-color="#fff" stop-opacity="0.93"></stop><stop offset="0.36" stop-color="#fff" stop-opacity="0.84"></stop><stop offset="0.5" stop-color="#fff" stop-opacity="0.71"></stop><stop offset="0.64" stop-color="#fff" stop-opacity="0.55"></stop><stop offset="0.78" stop-color="#fff" stop-opacity="0.36"></stop><stop offset="0.93" stop-color="#fff" stop-opacity="0.13"></stop><stop offset="1" stop-color="#fff" stop-opacity="0"></stop></linearGradient><linearGradient id="Sfumatura_senza_nome_31-2" x1="828.48" y1="935.75" x2="838.48" y2="935.75" xlink:href="#Sfumatura_senza_nome_31"></linearGradient><linearGradient id="Sfumatura_senza_nome_57" x1="779.59" y1="345.36" x2="815.47" y2="345.36" gradientUnits="userSpaceOnUse"><stop offset="0" stop-color="#fff"></stop><stop offset="0.09" stop-color="#fff" stop-opacity="0.97"></stop><stop offset="0.22" stop-color="#fff" stop-opacity="0.9"></stop><stop offset="0.37" stop-color="#fff" stop-opacity="0.77"></stop><stop offset="0.54" stop-color="#fff" stop-opacity="0.6"></stop><stop offset="0.72" stop-color="#fff" stop-opacity="0.38"></stop><stop offset="0.92" stop-color="#fff" stop-opacity="0.12"></stop><stop offset="1" stop-color="#fff" stop-opacity="0"></stop></linearGradient><linearGradient id="Sfumatura_senza_nome_57-2" x1="779.59" y1="264.4" x2="815.47" y2="264.4" xlink:href="#Sfumatura_senza_nome_57"></linearGradient><linearGradient id="Sfumatura_senza_nome_67" x1="951.83" y1="602.23" x2="1043.63" y2="602.23" xlink:href="#Sfumatura_senza_nome_20"></linearGradient><linearGradient id="Sfumatura_senza_nome_67-2" x1="951.83" y1="615.89" x2="1043.63" y2="615.89" xlink:href="#Sfumatura_senza_nome_20"></linearGradient><linearGradient id="Sfumatura_senza_nome_62" x1="526.36" y1="496.7" x2="702.1" y2="496.7" gradientUnits="userSpaceOnUse"><stop offset="0" stop-color="#fff"></stop><stop offset="0.09" stop-color="#fff" stop-opacity="0.97"></stop><stop offset="0.22" stop-color="#fff" stop-opacity="0.9"></stop><stop offset="0.37" stop-color="#fff" stop-opacity="0.77"></stop><stop offset="0.54" stop-color="#fff" stop-opacity="0.6"></stop><stop offset="0.72" stop-color="#fff" stop-opacity="0.38"></stop><stop offset="0.92" stop-color="#fff" stop-opacity="0.12"></stop><stop offset="1" stop-color="#fff" stop-opacity="0"></stop></linearGradient><linearGradient id="Sfumatura_senza_nome_62-2" x1="526.36" y1="474.94" x2="702.11" y2="474.94" xlink:href="#Sfumatura_senza_nome_62"></linearGradient><linearGradient id="Sfumatura_senza_nome_37" x1="712.02" y1="730.61" x2="794.44" y2="730.61" xlink:href="#Sfumatura_senza_nome_31"></linearGradient><linearGradient id="Sfumatura_senza_nome_37-2" x1="712.02" y1="828.53" x2="794.44" y2="828.53" xlink:href="#Sfumatura_senza_nome_31"></linearGradient></defs><line class="cls-1" x1="1071.98" y1="352.51" x2="1304.27" y2="152.84"></line><path class="cls-2" d="M1306.58,155.81a3.76,3.76,0,1,0-5.3-.4A3.76,3.76,0,0,0,1306.58,155.81Z"></path><line class="cls-3" x1="726.98" y1="475.51" x2="337.94" y2="213.51"></line><path class="cls-4" d="M340.2,210.49a3.76,3.76,0,1,0,1,5.22A3.76,3.76,0,0,0,340.2,210.49Z"></path><line class="cls-5" x1="1001.98" y1="518.51" x2="1361.44" y2="466.03"></line><path class="cls-6" d="M1361.8,469.78a3.76,3.76,0,1,0-4.26-3.18A3.76,3.76,0,0,0,1361.8,469.78Z"></path><line class="cls-7" x1="957.98" y1="689.51" x2="1083.65" y2="835.8"></line><circle class="cls-8" cx="1083.53" cy="835.66" r="3.76" transform="translate(-259.85 1095.87) rotate(-48.6)"></circle><line class="cls-9" x1="597.98" y1="692.51" x2="370.08" y2="822.74"></line><path class="cls-10" d="M368.38,819.38a3.76,3.76,0,1,0,5.13,1.4A3.76,3.76,0,0,0,368.38,819.38Z"></path><line class="cls-11" x1="837.98" y1="672.51" x2="829.1" y2="935.94"></line><path class="cls-12" d="M825.35,935.63a3.76,3.76,0,1,0,3.88-3.63A3.76,3.76,0,0,0,825.35,935.63Z"></path><g class="cls-13"><line class="cls-14" x1="814.98" y1="426.51" x2="780.82" y2="264.21"></line><path class="cls-15" d="M784.53,263.62a3.76,3.76,0,1,0-2.9,4.46A3.75,3.75,0,0,0,784.53,263.62Z"></path></g><g class="cls-16"><line class="cls-17" x1="951.98" y1="588.51" x2="1040.07" y2="615.95"></line><path class="cls-18" d="M1038.77,619.48a3.76,3.76,0,1,0-2.47-4.7A3.76,3.76,0,0,0,1038.77,619.48Z"></path></g><g class="cls-19"><line class="cls-20" x1="701.98" y1="518.51" x2="529.94" y2="474.89"></line><path class="cls-21" d="M531.05,471.29a3.76,3.76,0,1,0,2.72,4.57A3.76,3.76,0,0,0,531.05,471.29Z"></path></g><g class="cls-22"><line class="cls-23" x1="793.98" y1="632.51" x2="713.83" y2="828.71"></line><path class="cls-24" d="M710.42,827.11a3.76,3.76,0,1,0,4.9-2.06A3.76,3.76,0,0,0,710.42,827.11Z"></path></g><path class="cls-25" d="M662.87,187.81l-2.28-3.95a12.08,12.08,0,0,1-1.1-2.32h-.1a18.8,18.8,0,0,1,.13,2.54v7.2h-3V176.56h3.19l3,5.58a9,9,0,0,1,.95,2.05h.1a11.17,11.17,0,0,1,1-2.05l3-5.58h3.12v14.72h-3v-7.2a16.34,16.34,0,0,1,.15-2.54h-.1a13.79,13.79,0,0,1-1.13,2.32l-2.27,3.95Z"></path><path class="cls-25" d="M684.39,191.28h-9.6V176.56h9.6v2.63h-6.57v3.4h5.8v2.54h-5.8v3.53h6.57Z"></path><path class="cls-25" d="M690,191.28V179.19h-4.1v-2.63h11.28v2.63H693v12.09Z"></path><path class="cls-25" d="M698,183.94c0-4.95,2.62-7.68,6.87-7.68s6.88,2.73,6.88,7.68-2.63,7.64-6.88,7.64S698,188.86,698,183.94Zm3.15,0c0,3.12,1.25,5,3.72,5s3.7-1.88,3.7-5-1.25-5-3.7-5S701.12,180.86,701.12,184Z"></path><path class="cls-25" d="M714.74,191.28V176.56h5.15c4.08,0,7.15,2,7.15,7.2,0,5.45-3.2,7.52-7.32,7.52Zm4.68-2.55c2.72,0,4.45-1.25,4.45-4.79,0-3.73-1.75-4.83-4.25-4.83h-1.85v9.62Z"></path><path class="cls-25" d="M729.14,183.94c0-4.95,2.63-7.68,6.88-7.68s6.87,2.73,6.87,7.68-2.62,7.64-6.87,7.64S729.14,188.86,729.14,183.94Zm3.15,0c0,3.12,1.25,5,3.73,5s3.7-1.88,3.7-5-1.25-5-3.7-5S732.29,180.86,732.29,184Z"></path><path class="cls-25" d="M748.94,176.56v12.1h6v2.62h-9.07V176.56Z"></path><path class="cls-25" d="M756.44,183.94c0-4.95,2.63-7.68,6.88-7.68s6.87,2.73,6.87,7.68-2.63,7.64-6.87,7.64S756.44,188.86,756.44,183.94Zm3.15,0c0,3.12,1.25,5,3.73,5s3.69-1.88,3.69-5-1.25-5-3.69-5S759.59,180.86,759.59,184Z"></path><path class="cls-25" d="M785.34,183.51v7.77h-2l-.45-1.72a4.37,4.37,0,0,1-4,2c-3.83,0-6.53-2.5-6.53-7.6,0-4.92,2.73-7.72,7.1-7.72,2.9,0,4.87,1.3,5.82,3.68l-2.9,1.4a3.06,3.06,0,0,0-3-2.43c-1.93,0-3.85,1.4-3.85,5.1,0,2.87,1.1,5.1,3.82,5.1,2,0,3.17-.93,3.17-2.43V186h-3.27v-2.47Z"></path><path class="cls-25" d="M791.82,176.56v14.72h-3V176.56Z"></path><path class="cls-25" d="M804.09,187.88h-5.72l-1.16,3.4H794l5.35-14.72h3.8l5.35,14.72h-3.25Zm-4.88-2.5h4l-.77-2.19a28.44,28.44,0,0,1-1.15-4.1h-.1a39.75,39.75,0,0,1-1.2,4.07Z"></path><path class="cls-25" d="M819.31,176.56v14.72h-3V176.56Z"></path><path class="cls-25" d="M831.59,184.11a25.16,25.16,0,0,1,1.37,2.25h.1s-.1-1.35-.1-3.22v-6.58h3v14.72h-2.83l-5.42-7.47a19.14,19.14,0,0,1-1.5-2.4h-.1a33.26,33.26,0,0,1,.15,3.37v6.5h-3V176.56h2.93Z"></path><path class="cls-25" d="M848.26,184.11a24,24,0,0,1,1.38,2.25h.1s-.1-1.35-.1-3.22v-6.58h3v14.72h-2.82l-5.43-7.47a20.68,20.68,0,0,1-1.5-2.4h-.1a33.26,33.26,0,0,1,.15,3.37v6.5h-3V176.56h2.92Z"></path><path class="cls-25" d="M855.69,183.94c0-4.95,2.62-7.68,6.87-7.68s6.88,2.73,6.88,7.68-2.63,7.64-6.88,7.64S855.69,188.86,855.69,183.94Zm3.15,0c0,3.12,1.25,5,3.72,5s3.7-1.88,3.7-5-1.25-5-3.7-5S858.84,180.86,858.84,184Z"></path><path class="cls-25" d="M876.29,185a23,23,0,0,1,.87,3.85h.1a24.25,24.25,0,0,1,.83-3.83l2.6-8.42h3.17L879,191.28h-3.73l-4.84-14.72h3.24Z"></path><path class="cls-25" d="M893.36,187.88h-5.72l-1.15,3.4h-3.17l5.34-14.72h3.8l5.35,14.72h-3.25Zm-4.87-2.5h4l-.78-2.19a28.44,28.44,0,0,1-1.15-4.1h-.1a36.84,36.84,0,0,1-1.2,4.07Z"></path><path class="cls-25" d="M901.16,191.28V179.19h-4.09v-2.63h11.27v2.63h-4.15v12.09Z"></path><path class="cls-25" d="M913.59,176.56v14.72h-3V176.56Z"></path><path class="cls-25" d="M921.69,185a23,23,0,0,1,.87,3.85h.1a24.25,24.25,0,0,1,.83-3.83l2.6-8.42h3.17l-4.87,14.72h-3.73l-4.85-14.72h3.25Z"></path><path class="cls-25" d="M938.76,187.88H933l-1.15,3.4h-3.18l5.35-14.72h3.8l5.35,14.72H940Zm-4.87-2.5h4l-.78-2.19a28.44,28.44,0,0,1-1.15-4.1h-.1a36.84,36.84,0,0,1-1.2,4.07Z"></path><path class="cls-25" d="M666.09,221.28H656.5V206.56h9.59v2.63h-6.57v3.4h5.8v2.54h-5.8v3.53h6.57Z"></path><path class="cls-25" d="M674.84,221.28V206.56h5c3.75,0,5.3,1.73,5.3,4.83s-1.78,4.92-5,4.92h-2.25v5Zm3-7.45h1.87c1.73,0,2.35-.84,2.35-2.32a2.09,2.09,0,0,0-2.35-2.4h-1.87Z"></path><path class="cls-25" d="M696,221.28a2.8,2.8,0,0,1-.72-1.47l-.58-2.33c-.32-1.4-1-1.65-2.25-1.65h-1.62v5.45h-3V206.56h5.58c3.32,0,5.22,1.28,5.22,4.4a3.37,3.37,0,0,1-3.27,3.67v.08a2.6,2.6,0,0,1,2.47,2.2l.75,2.8a3.57,3.57,0,0,0,.83,1.57Zm-5.17-8h2.35c1.52,0,2.32-.6,2.32-2.1,0-1.32-.77-2.1-2.3-2.1h-2.37Z"></path><path class="cls-25" d="M700.94,213.94c0-4.95,2.63-7.68,6.88-7.68s6.87,2.73,6.87,7.68-2.62,7.64-6.87,7.64S700.94,218.86,700.94,213.94Zm3.15,0c0,3.12,1.25,5,3.73,5s3.7-1.88,3.7-5-1.25-5-3.7-5S704.09,210.86,704.09,214Z"></path><path class="cls-25" d="M717.72,221.28V206.56h5c3.75,0,5.3,1.73,5.3,4.83s-1.77,4.92-5,4.92h-2.25v5Zm3-7.45h1.88c1.72,0,2.35-.84,2.35-2.32a2.1,2.1,0,0,0-2.35-2.4h-1.88Z"></path><path class="cls-25" d="M738.92,221.28a2.81,2.81,0,0,1-.73-1.47l-.57-2.33c-.33-1.4-1-1.65-2.25-1.65h-1.63v5.45h-3V206.56h5.57c3.33,0,5.23,1.28,5.23,4.4a3.38,3.38,0,0,1-3.28,3.67v.08a2.61,2.61,0,0,1,2.48,2.2l.75,2.8a3.45,3.45,0,0,0,.82,1.57Zm-5.18-8h2.35c1.53,0,2.33-.6,2.33-2.1,0-1.32-.78-2.1-2.3-2.1h-2.38Z"></path><path class="cls-25" d="M748,206.56v14.72h-3V206.56Z"></path><path class="cls-25" d="M761.57,221.28H752V206.56h9.6v2.63H755v3.4h5.8v2.54H755v3.53h6.58Z"></path><path class="cls-25" d="M767.17,221.28V209.19h-4.1v-2.63h11.27v2.63h-4.15v12.09Z"></path><path class="cls-25" d="M783.64,217.88h-5.72l-1.15,3.4h-3.18l5.35-14.72h3.8l5.35,14.72h-3.25Zm-4.87-2.5h4l-.78-2.19a28.44,28.44,0,0,1-1.15-4.1h-.1a36.84,36.84,0,0,1-1.2,4.07Z"></path><path class="cls-25" d="M798.52,221.28a2.81,2.81,0,0,1-.73-1.47l-.57-2.33c-.33-1.4-1-1.65-2.25-1.65h-1.63v5.45h-3V206.56h5.57c3.32,0,5.22,1.28,5.22,4.4a3.37,3.37,0,0,1-3.27,3.67v.08a2.6,2.6,0,0,1,2.47,2.2l.75,2.8a3.57,3.57,0,0,0,.83,1.57Zm-5.18-8h2.35c1.53,0,2.33-.6,2.33-2.1,0-1.32-.78-2.1-2.3-2.1h-2.38Z"></path><path class="cls-25" d="M807.62,206.56v14.72h-3V206.56Z"></path><path class="cls-25" d="M819.89,217.88h-5.72l-1.15,3.4h-3.18l5.35-14.72H819l5.35,14.72h-3.25Zm-4.87-2.5h4l-.78-2.19a28.44,28.44,0,0,1-1.15-4.1H817a36.84,36.84,0,0,1-1.2,4.07Z"></path><path class="cls-25" d="M1431.7,380.86c-2.07-6.21-6.12-9.09-12.69-9.09-9.27,0-17.28,8.55-17.28,26.73v5.31h.18c.9-8.91,7.2-14.22,15.84-14.22,10.17,0,16.83,6.84,16.83,17.28,0,9.27-5.58,17.19-16.83,17.19-6.66,0-11.88-2.88-14.94-9.09-2-4.05-3-9.45-3-16.47,0-19.35,8.64-28.53,19.17-28.53,7.38,0,12.33,3.51,14.4,10.26Zm-14,41.4c9.63,0,14.94-6.66,14.94-15.39s-5.49-15.48-14.94-15.48-14.85,6.75-14.85,15.48C1402.9,415.42,1408.57,422.26,1417.75,422.26Z"></path><path class="cls-25" d="M1404.42,449a2.81,2.81,0,0,0,2.87,2.45c1.28,0,2.18-.55,2.18-1.67s-.58-1.58-2.65-2.28c-3-1-4.63-2.15-4.63-4.72,0-3.25,2.55-4.35,5-4.35,2.92,0,5.1,1,5.37,3.85l-3,.7a2.18,2.18,0,0,0-2.32-2.08c-1.08,0-1.93.55-1.93,1.63s.93,1.62,2.78,2.22c2.8.93,4.47,1.93,4.47,4.73,0,3.1-2.5,4.3-5.52,4.3s-4.78-1-5.43-3.68Z"></path><path class="cls-25" d="M1425.19,453.52h-9.6V438.79h9.6v2.63h-6.57v3.4h5.8v2.55h-5.8v3.52h6.57Z"></path><path class="cls-25" d="M1428.42,453.52V438.79h5.15c4.07,0,7.15,2,7.15,7.2,0,5.45-3.2,7.53-7.33,7.53Zm4.67-2.55c2.73,0,4.45-1.25,4.45-4.8,0-3.73-1.75-4.83-4.25-4.83h-1.85V451Z"></path><path class="cls-25" d="M1446.77,438.79v14.73h-3V438.79Z"></path><path class="cls-25" d="M1455.32,446.17c0-4.95,2.62-7.68,6.87-7.68s6.88,2.73,6.88,7.68-2.63,7.65-6.88,7.65S1455.32,451.09,1455.32,446.17Zm3.15,0c0,3.13,1.25,5,3.72,5s3.7-1.87,3.7-5-1.25-5-3.7-5S1458.47,443.09,1458.47,446.19Z"></path><path class="cls-25" d="M1472.09,453.52V438.79h5c3.75,0,5.3,1.73,5.3,4.83s-1.78,4.92-5,4.92h-2.25v5Zm3-7.45H1477c1.73,0,2.35-.85,2.35-2.33a2.09,2.09,0,0,0-2.35-2.4h-1.87Z"></path><path class="cls-25" d="M1494.69,453.52h-9.6V438.79h9.6v2.63h-6.57v3.4h5.8v2.55h-5.8v3.52h6.57Z"></path><path class="cls-25" d="M1506.12,453.52a2.8,2.8,0,0,1-.73-1.48l-.57-2.32c-.33-1.4-1-1.65-2.25-1.65h-1.63v5.45h-3V438.79h5.57c3.32,0,5.22,1.28,5.22,4.4a3.38,3.38,0,0,1-3.27,3.68v.07a2.61,2.61,0,0,1,2.47,2.2l.75,2.8a3.66,3.66,0,0,0,.83,1.58Zm-5.18-8h2.35c1.53,0,2.33-.6,2.33-2.1,0-1.32-.78-2.1-2.3-2.1h-2.38Z"></path><path class="cls-25" d="M1520.52,450.12h-5.73l-1.15,3.4h-3.17l5.35-14.73h3.8l5.34,14.73h-3.25Zm-4.88-2.5h4l-.77-2.2a28.44,28.44,0,0,1-1.15-4.1h-.1a39.75,39.75,0,0,1-1.2,4.07Z"></path><path class="cls-25" d="M1528.32,453.52v-12.1h-4.1v-2.63h11.27v2.63h-4.15v12.1Z"></path><path class="cls-25" d="M1540.74,438.79v14.73h-3V438.79Z"></path><path class="cls-25" d="M1548.84,447.19a23.22,23.22,0,0,1,.87,3.85h.11a23.28,23.28,0,0,1,.82-3.82l2.6-8.43h3.17l-4.87,14.73h-3.72L1543,438.79h3.25Z"></path><path class="cls-25" d="M1568.24,453.52h-9.6V438.79h9.6v2.63h-6.57v3.4h5.79v2.55h-5.79v3.52h6.57Z"></path><path class="cls-25" d="M1573.22,441.87a2,2,0,0,1,2,2.05,2,2,0,0,1-4,0A2,2,0,0,1,1573.22,441.87Zm0,7.77a2,2,0,0,1,2,2.05,2,2,0,0,1-4,0A2,2,0,0,1,1573.22,449.64Z"></path><path class="cls-25" d="M1403.87,480l-2.28-4a12.08,12.08,0,0,1-1.1-2.32h-.1a18.89,18.89,0,0,1,.13,2.55v7.2h-3V468.79h3.19l3,5.58a9,9,0,0,1,1,2.05h.1a11.17,11.17,0,0,1,1-2.05l3-5.58h3.12v14.73h-3v-7.2a16.41,16.41,0,0,1,.15-2.55h-.1a13.79,13.79,0,0,1-1.13,2.32l-2.27,4Z"></path><path class="cls-25" d="M1418.82,468.79v14.73h-3V468.79Z"></path><path class="cls-25" d="M1425.79,468.79v12.1h6v2.63h-9.07V468.79Z"></path><path class="cls-25" d="M1442.79,480.12h-5.72l-1.15,3.4h-3.18l5.35-14.73h3.8l5.35,14.73H1444Zm-4.87-2.5h4l-.78-2.2a28.44,28.44,0,0,1-1.15-4.1h-.1a36.84,36.84,0,0,1-1.2,4.07Z"></path><path class="cls-25" d="M1457.79,476.34a24,24,0,0,1,1.38,2.25h.1s-.1-1.35-.1-3.22v-6.58h3v14.73h-2.82l-5.43-7.48a20.68,20.68,0,0,1-1.5-2.4h-.1a33.36,33.36,0,0,1,.15,3.38v6.5h-3V468.79h2.92Z"></path><path class="cls-25" d="M1465.22,476.17c0-4.95,2.62-7.68,6.87-7.68s6.88,2.73,6.88,7.68-2.63,7.65-6.88,7.65S1465.22,481.09,1465.22,476.17Zm3.15,0c0,3.13,1.25,5,3.72,5s3.7-1.87,3.7-5-1.25-5-3.7-5S1468.37,473.09,1468.37,476.19Z"></path><path class="cls-25" d="M1480.54,486.49v-1.27c1.35-.15,2.25-.7,2.25-1.88a1.68,1.68,0,0,1-2.1-1.67,1.79,1.79,0,0,1,2-1.83,2.31,2.31,0,0,1,2.25,2.55C1484.92,485.29,1483.12,486.42,1480.54,486.49Z"></path><path class="cls-25" d="M1497,468.79v12.1h6v2.63H1494V468.79Z"></path><path class="cls-25" d="M1504.49,476.17c0-4.95,2.63-7.68,6.88-7.68s6.87,2.73,6.87,7.68-2.63,7.65-6.87,7.65S1504.49,481.09,1504.49,476.17Zm3.15,0c0,3.13,1.25,5,3.73,5s3.69-1.87,3.69-5-1.25-5-3.69-5S1507.64,473.09,1507.64,476.19Z"></path><path class="cls-25" d="M1529.59,476.34a25.16,25.16,0,0,1,1.37,2.25h.1s-.1-1.35-.1-3.22v-6.58h3v14.73h-2.83l-5.42-7.48a20.68,20.68,0,0,1-1.5-2.4h-.1a33.36,33.36,0,0,1,.15,3.38v6.5h-3V468.79h2.92Z"></path><path class="cls-25" d="M1537.94,483.52V468.79h5.15c4.07,0,7.15,2,7.15,7.2,0,5.45-3.2,7.53-7.32,7.53Zm4.68-2.55c2.72,0,4.44-1.25,4.44-4.8,0-3.73-1.75-4.83-4.24-4.83H1541V481Z"></path><path class="cls-25" d="M1561.46,483.52a2.87,2.87,0,0,1-.72-1.48l-.57-2.32c-.33-1.4-1-1.65-2.25-1.65h-1.63v5.45h-3V468.79h5.57c3.32,0,5.22,1.28,5.22,4.4a3.38,3.38,0,0,1-3.27,3.68v.07a2.61,2.61,0,0,1,2.47,2.2l.75,2.8a3.66,3.66,0,0,0,.83,1.58Zm-5.17-8h2.35c1.53,0,2.32-.6,2.32-2.1,0-1.32-.77-2.1-2.29-2.1h-2.38Z"></path><path class="cls-25" d="M1575.87,480.12h-5.73l-1.15,3.4h-3.17l5.35-14.73H1575l5.35,14.73h-3.25Zm-4.88-2.5h4l-.78-2.2a29.07,29.07,0,0,1-1.14-4.1h-.1a39.75,39.75,0,0,1-1.2,4.07Z"></path><path class="cls-25" d="M1582.59,486.49v-1.27c1.35-.15,2.25-.7,2.25-1.88a1.68,1.68,0,0,1-2.1-1.67,1.79,1.79,0,0,1,2-1.83,2.31,2.31,0,0,1,2.25,2.55C1587,485.29,1585.17,486.42,1582.59,486.49Z"></path><path class="cls-25" d="M1595.09,476.17c0-4.95,2.63-7.68,6.87-7.68s6.88,2.73,6.88,7.68-2.63,7.65-6.88,7.65S1595.09,481.09,1595.09,476.17Zm3.15,0c0,3.13,1.25,5,3.72,5s3.7-1.87,3.7-5-1.25-5-3.7-5S1598.24,473.09,1598.24,476.19Z"></path><path class="cls-25" d="M1613.27,479a2.81,2.81,0,0,0,2.87,2.45c1.28,0,2.17-.55,2.17-1.67s-.57-1.58-2.64-2.28c-3-1-4.63-2.15-4.63-4.72,0-3.25,2.55-4.35,5-4.35,2.92,0,5.09,1,5.37,3.85l-3,.7a2.19,2.19,0,0,0-2.32-2.08c-1.08,0-1.93.55-1.93,1.63s.93,1.62,2.77,2.22c2.8.93,4.48,1.93,4.48,4.73,0,3.1-2.5,4.3-5.52,4.3s-4.78-1-5.43-3.68Z"></path><path class="cls-25" d="M1627.47,468.79v12.1h6v2.63h-9.07V468.79Z"></path><path class="cls-25" d="M1635,476.17c0-4.95,2.62-7.68,6.87-7.68s6.87,2.73,6.87,7.68-2.62,7.65-6.87,7.65S1635,481.09,1635,476.17Zm3.15,0c0,3.13,1.24,5,3.72,5s3.7-1.87,3.7-5-1.25-5-3.7-5S1638.12,473.09,1638.12,476.19Z"></path><path class="cls-25" d="M1650.29,486.49v-1.27c1.35-.15,2.25-.7,2.25-1.88a1.68,1.68,0,0,1-2.1-1.67,1.79,1.79,0,0,1,2-1.83,2.31,2.31,0,0,1,2.24,2.55C1654.66,485.29,1652.86,486.42,1650.29,486.49Z"></path><path class="cls-25" d="M1405.82,506.34a25.16,25.16,0,0,1,1.37,2.25h.1s-.1-1.35-.1-3.22v-6.58h3v14.73h-2.83L1402,506a19.14,19.14,0,0,1-1.5-2.4h-.1a33.36,33.36,0,0,1,.15,3.38v6.5h-3V498.79h2.92Z"></path><path class="cls-25" d="M1423.77,513.52h-9.6V498.79h9.6v2.63h-6.58v3.4h5.8v2.55h-5.8v3.52h6.58Z"></path><path class="cls-25" d="M1439.59,507.27c.5,2.17.75,4.1.75,4.1h.1s.2-1.95.65-4.08l1.87-8.5H1446l-3.42,14.73h-4.38l-1.87-7.75a22.18,22.18,0,0,1-.6-4h-.1a24.68,24.68,0,0,1-.63,4.07l-1.92,7.73h-4.28l-3.42-14.73h3.22l1.9,8.45c.48,2.18.7,4.13.7,4.13h.1a35.9,35.9,0,0,1,.7-4.1l2-8.48h3.6Z"></path><path class="cls-25" d="M1452,502.69a12.55,12.55,0,0,1,1.08,2.95h.1a10.74,10.74,0,0,1,1-2.95l1.85-3.9h3.2l-4.65,9.6v5.13h-3v-5.13l-5-9.6h3.45Z"></path><path class="cls-25" d="M1459.92,506.17c0-4.95,2.62-7.68,6.87-7.68s6.88,2.73,6.88,7.68-2.63,7.65-6.88,7.65S1459.92,511.09,1459.92,506.17Zm3.15,0c0,3.13,1.25,5,3.72,5s3.7-1.87,3.7-5-1.25-5-3.7-5S1463.07,503.09,1463.07,506.19Z"></path><path class="cls-25" d="M1484.89,513.52a2.87,2.87,0,0,1-.72-1.48l-.58-2.32c-.32-1.4-1-1.65-2.25-1.65h-1.62v5.45h-3V498.79h5.58c3.32,0,5.22,1.28,5.22,4.4a3.38,3.38,0,0,1-3.27,3.68v.07a2.61,2.61,0,0,1,2.47,2.2l.75,2.8a3.66,3.66,0,0,0,.83,1.58Zm-5.17-8h2.35c1.52,0,2.32-.6,2.32-2.1,0-1.32-.77-2.1-2.3-2.1h-2.37Z"></path><path class="cls-25" d="M1499.17,513.52l-4.2-6.15h-1v6.15h-3V498.79h3v5.93h1l3.85-5.93h3.5l-4.8,7.13,5.22,7.6Z"></path><path class="cls-25" d="M1504.67,516.49v-1.27c1.35-.15,2.25-.7,2.25-1.88a1.68,1.68,0,0,1-2.1-1.67,1.79,1.79,0,0,1,2-1.83,2.31,2.31,0,0,1,2.25,2.55C1509,515.29,1507.24,516.42,1504.67,516.49Z"></path><path class="cls-25" d="M1519.49,509a2.81,2.81,0,0,0,2.88,2.45c1.27,0,2.17-.55,2.17-1.67s-.57-1.58-2.65-2.28c-3-1-4.62-2.15-4.62-4.72,0-3.25,2.55-4.35,5-4.35,2.93,0,5.1,1,5.38,3.85l-3,.7a2.19,2.19,0,0,0-2.33-2.08c-1.07,0-1.92.55-1.92,1.63s.92,1.62,2.77,2.22c2.8.93,4.48,1.93,4.48,4.73,0,3.1-2.5,4.3-5.53,4.3s-4.77-1-5.42-3.68Z"></path><path class="cls-25" d="M1533.69,498.79v14.73h-3V498.79Z"></path><path class="cls-25" d="M1546,506.34a25.16,25.16,0,0,1,1.37,2.25h.1s-.1-1.35-.1-3.22v-6.58h3v14.73h-2.82l-5.42-7.48a19.14,19.14,0,0,1-1.5-2.4h-.1a33.36,33.36,0,0,1,.15,3.38v6.5h-3V498.79h2.93Z"></path><path class="cls-25" d="M1566.44,505.74v7.78h-2l-.46-1.73a4.37,4.37,0,0,1-4,2c-3.83,0-6.53-2.5-6.53-7.6,0-4.93,2.73-7.73,7.1-7.73,2.9,0,4.87,1.3,5.82,3.68l-2.89,1.4a3.06,3.06,0,0,0-3.05-2.43c-1.93,0-3.85,1.4-3.85,5.1,0,2.88,1.1,5.1,3.82,5.1,2,0,3.17-.92,3.17-2.42v-.7h-3.27v-2.48Z"></path><path class="cls-25" d="M1578.21,510.12h-5.72l-1.15,3.4h-3.17l5.35-14.73h3.79l5.35,14.73h-3.25Zm-4.87-2.5h4l-.78-2.2a27.47,27.47,0,0,1-1.14-4.1h-.1a39.75,39.75,0,0,1-1.2,4.07Z"></path><path class="cls-25" d="M1584.89,513.52V498.79h5c3.74,0,5.29,1.73,5.29,4.83s-1.77,4.92-5,4.92h-2.25v5Zm3-7.45h1.87c1.72,0,2.35-.85,2.35-2.33a2.09,2.09,0,0,0-2.35-2.4h-1.87Z"></path><path class="cls-25" d="M1597,506.17c0-4.95,2.62-7.68,6.87-7.68s6.87,2.73,6.87,7.68-2.62,7.65-6.87,7.65S1597,511.09,1597,506.17Zm3.15,0c0,3.13,1.25,5,3.72,5s3.7-1.87,3.7-5-1.25-5-3.7-5S1600.12,503.09,1600.12,506.19Z"></path><path class="cls-25" d="M1621.94,513.52a2.88,2.88,0,0,1-.73-1.48l-.57-2.32c-.33-1.4-1-1.65-2.25-1.65h-1.62v5.45h-3V498.79h5.57c3.33,0,5.23,1.28,5.23,4.4a3.38,3.38,0,0,1-3.28,3.68v.07a2.62,2.62,0,0,1,2.48,2.2l.75,2.8a3.53,3.53,0,0,0,.82,1.58Zm-5.17-8h2.35c1.52,0,2.32-.6,2.32-2.1,0-1.32-.78-2.1-2.3-2.1h-2.37Z"></path><path class="cls-25" d="M1637.61,513.52H1628V498.79h9.59v2.63H1631v3.4h5.8v2.55H1631v3.52h6.57Z"></path><path class="cls-25" d="M1640.39,516.49v-1.27c1.35-.15,2.25-.7,2.25-1.88a1.68,1.68,0,0,1-2.1-1.67,1.79,1.79,0,0,1,2-1.83,2.31,2.31,0,0,1,2.24,2.55C1644.76,515.29,1643,516.42,1640.39,516.49Z"></path><path class="cls-25" d="M1655.21,509a2.81,2.81,0,0,0,2.88,2.45c1.27,0,2.17-.55,2.17-1.67s-.57-1.58-2.65-2.28c-3-1-4.62-2.15-4.62-4.72,0-3.25,2.55-4.35,5-4.35,2.93,0,5.1,1,5.38,3.85l-3,.7a2.19,2.19,0,0,0-2.33-2.08c-1.07,0-1.92.55-1.92,1.63s.92,1.62,2.77,2.22c2.8.93,4.48,1.93,4.48,4.73,0,3.1-2.5,4.3-5.53,4.3s-4.77-1-5.42-3.68Z"></path><path class="cls-25" d="M1669.64,502.69a12.14,12.14,0,0,1,1.07,2.95h.1a10.74,10.74,0,0,1,1-2.95l1.85-3.9h3.2l-4.65,9.6v5.13h-3v-5.13l-5-9.6h3.45Z"></path><path class="cls-25" d="M1679.14,513.52V498.79h5.15c4.07,0,7.15,2,7.15,7.2,0,5.45-3.2,7.53-7.33,7.53Zm4.67-2.55c2.73,0,4.45-1.25,4.45-4.8,0-3.73-1.75-4.83-4.25-4.83h-1.84V511Z"></path><path class="cls-25" d="M1702.79,506.34a25.16,25.16,0,0,1,1.37,2.25h.1s-.1-1.35-.1-3.22v-6.58h3v14.73h-2.83l-5.42-7.48a19.14,19.14,0,0,1-1.5-2.4h-.1a33.36,33.36,0,0,1,.15,3.38v6.5h-3V498.79h2.92Z"></path><path class="cls-25" d="M1720.74,513.52h-9.6V498.79h9.6v2.63h-6.57v3.4H1720v2.55h-5.79v3.52h6.57Z"></path><path class="cls-25" d="M1727.59,502.69a12.14,12.14,0,0,1,1.07,2.95h.1a10.74,10.74,0,0,1,1-2.95l1.85-3.9h3.2l-4.65,9.6v5.13h-3v-5.13l-5-9.6h3.45Z"></path><path class="cls-25" d="M172.89,176.81a2.81,2.81,0,0,0,2.88,2.45c1.27,0,2.17-.55,2.17-1.68s-.57-1.57-2.65-2.27c-3-1-4.62-2.15-4.62-4.72,0-3.25,2.55-4.35,5-4.35,2.93,0,5.1,1,5.38,3.85l-3,.7a2.19,2.19,0,0,0-2.33-2.08c-1.07,0-1.92.55-1.92,1.63s.92,1.62,2.77,2.22c2.8.93,4.48,1.92,4.48,4.72,0,3.1-2.5,4.3-5.53,4.3s-4.77-1-5.42-3.67Z"></path><path class="cls-25" d="M193.67,181.28h-9.6V166.56h9.6v2.63h-6.58v3.4h5.8v2.54h-5.8v3.53h6.58Z"></path><path class="cls-25" d="M199.27,181.28V169.19h-4.1v-2.63h11.27v2.63h-4.15v12.09Z"></path><path class="cls-25" d="M211.79,181.28V169.19h-4.1v-2.63H219v2.63h-4.15v12.09Z"></path><path class="cls-25" d="M219.77,173.94c0-4.95,2.62-7.68,6.87-7.68s6.87,2.73,6.87,7.68-2.62,7.64-6.87,7.64S219.77,178.86,219.77,173.94Zm3.15,0c0,3.12,1.25,5,3.72,5s3.7-1.88,3.7-5-1.25-5-3.7-5S222.92,170.86,222.92,174Z"></path><path class="cls-25" d="M244.74,181.28a2.8,2.8,0,0,1-.72-1.47l-.58-2.33c-.32-1.4-1-1.65-2.25-1.65h-1.62v5.45h-3V166.56h5.58c3.32,0,5.22,1.28,5.22,4.4a3.37,3.37,0,0,1-3.27,3.67v.08a2.6,2.6,0,0,1,2.47,2.2l.75,2.8a3.47,3.47,0,0,0,.83,1.57Zm-5.17-8h2.35c1.52,0,2.32-.6,2.32-2.1,0-1.32-.77-2.1-2.3-2.1h-2.37Z"></path><path class="cls-25" d="M253.84,166.56v14.72h-3V166.56Z"></path><path class="cls-25" d="M263.32,181.28V166.56h5.15c4.07,0,7.14,2,7.14,7.2,0,5.45-3.19,7.52-7.32,7.52Zm4.67-2.55c2.73,0,4.45-1.25,4.45-4.79,0-3.73-1.75-4.83-4.25-4.83h-1.85v9.62Z"></path><path class="cls-25" d="M286.84,177.88h-5.72l-1.15,3.4h-3.18l5.35-14.72h3.8l5.35,14.72H288Zm-4.87-2.5h4l-.78-2.19a28.44,28.44,0,0,1-1.15-4.1h-.1a36.84,36.84,0,0,1-1.2,4.07Z"></path><path class="cls-25" d="M308.64,181.28H299V166.56h9.6v2.63h-6.57v3.4h5.8v2.54h-5.8v3.53h6.57Z"></path><path class="cls-25" d="M313.27,176.81a2.81,2.81,0,0,0,2.87,2.45c1.28,0,2.18-.55,2.18-1.68s-.58-1.57-2.65-2.27c-3-1-4.63-2.15-4.63-4.72,0-3.25,2.55-4.35,5-4.35,2.92,0,5.1,1,5.37,3.85l-3,.7a2.18,2.18,0,0,0-2.32-2.08c-1.08,0-1.93.55-1.93,1.63s.93,1.62,2.78,2.22c2.8.93,4.47,1.92,4.47,4.72,0,3.1-2.5,4.3-5.52,4.3s-4.78-1-5.43-3.67Z"></path><path class="cls-25" d="M324.44,181.28V166.56h5c3.75,0,5.29,1.73,5.29,4.83s-1.77,4.92-5,4.92h-2.25v5Zm3-7.45h1.87c1.73,0,2.35-.84,2.35-2.32a2.09,2.09,0,0,0-2.35-2.4h-1.87Z"></path><path class="cls-25" d="M340.47,166.56v12.1h6v2.62h-9.07V166.56Z"></path><path class="cls-25" d="M348,173.94c0-4.95,2.62-7.68,6.87-7.68s6.87,2.73,6.87,7.68-2.62,7.64-6.87,7.64S348,178.86,348,173.94Zm3.15,0c0,3.12,1.25,5,3.72,5s3.7-1.88,3.7-5-1.25-5-3.7-5S351.12,170.86,351.12,174Z"></path><path class="cls-25" d="M372.94,181.28a2.81,2.81,0,0,1-.73-1.47l-.57-2.33c-.33-1.4-1-1.65-2.25-1.65h-1.62v5.45h-3V166.56h5.57c3.33,0,5.23,1.28,5.23,4.4a3.38,3.38,0,0,1-3.28,3.67v.08a2.61,2.61,0,0,1,2.48,2.2l.75,2.8a3.45,3.45,0,0,0,.82,1.57Zm-5.17-8h2.35c1.52,0,2.32-.6,2.32-2.1,0-1.32-.78-2.1-2.3-2.1h-2.37Z"></path><path class="cls-25" d="M387.34,177.88h-5.72l-1.15,3.4h-3.18l5.35-14.72h3.8l5.35,14.72h-3.25Zm-4.87-2.5h4l-.77-2.19a28.44,28.44,0,0,1-1.15-4.1h-.1a36.84,36.84,0,0,1-1.2,4.07Z"></path><path class="cls-25" d="M402.21,181.28a2.8,2.8,0,0,1-.72-1.47l-.57-2.33c-.33-1.4-1-1.65-2.25-1.65H397v5.45h-3V166.56h5.57c3.32,0,5.22,1.28,5.22,4.4a3.37,3.37,0,0,1-3.27,3.67v.08a2.6,2.6,0,0,1,2.47,2.2l.75,2.8a3.57,3.57,0,0,0,.83,1.57Zm-5.17-8h2.35c1.53,0,2.32-.6,2.32-2.1,0-1.32-.77-2.1-2.29-2.1H397Z"></path><path class="cls-25" d="M417.89,181.28h-9.6V166.56h9.6v2.63h-6.57v3.4h5.79v2.54h-5.79v3.53h6.57Z"></path><g class="cls-26"><path class="cls-25" d="M1083.82,630.63V589.39h10.64c11.62,0,19.81,5.67,19.81,20.16,0,15.27-9.17,21.08-19.88,21.08Zm10.43-1.4c12,0,18.55-7.21,18.55-19.68,0-11.9-5.81-18.76-18.48-18.76h-9v38.44Z"></path><path class="cls-25" d="M1144.72,616.34h-19.88l-5.67,14.29h-1.61l16.38-41.24h1.68L1152,630.63h-1.61ZM1125.4,615h18.76l-5.67-14.22c-2.52-6.23-3.64-9.94-3.64-9.94h-.14s-1.12,3.71-3.64,9.94Z"></path><path class="cls-25" d="M1169.64,619.5c1.19,6.65,5.39,10.15,12.11,10.15,6.93,0,11.48-3.08,11.48-9.38,0-6-4-8.34-11.2-10.3s-12.46-3.78-12.46-10.78c0-7.63,5.74-10.22,11.76-10.22,7.14,0,11.62,3,12.74,10.71l-1.33.28c-1.19-6.93-4.83-9.59-11.41-9.59-5.67,0-10.29,2.38-10.29,8.82,0,5.88,4.06,7.42,11.48,9.45s12.18,4.62,12.18,11.63-5,10.78-13,10.78c-7.35,0-12.32-3.92-13.51-11.13Z"></path><path class="cls-25" d="M1226.83,630.63h-22V589.39h22v1.4h-20.51V609.2h18.34v1.4h-18.34v18.63h20.51Z"></path><path class="cls-25" d="M1254.34,620.34l-12.6-22.76c-2.59-4.69-3.36-6.37-3.36-6.37h-.14a64.62,64.62,0,0,1,.21,6.65v32.77H1237V589.39h1.82L1253,615a19.92,19.92,0,0,1,1.82,3.78h.14a19.92,19.92,0,0,1,1.82-3.78L1271,589.39h1.82v41.24h-1.47V597.86a64.62,64.62,0,0,1,.21-6.65h-.14s-.77,1.68-3.36,6.37l-12.6,22.76Z"></path><path class="cls-25" d="M1285.42,630.63V589.39h10.22c9.45,0,13.44,4.2,13.44,12,0,8.54-4.55,12.4-13.44,12.4h-8.75v16.8Zm1.47-18.21h8.61c8.12,0,12.11-3.15,12.11-11,0-7-3.36-10.64-12.11-10.64h-8.61Z"></path><path class="cls-25" d="M1343.31,630.63a9.09,9.09,0,0,1-2.24-4.69l-1.68-7.07c-1.12-4.7-3.78-7.22-10.36-7.22H1319v19h-1.47V589.39h11.62c9,0,13.16,3.85,13.16,11.2,0,6.51-4.41,9.94-9.45,10.29V611c4.2.36,6.79,2.45,7.91,7.08l1.82,7.63a10.8,10.8,0,0,0,2.52,4.9ZM1319,610.25H1329c7.7,0,11.76-3.43,11.76-9.66,0-6.58-3.78-9.8-11.76-9.8H1319Z"></path><path class="cls-25" d="M1375.79,630.63h-22V589.39h22v1.4h-20.51V609.2h18.34v1.4h-18.34v18.63h20.51Z"></path><path class="cls-25" d="M1091.42,657.65c-1.35,2.23-3.05,3.28-6.2,3.28-4,0-6.65-2.75-6.65-7.65s2.72-7.67,7.1-7.67a5.83,5.83,0,0,1,5.82,3.67l-2.9,1.4a3,3,0,0,0-3-2.43c-2.4,0-3.85,1.93-3.85,5.08s1.28,4.92,3.83,4.92a3.52,3.52,0,0,0,3.37-2.17Z"></path><path class="cls-25" d="M1093,653.28c0-4.95,2.62-7.67,6.87-7.67s6.88,2.72,6.88,7.67-2.63,7.65-6.88,7.65S1093,658.2,1093,653.28Zm3.15,0c0,3.13,1.25,5,3.72,5s3.7-1.87,3.7-5-1.25-5-3.7-5S1096.17,650.2,1096.17,653.3Z"></path><path class="cls-25" d="M1112.82,645.91V658h6v2.63h-9.08V645.91Z"></path><path class="cls-25" d="M1124.52,645.91V658h6v2.63h-9.08V645.91Z"></path><path class="cls-25" d="M1142.79,660.63h-9.6V645.91h9.6v2.62h-6.57v3.4H1142v2.55h-5.79V658h6.57Z"></path><path class="cls-25" d="M1149.92,656.18a13.15,13.15,0,0,1-1.53,1.82v.1a15.8,15.8,0,0,1,2-.1h5.45v2.63h-11.2v-2.1l5.7-8.18a11,11,0,0,1,1.53-1.82v-.1a16.38,16.38,0,0,1-2.05.1h-4.95v-2.62h10.79V648Z"></path><path class="cls-25" d="M1161.54,645.91v14.72h-3V645.91Z"></path><path class="cls-25" d="M1164.57,653.28c0-4.95,2.62-7.67,6.87-7.67s6.87,2.72,6.87,7.67-2.62,7.65-6.87,7.65S1164.57,658.2,1164.57,653.28Zm3.15,0c0,3.13,1.24,5,3.72,5s3.7-1.87,3.7-5-1.25-5-3.7-5S1167.72,650.2,1167.72,653.3Z"></path><path class="cls-25" d="M1189.66,653.45a24,24,0,0,1,1.38,2.25h.1s-.1-1.35-.1-3.22v-6.57h3v14.72h-2.82l-5.43-7.48a19.73,19.73,0,0,1-1.49-2.4h-.11a31.29,31.29,0,0,1,.16,3.38v6.5h-3V645.91h2.92Z"></path><path class="cls-25" d="M1201,645.91v14.72h-3V645.91Z"></path><path class="cls-25" d="M1213.31,657.23h-5.72l-1.15,3.4h-3.17l5.34-14.72h3.8l5.35,14.72h-3.25Zm-4.87-2.5h4l-.78-2.2a28.44,28.44,0,0,1-1.15-4.1h-.1a36.84,36.84,0,0,1-1.2,4.07Z"></path><path class="cls-25" d="M1226.36,657.15l-2.27-3.95a12.08,12.08,0,0,1-1.1-2.32h-.1a20.44,20.44,0,0,1,.12,2.55v7.2h-3V645.91h3.2l3,5.57a9.6,9.6,0,0,1,1,2h.1a11.17,11.17,0,0,1,1-2l3-5.57h3.13v14.72h-3v-7.2a16.41,16.41,0,0,1,.15-2.55h-.1a13.17,13.17,0,0,1-1.12,2.32l-2.28,3.95Z"></path><path class="cls-25" d="M1237.37,653.28c0-4.95,2.62-7.67,6.87-7.67s6.87,2.72,6.87,7.67-2.62,7.65-6.87,7.65S1237.37,658.2,1237.37,653.28Zm3.14,0c0,3.13,1.25,5,3.73,5s3.7-1.87,3.7-5-1.25-5-3.7-5S1240.51,650.2,1240.51,653.3Z"></path><path class="cls-25" d="M1259.66,660.63V645.91h9.3v2.62h-6.27v3.85h5.5v2.55h-5.5v5.7Z"></path><path class="cls-25" d="M1279.19,657.23h-5.73l-1.15,3.4h-3.17l5.35-14.72h3.8l5.35,14.72h-3.25Zm-4.88-2.5h4l-.77-2.2a28.44,28.44,0,0,1-1.15-4.1h-.1a39.75,39.75,0,0,1-1.2,4.07Z"></path><path class="cls-25" d="M1288.89,645.91V658h6v2.63h-9.08V645.91Z"></path><path class="cls-25" d="M1300.59,645.91V658h6.05v2.63h-9.08V645.91Z"></path><path class="cls-25" d="M1312.29,645.91v14.72h-3V645.91Z"></path><path class="cls-25" d="M1322.61,657.15l-2.27-3.95a12.08,12.08,0,0,1-1.1-2.32h-.1a20.44,20.44,0,0,1,.12,2.55v7.2h-3V645.91h3.2l3,5.57a9.6,9.6,0,0,1,1,2h.1a11.17,11.17,0,0,1,1-2l3-5.57h3.12v14.72h-3v-7.2a16.41,16.41,0,0,1,.15-2.55h-.1a13.79,13.79,0,0,1-1.13,2.32l-2.27,3.95Z"></path><path class="cls-25" d="M1344.13,660.63h-9.59V645.91h9.59v2.62h-6.57v3.4h5.8v2.55h-5.8V658h6.57Z"></path><path class="cls-25" d="M1355.68,653.45a24,24,0,0,1,1.38,2.25h.1s-.1-1.35-.1-3.22v-6.57h3v14.72h-2.82l-5.43-7.48a19.73,19.73,0,0,1-1.49-2.4h-.1a33.36,33.36,0,0,1,.15,3.38v6.5h-3V645.91h2.93Z"></path><path class="cls-25" d="M1366.41,660.63v-12.1h-4.1v-2.62h11.27v2.62h-4.15v12.1Z"></path><path class="cls-25" d="M1378.83,645.91v14.72h-3V645.91Z"></path><path class="cls-25" d="M1388.31,660.63V645.91h5c3.75,0,5.3,1.72,5.3,4.82s-1.77,4.92-5,4.92h-2.25v5Zm3-7.45h1.88c1.72,0,2.35-.85,2.35-2.33a2.09,2.09,0,0,0-2.35-2.39h-1.88Z"></path><path class="cls-25" d="M1410.91,660.63h-9.6V645.91h9.6v2.62h-6.58v3.4h5.8v2.55h-5.8V658h6.58Z"></path><path class="cls-25" d="M1422.33,660.63a2.87,2.87,0,0,1-.72-1.48l-.58-2.32c-.32-1.4-1-1.65-2.25-1.65h-1.62v5.45h-3V645.91h5.58c3.32,0,5.22,1.27,5.22,4.39a3.38,3.38,0,0,1-3.27,3.68v.07a2.61,2.61,0,0,1,2.47,2.2l.75,2.8a3.66,3.66,0,0,0,.83,1.58Zm-5.17-8h2.35c1.52,0,2.32-.6,2.32-2.1,0-1.32-.77-2.09-2.3-2.09h-2.37Z"></path><path class="cls-25" d="M1087.69,690.63a2.87,2.87,0,0,1-.72-1.48l-.58-2.32c-.32-1.4-1-1.65-2.25-1.65h-1.62v5.45h-3V675.91h5.57c3.32,0,5.22,1.27,5.22,4.39A3.38,3.38,0,0,1,1087,684v.07a2.61,2.61,0,0,1,2.47,2.2l.75,2.8a3.66,3.66,0,0,0,.83,1.58Zm-5.17-8h2.35c1.52,0,2.32-.6,2.32-2.1,0-1.32-.77-2.09-2.3-2.09h-2.37Z"></path><path class="cls-25" d="M1102.09,687.23h-5.72l-1.15,3.4h-3.17l5.34-14.72h3.8l5.35,14.72h-3.25Zm-4.87-2.5h4l-.78-2.2a28.44,28.44,0,0,1-1.15-4.1h-.1a36.84,36.84,0,0,1-1.2,4.07Z"></path><path class="cls-25" d="M1120.57,687.65c-1.35,2.23-3,3.28-6.2,3.28-3.95,0-6.65-2.75-6.65-7.65s2.73-7.67,7.1-7.67a5.83,5.83,0,0,1,5.82,3.67l-2.9,1.4a3,3,0,0,0-3-2.43c-2.4,0-3.85,1.93-3.85,5.08s1.28,4.92,3.83,4.92a3.52,3.52,0,0,0,3.37-2.17Z"></path><path class="cls-25" d="M1135,687.65c-1.35,2.23-3,3.28-6.2,3.28-4,0-6.65-2.75-6.65-7.65s2.72-7.67,7.1-7.67a5.83,5.83,0,0,1,5.82,3.67l-2.9,1.4a3,3,0,0,0-3-2.43c-2.4,0-3.85,1.93-3.85,5.08s1.28,4.92,3.83,4.92a3.52,3.52,0,0,0,3.37-2.17Z"></path><path class="cls-25" d="M1136.62,683.28c0-4.95,2.62-7.67,6.87-7.67s6.88,2.72,6.88,7.67-2.63,7.65-6.88,7.65S1136.62,688.2,1136.62,683.28Zm3.15,0c0,3.13,1.25,5,3.72,5s3.7-1.87,3.7-5-1.25-5-3.7-5S1139.77,680.2,1139.77,683.3Z"></path><path class="cls-25" d="M1161.72,683.45a25.16,25.16,0,0,1,1.37,2.25h.1s-.1-1.35-.1-3.22v-6.57h3v14.72h-2.83l-5.42-7.48a19.14,19.14,0,0,1-1.5-2.4h-.1a33.36,33.36,0,0,1,.15,3.38v6.5h-3V675.91h2.93Z"></path><path class="cls-25" d="M1172.44,690.63v-12.1h-4.1v-2.62h11.28v2.62h-4.15v12.1Z"></path><path class="cls-25" d="M1188.92,687.23h-5.73l-1.15,3.4h-3.17l5.35-14.72h3.8l5.35,14.72h-3.25Zm-4.88-2.5h4l-.77-2.2a28.44,28.44,0,0,1-1.15-4.1h-.1a39.75,39.75,0,0,1-1.2,4.07Z"></path><path class="cls-25" d="M1203.79,690.63a2.87,2.87,0,0,1-.72-1.48l-.58-2.32c-.32-1.4-1-1.65-2.25-1.65h-1.62v5.45h-3V675.91h5.58c3.32,0,5.22,1.27,5.22,4.39a3.38,3.38,0,0,1-3.27,3.68v.07a2.61,2.61,0,0,1,2.47,2.2l.75,2.8a3.66,3.66,0,0,0,.83,1.58Zm-5.17-8H1201c1.52,0,2.32-.6,2.32-2.1,0-1.32-.77-2.09-2.3-2.09h-2.37Z"></path><path class="cls-25" d="M1219.47,690.63h-9.6V675.91h9.6v2.62h-6.58v3.4h5.8v2.55h-5.8V688h6.58Z"></path><path class="cls-25" d="M1229.62,686.15a2.81,2.81,0,0,0,2.87,2.45c1.28,0,2.18-.55,2.18-1.67s-.58-1.58-2.65-2.28c-3-1-4.63-2.15-4.63-4.72,0-3.25,2.55-4.35,5-4.35,2.92,0,5.1,1,5.37,3.85l-3,.7a2.18,2.18,0,0,0-2.32-2.08c-1.08,0-1.93.55-1.93,1.63s.93,1.62,2.78,2.22c2.8.93,4.47,1.93,4.47,4.73,0,3.1-2.5,4.3-5.52,4.3s-4.78-1-5.43-3.68Z"></path><path class="cls-25" d="M1252.24,675.91v9.82c0,3.92-2.8,5.2-5.92,5.2s-6-1.28-6-5.2v-9.82h3v9c0,2.28.78,3.5,2.93,3.5s2.9-1.22,2.9-3.5v-9Z"></path><path class="cls-25" d="M1267.69,687.65c-1.35,2.23-3,3.28-6.2,3.28-4,0-6.65-2.75-6.65-7.65s2.73-7.67,7.1-7.67a5.83,5.83,0,0,1,5.82,3.67l-2.89,1.4a3,3,0,0,0-3-2.43c-2.4,0-3.85,1.93-3.85,5.08s1.27,4.92,3.82,4.92a3.53,3.53,0,0,0,3.38-2.17Z"></path><path class="cls-25" d="M1282.14,687.65c-1.35,2.23-3.05,3.28-6.2,3.28-4,0-6.65-2.75-6.65-7.65s2.73-7.67,7.1-7.67a5.83,5.83,0,0,1,5.82,3.67l-2.9,1.4a3,3,0,0,0-3-2.43c-2.4,0-3.85,1.93-3.85,5.08s1.27,4.92,3.82,4.92a3.52,3.52,0,0,0,3.37-2.17Z"></path><path class="cls-25" d="M1294.26,690.63h-9.59V675.91h9.59v2.62h-6.57v3.4h5.8v2.55h-5.8V688h6.57Z"></path><path class="cls-25" d="M1298.89,686.15a2.81,2.81,0,0,0,2.87,2.45c1.28,0,2.18-.55,2.18-1.67s-.58-1.58-2.65-2.28c-3-1-4.62-2.15-4.62-4.72,0-3.25,2.54-4.35,5-4.35,2.92,0,5.1,1,5.37,3.85l-3,.7a2.18,2.18,0,0,0-2.32-2.08c-1.08,0-1.93.55-1.93,1.63s.93,1.62,2.78,2.22c2.8.93,4.47,1.93,4.47,4.73,0,3.1-2.5,4.3-5.52,4.3s-4.77-1-5.42-3.68Z"></path><path class="cls-25" d="M1311.46,686.15a2.81,2.81,0,0,0,2.88,2.45c1.27,0,2.17-.55,2.17-1.67s-.57-1.58-2.65-2.28c-3-1-4.62-2.15-4.62-4.72,0-3.25,2.55-4.35,5-4.35,2.93,0,5.1,1,5.38,3.85l-3,.7a2.19,2.19,0,0,0-2.33-2.08c-1.07,0-1.92.55-1.92,1.63s.92,1.62,2.77,2.22c2.8.93,4.48,1.93,4.48,4.73,0,3.1-2.5,4.3-5.53,4.3s-4.77-1-5.42-3.68Z"></path><path class="cls-25" d="M1325.67,675.91v14.72h-3V675.91Z"></path></g><path class="cls-25" d="M1107,905.58c2.07,6.21,6.12,9.09,12.69,9.09,9.27,0,17.28-8.55,17.28-26.73v-5.31h-.18c-.9,8.91-7.2,14.22-15.84,14.22-10.17,0-16.83-6.84-16.83-17.28,0-9.27,5.58-17.19,16.83-17.19,6.66,0,11.88,2.88,14.94,9.09,2,4,3,9.45,3,16.47,0,19.35-8.64,28.53-19.17,28.53-7.38,0-12.33-3.51-14.4-10.26Zm14-41.4c-9.63,0-14.94,6.66-14.94,15.39s5.49,15.48,14.94,15.48,14.85-6.75,14.85-15.48C1135.8,871,1130.13,864.18,1121,864.18Z"></path><path class="cls-25" d="M1147.41,902.25c0-6.66,4.32-12.24,11.79-13.14v-.18c-5.67-1.26-10.26-5.4-10.26-12.69,0-8.37,5.94-13.86,15.3-13.86s15.3,5.49,15.3,13.86c0,7.29-4.59,11.43-10.26,12.69v.18c7.47.9,11.79,6.48,11.79,13.14,0,8.91-6.93,14.22-16.83,14.22S1147.41,911.16,1147.41,902.25Zm1.89,0c0,7.92,6.21,12.42,14.94,12.42s14.94-4.5,14.94-12.42c0-8.1-6.21-12.33-14.94-12.33S1149.3,894.15,1149.3,902.25Zm1.53-26c0,7.56,5.31,11.88,13.41,11.88s13.41-4.32,13.41-11.88-5.13-12.06-13.41-12.06S1150.83,868.77,1150.83,876.24Z"></path><path class="cls-25" d="M1187,878.76c0-9,4.14-16.29,11.79-16.29s11.7,7.29,11.7,16.29c0,9.18-4,16.38-11.7,16.38S1187,887.94,1187,878.76Zm1.8,0c0,8.55,3.78,14.76,10,14.76s9.9-6.21,9.9-14.76-3.78-14.58-9.9-14.58S1188.81,870.3,1188.81,878.76Zm44-15.84h2l-31.14,53h-2ZM1226,900.09c0-9.18,4-16.38,11.7-16.38s11.79,7.2,11.79,16.38c0,9-4.14,16.29-11.79,16.29S1226,909.09,1226,900.09Zm1.8,0c0,8.46,3.78,14.58,9.9,14.58s10-6.12,10-14.58-3.78-14.76-10-14.76S1227.78,891.54,1227.78,900.09Z"></path><path class="cls-25" d="M1105.52,931.2v14.73h-3V931.2Z"></path><path class="cls-25" d="M1115.84,942.45l-2.27-4a12.08,12.08,0,0,1-1.1-2.32h-.1a20.44,20.44,0,0,1,.12,2.55v7.2h-3V931.2h3.2l3,5.58a9.6,9.6,0,0,1,.95,2.05h.1a11.17,11.17,0,0,1,1-2.05l3-5.58h3.13v14.73h-3v-7.2a16.41,16.41,0,0,1,.15-2.55h-.1a13.17,13.17,0,0,1-1.12,2.32l-2.28,4Z"></path><path class="cls-25" d="M1127.77,945.93V931.2h5c3.75,0,5.3,1.73,5.3,4.83s-1.77,4.92-5,4.92h-2.25v5Zm3-7.45h1.88c1.72,0,2.35-.85,2.35-2.33a2.1,2.1,0,0,0-2.35-2.4h-1.88Z"></path><path class="cls-25" d="M1149,945.93a2.88,2.88,0,0,1-.73-1.48l-.57-2.32c-.33-1.4-1-1.65-2.25-1.65h-1.63v5.45h-3V931.2h5.57c3.33,0,5.23,1.28,5.23,4.4a3.38,3.38,0,0,1-3.28,3.68v.07a2.62,2.62,0,0,1,2.48,2.2l.75,2.8a3.53,3.53,0,0,0,.82,1.58Zm-5.18-8h2.35c1.53,0,2.33-.6,2.33-2.1,0-1.32-.78-2.1-2.3-2.1h-2.38Z"></path><path class="cls-25" d="M1164.64,945.93H1155V931.2h9.6v2.63h-6.57v3.4h5.8v2.55h-5.8v3.52h6.57Z"></path><path class="cls-25" d="M1176.19,938.75a24,24,0,0,1,1.38,2.25h.1s-.1-1.35-.1-3.22V931.2h3v14.73h-2.82l-5.43-7.48a20.68,20.68,0,0,1-1.5-2.4h-.1a33.36,33.36,0,0,1,.15,3.38v6.5h-3V931.2h2.92Z"></path><path class="cls-25" d="M1184.54,945.93V931.2h5.15c4.08,0,7.15,2,7.15,7.2,0,5.45-3.2,7.53-7.32,7.53Zm4.68-2.55c2.72,0,4.45-1.25,4.45-4.8,0-3.73-1.75-4.83-4.25-4.83h-1.85v9.63Z"></path><path class="cls-25" d="M1202.89,931.2v14.73h-3V931.2Z"></path><path class="cls-25" d="M1209.22,945.93v-12.1h-4.1V931.2h11.27v2.63h-4.15v12.1Z"></path><path class="cls-25" d="M1217.19,938.58c0-5,2.63-7.68,6.88-7.68s6.87,2.73,6.87,7.68-2.62,7.65-6.87,7.65S1217.19,943.5,1217.19,938.58Zm3.15,0c0,3.13,1.25,5,3.73,5s3.7-1.87,3.7-5-1.25-5-3.7-5S1220.34,935.5,1220.34,938.6Z"></path><path class="cls-25" d="M1242.17,945.93a2.88,2.88,0,0,1-.73-1.48l-.57-2.32c-.33-1.4-1-1.65-2.25-1.65H1237v5.45h-3V931.2h5.57c3.33,0,5.22,1.28,5.22,4.4a3.38,3.38,0,0,1-3.27,3.68v.07a2.6,2.6,0,0,1,2.47,2.2l.75,2.8a3.66,3.66,0,0,0,.83,1.58Zm-5.18-8h2.35c1.53,0,2.33-.6,2.33-2.1,0-1.32-.78-2.1-2.3-2.1H1237Z"></path><path class="cls-25" d="M1251.27,931.2v14.73h-3V931.2Z"></path><path class="cls-25" d="M1112.09,975.93h-9.59V961.2h9.59v2.63h-6.57v3.4h5.8v2.55h-5.8v3.52h6.57Z"></path><path class="cls-25" d="M1123.64,968.75A24,24,0,0,1,1125,971h.1s-.1-1.35-.1-3.22V961.2h3v14.73h-2.82l-5.43-7.48a20.68,20.68,0,0,1-1.5-2.4h-.1a33.36,33.36,0,0,1,.15,3.38v6.5h-3V961.2h2.92Z"></path><path class="cls-25" d="M1134.37,975.93v-12.1h-4.1V961.2h11.27v2.63h-4.15v12.1Z"></path><path class="cls-25" d="M1155.22,961.2V971c0,3.92-2.8,5.2-5.93,5.2s-6-1.28-6-5.2V961.2h3v9c0,2.28.77,3.5,2.92,3.5s2.9-1.22,2.9-3.5v-9Z"></path><path class="cls-25" d="M1159.89,971.45a2.81,2.81,0,0,0,2.88,2.45c1.27,0,2.17-.55,2.17-1.67s-.57-1.58-2.65-2.28c-3-1-4.62-2.15-4.62-4.72,0-3.25,2.55-4.35,5-4.35,2.93,0,5.1,1,5.38,3.85l-3,.7a2.19,2.19,0,0,0-2.33-2.08c-1.07,0-1.92.55-1.92,1.63s.92,1.62,2.77,2.22c2.8.93,4.48,1.93,4.48,4.73,0,3.1-2.5,4.3-5.53,4.3s-4.77-1-5.42-3.68Z"></path><path class="cls-25" d="M1174.09,961.2v14.73h-3V961.2Z"></path><path class="cls-25" d="M1186.37,972.53h-5.73l-1.15,3.4h-3.17l5.35-14.73h3.8l5.34,14.73h-3.24Zm-4.88-2.5h4l-.77-2.2a28.44,28.44,0,0,1-1.15-4.1h-.1a39.75,39.75,0,0,1-1.2,4.07Z"></path><path class="cls-25" d="M1194.44,971.45a2.81,2.81,0,0,0,2.88,2.45c1.27,0,2.17-.55,2.17-1.67s-.57-1.58-2.65-2.28c-3-1-4.62-2.15-4.62-4.72,0-3.25,2.55-4.35,5-4.35,2.93,0,5.1,1,5.38,3.85l-3,.7a2.19,2.19,0,0,0-2.33-2.08c-1.07,0-1.92.55-1.92,1.63s.92,1.62,2.77,2.22c2.8.93,4.48,1.93,4.48,4.73,0,3.1-2.5,4.3-5.53,4.3s-4.77-1-5.42-3.68Z"></path><path class="cls-25" d="M1208,975.93v-12.1h-4.1V961.2h11.28v2.63H1211v12.1Z"></path><path class="cls-25" d="M1220.42,961.2v14.73h-3V961.2Z"></path><path class="cls-25" d="M360.69,485.93h-33.3v-1.44c11.16-6.93,29.7-21.15,29.7-35.19,0-9.72-6.3-15.12-14.85-15.12-9.45,0-13.68,6.3-13.68,12.78,0,5,2.16,8.55,5.49,10.71L332.88,459A14.22,14.22,0,0,1,326.67,447c0-7.65,5.22-14.58,15.57-14.58,9,0,16.74,5.49,16.74,16.92,0,14.4-19.17,29.88-28.17,34.65v.18h29.88Z"></path><path class="cls-25" d="M366.9,459.38c0-14.94,6.66-27,19.35-27s19.35,12.06,19.35,27-6.66,27.09-19.35,27.09S366.9,474.32,366.9,459.38Zm1.89,0c0,14.67,6.57,25.29,17.46,25.29s17.46-10.62,17.46-25.29-6.57-25.2-17.46-25.2S368.79,444.71,368.79,459.38Z"></path><path class="cls-25" d="M414.24,459.38c0-14.94,6.66-27,19.35-27s19.35,12.06,19.35,27-6.66,27.09-19.35,27.09S414.24,474.32,414.24,459.38Zm1.89,0c0,14.67,6.57,25.29,17.46,25.29s17.46-10.62,17.46-25.29-6.57-25.2-17.46-25.2S416.13,444.71,416.13,459.38Z"></path><path class="cls-25" d="M479.49,458.21V441.38h1.8v16.83h17.64V460H481.29V478.1h-1.8V460H462.21v-1.8Z"></path><path class="cls-25" d="M328.52,501.2v14.73h-3V501.2Z"></path><path class="cls-25" d="M340.79,508.75a24,24,0,0,1,1.38,2.25h.1s-.1-1.35-.1-3.22V501.2h3v14.73h-2.82l-5.43-7.48a20.68,20.68,0,0,1-1.5-2.4h-.1a33.36,33.36,0,0,1,.15,3.38v6.5h-3V501.2h2.92Z"></path><path class="cls-25" d="M357.47,508.75a25.16,25.16,0,0,1,1.37,2.25h.1s-.1-1.35-.1-3.22V501.2h3v14.73H359l-5.42-7.48a19.14,19.14,0,0,1-1.5-2.4H352a33.36,33.36,0,0,1,.15,3.38v6.5h-3V501.2h2.93Z"></path><path class="cls-25" d="M364.89,508.58c0-4.95,2.63-7.68,6.88-7.68s6.87,2.73,6.87,7.68-2.62,7.65-6.87,7.65S364.89,513.5,364.89,508.58Zm3.15,0c0,3.13,1.25,5,3.73,5s3.7-1.87,3.7-5-1.25-5-3.7-5S368,505.5,368,508.6Z"></path><path class="cls-25" d="M385.49,509.6a22.72,22.72,0,0,1,.88,3.85h.1a24.61,24.61,0,0,1,.82-3.82l2.6-8.43h3.18l-4.88,14.73h-3.72l-4.85-14.73h3.25Z"></path><path class="cls-25" d="M402.57,512.53h-5.73l-1.15,3.4h-3.17l5.35-14.73h3.8L407,515.93h-3.25Zm-4.88-2.5h4l-.77-2.2a28.44,28.44,0,0,1-1.15-4.1h-.1a39.75,39.75,0,0,1-1.2,4.07Z"></path><path class="cls-25" d="M410.37,515.93v-12.1h-4.1V501.2h11.27v2.63h-4.15v12.1Z"></path><path class="cls-25" d="M422.79,501.2v14.73h-3V501.2Z"></path><path class="cls-25" d="M425.82,508.58c0-4.95,2.62-7.68,6.87-7.68s6.88,2.73,6.88,7.68-2.63,7.65-6.88,7.65S425.82,513.5,425.82,508.58Zm3.15,0c0,3.13,1.25,5,3.72,5s3.7-1.87,3.7-5-1.25-5-3.7-5S429,505.5,429,508.6Z"></path><path class="cls-25" d="M450.92,508.75a25.16,25.16,0,0,1,1.37,2.25h.1s-.1-1.35-.1-3.22V501.2h3v14.73h-2.83l-5.42-7.48a19.14,19.14,0,0,1-1.5-2.4h-.1a33.36,33.36,0,0,1,.15,3.38v6.5h-3V501.2h2.93Z"></path><path class="cls-25" d="M331.87,542.45l-2.28-4a12.08,12.08,0,0,1-1.1-2.32h-.1a18.89,18.89,0,0,1,.13,2.55v7.2h-3V531.2h3.19l3,5.58a9,9,0,0,1,.95,2.05h.1a11.17,11.17,0,0,1,.95-2.05l3-5.58h3.12v14.73h-3v-7.2a16.41,16.41,0,0,1,.15-2.55h-.1a13.79,13.79,0,0,1-1.13,2.32l-2.27,4Z"></path><path class="cls-25" d="M352.12,542.53h-5.73l-1.15,3.4h-3.17l5.35-14.73h3.8l5.35,14.73h-3.25Zm-4.88-2.5h4l-.77-2.2a28.44,28.44,0,0,1-1.15-4.1h-.1a39.75,39.75,0,0,1-1.2,4.07Z"></path><path class="cls-25" d="M367.12,538.75a25.16,25.16,0,0,1,1.37,2.25h.1s-.1-1.35-.1-3.22V531.2h3v14.73h-2.83l-5.42-7.48a19.14,19.14,0,0,1-1.5-2.4h-.1a33.36,33.36,0,0,1,.15,3.38v6.5h-3V531.2h2.93Z"></path><path class="cls-25" d="M383.79,542.53h-5.72l-1.15,3.4h-3.17l5.34-14.73h3.8l5.35,14.73H385Zm-4.87-2.5h4l-.78-2.2a28.44,28.44,0,0,1-1.15-4.1h-.1a36.84,36.84,0,0,1-1.2,4.07Z"></path><path class="cls-25" d="M402.47,538.15v7.78h-2L400,544.2a4.38,4.38,0,0,1-4.05,2c-3.82,0-6.52-2.5-6.52-7.6,0-4.93,2.72-7.73,7.1-7.73,2.9,0,4.87,1.3,5.82,3.68l-2.9,1.4a3.06,3.06,0,0,0-3.05-2.43c-1.92,0-3.85,1.4-3.85,5.1,0,2.88,1.1,5.1,3.83,5.1,2,0,3.17-.92,3.17-2.42v-.7h-3.27v-2.48Z"></path><path class="cls-25" d="M415.52,545.93h-9.6V531.2h9.6v2.63h-6.58v3.4h5.8v2.55h-5.8v3.52h6.58Z"></path><path class="cls-25" d="M426.94,545.93a2.87,2.87,0,0,1-.72-1.48l-.58-2.32c-.32-1.4-1-1.65-2.25-1.65h-1.62v5.45h-3V531.2h5.58c3.32,0,5.22,1.28,5.22,4.4a3.38,3.38,0,0,1-3.27,3.68v.07a2.61,2.61,0,0,1,2.47,2.2l.75,2.8a3.66,3.66,0,0,0,.83,1.58Zm-5.17-8h2.35c1.52,0,2.32-.6,2.32-2.1,0-1.32-.77-2.1-2.3-2.1h-2.37Z"></path><path class="cls-25" d="M434.42,541.45a2.81,2.81,0,0,0,2.87,2.45c1.28,0,2.18-.55,2.18-1.67s-.58-1.58-2.65-2.28c-3-1-4.63-2.15-4.63-4.72,0-3.25,2.55-4.35,5-4.35,2.92,0,5.1,1,5.37,3.85l-3,.7a2.18,2.18,0,0,0-2.32-2.08c-1.08,0-1.93.55-1.93,1.63s.93,1.62,2.78,2.22c2.8.93,4.47,1.93,4.47,4.73,0,3.1-2.5,4.3-5.52,4.3s-4.78-1-5.43-3.68Z"></path><path class="cls-25" d="M324.57,568.58c0-5,2.62-7.68,6.87-7.68s6.88,2.73,6.88,7.68-2.63,7.65-6.88,7.65S324.57,573.5,324.57,568.58Zm3.15,0c0,3.13,1.25,5,3.72,5s3.7-1.87,3.7-5-1.25-5-3.7-5S327.72,565.5,327.72,568.6Z"></path><path class="cls-25" d="M341.34,575.93V561.2h5c3.75,0,5.3,1.73,5.3,4.83s-1.78,4.92-5,4.92h-2.25v5Zm3-7.45h1.87c1.73,0,2.35-.85,2.35-2.33a2.09,2.09,0,0,0-2.35-2.4h-1.87Z"></path><path class="cls-25" d="M363.94,575.93h-9.6V561.2h9.6v2.63h-6.57v3.4h5.8v2.55h-5.8v3.52h6.57Z"></path><path class="cls-25" d="M375.37,575.93a2.88,2.88,0,0,1-.73-1.48l-.57-2.32c-.33-1.4-1-1.65-2.25-1.65h-1.63v5.45h-3V561.2h5.57c3.33,0,5.23,1.28,5.23,4.4a3.38,3.38,0,0,1-3.28,3.68v.07a2.62,2.62,0,0,1,2.48,2.2l.75,2.8a3.53,3.53,0,0,0,.82,1.58Zm-5.18-8h2.35c1.53,0,2.33-.6,2.33-2.1,0-1.32-.78-2.1-2.3-2.1h-2.38Z"></path><path class="cls-25" d="M389.77,572.53H384l-1.15,3.4h-3.17l5.35-14.73h3.8l5.35,14.73H391Zm-4.88-2.5h4l-.77-2.2a28.44,28.44,0,0,1-1.15-4.1h-.1a39.75,39.75,0,0,1-1.2,4.07Z"></path><path class="cls-25" d="M397.57,575.93v-12.1h-4.1V561.2h11.27v2.63h-4.15v12.1Z"></path><path class="cls-25" d="M410,561.2v14.73h-3V561.2Z"></path><path class="cls-25" d="M418.09,569.6a22.72,22.72,0,0,1,.88,3.85h.1a24.61,24.61,0,0,1,.82-3.82l2.6-8.43h3.18l-4.88,14.73h-3.72l-4.85-14.73h3.25Z"></path><path class="cls-25" d="M430.92,561.2v14.73h-3V561.2Z"></path><path class="cls-25" d="M292.91,842.26c-3.78,4.5-7.74,6.93-13.41,6.93-8.55,0-14.58-5.85-14.58-15.21s6-15.39,14.58-15.39c5.67,0,9.9,2.79,13.41,6.93l5.85,7,5.94-7c3.42-4.14,7.74-6.93,13.41-6.93,8.55,0,14.58,5.94,14.58,15.39s-6,15.21-14.58,15.21c-5.67,0-9.63-2.43-13.41-6.93l-5.94-7Zm-13.41,5.22c4.23,0,8.46-2.07,12.06-6.3l6.12-7.29-6.12-7.29c-3.6-4.23-7.83-6.3-12.06-6.3-7.2,0-12.87,4.77-12.87,13.68C266.63,842.71,272.3,847.48,279.5,847.48Zm38.61-27.18c-4.23,0-8.55,2.07-12.06,6.3l-6.12,7.29,6.12,7.29c3.51,4.23,7.83,6.3,12.06,6.3,7.2,0,12.87-4.77,12.87-13.5C331,825.07,325.31,820.3,318.11,820.3Z"></path><path class="cls-25" d="M262.89,882.45a2.81,2.81,0,0,0,2.88,2.45c1.27,0,2.17-.55,2.17-1.67s-.57-1.58-2.65-2.28c-3-1-4.62-2.15-4.62-4.72,0-3.25,2.55-4.35,5-4.35,2.93,0,5.1,1,5.38,3.85l-3,.7a2.19,2.19,0,0,0-2.33-2.08c-1.07,0-1.92.55-1.92,1.63s.92,1.62,2.77,2.22c2.8.93,4.48,1.93,4.48,4.73,0,3.1-2.5,4.3-5.53,4.3s-4.77-1-5.42-3.68Z"></path><path class="cls-25" d="M273.15,879.58c0-5,2.62-7.68,6.87-7.68s6.87,2.73,6.87,7.68-2.62,7.65-6.87,7.65S273.15,884.5,273.15,879.58Zm3.14,0c0,3.13,1.25,5,3.73,5s3.7-1.87,3.7-5-1.25-5-3.7-5S276.29,876.5,276.29,879.6Z"></path><path class="cls-25" d="M298.12,886.93a2.88,2.88,0,0,1-.73-1.48l-.57-2.32c-.33-1.4-1-1.65-2.25-1.65h-1.63v5.45h-3V872.2h5.57c3.33,0,5.23,1.28,5.23,4.4a3.38,3.38,0,0,1-3.28,3.68v.07a2.62,2.62,0,0,1,2.48,2.2l.75,2.8a3.53,3.53,0,0,0,.82,1.58Zm-5.18-8h2.35c1.53,0,2.33-.6,2.33-2.1,0-1.32-.78-2.1-2.3-2.1h-2.38Z"></path><path class="cls-25" d="M312.39,886.93a2.87,2.87,0,0,1-.72-1.48l-.58-2.32c-.32-1.4-1-1.65-2.25-1.65h-1.62v5.45h-3V872.2h5.57c3.32,0,5.22,1.28,5.22,4.4a3.38,3.38,0,0,1-3.27,3.68v.07a2.61,2.61,0,0,1,2.47,2.2l.75,2.8a3.66,3.66,0,0,0,.83,1.58Zm-5.17-8h2.35c1.52,0,2.32-.6,2.32-2.1,0-1.32-.77-2.1-2.3-2.1h-2.37Z"></path><path class="cls-25" d="M321.5,872.2v14.73h-3V872.2Z"></path><path class="cls-25" d="M326.84,882.45a2.81,2.81,0,0,0,2.88,2.45c1.27,0,2.17-.55,2.17-1.67s-.57-1.58-2.65-2.28c-3-1-4.62-2.15-4.62-4.72,0-3.25,2.55-4.35,5-4.35,2.93,0,5.1,1,5.38,3.85l-3,.7a2.19,2.19,0,0,0-2.33-2.08c-1.07,0-1.92.55-1.92,1.63s.92,1.62,2.77,2.22c2.8.93,4.48,1.93,4.48,4.73,0,3.1-2.5,4.3-5.53,4.3s-4.77-1-5.42-3.68Z"></path><path class="cls-25" d="M341,872.2v14.73h-3V872.2Z"></path><path class="cls-25" d="M344.29,889.9v-1.28c1.35-.14,2.25-.7,2.25-1.87a1.68,1.68,0,0,1-2.09-1.67,1.79,1.79,0,0,1,2-1.83,2.31,2.31,0,0,1,2.25,2.55C348.67,888.7,346.87,889.83,344.29,889.9Z"></path><path class="cls-25" d="M273.42,914c-1.35,2.23-3.05,3.28-6.2,3.28-4,0-6.65-2.75-6.65-7.65s2.72-7.68,7.1-7.68a5.83,5.83,0,0,1,5.82,3.68l-2.9,1.4a3,3,0,0,0-3-2.43c-2.4,0-3.85,1.93-3.85,5.08s1.28,4.92,3.83,4.92a3.52,3.52,0,0,0,3.37-2.17Z"></path><path class="cls-25" d="M275,909.58c0-5,2.62-7.68,6.87-7.68s6.88,2.73,6.88,7.68-2.63,7.65-6.88,7.65S275,914.5,275,909.58Zm3.15,0c0,3.13,1.25,5,3.72,5s3.7-1.87,3.7-5-1.25-5-3.7-5S278.17,906.5,278.17,909.6Z"></path><path class="cls-25" d="M300.12,909.75a25.16,25.16,0,0,1,1.37,2.25h.1s-.1-1.35-.1-3.22V902.2h3v14.73h-2.83l-5.42-7.48a19.14,19.14,0,0,1-1.5-2.4h-.1a33.36,33.36,0,0,1,.15,3.38v6.5h-3V902.2h2.93Z"></path><path class="cls-25" d="M316.79,909.75a24,24,0,0,1,1.38,2.25h.1s-.1-1.35-.1-3.22V902.2h3v14.73h-2.82l-5.43-7.48a20.68,20.68,0,0,1-1.5-2.4h-.1a33.36,33.36,0,0,1,.15,3.38v6.5h-3V902.2h2.92Z"></path><path class="cls-25" d="M334.74,916.93h-9.6V902.2h9.6v2.63h-6.57v3.4H334v2.55h-5.8v3.52h6.57Z"></path><path class="cls-25" d="M349.89,914c-1.35,2.23-3.05,3.28-6.2,3.28-3.95,0-6.65-2.75-6.65-7.65s2.73-7.68,7.1-7.68a5.82,5.82,0,0,1,5.82,3.68l-2.89,1.4a3,3,0,0,0-3.05-2.43c-2.4,0-3.85,1.93-3.85,5.08s1.27,4.92,3.82,4.92a3.53,3.53,0,0,0,3.38-2.17Z"></path><path class="cls-25" d="M354.79,916.93v-12.1h-4.1V902.2H362v2.63h-4.14v12.1Z"></path><path class="cls-25" d="M367.22,902.2v14.73h-3V902.2Z"></path><path class="cls-25" d="M370.24,909.58c0-5,2.63-7.68,6.87-7.68s6.88,2.73,6.88,7.68-2.63,7.65-6.88,7.65S370.24,914.5,370.24,909.58Zm3.15,0c0,3.13,1.25,5,3.72,5s3.7-1.87,3.7-5-1.25-5-3.7-5S373.39,906.5,373.39,909.6Z"></path><path class="cls-25" d="M395.34,909.75a25.16,25.16,0,0,1,1.37,2.25h.1s-.1-1.35-.1-3.22V902.2h3v14.73h-2.83l-5.42-7.48a19.14,19.14,0,0,1-1.5-2.4h-.1a33.36,33.36,0,0,1,.15,3.38v6.5h-3V902.2h2.92Z"></path><path class="cls-25" d="M403,919.9v-1.28c1.35-.14,2.25-.7,2.25-1.87a1.68,1.68,0,0,1-2.1-1.67,1.79,1.79,0,0,1,2-1.83,2.31,2.31,0,0,1,2.24,2.55C407.36,918.7,405.56,919.83,403,919.9Z"></path><path class="cls-25" d="M269.69,946.93a2.87,2.87,0,0,1-.72-1.48l-.58-2.32c-.32-1.4-1-1.65-2.25-1.65h-1.62v5.45h-3V932.2h5.57c3.32,0,5.22,1.28,5.22,4.4a3.38,3.38,0,0,1-3.27,3.68v.07a2.61,2.61,0,0,1,2.47,2.2l.75,2.8a3.66,3.66,0,0,0,.83,1.58Zm-5.17-8h2.35c1.52,0,2.32-.6,2.32-2.1,0-1.32-.77-2.1-2.3-2.1h-2.37Z"></path><path class="cls-25" d="M285.37,946.93h-9.6V932.2h9.6v2.63h-6.58v3.4h5.8v2.55h-5.8v3.52h6.58Z"></path><path class="cls-25" d="M291.62,932.2v12.1h6.05v2.63h-9.08V932.2Z"></path><path class="cls-25" d="M308.62,943.53h-5.73l-1.15,3.4h-3.17l5.35-14.73h3.8l5.35,14.73h-3.25Zm-4.88-2.5h4l-.77-2.2a28.44,28.44,0,0,1-1.15-4.1h-.1a39.75,39.75,0,0,1-1.2,4.07Z"></path><path class="cls-25" d="M319.19,942.48a12.77,12.77,0,0,1-1.52,1.82v.1a15.61,15.61,0,0,1,2.05-.1h5.45v2.63H314v-2.1l5.7-8.18a11.32,11.32,0,0,1,1.52-1.82v-.1a16.19,16.19,0,0,1-2.05.1h-4.95V932.2H325v2.1Z"></path><path class="cls-25" d="M330.82,932.2v14.73h-3V932.2Z"></path><path class="cls-25" d="M333.84,939.58c0-5,2.63-7.68,6.88-7.68s6.87,2.73,6.87,7.68-2.62,7.65-6.87,7.65S333.84,944.5,333.84,939.58Zm3.15,0c0,3.13,1.25,5,3.73,5s3.7-1.87,3.7-5-1.25-5-3.7-5S337,936.5,337,939.6Z"></path><path class="cls-25" d="M358.94,939.75a24,24,0,0,1,1.38,2.25h.1s-.1-1.35-.1-3.22V932.2h3v14.73h-2.82l-5.43-7.48a20.68,20.68,0,0,1-1.5-2.4h-.1a33.36,33.36,0,0,1,.15,3.38v6.5h-3V932.2h2.92Z"></path><path class="cls-25" d="M370.32,932.2v14.73h-3V932.2Z"></path><path class="cls-25" d="M1371.69,143.49h-33.3v-1.44c11.16-6.93,29.7-21.15,29.7-35.19,0-9.72-6.3-15.12-14.85-15.12-9.45,0-13.68,6.3-13.68,12.78,0,5,2.16,8.55,5.49,10.71l-1.17,1.35a14.22,14.22,0,0,1-6.21-12.06c0-7.65,5.22-14.58,15.57-14.58,9,0,16.74,5.49,16.74,16.92,0,14.4-19.17,29.88-28.17,34.65v.18h29.88Z"></path><path class="cls-25" d="M1402.11,128.91H1373.4V127.2l28.89-36.72H1404v36.63h8.82v1.8H1404v14.58h-1.89Zm0-30.15a54.31,54.31,0,0,1,.27-5.85h-.18s-1.35,2.16-4.5,6.21l-16.92,21.69a79.19,79.19,0,0,1-5.31,6.3v.18s3.06-.18,5.85-.18h20.79Z"></path><path class="cls-25" d="M1442.07,83.64h2l-24.57,66.87h-2Z"></path><path class="cls-25" d="M1451.7,92.28v9.09h-1.8V90.48h33.39v1.8l-19.8,51.21h-2l19.8-51.21Z"></path><path class="cls-25" d="M1335.57,166.14c0-4.95,2.62-7.67,6.87-7.67s6.88,2.72,6.88,7.67-2.63,7.65-6.88,7.65S1335.57,171.07,1335.57,166.14Zm3.15,0c0,3.12,1.25,5,3.72,5s3.7-1.88,3.7-5-1.25-5-3.7-5S1338.72,163.07,1338.72,166.17Z"></path><path class="cls-25" d="M1352.34,173.49V158.77h5c3.75,0,5.3,1.73,5.3,4.82s-1.78,4.93-5,4.93h-2.25v5Zm3-7.45h1.87c1.73,0,2.35-.85,2.35-2.32a2.09,2.09,0,0,0-2.35-2.4h-1.87Z"></path><path class="cls-25" d="M1374.94,173.49h-9.6V158.77h9.6v2.62h-6.57v3.4h5.8v2.55h-5.8v3.53h6.57Z"></path><path class="cls-25" d="M1386.37,173.49a2.81,2.81,0,0,1-.73-1.47l-.57-2.33c-.33-1.4-1-1.65-2.25-1.65h-1.63v5.45h-3V158.77h5.57c3.33,0,5.23,1.27,5.23,4.4a3.38,3.38,0,0,1-3.28,3.67v.08a2.61,2.61,0,0,1,2.48,2.2l.75,2.8a3.45,3.45,0,0,0,.82,1.57Zm-5.18-8h2.35c1.53,0,2.33-.6,2.33-2.1,0-1.33-.78-2.1-2.3-2.1h-2.38Z"></path><path class="cls-25" d="M1400.77,170.09H1395l-1.15,3.4h-3.17l5.35-14.72h3.8l5.35,14.72H1402Zm-4.88-2.5h4l-.77-2.2a28.44,28.44,0,0,1-1.15-4.1h-.1a39.44,39.44,0,0,1-1.2,4.08Z"></path><path class="cls-25" d="M1408.57,173.49v-12.1h-4.1v-2.62h11.27v2.62h-4.15v12.1Z"></path><path class="cls-25" d="M1421,158.77v14.72h-3V158.77Z"></path><path class="cls-25" d="M1429.09,167.17A22.5,22.5,0,0,1,1430,171h.1a24.85,24.85,0,0,1,.82-3.83l2.6-8.42h3.18l-4.88,14.72h-3.72l-4.85-14.72h3.25Z"></path><path class="cls-25" d="M1441.92,158.77v14.72h-3V158.77Z"></path><path class="cls-25" d="M1448.24,173.49v-12.1h-4.1v-2.62h11.28v2.62h-4.15v12.1Z"></path><path class="cls-25" d="M1464.72,170.09H1459l-1.15,3.4h-3.17l5.35-14.72h3.8l5.35,14.72h-3.25Zm-4-12.82-2.68-3.4h3.8l1.6,3.4Zm-.88,10.32h4l-.77-2.2a28.44,28.44,0,0,1-1.15-4.1h-.1a39.44,39.44,0,0,1-1.2,4.08Z"></path><path class="cls-25" d="M629.48,607.21a27.69,27.69,0,0,0,4.4-1.87q30.45-19.37,60.84-38.85c1.19-.76,2.1-2,3.34-2.67,11-5.73,21-13,31.46-19.5,12.06-7.52,24-15.25,36-22.92a25.38,25.38,0,0,0,2.23-1.94c.42-.35.9-.63,1.38-1a5.38,5.38,0,0,1,2.89,3.14c3.11,8.63,6.28,17.24,9.44,25.86.25.67.52,1.34.89,2.28,5.55-3.25,10.78-6.73,16.21-10.09-.54-1.39.17-2.42.81-3.55a29.7,29.7,0,0,1,5.84-7.31,8.37,8.37,0,0,0,1.31-1.51A98.78,98.78,0,0,1,790,530.47c-.34-.43-.7-.84-1-1.29q-9-12.76-17.93-25.57a19.07,19.07,0,0,1-1.43-3.22,81.35,81.35,0,0,1,5.75-5.92c4.34-3.7,8.86-7.18,13.29-10.78a13.48,13.48,0,0,0,1.4-1.6A23.9,23.9,0,0,1,792,480a85.91,85.91,0,0,1,15.83-10.69,24.59,24.59,0,0,1,3.46-1.14,9,9,0,0,0,1.52-.68c4.82-2.71,9.6-5.52,14.49-8.12a52.32,52.32,0,0,1,6.67-2.71,3.48,3.48,0,0,1,3.71,1.23q8.88,13.65,17.72,27.33a4.14,4.14,0,0,1,.22.55c-1.91,5.42-5.55,9.81-9,14.52a7.45,7.45,0,0,0,1.26-.42c3.14-1.73,6.62-2.35,10-3.11,1.8-.4,2.88.94,4.18,1.73a5.65,5.65,0,0,1,.9.92l2.91-1.75-16.27-30.52a17.71,17.71,0,0,1,1.6-1,33,33,0,0,0,3.13-1.44q36.09-23,72.15-46.08c1.42-.92,2.5-2.49,4-3.14,6.46-2.78,12-7.09,17.86-10.8q31.22-19.74,62.26-39.74a35.37,35.37,0,0,0,3.4-2.87h.67q18,18.09,35.93,36.18,10.41,10.47,20.83,20.92v3.36l-2.17,1.09c-.65.33-1.32.6-1.93,1L995.77,468c-5.07,3.08-10.18,6.1-15.22,9.23-1.64,1-3,2.52-4.7,3.38C963.32,487,951.76,495,939.68,502.09s-23.92,14.5-35.88,21.77c-4.16,2.53-8.35,5-12.49,7.57-1.12.69-2.08,1.62-3.14,2.4-.49.36-1,.64-1.88,1.15l-1.57-2-.09-.1.11.08a17.66,17.66,0,0,0,.89,1.67c.53.77,1.21,1.44,1.71,2.22,1.59,2.5,3.07,5.07,4.68,7.56q6.79,10.5,13.64,21a7.18,7.18,0,0,0,2.36,2.18,20.81,20.81,0,0,1,5,4.46c4.54,5.58,6.5,12.43,9,19a4.18,4.18,0,0,1,.15,1.66c-.34,5.92-.68,11.84-1.07,17.76a3.92,3.92,0,0,1-.58,1.71c-2.57,4.2-5,8.49-7.83,12.51a27.74,27.74,0,0,1-10.38,8.56c-4.22,2.16-8.86,2.65-13.39,3.6a12.84,12.84,0,0,0-1.64.32c-4.1,1.39-8,.05-11.79-1.1-3.54-1.06-7-2.21-10.54-3.39a6.27,6.27,0,0,1-2.13-1.25c-3-2.71-6.11-5.3-8.79-8.28a80.72,80.72,0,0,1-6-8.44c-.5-.73-.77-1.62-1.25-2.38a3.58,3.58,0,0,1-.3-3.85c-.34-.53-.65-1.05-1-1.55q-8.89-12.72-17.81-25.43c-1.37-2-3.31-3.52-4.07-5.9-.25-.78-.53-1.55-.85-2.49-1.54-.65-2.49-2.2-3.52-3.65q-8.71-12.33-17.38-24.71c-.32-.45-.66-.89-1.13-1.53l-16.91,10.54,13,35.49a18.56,18.56,0,0,1-1.7,1.1c-1.08.55-2.27.91-3.3,1.53Q763.48,609,735.3,626.08c-5,3-9.95,6-14.89,9.11-1.22.75-2.21,1.92-3.47,2.55-10.82,5.41-20.77,12.28-31.14,18.45s-20.68,12.5-31,18.76c-3.21,1.94-6.43,3.85-9.6,5.86a22.52,22.52,0,0,0-2.6,2.3h-.67l-2.55-1.17c-.07-.31-.16-.58-.2-.85q-2.35-18.29-4.69-36.57-2.22-17.37-4.44-34.75a7.85,7.85,0,0,0-.55-1.56Zm283.8,15.1.06,0,0,.05-.35.35a12.25,12.25,0,0,0-3.08,3.57,7.49,7.49,0,0,0,3.06-3.59ZM849.14,495.37l-.34.35-.33.33c-1.33,1.17-2.81,2.21-3.35,4l-.35.34-.06,0,0-.06.35-.34,3.34-4,.34-.33.35-.33.06,0Zm32.57,31.92-.35-.35a14.49,14.49,0,0,0-.61-1.54q-5.94-11.16-11.91-22.31c-.28-.53-.61-1-1-1.71l-2.57,1.67c.3.54.47.89.69,1.21,4.21,6.52,8.41,13,12.68,19.53a29.06,29.06,0,0,0,2.75,3.13l.35.35,0,.05ZM880,538.69l-.34.35-.06,0,.05-.05.35-.34.05,0Zm-4.71,6,.34-.34.06,0-.05,0-.35.34,0,0ZM879,540l-.34.35-.33.33-.07,0,.05,0,.34-.34L879,540l.06,0Zm-1.34,1.68-.34.35-.06,0,0-.05.36-.33,0,0Zm-1,1.34-.34.33.34-.33.05,0Zm-82.28,46,.17-.2-.19.18-.06.08Zm2.31-110.88-.13.23.2-.16.05-.12Zm35,94.09,1-.34,1-.34,1-.34,1-.36,1-.34,1-.33.1,0c.16-.08,0,0-.08,0l-1,.34-1,.34-1,.36-1,.34-1,.34-1,.33-.09,0C831.45,572.4,831.57,572.34,831.69,572.29ZM645.6,679.42l-1,.68-.69.33-.77.35.12.2.63-.57.69-.33,1-.68.69-.33,1-.67,1.69-1,1.67-1,1.18-.54-.19-.28-1,.85-1.68,1-1.68,1-1,.67ZM671.13,664l.79-.36-.13-.2-.64.58-.69.33-1.67,1-1,.67-1.68,1-1.66,1-1,.43.15.23.8-.69,1.67-1,1.68-1,1-.67,1.67-1Zm3.36-2-.82.32.11.22.69-.56,1-.67,1.68-1,1.67-1,1.68-1,1.68-1,.06,0c0-.07,0,0,0,.06l-1.68,1-1.68,1-1.68,1-1.68,1Zm65.16-39.63,1.68-1,4.38-2.67,1.67-1,1.25-.58-.17-.28-1.1.84-1.68,1-4.37,2.69-1.68,1-.21.15,0,0Zm-29.9,18.12,1.68-1,1.68-1,.6-.24-.13-.2-.47.44-1.68,1-1.67,1-1.69,1-3.48,1.91.22.36,3.26-2.28ZM738,623.32l-1.68,1-7.43,4.34.23.38,7.22-4.7,1.67-1,.21-.15,0,0Zm-37.62,22.84,1.68-1,1.22-.54-.17-.28-1,.83-1.67,1-1.69,1L696,648.86l-1.68,1-.09,0,.08-.07,1.68-1,2.68-1.68Zm-13.78,8.38-1.65,1L684,656l.15.23.77-.7,1.7-1,1-.69,1.67-1,1.68-1,1.68-1,.1-.06-.08.08-1.68,1-1.68,1-1.68,1ZM653.32,674.7l1.68-1,1.67-1,1.68-1,1-.67,1.67-1,.8-.31-.12-.21-.66.54-1.67,1-1,.67-1.68,1-1.67,1-1.68,1-.12.06Zm205.21-62.44.07,0-.05-.07-.94-.47-.13.38ZM718.14,635.41l1.69-1,4.36-2.69,1.68-1,1.25-.57-.17-.28-1.08.84-1.68,1-4.36,2.69-1.68,1-.07.06Zm40.33-24.48,1.24-.62-.17-.26-1.12.82-1.66,1-6.45,3.69.23.38,6.26-4ZM785,594.73l-1.62.87.18.29,1.52-1.06,1.67-1,6.43-3.73-.22-.37-6.3,4ZM883.4,534h0a1.27,1.27,0,0,0,1.47,1.17ZM763.47,607.85,761.19,609l.19.32,2.14-1.41,1.67-1,5.6-3.22-.23-.36-5.43,3.51Zm67.19-88.31,2.26-1.36-1.9-.84c-.13.86-.24,1.54-.35,2.22Zm38.9,30.5L864.94,554l.28.31,4.47-4.09,4.4-3.79-.28-.31Zm-96.64,52.17,9-5.28-.23-.38-8.79,5.58-.6.3.13.2Zm59.76-140.1c1.58-1.05,2.29-2.75,3.36-4.22-1-.72-1.39-.28-1.7.41-.56,1.27-1.11,2.54-1.66,3.82l0,0Zm-23.53,62.81c-2.66-.06-4.78,1.43-7.06,2.44a20.56,20.56,0,0,0,7-2.45l.11,0Zm34.29-24.16c-3,2.33-6,4.64-8.88,7-.36.3-.36,1-.52,1.56l.32.19c.44-.32.89-.62,1.3-1,1.52-1.23,3-2.51,4.55-3.67a9.88,9.88,0,0,0,3.2-4.18ZM808.15,539c4.29-1.26,8.54-2.6,10.76-7h0c-2.73,1.63-5.49,3.22-8.18,4.91a24.71,24.71,0,0,0-2.58,2.13Zm-8-2.34,9.34-5.73-.93-1.14a36.23,36.23,0,0,1-3.4,1.65c-2.58.91-4,2.86-5,5.23Zm9.07-12.76a9.87,9.87,0,0,0,5.69-1.6c1.84-1.16,3.77-2.16,5.66-3.25a13.94,13.94,0,0,0,1.17-.85l-1.62-.57-10.9,6.27,0,0Zm60.12,108.81.05,0-.06,0a14.45,14.45,0,0,0-1-1.27c-1.9-1.89-3.93-3.66-5.7-5.66-1.92-2.16-4.53-1.83-6.92-2.42,2.64,2.73,5.36,5.28,8.1,7.81a2,2,0,0,0,.86.47C866.14,632,867.72,632.37,869.29,632.72ZM899.75,497c.84-.49,1.48-.83,2.09-1.2,15.14-9.34,30.32-18.63,45.41-28.05,4.43-2.77,9.16-5.06,13.11-8.62,1.38-1.25,3.49-1.65,5.13-2.66q29.18-17.93,58.3-35.93c.5-.31,1-.67,1.58-1.09-7.46-8.22-14.79-16.27-22.14-24.36-.7.43-1.23.73-1.75,1.06l-56,35.24c-.47.29-1,.5-1.48.75-1,.49-2.23.76-2.88,1.53a14.85,14.85,0,0,1-3.68,2.82c-3.31,2.11-6.64,4.16-10,6.25L885.2,469.36c-.37.23-.68.53-1.14.89C889.28,479.13,894.45,488,899.75,497ZM764.38,545.62c-.64.35-1.08.57-1.49.83-4,2.49-8,5-11.95,7.48-13.58,8.56-27.14,17.16-40.75,25.67-2.2,1.38-4.23,3.11-6.86,3.78a5.53,5.53,0,0,0-1.8,1.19c-.78.61-1.46,1.37-2.29,1.9Q677.4,600.27,655.52,614c-.56.35-1.1.73-1.72,1.15,1.6,10.1,3.19,20.12,4.82,30.39.78-.41,1.27-.64,1.73-.92,5.15-3.16,10.35-6.25,15.43-9.5,11.06-7.08,22.64-13.31,33.26-21.07,1.19-.87,2.76-1.19,4-2q29.8-18.32,59.59-36.69c.51-.31,1-.68,1.58-1.08Zm68.92-38-19.53-29.17-13.37,9.07,19.81,29.05Zm24.13,63.17,21.75,31.94L891,594.49c-7.23-10.8-14.31-21.36-21.45-32Zm4.77-19.24c-6.88-10.25-13.53-20.41-20.48-30.53l-12.4,8.43L850,559.92Zm-55.34-27.29L819.53,517l-19.79-29-12.64,7.65C793.75,505.3,800.25,514.71,806.86,524.28Zm71.62,78.87-21.73-31.89-12,6.17,21.71,31.46Zm-49.84-73.26-12.1,6.75c7,10.14,13.83,20,20.74,30l12.06-6.3Zm16.3-31.62-19.06-29L814.43,478,834,507.15ZM891.6,594l9.32-9-21-31.84L870.17,562Zm-18.82-51.74-20-30.36-10.31,8.64c6.87,10.26,13.61,20.32,20.45,30.55ZM834.25,580.7l21.46,30.76,9.88-2.35L844,577.76ZM786.38,496l-9.56,4.85,19.51,27.92,9.77-4.19ZM836.51,567l-20.72-30-9.42,3.8c6.9,9.87,13.65,19.52,20.49,29.32ZM834,462.18l-7.42,6.64c6.4,9.73,12.66,19.22,19,28.9l6.91-7.16C846.28,481.08,840.2,471.77,834,462.18Zm72.73,114c-6.81-10.41-13.53-20.69-20.44-31.28l-5.71,7.64,20.91,31.71Zm-27.46-42.05L860.7,505.78c-2.57,1.83-5.55,2.8-7.26,5.73l19.89,30.11C875.4,539,877.25,536.63,879.22,534.14Zm26.93,83.19-6.4-10.81-12.64,8.74,7.51,10.1ZM1048,420.5l8.1,8.51,12.69-7.72-8.7-8.18Zm-13.15,8.05,7.83,8.66,12.69-7.77-8.08-8.5ZM893.92,625.77l-7.52-10.09-12.91,6,8.56,9.5ZM1034.09,429l-12.33,7.63,7.57,8.6,12.57-7.57Zm-13,8-12.23,7.43,7.34,8.79,12.46-7.59ZM910.36,596.44c-1.82,1.11-9.32,8.81-9.74,10,2,3.34,4,6.73,5.88,9.85l9.18-8.57Zm92.76-135.26,12.33-7.55-7.35-8.74L996,452.31Zm44.28-41.29,12.3-7.51-8.1-8.05-12,7.39Zm-64.14,40.22,6.91,8.95,12.24-7.44-7.11-8.89Zm43.43-40.47c2.65,2.92,5.08,5.58,7.56,8.32l12.44-7.64-7.8-8.18ZM828,580.43c.47.76.67,1.15.92,1.51,6.19,8.83,12.48,17.6,18.53,26.53,1.79,2.64,4.31,2.06,6.6,2.69l.24-.35-20.89-30Zm205.56-152-7.54-8.3-12.08,7.46,7.31,8.44ZM771.28,502.6l19,27.07,5.18-.67-19.4-27.79ZM1013.19,428l-12,7.48,7.11,8.38,12.18-7.41Zm-23.74,41.5-6.86-8.91-11.78,7.22,6.65,9Zm-22.92.88-11.75,7.22,6.37,9.09,12-7.29Zm65-67.18,7.54,8,12.09-7.46-8-7.74ZM954.07,478l-11.66,7.17c2.14,3.19,4.12,6.14,6.16,9.2l11.89-7.23Zm34.56-34.82,6.86,8.54,12.11-7.43-7.11-8.39Zm-163.16,127,.22-.34-20-28.63c-1.86-.36-2.95.6-4.24,1.64l19,27Zm193.4-159.12,7.29,8,12.16-7.49-7.49-7.91Zm-36.07,48.4,12-7.38-6.86-8.52-11.78,7.27Zm-41.1,26.09-11.54,7.13,5.94,9.17,11.76-7.12Zm33.75-34.3-11.57,7.15,6.44,8.73,11.8-7.23Zm-40,51c-2.06-3.17-4-6.11-5.95-9.19l-11.46,7,5.73,9.31Zm-18.11-1.8-11.36,6.95,5.54,9.42L923,509.77ZM1043,395.1l-7.66-7.47-11.6,7.26,7.26,7.67ZM959.69,461l-11.52,7.12,6.14,8.75,11.74-7.18ZM894,514.77l5.33,9.48,11.46-7c-1.9-3.26-3.67-6.27-5.51-9.43Zm129-119.45-11.75,7.36,7.06,7.79,12-7.45Zm-87,80.26,6,8.86,11.64-7.13-6.16-8.78ZM924,483l5.75,9,11.53-7.13L935.32,476C931.48,478.37,927.84,480.62,924,483ZM898.6,524.64l-5.31-9.43-11.15,6.84,5.13,9.47Zm19-25.27,11.45-7c-2-3.09-3.82-6-5.74-9l-11.24,7Zm-6.23-8.53-11.13,6.86c1.81,3.09,3.53,6,5.32,9l11.34-6.94Zm116-111-11.25,7.1,7,7.4,11.67-7.3ZM899.5,498.09l-11,6.82,5.13,9.14,11.25-6.88Zm104.4-103.51,6.81,7.49,11.74-7.34-7-7.39ZM876.82,512.11l4.93,9.25,11.15-6.88c-1.78-3.17-3.43-6.1-5.15-9.14Zm131.95-133,6.81,7.15,11.44-7.2-7-7.05ZM883.09,495.41c1.71,3,3.31,5.85,5,8.8l11-6.79-5.15-8.74Zm125-115.84-11.29,7.18,6.57,7.23,11.49-7.24C1012.5,384.24,1010.36,382,1008.08,379.57ZM871.63,502.48l4.8,8.9,10.94-6.74c-1.7-3-3.28-5.8-5-8.8Zm124.45-115.3-11.21,7.1,6.39,7.32,11.4-7.19ZM834.53,461.6l18.39,28.17,1.89-4-17.93-27.58C836,459.45,835.29,460.49,834.53,461.6Zm53.26,77.89c-.24.9-.37,1.49-.57,2a5.07,5.07,0,0,0,.87,4.83c5.89,8.85,11.66,17.78,17.47,26.67.32.5.68,1,1.26,1.81a27.2,27.2,0,0,1,.38-2.84,5.36,5.36,0,0,0-1.09-4.51c-5.75-8.74-11.43-17.53-17.13-26.3C888.66,540.71,888.31,540.24,887.79,539.49Zm85.27-137.72c2.18,2.61,4.17,5,6.23,7.43L990.57,402l-6.38-7.29Zm35.16-23.24,11.28-7.15-7.07-6.66-10.78,6.89ZM888.53,479.46l-10.66,6.67,4.82,8.59L893.54,488Zm78.83-62.82,11.21-7-6.2-7.41-11,7C963.41,411.77,965.29,414.1,967.36,416.64Zm-189.24,169-10.19,6.24c1.09,3.39,2.15,6.66,3.28,10.15l10.35-6.38ZM996.23,386.14l11.29-7.16-6.57-6.92-11.1,7.07Zm-236,222.58,10.28-6.21c-1.1-3.39-2.15-6.65-3.28-10.14l-10.12,6.2ZM949.74,416.56c2,2.59,3.85,5,5.81,7.53,3.75-2.35,7.35-4.63,11.12-7l-6-7.4Zm-63.1,198.05,12.67-8.79-4.45-6.6L882.17,608Zm-107.8-29.37c1.17,3.38,2.28,6.6,3.46,10l10.17-6.2-3.6-10ZM882,495.13c-1.64-2.9-3.18-5.65-4.81-8.54l-10.56,6.64,4.64,8.54ZM984.35,393.67l11.19-7.1-6.38-7-11,7C980.27,389,982.24,391.27,984.35,393.67Zm-29.48,30.86L949.05,417l-10.73,6.81,5.62,7.6ZM759.46,609.15l-3.11-10.1-10,6.13c1,3.4,1.94,6.64,3,10.14ZM934.38,426.29l-10.73,6.86,5.39,7.68L939.93,434Zm32.3-32.37a78.12,78.12,0,0,0,6,7.18l11-7L977.46,387Zm-.81.51-10.8,6.93,5.79,7.26,11-7ZM748.55,615.78c-1-3.42-1.94-6.66-2.95-10.14l-9.93,6c.93,3.44,1.82,6.7,2.78,10.22ZM883.28,470.55l-10.44,6.63c1.63,2.85,3,5.54,4.7,8.22l10.58-6.64Zm45.05-29.31L923,433.58l-10.61,6.73c1.79,2.68,3.45,5.15,5.19,7.73ZM725.08,618.14c.9,3.49,1.75,6.8,2.66,10.31l10-6.12-2.77-10.2Zm49.43-42.91-10,6.17,3.17,9.74,10.19-6.25C776.72,581.6,775.66,578.56,774.51,575.23ZM960.17,409.05l-5.82-7.26-10.71,6.91,5.61,7.21Zm-88,68.55-10.37,6.52c1.52,2.85,3,5.53,4.49,8.39l10.54-6.67C875.16,483,873.69,480.37,872.13,477.6Zm-147.78,141-9.77,6c.83,3.45,1.63,6.78,2.48,10.37l9.91-6Zm39.42-36.78-9.94,6.13c1,3.34,2,6.46,3,9.82l10.09-6.18Zm21.33-13.14-9.86,6.13,3.34,9.64,10-6.07Zm121-113.44,10.75-6.77c-1.92-2.62-3.34-5.26-5.4-7.64l-10.38,6.59C902.83,450.11,904.43,452.58,906.13,455.23ZM743.25,594.47c1,3.36,1.89,6.53,2.87,9.91l10-6.17c-1-3.3-2-6.45-3-9.82ZM890,454.46c1.63,2.66,3.19,5.23,4.85,8l10.62-6.77-5-7.8Zm53-45.33-10.53,6.68,5.43,7.35,10.72-6.8Zm-48.82,53.7c-1.68-2.72-3.24-5.26-4.89-7.92l-10.34,6.62,4.69,7.94Zm29.07-30.37,10.71-6.82-5.4-7.36L918,425ZM745.37,604.82c-1-3.33-1.87-6.51-2.86-9.92C739.1,597,736,599,732.75,601c.92,3.35,1.79,6.49,2.71,9.85ZM922.52,432.91l-5.22-7.47-10.47,6.69c1.75,2.61,3.39,5,5.06,7.53ZM881.14,631.42,872.67,622l-10.21,2.19,8.82,9.12Zm-19.71-126c6.07,9.26,11.85,18.36,18.09,27.6.31-1,.43-1.66.67-2.22a4.09,4.09,0,0,0-.66-4.19c-4.7-7.1-9.3-14.25-13.94-21.38-.36-.54-.74-1.07-1.19-1.71Zm-168.31,144,9.71-5.89c-.75-3.45-1.48-6.78-2.26-10.35L691,639C691.71,642.48,692.38,645.8,693.12,649.44Zm31.76-32.11,9.84-6c-.9-3.27-1.77-6.45-2.71-9.86l-9.65,6C723.2,610.73,724,613.89,724.88,617.33ZM873,621.07l13-6.08-4.49-6.57-13,6.15Zm-5-152.59,4.52,8,10.41-6.58L878.19,462ZM682.74,655.76l9.62-5.87-2.11-10.43-9.47,5.8Zm98.69-97.23-9.68,6c1.08,3.16,2.11,6.19,3.22,9.47l9.83-6.14C783.68,564.74,782.6,561.77,781.43,558.53Zm85.8-89.66L857,475.35c1.48,2.76,2.86,5.34,4.34,8.07l10.35-6.53Zm33.43-22.14,10.52-6.67-5-7.48-10.35,6.61C897.47,441.76,899,444.14,900.66,446.73Zm-186.27,177,9.77-6-2.58-9.94L712,613.74C712.81,617.09,713.55,620.22,714.39,623.75Zm-34.38,22-9.4,5.76c.61,3.51,1.19,6.88,1.83,10.55l9.54-5.79C681.32,652.76,680.7,649.43,680,645.73ZM889.54,453.79,900,447.14l-4.85-7.51-10.28,6.51C886.43,448.74,887.91,451.15,889.54,453.79ZM713,637.38l-2.43-10.3-9.22,5.67c.76,3.44,1.5,6.76,2.29,10.32Zm-52.4,20.31c.53,3.58,1,6.95,1.72,10.48l9.38-5.7L669.84,652Zm223.58-211.1-10.2,6.5c1.59,2.68,3,5.15,4.56,7.72l10.32-6.61ZM700.39,632.37l-2.2-10.12-9.4,5.84c.68,3.32,1.34,6.56,2.05,10.06ZM899.7,605l9.94-9.84-4.12-6.23-10,9.8ZM873.27,453.53,863.14,460l4.38,7.79,10.27-6.52ZM650.54,663.81c.51,3.5,1,6.88,1.53,10.57l9.37-5.7-1.69-10.5Zm-.78.44-9.19,5.63c.62,3.48.71,7,1.59,10.56l9.13-5.58C650.79,671.41,650.31,668.06,649.76,664.25ZM771.48,563.77l9.67-6c-1.11-3.06-2.16-5.91-3.28-9l-9.52,5.89Zm-81.39,74.85-2.07-10-9.29,5.76c.63,3.38,1.23,6.59,1.89,10.09ZM856.6,474.5c3.36-1.68,9.27-5.61,10-6.67l-4.17-7.36-10,6.4ZM678,634.78l-9.25,5.66,1.76,10.2,9.38-5.75Zm21-13c.73,3.37,1.43,6.61,2.2,10.12l9.23-5.7c-.81-3.44-1.57-6.59-2.38-10Zm-29.23,29.29-1.79-10.16-9.16,5.66,1.65,10.24Zm-10.07,6.22c-.65-3.43-.87-6.74-1.79-10.17l-8.94,5.52,1.5,10.29C653.66,661,656.59,659.18,659.65,657.3ZM921,598.71c-1.59-3.91-3.15-7.76-4.85-12-1.67,2.73-3.08,5.14-4.58,7.48a2.41,2.41,0,0,0-.15,2.64c1.41,2.86,2.73,5.76,4.1,8.64a14.12,14.12,0,0,0,.81,1.27ZM768.08,553.87l9.51-5.9-3.18-8.84-9.35,6C766.05,548,767,550.75,768.08,553.87ZM649.63,663.39l-1.49-10.24-9,5.59L640.5,669ZM754.55,550.74l9.53-6c-1-2.89-1.92-5.61-3-8.6l-9.38,6C752.7,545,753.58,547.73,754.55,550.74Zm-96.7,95.46a92.58,92.58,0,0,0-1.71-9.84l-8.79,5.5,1.46,9.91ZM648,652.26a91,91,0,0,0-1.56-9.86l-8.7,5.4,1.32,10.05ZM761.85,535.71c1,2.91,1.95,5.62,3,8.54l9.32-5.89c-1-2.83-2-5.56-3.08-8.51ZM741.73,548.5l2.69,8.59,9.41-5.92L751,542.59ZM741,549l-9.22,5.8c.85,2.92,1.64,5.68,2.51,8.68l9.37-5.89C742.79,554.69,741.94,552,741,549Zm-7.43,14.94c-.86-2.94-1.65-5.7-2.52-8.69L721.92,561c.89,3,1.39,5.8,2.54,8.64Zm15.21-31c.91,2.8,1.77,5.47,2.7,8.36l9.37-5.94c-1-2.8-1.88-5.45-2.86-8.29Zm-25.22,37.29c-.81-3-1.56-5.71-2.4-8.75l-9.06,5.74,2.26,8.82Zm-67.46,65.21c-.46-3.22-.81-6.33-1.6-9.57l-8.67,5.48,1.4,9.58Zm82.81-96.2c.87,2.84,1.69,5.52,2.58,8.45l9.28-5.94-2.72-8.34Zm-34.42,43,9.12-5.68-2.25-8.86-9,5.78C703.11,576.4,703.78,579.18,704.51,582.22Zm-68.16,55c.5,3.26.61,6.36,1.44,9.57l8.68-5.41-1.41-9.58Zm122.4-110.64c1,2.79,1.85,5.44,2.83,8.3l9.21-5.84-3-8.18Zm-29.63,19c.85,2.87,1.62,5.51,2.46,8.37l9.19-5.78c-.85-2.82-1.67-5.5-2.56-8.46Zm179.93,79.75c-.85-2.41-1.68-4.73-2.57-7.24l-11.1,7.73,5.44,5.31ZM728.39,546l-9,5.73,2.29,8.45,9.13-5.8C730,551.54,729.24,548.93,728.39,546ZM691.3,590.55l-2-8.87-8.78,5.56c.59,3,1,5.88,1.89,8.89Zm-36.79,34.38L653,615.6l-8.66,5.47,1.38,9.38Zm64.18-72.76-9,5.73,2.2,8.5,9-5.73C720.21,557.9,719.5,555.23,718.69,552.17ZM671,593.28l1.69,9,8.86-5.64-1.8-8.92ZM700.16,564l2.05,8.61,8.94-5.73a82.64,82.64,0,0,0-2.27-8.44Zm-55.24,67a86.9,86.9,0,0,0-1.48-9.33L635,627l1.24,9.42Zm25.35-37.22-8.67,5.51,1.56,9.05,8.79-5.54Zm28.33-17.91-8.47,5.36,1.9,8.88,8.65-5.45C700,581.74,699.34,579,698.6,575.85Zm-44.93,38.41,8.73-5.53-1.59-8.93-8.57,5.44C652.72,608.23,653.17,611.08,653.67,614.26Zm-9.39,5.91,8.64-5.44-1.48-9-8.53,5.37Zm43-47.92-8.69,5.55c.6,2.9,1.16,5.6,1.78,8.61l8.79-5.58C688.54,578,688,575.31,687.29,572.25Zm-9.43,6-8.63,5.48,1.65,8.68,8.72-5.54C679,584,678.48,581.36,677.86,578.27Zm-34.37,42.4-1.35-9.07L633.7,617l1.2,9.13Zm223-121.54L828.16,523l.44.88c.1.21.2.41.36.72l38.5-24C867.09,500.07,866.85,499.71,866.46,499.13ZM670.12,592.91l-1.66-8.68L660,589.65c.5,2.92,1,5.68,1.49,8.76Zm19.8-12.51,8.5-5.4c-.68-2.87-1.32-5.6-2-8.61L688,571.76ZM660.7,598.93c-.51-2.9-1-5.68-1.54-8.77l-8.48,5.43,1.44,8.77ZM649.93,596l-8.4,5.44,1.28,8.73,8.51-5.33Zm-9.17,5.89-8.34,5.36,1.2,8.77,8.4-5.34ZM861.4,623.58l10.72-2.3-4.43-6.42L857,617.28ZM783,553.29l37.07-23.19-1.19-1.34-37,23.17C782.31,552.46,782.58,552.78,783,553.29Zm108,82.36c2.89-1.3,5.76-2.46,8.55-3.9l-5.35-5.2-10.84,5,0,.39Zm18.67-11.22c1.74-1.65,3.21-3.18,4.83-4.53a4.65,4.65,0,0,0,1.75-4.55c-.25-2-.28-4.05-.41-6.08l-.35-.13-8.27,8.4C908,619.94,908.81,622.13,909.62,624.43Zm2-44.95-5.52,8.77,4.29,6.46,5.39-8.88ZM776.18,494.76l.17.44c2.54.14,5.08.33,7.63.42a4.24,4.24,0,0,0,4.07-5.26c-1.33-.4-2.7-.85-4.1-1.2a1.64,1.64,0,0,0-1.26.16C780.49,491.1,778.34,492.94,776.18,494.76ZM826.91,461l-.35-.3-6.9,3.69a3.06,3.06,0,0,0-.86.51,1.83,1.83,0,0,0-.59.94c-.13,1.25-.17,2.5-.25,3.68,2.48.87,3.4.93,5.27.23a2.13,2.13,0,0,0,1.2-1C825.32,466.13,826.1,463.53,826.91,461Zm8.63,55.68,6.66-4.25-3.51-5.21c-2.14,1.74-4.08,3.3-6.14,5ZM889.15,636l.05-.28c-1.79-.87-3.61-1.7-5.36-2.64a5.16,5.16,0,0,0-4-.59c-2.08.54-4.22.86-6.51,1.3.3.27.4.43.54.47,2.75.92,5.51,1.83,8.27,2.71a2.68,2.68,0,0,0,1.16.08C885.26,636.68,887.21,636.32,889.15,636ZM800.21,478.05l3.1,6.55,5.24-3.6-5-5.22Zm2.41,7-3.11-6.59-3.38,2.09c.4,2.65.78,5.14,1.21,8Zm36.76,21.6,3.56,5.28,4.63-2.9-4-6Zm-31.87-33.83-2.75,2.09,5,5.27,5-3.45ZM917,616l.42,0c1.47-2.57,3.23-5,3.1-8.25-.08-2.18.24-4.38.38-6.57a59.79,59.79,0,0,0-4,6.37,1.57,1.57,0,0,0-.18.8C916.78,610.88,916.88,613.42,917,616Zm-83.6-158.13a24.36,24.36,0,0,0-5.07,2,.69.69,0,0,0-.27.4c-.86,2.67-1.71,5.35-2.65,8.28C829.36,465.74,832.32,462.64,833.38,457.83ZM850.3,616.22l-.28.34c1.18,1.67,2.36,3.35,3.56,5a1.32,1.32,0,0,0,.68.45c1.82.44,3.65.85,5.47,1.26L860,623c-1.24-1.76-2.47-3.52-3.75-5.26a1.57,1.57,0,0,0-.87-.44C853.67,616.89,852,616.56,850.3,616.22ZM819,526.82l-3-4.22-5.23,2.72,3.23,4.67Zm43.55,25.48-12,8.26c.48.63.82,1.09,1.23,1.61L863.69,554ZM857,570.14l12-8.32-1-1.66-12.1,8.35Zm-64.47-78.75,4-2.41c-.38-2.66-.74-5.17-1.1-7.71-2.31.57-2.5.8-2.6,2.79-.08,1.68-.2,3.35-.28,5C792.5,489.72,792.53,490.37,792.53,491.39Zm48.05,29.46c-1.78-.58-3.13-.78-4.53.27-1.66,1.23-3.45,2.27-5.18,3.41-1.52,1-1.71,1.57-1.16,3.68Zm-57.2-24.48c-2.82-.13-5.26-.25-7.7-.34a1.45,1.45,0,0,0-.95.2c-1.12,1.11-2.18,2.27-3.41,3.57A16.66,16.66,0,0,0,783.38,496.37Zm32.1-20.18,3.54-2.74-8.9-2.84-1.88,1.71ZM917.4,581.26l-.35.08c-.13,1.86-.71,3.71.06,5.58,1.15,2.78,2.25,5.57,3.39,8.36a9.74,9.74,0,0,0,.74,1.17c0-2,.36-3.65-.08-5.07C920.11,588,918.68,584.62,917.4,581.26Zm-89-55.09c-4.12,2.07-8.11,4.14-10.37,8.73l8.79-4.9C828.6,529,828.75,528.65,828.38,526.17Zm22.54,36.49-1.18-1.61-11.94,6.23,1.29,1.56Zm39.69,33.07c-3.53,2.49-6.94,4.87-10.37,7.28a9.27,9.27,0,0,0,.47.89,8.47,8.47,0,0,0,.65.78l10.42-7.27a10,10,0,0,0-.47-.91A7.57,7.57,0,0,0,890.61,595.73Zm-46.31-19,12-6.15L855,569l-12,6.28Zm20.12-23.32,9.71-8.67-1-1.7c-3.34,3-6.53,5.79-9.79,8.7Zm48.54,20-.45.09c-.15,1.59-.31,3.18-.44,4.78a1.1,1.1,0,0,0,.15.64q1.65,2.57,3.32,5.11l.39-.13c.1-1.14.25-2.29.29-3.43a4.77,4.77,0,0,0-.25-2.28C915.08,576.52,914,575,913,573.39Zm-34.45-22.58c-3.33,3-6.53,5.87-9.74,8.74.22.43.35.68.46.93s.24.51.41.89l9.83-8.92Zm14,47.11c-3.45,2.4-6.74,4.7-10,7-.78.54-.89,1.18-.31,2.18l12-8.31ZM881,607.74c-.08-.59-.14-1.06-.22-1.66-.45.15-.78.21-1.07.34-2.92,1.38-5.83,2.79-8.78,4.13-1.19.54-1.64,1.48-2,2.89Zm22.56-18.87a3.67,3.67,0,0,0-2.93,1.11c-2.17,2.17-4.39,4.29-6.57,6.44a8,8,0,0,0-.72,1l1.64.74ZM857.7,616.29l9.88-2.24,1.25-2.67c-2.58.59-4.77,1.21-7,1.57C859.87,613.25,858.9,614.54,857.7,616.29Zm8.56-57.81-11.43,7.87.77,1.38,11.9-8.19Zm-7.43,55c-4.41-1.65-6.38-1.22-8.74,1.83l6.08,1.24Zm43.56-25.57a3.37,3.37,0,0,0,4.17-1.93c.88-1.67,2-3.21,3-4.82.24-.39.44-.81.65-1.21l-.25-.28c-1.11.55-2.56.83-3.27,1.71A71.59,71.59,0,0,0,902.39,587.93Zm-32.6,22.3,10.7-5.05-1.07-1.59-10.7,5.11Zm41.39-31.77c.19-2,.36-3.85.57-6.11l-4,2.38c-.21,1.74-.41,3.36-.64,5.28ZM833,508.79,821.15,517a2.07,2.07,0,0,0,2.73.09q4-2.81,8-5.5A2.52,2.52,0,0,0,833,508.79Zm28-10.09-2.11-1.22L855.59,500l-5.5,4.11c-.55.4-1,.8,0,1.48Zm31.6,98.16,8-8.61-.78-1L892,595.67l-.46-.33ZM854,566.81l-11.55,6,.48,1.53,11.63-6Zm22.32-17.27L867,557.9l1.29,1,9.62-8.66Zm-52.6-30.29c-3.77,1-5.06,3.41-3.74,7,.82-.5,1.65-.94,2.4-1.49a1.85,1.85,0,0,0,.71-1C823.39,522.25,823.55,520.77,823.76,519.25Zm.28,4.09.4.33c1-.77,2.36-1.34,2.86-2.35a24.23,24.23,0,0,0,1.32-5.09l-.37-.28c-1.07.74-2.15,1.46-3.2,2.23a1.23,1.23,0,0,0-.35.73C824.46,520.38,824.25,521.86,824,523.34Zm12.9,44.31-9.54,3.15,1.36,1.48,9.37-3.12ZM833.79,580l9.58-3-1.26-1.43-9.57,3Zm16.38-67.09-.28-.39-11.07,6.9c1.79.55,3,.66,4.24-.47s2.58-2.16,3.86-3.24C848,514.81,849.09,513.86,850.17,512.93Zm-8.51,60.21c-3,1-5.8,1.8-8.57,2.72-.81.27-.79.95-.38,1.84l9.17-2.85ZM874.77,544c2-2.57,3.81-4.92,5.7-7.36l-.9-1.66-5.73,7.32ZM807.5,526.63l3.63,5.18,2.15-1.5c-1.18-1.69-2.25-3.21-3.36-4.78Zm75,15L877,548.88l1.67.6,5.67-7.53Zm187.9-122.21-8.21-8.1-1,.67c2.68,2.62,5.22,5.12,7.76,7.62C1069.39,420.08,1069.83,420.17,1070.38,419.41ZM885.78,544.18c-.31-.56-.53-1-.88-1.61-1.81,2.41-3.52,4.66-5.21,6.92-.6.8-.22,1.41.55,2.08Zm-29-46.13c-4-.08-6.48,2-8.75,4.76l.85,1.13Zm-12.68,4.34,4,6c.67-.94,1.33-1.68.8-2.6-1-1.66-2.08-3.23-3.24-5ZM792,483l-.43-.07c-.83.88-2.08,7.65-1.8,10.1l1.78-1.13C791.74,488.83,791.89,485.91,792,483Zm260.83-81.4c-2.4-2.4-4.81-4.84-7.28-7.23-.17-.17-.74.07-1.13.13l-.19.54,7,6.71C1051.73,402.2,1052.21,402.56,1052.87,401.59Zm-8.64-7.83.23-.47c-.28-.33-.53-.69-.83-1-1.88-1.91-3.76-3.8-5.65-5.69-.48-.48-1-1-1.66,0,2.28,2.3,4.54,4.6,6.84,6.86C1043.38,393.72,1043.86,393.68,1044.23,393.76ZM788.6,489.64c.34-1.83.64-3.51.95-5.18l-.37-.16-5,3.74.15.39Zm264.3-86.88-.14.54,7.17,7.27c.51.51,1,.67,1.56-.23-2.45-2.48-4.9-5-7.4-7.45C1053.87,402.67,1053.31,402.8,1052.9,402.76Zm-78.61,75.4.27-.53c-2-2.73-4-5.48-6.07-8.18-.18-.24-.73-.21-1.1-.31l-.26.42c2,2.78,4.06,5.57,6.13,8.32C973.43,478.11,973.94,478.08,974.29,478.16Zm1.77-1.11.23-.52c-1.06-1.43-2.11-2.86-3.17-4.28s-2.18-2.91-3.32-4.42l-1,.65c2.09,2.83,4.12,5.6,6.21,8.34C975.2,477,975.71,477,976.06,477.05ZM854.14,565.41c.34,0,.54,0,.65-.06q5.26-3.57,10.48-7.2c.19-.13.2-.5.33-.87C863.69,557.83,854.65,564.21,854.14,565.41ZM821.07,472l-.19-.55c-3-.68-6-1.37-9.08-2-.21-.05-.49.21-.73.33a62,62,0,0,0,8.38,3C819.89,472.8,820.52,472.22,821.07,472ZM960.26,460.2l6.35,8.68,1-.69-6.41-8.72Zm8.7,7.22.18-.51-6.26-8.49-.94.73c2,2.73,4,5.42,6,8.06C968.09,467.42,968.61,467.36,969,467.42ZM834.78,517l-3-4.51-2,1.55C830.93,516.63,832.73,517.77,834.78,517ZM842,571.63c.3,0,.6.21.76.13,3.61-1.89,7.28-3.66,10.75-5.86a1.18,1.18,0,0,0-.92-.24C850.54,566.35,842.63,570.78,842,571.63Zm17.59,39.79-.12.54c.44.15.93.51,1.32.43,2.51-.54,5-1.16,7.48-1.77a1.91,1.91,0,0,0,.5-.3l-.82-1ZM1028.72,378.2l-.18.55c2.2,2.22,4.37,4.45,6.6,6.63.2.19.76,0,1.14,0l.11-.41c-2.2-2.2-4.39-4.42-6.62-6.6C1029.56,378.19,1029.08,378.26,1028.72,378.2Zm-168,122.17-.3-.31c-.47.27-1,.52-1.41.81-2.88,1.8-5.77,3.6-8.63,5.43-.32.2-.47.66-.75,1.07.3,0,.43.09.49.05,3.23-2,6.45-4,9.65-6A4.86,4.86,0,0,0,860.76,500.37ZM848.94,614.86l3.6-2.94L847,610.4l-.19.34C847.47,612,848.13,613.29,848.94,614.86ZM866.33,557c.25,0,.4,0,.46,0q4.26-3.75,8.48-7.55c.18-.16.19-.53.31-.91C873.78,549.17,866.6,555.77,866.33,557Zm14.9-34.63h-.47c-.09.28-.29.58-.24.82.29,1.26,4.39,8.18,5.37,8.5A79.56,79.56,0,0,0,881.23,522.32Zm-1.6-.57c1.23-.27.86-.83.61-1.32-1.33-2.5-2.68-5-4-7.5a5,5,0,0,0-.57-.67c-.22.23-.51.45-.48.52C876.64,515.8,878.15,518.8,879.63,521.75Zm-80.27,17c1.4-.21,2.48-1.15,3.67-1.85s2.59-1.55,3.83-2.39,2.46-1.28,3.28-2.42C808.88,532.1,800.49,537.23,799.36,538.71Zm221.69-168.08-.16.37c2.14,2.16,4.27,4.33,6.45,6.45.2.2.69.1,1.05.14l.19-.43c-2.18-2.19-4.36-4.39-6.58-6.55C1021.84,370.45,1021.37,370.62,1021.05,370.63Zm-7.32-7.48-.21.41c2.11,2.11,4.21,4.23,6.36,6.3.15.15.62,0,.94,0l.13-.36c-2.08-2.09-4.15-4.18-6.26-6.23C1014.51,363.06,1014.06,363.17,1013.73,363.15Zm-143,139.48-.56.19c0,.29-.14.65,0,.87A92.74,92.74,0,0,0,874.7,512c.26-.46.49-.7.44-.8C873.68,508.31,872.19,505.47,870.71,502.63Zm-44.5,73.09-.42,1.84,5.47.42.32-1.82Zm-33,12.12.39,0a4.4,4.4,0,0,0-.1-1.16c-1.09-2.9-2-5.89-3.45-9C789.59,579,792,586.1,793.17,587.84ZM940.37,433c1.06-.78.4-1.25.1-1.7-3.5-5.16-4.33-6.08-5.69-6Zm2.15-1.28.29-.44c-1.74-2.34-3.48-4.69-5.26-7-.12-.14-.58,0-1.25,0,1.92,2.61,3.58,4.89,5.29,7.14C941.76,431.57,942.21,431.57,942.52,431.68Zm-41.86,155,.82,1.13c1.46-2.3,2.82-4.39,4.12-6.52a3.32,3.32,0,0,0,.17-1.25l-.46-.15ZM865.6,493.39l-.39.14c-.05.23-.23.53-.14.7,1.35,2.7,2.79,5.35,4.43,8.32.29-.65.53-.94.46-1.08C868.63,498.71,867.16,496,865.6,493.39Zm-76,83.94c.32-1.38-.43-2.37-.74-3.41s-.79-2.33-1.26-3.47-.51-2.18-1.55-3.15C785.9,569,788.43,576.07,789.57,577.33ZM930.85,416.14c0,.2-.1.34-.06.41,1.58,2.21,3.16,4.43,4.78,6.62.14.19.58.17.88.24l.3-.42c-1.77-2.31-3.54-4.63-5.34-6.92C931.35,416,931,416.11,930.85,416.14Zm4,8.26.32-.38c-1.71-2.35-3.34-4.75-5.25-7-.06-.07-.44.13-.81.25.35.54.59,1,.88,1.36,1.31,1.8,2.62,3.6,4,5.37C934.09,424.26,934.51,424.29,934.81,424.4Zm-50,116.67,1-5-1.84.08c-.35,1.6-.68,3.08-1,4.64Zm-24.25-56.66c-.25,1.27,2.83,7.28,4.16,8.46.1-.28.31-.58.24-.73A54.19,54.19,0,0,0,860.54,484.41Zm47.57,89.15,3.48-2.06-3.48-3ZM782.53,557.44l-.47.14c.33,1,.64,2,1,3s.75,2.22,1.21,3.3c.4.92.41,2.08,1.49,2.92C785.8,565.2,783.48,558.68,782.53,557.44Zm73.08-82.05c-.33,1.41.59,2.14,1,3a21.34,21.34,0,0,0,1.49,2.79c.52.84.67,2,1.74,2.53C860,482.57,857.24,477,855.61,475.39ZM908.17,627l-6.37,4.44C904,631.91,907.68,629.42,908.17,627Zm-54.89-63.35.34.49,11.09-7.64-.34-.49ZM711.59,626a37,37,0,0,0,2.3,10.05A37.34,37.34,0,0,0,711.59,626Zm3.64,9.17c.42-1.43-1.45-9.12-2.4-10A60.17,60.17,0,0,0,715.23,635.21Zm97.87-167,.17.42,3.75.76v-3.57ZM851.51,467l-.36.16c-.13.85,2,5.53,3.39,7.33.14.18.49.21.75.31l.29-.28ZM781.75,556.5c.5-1.29-1.9-8-3.12-8.75A62.42,62.42,0,0,0,781.75,556.5ZM832.26,575a53,53,0,0,0,8.88-2.72C840.09,571.78,833.75,573.64,832.26,575Zm9-5,.27.51,10.89-5.65-.27-.52ZM710.6,614.32c-.45,1.38,1.36,8.84,2.47,9.91A71.76,71.76,0,0,0,710.6,614.32Zm67.8-67.63c.3-1.19-2.07-7.79-3.09-8.59C775.21,539.38,777.5,545.75,778.4,546.69ZM711,624.86l.63-.16c-.79-3.15-1.29-6.38-2.63-9.4A56.39,56.39,0,0,0,711,624.86Zm332.27-187.11c2.28-.6,11.34-6.26,12.16-7.42Zm13.32-8.14.29.37,12-7.29-.25-.4ZM772.16,528.78c-.33,1.44,1.92,7.51,3.14,8.4A51.56,51.56,0,0,0,772.16,528.78Zm102.46,19-.4-.4-8.85,7.9.37.4Zm7-6.82c-1.7,1.08-5.17,5.84-5.34,7.36A41.49,41.49,0,0,0,881.58,540.91Zm148.47-95.18.23.38L1042.1,439l-.23-.37Zm-13.14,8,.26.37,11.71-7.11-.23-.39Zm-377.63,217-.62.11,1.29,9.89.6-.08ZM1015.67,455l-.19-.4-11.68,7.16.23.37ZM769.09,519.73l-.36.1c-.16,1.43,2,7.15,3.21,7.7ZM1002.62,463l-.23-.37-11.56,7,.22.35ZM863.93,555.3l-.29-.34-11.13,7.67.25.36Zm-40.8-29.14-3.37,2.12,1.08,1.34,3.28-2Zm-1.42,44.67c.75,1.41,3.24,1.82,5.6,1C825.56,570.29,823.51,571.26,821.71,570.83Zm2.17-45.15L825,527l3.3-2.09-1.1-1.3ZM978.07,477.3l.19.39,11.33-6.88-.22-.37ZM637.81,659.43l-.59.1,1.27,9.71.59-.08ZM973.34,480.68l-.23-.37-11.19,6.81.23.35Zm-12.72,7.76-.24-.35-11.11,6.75.22.36Zm-258.08,94,.65-.12-2-8.29-.62.14ZM699.93,575l-.38.08c-.1,1.77,1.32,7.39,2.32,8.16Zm-63.51,73.69-.51.07c.28,3,.62,6.09,1.15,9.11l.53-.07ZM948.16,496l-.21-.35-11.07,6.71.21.34Zm-23.55,13.81.18.37,10.9-6.62-.22-.35Zm-92.5,69.91c-1.65-1.5-3.69-.81-5.58-1C828.19,580,830.16,579.78,832.11,579.69ZM923.35,511l-.21-.34-10.88,6.66.21.34ZM699,564.56l-.57.12,1.92,8.19.61-.14C700.33,570,699.71,567.26,699,564.56ZM635,638l-.55.07,1.15,9,.55-.06ZM900.18,524.65l.21.34L911,518.54l-.21-.35Zm-202.5,40.67-.63.16q1,4.08,1.93,8.16l.61-.15C699,570.77,698.32,568.05,697.68,565.32Zm201.19-39.45-.21-.34L888,532l.2.33Zm-47.45,37.89-.2-.34-10.82,5.64a1.13,1.13,0,0,0,1-.08Zm-217.7,64.09-.55,0,1.13,8.68.53-.07Zm-.75-1.67.53-.08-1.11-8.37-.5.06ZM840,571.07l-.16-.5-8.5,2.75.15.46ZM631.14,608l-.49.06,1,8,.49-.06Zm249.64-73.14c.4-1.49,1.46-2.91.6-4.54C880.93,531.81,879.87,533.2,880.78,534.87Zm-51.23-19-1.16,5A3.86,3.86,0,0,0,829.55,515.88Zm45.82,30.26.38.32,5-6.62-.37-.28Zm-56.91-21.6.34-.17V521l-2,1.13ZM901.4,632.86l-.18-.53c-2,.15-3.6,1.37-5.42,2l.17.44ZM886,542.22c.34-1.53,1.36-3,.48-4.59C886.34,539.17,885.18,540.6,886,542.22ZM808.1,529.06l-.8-1c-.87,1-1.67,1.82-2.5,2.74Zm18.11,45.37v.42a22.08,22.08,0,0,0,4.51.31v-.4ZM771,500.94l.11.66a8,8,0,0,0,3.61-1.14Zm53.77,75.31.38-.15c.29-1.08-.32-1.7-1.09-2.23l-.33.16Zm58.38-40.38-.35-.07-.82,3.6.35.08C882.61,538.28,882.88,537.07,883.16,535.87Zm-53.63,38,0-.31-3.62-.2v.18Zm53.65-43.1-.37.09c.12.63-.6,1.53.89,2.06Zm-36.11-29.47.44.58,1.58-1.34-.21-.3Zm-47.3-25.5.35.52,1.25-.91-.29-.44ZM799.1,477l-.26-.41-1.15.75.25.38Zm4.28-2.95-.27-.35-1.05.77.29.39ZM1070,421.59l.16.22.68-.52-.16-.21Zm-95.88,58.22c.51-.07.67-.05.77-.12s.16-.23.24-.34l-.17-.14Zm2.13-1.32.13.23.52-.31-.12-.22Zm-172.08-5.37.72-.14-.27-.27ZM886.33,533l.23.23.28-.25-.17-.18Zm20.1,45.51-.34.13.15.28ZM881.5,537.14l0,.14.06-.11Zm-19.66-37.23,0,.13.12-.06Zm20.42,34.55-.09,0,.05.1ZM716.76,636.27h-.21s.07.07.1.07S716.73,636.29,716.76,636.27Zm165.08-100.4.09,0,0-.1ZM715.22,637.28l.08-.13-.21.08Z"></path><path class="cls-25" d="M975.47,419.47l2.15,2.88L922.06,457l-.59-.95-1.4-2Z"></path><path class="cls-25" d="M990.19,420.48c-.16-1.56-.31-3.12-.48-4.67s-.35-3.1-.55-4.81l3.36-2.12,8.87,12.31-3.31,2.07-4.65-6.41c.21,2.56.39,4.82.57,7-1.53,1.42-1.6,1.44-3.17.7a47.76,47.76,0,0,0-5.26-2.24l7.33,10.27-3.33,2.07-11.83-16.54,3.41-2.15,9.05,4.52Z"></path><path class="cls-25" d="M905.09,475c2.38,0,3.68,1.59,5.3,3.1l-3.32,2.1a11.65,11.65,0,0,1-1.13-.74c-2.31-1.85-2.83-1.85-5.33.29l5,7.13-3.24,2.1-11.74-16.4a8,8,0,0,1,1-.84c2.16-1.29,4.26-2.71,6.52-3.78,2.94-1.39,5.73-.23,7.21,2.61A4.72,4.72,0,0,1,905.09,475Zm-9.31-1.93,2.69,3.74c.43-.21.68-.31.92-.45.48-.29,1-.58,1.41-.9,1.37-.95,1.65-1.77,1-2.93a2.37,2.37,0,0,0-3.27-1.1A29.08,29.08,0,0,0,895.78,473.1Z"></path><path class="cls-25" d="M978.58,431.34c-.75-1.56-1.44-2.14-2.36-1.95-1.12.24-1.47,1-1.41,3.14l-3.15,1.26a3.53,3.53,0,0,1-.23-4.24,7.5,7.5,0,0,1,5.77-3.6,4.17,4.17,0,0,1,3.87,1.93c1,1.31,1.88,2.64,2.84,3.95.39.53.83,1,1.25,1.54l1.67-.51c.46.63.94,1.29,1.45,2a4.45,4.45,0,0,1-5.07,2,5.13,5.13,0,0,1-2.78,3.59,4.08,4.08,0,0,1-5.31-.88,3.78,3.78,0,0,1,.18-5.45A36.89,36.89,0,0,1,978.58,431.34Zm1.41,2a19.07,19.07,0,0,0-1.9,1.72,1.42,1.42,0,0,0,.1,2.1,1.52,1.52,0,0,0,2,.09C981.67,436.37,981.67,435.13,980,433.34Z"></path><path class="cls-25" d="M935,468.38l-3.17,2-8.2-11.4,2.55-1.7,1.68,1.1a4.65,4.65,0,0,1,2.87-4.26,3.83,3.83,0,0,1,4.9.87c2.26,2.82,4.31,5.81,6.58,8.91L938.91,466c-.74-1-1.41-1.88-2-2.78-1.12-1.54-2.17-3.12-3.34-4.62-.87-1.11-1.63-1.23-2.62-.67a2.14,2.14,0,0,0-1.07,2.71,6.92,6.92,0,0,0,.93,1.76c1,1.52,2.14,3,3.21,4.51C934.28,467.31,934.56,467.78,935,468.38Z"></path><path class="cls-25" d="M917.62,465.07l-7,4.4c1,1.54,2.17,2.07,3.55,1.71s1.9-1.09,2.13-3.31l2.86-.78a3.13,3.13,0,0,1,.16,3.66,7.44,7.44,0,0,1-8.13,3.55,9.27,9.27,0,0,1-6.07-7.71,6.38,6.38,0,0,1,9.21-5.51A7.87,7.87,0,0,1,917.62,465.07Zm-4.42-.1c-1.26-1.55-2.48-1.81-3.62-1s-1.24,2-.27,3.37Z"></path><path class="cls-25" d="M964.08,447.61c0,4.2-5.17,7.34-9.25,5.59a9,9,0,0,1-5.34-6.5c-.76-3.19,1.46-6.24,5.11-7.08a7.73,7.73,0,0,1,3.14,0C961,440.26,964.1,444.3,964.08,447.61Zm-7.94-4.93c-1.9,0-3.16,1.2-3.09,2.58.09,1.69,2.36,4.59,4,5.09a2.65,2.65,0,0,0,2.76-.75,2.16,2.16,0,0,0,.52-2.46,8.11,8.11,0,0,0-2.79-3.89A4.86,4.86,0,0,0,956.14,442.68Z"></path><path class="cls-25" d="M947.05,460.87l-3.2,2-8.18-11.44,2.59-1.71,1.52,1.22c.08-.34.18-.62.22-.91a4.46,4.46,0,0,1,3.46-3.69,3.79,3.79,0,0,1,4.38,1.3c2.15,2.78,4.16,5.66,6.38,8.71l-3.18,2c-.46-.56-.86-1-1.22-1.49-1.34-1.85-2.64-3.74-4-5.57-1-1.31-1.94-1.52-3-.84a2.2,2.2,0,0,0-.66,3.23c1,1.57,2.09,3,3.14,4.55C945.84,459.05,946.38,459.88,947.05,460.87Z"></path><path class="cls-25" d="M1009,408.09l-6.9,4.38c.9,1.46,2.12,2.1,3.35,1.79,1.69-.41,2.31-1.6,2.2-3.4l3.09-.73a3.84,3.84,0,0,1-.36,4.25,6.94,6.94,0,0,1-10.92,1,13.25,13.25,0,0,1-2.65-4.38c-.89-2.35.06-4.61,2.16-6.19,2.37-1.76,4.68-2,6.86-.64A7,7,0,0,1,1009,408.09Zm-4.41-.09c-1.14-1.65-2.33-1.92-3.58-1s-1.24,2.07-.17,3.31Z"></path><path class="cls-25" d="M969.36,442q-1.29-3.9-2.56-7.78c-.19-.57-.34-1.16-.54-1.85l3.3-2.12,4,14.06-3.51,2.25-12.44-8.8,3.47-2.19,8.29,6.4Z"></path><path class="cls-25" d="M1016.47,417.86,995,431.22l-2.13-2.9L1014.35,415c.44.55.79,1,1.11,1.39S1016,417.17,1016.47,417.86Z"></path><path class="cls-25" d="M926.4,473.92c-4-5.64-7.85-10.93-11.81-16.46l3.31-2.1,11.83,16.51Z"></path><path class="cls-25" d="M905.72,482.67l16.67-10.39,2.13,2.87-16.66,10.41C907.13,484.58,906.51,483.75,905.72,482.67Z"></path><path class="cls-25" d="M736.24,570.36l.63,3.36L687.35,604l-.63-3.37Z"></path><path class="cls-25" d="M742.68,574.28q.93,5.28,1.87,10.56c.07.38.1.77.18,1.34L741.8,588c-1.24-6.42-2.42-12.53-3.63-18.78l3.06-1.92,5,5.69a9.3,9.3,0,0,0,.37-1.18c.46-2.25,1-4.48,1.29-6.75s1.54-3,3.58-3.76c.89,4.63,1.76,9.16,2.67,13.88l-3,1.83c-.47-2.26-.89-4.23-1.3-6.21l-.32,0c-.38,1.76-.79,3.52-1.15,5.29a2.33,2.33,0,0,1-2.08,2.15l-3.66-3.9Z"></path><path class="cls-25" d="M672.76,625.07l-2.85,1.78L668.07,624l-2.67,1.44,1.51,8.31-3,1.85c-1.24-6.42-2.41-12.53-3.61-18.77a33.12,33.12,0,0,1,7.22-4.19,2.48,2.48,0,0,1,3.36,1.64,6.16,6.16,0,0,1-.24,5.65c-.18.33-.39.66-.58,1C671.7,622.09,672.11,622.72,672.76,625.07Zm-8-2.69a27.14,27.14,0,0,0,2.64-1.77,2.8,2.8,0,0,0,.75-3.22c-.38-1-.9-1.21-1.83-.74a27,27,0,0,0-2.34,1.44Z"></path><path class="cls-25" d="M735,583.17l-.5-2c-1.78.08-1.91.23-2.49,2.85l-2.7,1a4.42,4.42,0,0,1,.89-4.17,13.56,13.56,0,0,1,3.56-2.93c1.93-1,3.37-.3,3.91,1.84.41,1.62.67,3.27,1,4.91.08.38.2.74.33,1.21l1.55.1a7.18,7.18,0,0,1-.06,2.5c-.44,1.15-2.17,1.63-3.56,1.36a22.24,22.24,0,0,1-2.94,3c-2,1.41-3.68.6-4.08-1.85a5.68,5.68,0,0,1,1.84-5.15C732.72,584.91,733.83,584.14,735,583.17Zm.36,2.61c-2.49,1.33-3.09,2.89-1.66,4.12C735.69,588.9,736.12,587.9,735.38,585.78Z"></path><path class="cls-25" d="M761.53,564.9l2.62-.48a15.37,15.37,0,0,1-.44,2.45,7.66,7.66,0,0,1-4.64,4.57,3.16,3.16,0,0,1-4-1.29c-2.64-3.66-1.58-10.14,2.09-12.72,2.84-2,5.19-1.13,6,2.26.17.7.21,1.42.34,2.31l-6.35,4c0,1.2.35,2.17,1.51,2.2C760.66,568.22,761,566.56,761.53,564.9Zm-1-3.61c-.53-.64-.86-1.43-1.32-1.51a2.37,2.37,0,0,0-1.68.78,3.08,3.08,0,0,0-.76,3Z"></path><path class="cls-25" d="M707.51,608.71c-1.09-3.31-1-6.59-2.28-9.45-2.05.34-3,1.76-2.65,3.87.29,1.87.7,3.73,1,5.6.12.66.19,1.32.32,2.16l-2.89,1.75c-.87-4.47-1.67-8.62-2.5-12.91l2.35-1.61.76,1a2.66,2.66,0,0,0,.31-.47,5.86,5.86,0,0,1,2.78-3.23c1.59-.83,2.88-.4,3.5,1.28a19.14,19.14,0,0,1,.73,3.1c.46,2.35.88,4.71,1.35,7.19Z"></path><path class="cls-25" d="M720.31,595.7c0,3.92-1.36,6.83-4.77,8.46a3.29,3.29,0,0,1-4.53-1.22c-2.12-3.12-1.76-8.65.83-11.42,1.41-1.5,3-2.79,5.28-2.17s2.52,2.5,2.93,4.32A18.18,18.18,0,0,1,720.31,595.7Zm-5-3.15a3.15,3.15,0,0,0-2.59,3.32,14.56,14.56,0,0,0,.58,3.94c.47,1.57,1.8,1.77,2.95.61C718.05,598.66,717.55,594.1,715.35,592.55Z"></path><path class="cls-25" d="M675.55,615.88c0,1.17.41,2,1.37,2.23a2,2,0,0,0,2.2-1.22,14.45,14.45,0,0,0,.86-2.07l2.5-.51a13.16,13.16,0,0,1-.27,2.13,7.51,7.51,0,0,1-4.58,4.81,3.28,3.28,0,0,1-4.15-1.22c-2.61-3.63-1.59-10,2-12.59,2.95-2.14,5.38-1.2,6.14,2.38.14.64.17,1.31.27,2.08Zm-.73-2.87.51.4,3.55-2.21c-.45-.61-.74-1.39-1.13-1.44a2.13,2.13,0,0,0-1.72.64A12.46,12.46,0,0,0,674.82,613Z"></path><path class="cls-25" d="M690,604.82l.71.75a23.84,23.84,0,0,1,3-3.27c1.67-1.25,3.38-.62,3.87,1.41.78,3.2,1.32,6.45,2,9.82l-2.81,1.74c-1.19-3.23-1-6.58-2.36-9.47a3.12,3.12,0,0,0-2.63,3.94c.3,1.88.7,3.73,1.05,5.6.12.65.2,1.31.32,2.12l-2.79,1.73c-1.11-4.37-1.68-8.59-2.6-12.85Z"></path><path class="cls-25" d="M718.19,587.61l3.11-1.91,4,7.64c.05-.72.09-1.17.11-1.62.12-2.29.22-4.58.33-6.87s.55-2.7,3.15-3.38c-.42,5-.82,9.93-1.23,14.92l-3.24,2Z"></path><path class="cls-25" d="M746.7,585c-.28-1.24-.47-2.15-.72-3.27L765.17,570l.73,3.32Z"></path><path class="cls-25" d="M681.83,603.64c1-.59,1.86-1.08,3-1.77,1.23,6.38,2.41,12.47,3.61,18.7l-3,1.88C684.21,616,683,609.93,681.83,603.64Z"></path><path class="cls-25" d="M668.84,632.67l-.64-3.37,14.86-9.13.71,3.32Z"></path></svg> 