<?xml version="1.0" encoding="UTF-8"?> <svg xmlns="http://www.w3.org/2000/svg" id="Livello_1" data-name="Livello 1" viewBox="0 0 468.88 369.12"><defs><style>.cls-1{fill:#fff;}</style></defs><path class="cls-1" d="M14.18,266.25a27.42,27.42,0,0,0,4.4-1.87Q49,245,79.42,225.53c1.19-.76,2.1-2,3.34-2.67,11-5.73,21-13,31.46-19.5,12.06-7.52,24-15.25,36-22.92a25.6,25.6,0,0,0,2.23-1.94c.42-.35.9-.63,1.38-1a5.42,5.42,0,0,1,2.89,3.14c3.11,8.63,6.28,17.24,9.44,25.86.25.67.52,1.34.89,2.28,5.55-3.25,10.78-6.73,16.21-10.09-.54-1.39.17-2.42.81-3.55a29.66,29.66,0,0,1,5.84-7.31,8.61,8.61,0,0,0,1.31-1.51,99,99,0,0,1-16.52,3.19c-.34-.43-.7-.84-1-1.29q-9-12.75-17.93-25.57a17.84,17.84,0,0,1-1.43-3.22,80.27,80.27,0,0,1,5.75-5.92c4.34-3.7,8.86-7.18,13.29-10.78a14.32,14.32,0,0,0,1.4-1.6A23.65,23.65,0,0,1,176.7,139a86.08,86.08,0,0,1,15.83-10.69,25.94,25.94,0,0,1,3.46-1.14,9,9,0,0,0,1.52-.68c4.82-2.71,9.6-5.52,14.49-8.12a52.92,52.92,0,0,1,6.67-2.71,3.48,3.48,0,0,1,3.71,1.23q8.88,13.65,17.72,27.33c.08.18.16.37.22.55-1.91,5.42-5.55,9.81-9,14.52a7.17,7.17,0,0,0,1.26-.42c3.14-1.73,6.62-2.35,10-3.11,1.8-.4,2.88.94,4.18,1.73a6.52,6.52,0,0,1,.9.92l2.91-1.75L234.3,126.18a18.67,18.67,0,0,1,1.6-1,31.49,31.49,0,0,0,3.13-1.44q36.09-23,72.15-46.08c1.42-.92,2.5-2.49,4-3.14,6.46-2.78,12-7.09,17.86-10.8Q364.26,44,395.3,24a35.59,35.59,0,0,0,3.4-2.87h.67q18,18.09,35.93,36.18,10.41,10.47,20.83,20.92v3.36L454,82.66a19.57,19.57,0,0,0-1.93,1L380.47,127c-5.07,3.08-10.18,6.1-15.22,9.23-1.64,1-3,2.52-4.7,3.38C348,146,336.46,154,324.38,161.13s-23.92,14.5-35.88,21.77c-4.16,2.53-8.35,5-12.49,7.57-1.12.69-2.08,1.62-3.14,2.4A21,21,0,0,1,271,194l-1.57-2-.09-.1.11.08a14.83,14.83,0,0,0,.89,1.67c.53.77,1.21,1.44,1.71,2.22,1.59,2.5,3.07,5.07,4.68,7.56q6.78,10.5,13.64,21a7.14,7.14,0,0,0,2.36,2.18,21.26,21.26,0,0,1,5,4.46c4.54,5.58,6.5,12.43,9,19a4.25,4.25,0,0,1,.15,1.66c-.34,5.92-.68,11.84-1.07,17.76a4,4,0,0,1-.58,1.71c-2.57,4.2-5,8.49-7.83,12.51A27.62,27.62,0,0,1,287,292.29c-4.22,2.16-8.86,2.65-13.39,3.6a12.84,12.84,0,0,0-1.64.32c-4.1,1.39-8,.05-11.79-1.1-3.54-1.06-7-2.21-10.54-3.39a6.11,6.11,0,0,1-2.13-1.25,116.94,116.94,0,0,1-8.79-8.28,79.13,79.13,0,0,1-6-8.44c-.5-.73-.77-1.62-1.25-2.38a3.56,3.56,0,0,1-.3-3.85c-.34-.53-.65-1-1-1.55q-8.9-12.72-17.81-25.43c-1.37-2-3.31-3.52-4.07-5.9-.25-.78-.53-1.55-.85-2.49-1.54-.65-2.49-2.2-3.52-3.65q-8.72-12.33-17.38-24.71c-.32-.45-.66-.89-1.13-1.53L168.51,212.8l13,35.49a18.22,18.22,0,0,1-1.7,1.1c-1.08.55-2.27.91-3.3,1.53Q148.18,268,120,285.12c-5,3-10,6-14.89,9.11-1.22.75-2.21,1.92-3.47,2.55-10.82,5.41-20.77,12.28-31.14,18.45s-20.68,12.5-31,18.76c-3.21,1.94-6.43,3.85-9.6,5.86a21.92,21.92,0,0,0-2.6,2.3h-.67L24.08,341c-.07-.31-.16-.58-.2-.85q-2.36-18.28-4.69-36.57l-4.44-34.75a8.77,8.77,0,0,0-.55-1.56ZM298,281.35H298v0l-.35.35a12.25,12.25,0,0,0-3.08,3.57,7.46,7.46,0,0,0,3.06-3.59ZM233.84,154.41l-.34.35-.33.33c-1.33,1.17-2.81,2.21-3.35,4l-.35.34h-.06v-.06l.35-.34,3.34-4,.34-.33.35-.33h.06Zm32.57,31.92-.35-.35c-.18-.52-.38-1-.61-1.54q-5.94-11.16-11.91-22.31c-.28-.53-.61-1-1-1.71L250,162.09c.3.54.47.89.69,1.21,4.21,6.52,8.41,13,12.68,19.53a28.25,28.25,0,0,0,2.75,3.13l.35.35v.05Zm-1.71,11.4-.34.35h-.06l.05-.05.35-.34h.05Zm-4.71,6,.34-.34h0l-.35.34ZM263.7,199l-.34.35-.33.33h0l.34-.34.35-.34h0Zm-1.34,1.68-.34.35H262v0l.36-.33h0Zm-1,1.34-.34.33.34-.33h0Zm-82.28,46,.17-.2-.19.18-.06.08Zm2.31-110.88-.13.23.2-.16,0-.12Zm35,94.09,1-.34,1-.34,1-.34,1-.36,1-.34,1-.33h.1c.16-.08,0,0-.08,0l-1,.34-1,.34-1,.36-1,.34-1,.34-1,.33h-.09c-.17.17,0,.11.07.06ZM30.3,338.46l-1,.68-.69.33-.77.35.12.2.63-.57.69-.33,1-.68.69-.33,1-.67,1.69-1,1.67-1,1.18-.54-.19-.28-1,.85-1.68,1-1.68,1-1,.67ZM55.83,323l.79-.36-.13-.2-.64.58-.69.33-1.67,1-1,.67-1.68,1-1.66,1-1,.43.15.23.8-.69,1.67-1,1.68-1,1-.67,1.67-1Zm3.36-2-.82.32.11.22.69-.56,1-.67,1.68-1,1.67-1,1.68-1,1.68-1h.06v.06l-1.68,1-1.68,1-1.68,1-1.68,1Zm65.16-39.63,1.68-1,4.38-2.67,1.67-1,1.25-.58-.17-.28-1.1.84-1.68,1L126,280.41l-1.68,1-.21.15h0Zm-29.9,18.12,1.68-1,1.68-1,.6-.24-.13-.2-.47.44-1.68,1-1.67,1-1.69,1-3.48,1.91.22.36,3.26-2.28Zm28.25-17.17-1.68,1-7.43,4.34.23.38,7.22-4.7,1.67-1,.21-.15h0ZM85.08,305.2l1.68-1,1.22-.54-.17-.28-1,.83-1.67,1-1.69,1L80.7,307.9l-1.68,1h-.09l.08-.07,1.68-1,2.68-1.68ZM71.3,313.58l-1.65,1-1,.46.15.23.77-.7,1.7-1,1-.69,1.67-1,1.68-1,1.68-1,.1-.06-.08.08-1.68,1-1.68,1-1.68,1ZM38,333.74l1.68-1,1.67-1,1.68-1,1-.67,1.67-1,.8-.31-.12-.21-.66.54-1.67,1-1,.67-1.68,1-1.67,1-1.68,1-.12.06ZM243.23,271.3h.07l-.05-.07-.94-.47-.13.38ZM102.84,294.45l1.69-1,4.36-2.69,1.68-1,1.25-.57-.17-.28-1.08.84-1.68,1-4.36,2.69-1.68,1-.07.06ZM143.17,270l1.24-.62-.17-.26-1.12.82-1.66,1L135,274.6l.23.38,6.26-4Zm26.53-16.2-1.62.87.18.29,1.52-1.06,1.67-1,6.43-3.73-.22-.37-6.3,4ZM268.1,193h0a1.27,1.27,0,0,0,1.35,1.19l.12,0ZM148.17,266.89,145.89,268l.19.32,2.14-1.41,1.67-1,5.6-3.22-.23-.36-5.43,3.51Zm67.19-88.31,2.26-1.36-1.9-.84c-.13.86-.24,1.54-.35,2.22Zm38.9,30.5-4.62,4,.28.31,4.47-4.09,4.4-3.79-.28-.31Zm-96.64,52.17,9-5.28-.23-.38-8.79,5.58-.6.3.13.2Zm59.76-140.1c1.58-1.05,2.29-2.75,3.36-4.22-1-.72-1.39-.28-1.7.41-.56,1.27-1.11,2.54-1.66,3.82h0ZM193.85,184c-2.66-.06-4.78,1.43-7.06,2.44a20.37,20.37,0,0,0,7-2.45h.06Zm34.29-24.16c-3,2.33-6,4.64-8.88,7-.36.3-.36,1-.52,1.56l.32.19a13.63,13.63,0,0,0,1.3-1c1.52-1.23,3-2.51,4.55-3.67a9.86,9.86,0,0,0,3.2-4.18ZM192.85,198c4.29-1.26,8.54-2.6,10.76-7h0c-2.73,1.63-5.49,3.22-8.18,4.91a25.15,25.15,0,0,0-2.58,2.13Zm-8-2.34,9.34-5.73-.93-1.14a36.71,36.71,0,0,1-3.4,1.65c-2.58.91-4,2.86-5,5.23Zm9.07-12.76a9.83,9.83,0,0,0,5.69-1.6c1.84-1.16,3.77-2.16,5.66-3.25a13.36,13.36,0,0,0,1.17-.85l-1.62-.57-10.9,6.27ZM254,291.75h0c-.31-.44-.65-.86-1-1.27-1.9-1.89-3.93-3.66-5.7-5.66-1.92-2.16-4.53-1.83-6.92-2.42,2.64,2.73,5.36,5.28,8.1,7.81a1.92,1.92,0,0,0,.86.47c1.47.36,3,.73,4.62,1.08ZM284.45,156c.84-.49,1.48-.83,2.09-1.2,15.14-9.34,30.32-18.63,45.41-28,4.43-2.77,9.16-5.06,13.11-8.62,1.38-1.25,3.49-1.65,5.13-2.66q29.18-17.92,58.3-35.93c.5-.31,1-.67,1.58-1.09-7.46-8.22-14.79-16.27-22.14-24.36-.7.43-1.23.73-1.75,1.06l-56,35.24c-.47.29-1,.5-1.48.75-1,.49-2.23.76-2.88,1.53a14.84,14.84,0,0,1-3.68,2.82c-3.31,2.11-6.64,4.16-10,6.25L269.9,128.4c-.37.23-.68.53-1.14.89C274,138.17,279.15,147,284.45,156ZM149.08,204.66c-.64.35-1.08.57-1.49.83-4,2.49-8,5-12,7.48-13.58,8.56-27.14,17.16-40.75,25.67-2.2,1.38-4.23,3.11-6.86,3.78a5.49,5.49,0,0,0-1.8,1.19c-.78.61-1.46,1.37-2.29,1.9Q62.1,259.31,40.22,273c-.56.35-1.1.73-1.72,1.15,1.6,10.1,3.19,20.12,4.82,30.39.78-.41,1.27-.64,1.73-.92,5.15-3.16,10.35-6.25,15.43-9.5,11.06-7.08,22.64-13.31,33.26-21.07,1.19-.87,2.76-1.19,4-2q29.79-18.31,59.59-36.69c.51-.31,1-.68,1.58-1.08Zm68.92-38-19.53-29.17-13.37,9.07,19.81,29.05Zm24.13,63.17,21.75,31.94,11.82-8.24c-7.23-10.8-14.31-21.36-21.45-32Zm4.77-19.24c-6.88-10.25-13.53-20.41-20.48-30.53L214,188.49,234.7,219ZM191.56,183.3,204.23,176l-19.79-29-12.64,7.65c6.65,9.65,13.15,19.06,19.76,28.63Zm71.62,78.87-21.73-31.89-12,6.17,21.71,31.46Zm-49.84-73.26-12.1,6.75c7,10.14,13.83,20,20.74,30l12.06-6.3Zm16.3-31.62-19.06-29L199.13,137l19.57,29.15ZM276.3,253l9.32-9-21-31.84L254.87,221ZM257.48,201.3l-20-30.36-10.31,8.64c6.87,10.26,13.61,20.32,20.45,30.55ZM219,239.74l21.46,30.76,9.88-2.35L228.7,236.8ZM171.08,155l-9.56,4.85L181,187.81l9.77-4.19Zm50.13,71-20.72-30-9.42,3.8c6.9,9.87,13.65,19.52,20.49,29.32ZM218.7,121.22l-7.42,6.64c6.4,9.73,12.66,19.22,19,28.9l6.91-7.16C231,140.12,224.9,130.81,218.7,121.22Zm72.73,114c-6.81-10.41-13.53-20.69-20.44-31.28l-5.71,7.64,20.91,31.71ZM264,193.17,245.4,164.82c-2.57,1.83-5.55,2.8-7.26,5.73L258,200.66c2.07-2.62,3.92-5,5.89-7.48Zm26.93,83.19-6.4-10.81-12.64,8.74,7.51,10.1ZM432.7,79.54l8.1,8.51,12.69-7.72-8.7-8.18Zm-13.15,8,7.83,8.66,12.69-7.77L432,80ZM278.62,284.81l-7.52-10.09-12.91,6,8.56,9.5ZM418.79,88l-12.33,7.63,7.57,8.6L426.6,96.7Zm-13,8-12.23,7.43,7.34,8.79,12.46-7.59ZM295.06,255.48c-1.82,1.11-9.32,8.81-9.74,10,2,3.34,4,6.73,5.88,9.85l9.18-8.57Zm92.76-135.26,12.33-7.55-7.35-8.74-12.1,7.42ZM432.1,78.93l12.3-7.51-8.1-8.05-12,7.39ZM368,119.15l6.91,8.95,12.24-7.44L380,111.77Zm43.43-40.47C414,81.6,416.47,84.26,419,87l12.44-7.64-7.8-8.18ZM212.7,239.47c.47.76.67,1.15.92,1.51,6.19,8.83,12.48,17.6,18.53,26.53,1.79,2.64,4.31,2.06,6.6,2.69l.24-.35-20.89-30Zm205.56-152-7.54-8.3-12.08,7.46L406,95.07ZM156,161.64l19,27.07,5.18-.67-19.4-27.79ZM397.89,87l-12,7.48L393,102.9l12.18-7.41Zm-23.74,41.5-6.86-8.91-11.78,7.22,6.65,9Zm-22.92.88-11.75,7.22,6.37,9.09,12-7.29Zm65-67.18,7.54,8,12.09-7.46-8-7.74ZM338.77,137l-11.66,7.17c2.14,3.19,4.12,6.14,6.16,9.2l11.89-7.23Zm34.56-34.82,6.86,8.54,12.11-7.43-7.11-8.39Zm-163.16,127,.22-.34-20-28.63c-1.86-.36-2.95.6-4.24,1.64l19,27ZM403.57,70.1l7.29,8L423,70.61l-7.49-7.91ZM367.5,118.5l12-7.38-6.86-8.52-11.78,7.27Zm-41.1,26.09-11.54,7.13,5.94,9.17,11.76-7.12Zm33.75-34.3-11.57,7.15,6.44,8.73,11.8-7.23Zm-40,51c-2.06-3.17-4-6.11-5.95-9.19l-11.46,7,5.73,9.31ZM302,159.49l-11.36,6.95,5.54,9.42,11.48-7.05ZM427.7,54.14,420,46.67l-11.6,7.26,7.26,7.67ZM344.39,120l-11.52,7.12,6.14,8.75,11.74-7.18ZM278.7,173.81l5.33,9.48,11.46-7c-1.9-3.26-3.67-6.27-5.51-9.43Zm129-119.45L396,61.72,403,69.51l12-7.45Zm-87,80.26,6,8.86,11.64-7.13-6.16-8.78Zm-12,7.42,5.75,9L326,143.91,320,135Zm-25.4,41.64L278,174.25l-11.15,6.84,5.13,9.47Zm19-25.27,11.45-7c-2-3.09-3.82-6-5.74-9l-11.24,7Zm-6.23-8.53-11.13,6.86c1.81,3.09,3.53,6,5.32,9l11.34-6.94Zm116-111L400.82,46l7,7.4,11.67-7.3ZM284.2,157.13l-11,6.82,5.13,9.14,11.25-6.88ZM388.6,53.62l6.81,7.49,11.74-7.34-7-7.39ZM261.52,171.15l4.93,9.25,11.15-6.88c-1.78-3.17-3.43-6.1-5.15-9.14Zm132-133,6.81,7.15,11.44-7.2-7-7ZM267.79,154.45c1.71,3,3.31,5.85,5,8.8l11-6.79-5.15-8.74Zm125-115.84L381.5,45.79,388.07,53l11.49-7.24c-2.36-2.5-4.5-4.74-6.78-7.17ZM256.33,161.52l4.8,8.9,10.94-6.74c-1.7-3-3.28-5.8-5-8.8ZM380.78,46.22l-11.21,7.1L376,60.64l11.4-7.19ZM219.23,120.64l18.39,28.17,1.89-4-17.93-27.58C220.7,118.49,220,119.53,219.23,120.64Zm53.26,77.89a20.67,20.67,0,0,1-.57,2,5,5,0,0,0,.87,4.83c5.89,8.85,11.66,17.78,17.47,26.67.32.5.68,1,1.26,1.81a24.82,24.82,0,0,1,.38-2.84,5.36,5.36,0,0,0-1.09-4.51c-5.75-8.74-11.43-17.53-17.13-26.3-.32-.44-.67-.91-1.19-1.66ZM357.76,60.81c2.18,2.61,4.17,5,6.23,7.43L375.27,61l-6.38-7.29Zm35.16-23.24,11.28-7.15-7.07-6.66-10.78,6.89ZM273.23,138.5l-10.66,6.67,4.82,8.59L278.24,147Zm78.83-62.82,11.21-7-6.2-7.41-11,7c2,2.54,3.92,4.87,6,7.41Zm-189.24,169-10.19,6.24c1.09,3.39,2.15,6.66,3.28,10.15l10.35-6.38ZM380.93,45.18,392.22,38l-6.57-6.92-11.1,7.07Zm-236,222.58,10.28-6.21c-1.1-3.39-2.15-6.65-3.28-10.14l-10.12,6.2ZM334.44,75.6c2,2.59,3.85,5,5.81,7.53,3.75-2.35,7.35-4.63,11.12-7l-6-7.4Zm-63.1,198L284,264.86l-4.45-6.6L266.87,267Zm-107.8-29.37c1.17,3.38,2.28,6.6,3.46,10l10.17-6.2-3.6-10ZM266.7,154.17c-1.64-2.9-3.18-5.65-4.81-8.54l-10.56,6.64,4.64,8.54ZM369.05,52.71l11.19-7.1-6.38-7-11,7C365,48,366.94,50.31,369.05,52.71ZM339.57,83.57,333.75,76,323,82.85l5.62,7.6ZM144.16,268.19l-3.11-10.1-10,6.13c1,3.4,1.94,6.64,3,10.14ZM319.08,85.33l-10.73,6.86,5.39,7.68L324.63,93ZM351.38,53a76.05,76.05,0,0,0,6,7.18l11-7L362.16,46Zm-.81.51-10.8,6.93,5.79,7.26,11-7ZM133.25,274.82c-1-3.42-1.94-6.66-2.95-10.14l-9.93,6c.93,3.44,1.82,6.7,2.78,10.22ZM268,129.59l-10.44,6.63c1.63,2.85,3,5.54,4.7,8.22l10.58-6.64Zm45-29.31-5.33-7.66-10.61,6.73c1.79,2.68,3.45,5.15,5.19,7.73ZM109.78,277.18c.9,3.49,1.75,6.8,2.66,10.31l10-6.12-2.77-10.2Zm49.43-42.91-10,6.17,3.17,9.74,10.19-6.25c-1.15-3.29-2.21-6.33-3.36-9.66ZM344.87,68.09l-5.82-7.26-10.71,6.91L334,75Zm-88,68.55-10.37,6.52c1.52,2.85,3,5.53,4.49,8.39l10.54-6.67c-1.67-2.84-3.14-5.47-4.7-8.24Zm-147.78,141-9.77,6c.83,3.45,1.63,6.78,2.48,10.37l9.91-6Zm39.42-36.78L138.57,247c1,3.34,2,6.46,3,9.82l10.09-6.18Zm21.33-13.14L160,233.85l3.34,9.64,10-6.07Zm121-113.44,10.75-6.77c-1.92-2.62-3.34-5.26-5.4-7.64l-10.38,6.59c1.72,2.69,3.32,5.16,5,7.81ZM128,253.51c1,3.36,1.89,6.53,2.87,9.91l10-6.17c-1-3.3-2-6.45-3-9.82Zm146.75-140c1.63,2.66,3.19,5.23,4.85,8l10.62-6.77-5-7.8Zm53-45.33-10.53,6.68,5.43,7.35,10.72-6.8Zm-48.82,53.7c-1.68-2.72-3.24-5.26-4.89-7.92l-10.34,6.62,4.69,7.94ZM308,91.5l10.71-6.82-5.4-7.36L302.7,84ZM130.07,263.86c-1-3.33-1.87-6.51-2.86-9.92-3.41,2.1-6.51,4.1-9.76,6.1.92,3.35,1.79,6.49,2.71,9.85ZM307.22,92,302,84.48l-10.47,6.69c1.75,2.61,3.39,5,5.06,7.53ZM265.84,290.46,257.37,281l-10.21,2.19,8.82,9.12Zm-19.71-126c6.07,9.26,11.85,18.36,18.09,27.6.31-1,.43-1.66.67-2.22a4.12,4.12,0,0,0-.66-4.19c-4.7-7.1-9.3-14.25-13.94-21.38-.36-.54-.74-1.07-1.19-1.71Zm-168.31,144,9.71-5.89c-.75-3.45-1.48-6.78-2.26-10.35L75.7,298c.71,3.48,1.38,6.8,2.12,10.44Zm31.76-32.11,9.84-6c-.9-3.27-1.77-6.45-2.71-9.86l-9.65,6c.84,3.28,1.64,6.44,2.52,9.88Zm148.12,3.76,13-6.08-4.49-6.57-13,6.15Zm-5-152.59,4.52,8,10.41-6.58-4.74-7.9ZM67.44,314.8l9.62-5.87L75,298.5l-9.47,5.8Zm98.69-97.23-9.68,6c1.08,3.16,2.11,6.19,3.22,9.47l9.83-6.14C168.38,223.78,167.3,220.81,166.13,217.57Zm85.8-89.66-10.23,6.48c1.48,2.76,2.86,5.34,4.34,8.07l10.35-6.53Zm33.43-22.14,10.52-6.67-5-7.48-10.35,6.61,4.83,7.54Zm-186.27,177,9.77-6-2.58-9.94-9.58,5.95c.81,3.35,1.55,6.48,2.39,10Zm-34.38,22-9.4,5.76c.61,3.51,1.19,6.88,1.83,10.55l9.54-5.79c-.66-3.49-1.28-6.82-2-10.52ZM274.24,112.83l10.46-6.65-4.85-7.51-10.28,6.51C271.13,107.78,272.61,110.19,274.24,112.83ZM97.7,296.42l-2.43-10.3-9.22,5.67c.76,3.44,1.5,6.76,2.29,10.32ZM45.3,316.73c.53,3.58,1,6.95,1.72,10.48l9.38-5.7L54.54,311Zm223.58-211.1-10.2,6.5c1.59,2.68,3,5.15,4.56,7.72l10.32-6.61ZM85.09,291.41l-2.2-10.12-9.4,5.84c.68,3.32,1.34,6.56,2.05,10.06ZM284.4,264l9.94-9.84L290.22,248l-10,9.8ZM258,112.57,247.84,119l4.38,7.79,10.27-6.52ZM35.24,322.85c.51,3.5,1,6.88,1.53,10.57l9.37-5.7-1.69-10.5Zm-.78.44-9.19,5.63c.62,3.48.71,7,1.59,10.56L36,333.9c-.5-3.45-1-6.8-1.53-10.61ZM156.18,222.81l9.67-6c-1.11-3.06-2.16-5.91-3.28-9l-9.52,5.89ZM74.79,297.66l-2.07-10-9.29,5.76c.63,3.38,1.23,6.59,1.89,10.09ZM241.3,133.54c3.36-1.68,9.27-5.61,10-6.67l-4.17-7.36-10,6.4ZM62.7,293.82l-9.25,5.66,1.76,10.2,9.38-5.75Zm21-13c.73,3.37,1.43,6.61,2.2,10.12l9.23-5.7c-.81-3.44-1.57-6.59-2.38-10ZM54.47,310.11,52.68,300l-9.16,5.66,1.65,10.24ZM44.4,316.33c-.65-3.43-.87-6.74-1.79-10.17l-8.94,5.52L35.17,322c3.19-1.93,6.12-3.75,9.18-5.63Zm261.3-58.58c-1.59-3.91-3.15-7.76-4.85-12-1.67,2.73-3.08,5.14-4.58,7.48a2.41,2.41,0,0,0-.15,2.64c1.41,2.86,2.73,5.76,4.1,8.64a10.5,10.5,0,0,0,.81,1.27ZM152.78,212.91l9.51-5.9-3.18-8.84-9.35,6ZM34.33,322.43l-1.49-10.24-9,5.59L25.2,328ZM139.25,209.78l9.53-6c-1-2.89-1.92-5.61-3-8.6l-9.38,6C137.4,204,138.28,206.77,139.25,209.78Zm-96.7,95.46a96.85,96.85,0,0,0-1.71-9.84l-8.79,5.5,1.46,9.91ZM32.7,311.3a91.48,91.48,0,0,0-1.56-9.86l-8.7,5.4,1.32,10.05ZM146.55,194.75c1,2.91,1.95,5.62,3,8.54l9.32-5.89c-1-2.83-2-5.56-3.08-8.51Zm-20.12,12.79,2.69,8.59,9.41-5.92-2.83-8.58Zm-.73.5-9.22,5.8c.85,2.92,1.64,5.68,2.51,8.68l9.37-5.89C127.49,213.73,126.64,211,125.7,208ZM118.27,223c-.86-2.94-1.65-5.7-2.52-8.69L106.62,220c.89,3,1.39,5.8,2.54,8.64Zm15.21-31c.91,2.8,1.77,5.47,2.7,8.36l9.37-5.94c-1-2.8-1.88-5.45-2.86-8.29Zm-25.22,37.29c-.81-3-1.56-5.71-2.4-8.75l-9.06,5.74,2.26,8.82ZM40.8,294.48c-.46-3.22-.81-6.33-1.6-9.57l-8.67,5.48,1.4,9.58Zm82.81-96.2c.87,2.84,1.69,5.52,2.58,8.45l9.28-5.94-2.72-8.34Zm-34.42,43,9.12-5.68-2.25-8.86-9,5.78c.75,2.92,1.42,5.7,2.15,8.74ZM21,296.28c.5,3.26.61,6.36,1.44,9.57l8.68-5.41-1.41-9.58Zm122.4-110.64c1,2.79,1.85,5.44,2.83,8.3l9.21-5.84-3-8.18Zm-29.63,19c.85,2.87,1.62,5.51,2.46,8.37l9.19-5.78c-.85-2.82-1.67-5.5-2.56-8.46Zm179.93,79.75c-.85-2.41-1.68-4.73-2.57-7.24l-11.1,7.73,5.44,5.31ZM113.09,205l-9,5.73,2.29,8.45,9.13-5.8C114.7,210.58,113.94,208,113.09,205ZM76,249.59l-2-8.87-8.78,5.56c.59,3,1,5.88,1.89,8.89ZM39.21,284l-1.51-9.33L29,280.11l1.38,9.38Zm64.18-72.76-9,5.73,2.2,8.5,9-5.73C104.91,216.94,104.2,214.27,103.39,211.21ZM55.7,252.32l1.69,9,8.86-5.64-1.8-8.92ZM84.86,223l2,8.61,8.94-5.73a84.7,84.7,0,0,0-2.27-8.44ZM29.62,290a89.19,89.19,0,0,0-1.48-9.33L19.7,286l1.24,9.42ZM55,252.82l-8.67,5.51,1.56,9.05,8.79-5.54ZM83.3,234.91l-8.47,5.36,1.9,8.88,8.65-5.45c-.68-2.92-1.34-5.66-2.08-8.81ZM38.37,273.32l8.73-5.53-1.59-8.93-8.57,5.44c.48,3,.93,5.82,1.43,9ZM29,279.23l8.64-5.44-1.48-9-8.53,5.37Zm43-47.92-8.69,5.55c.6,2.9,1.16,5.6,1.78,8.61l8.79-5.58c-.62-2.85-1.16-5.54-1.87-8.6Zm-9.43,6-8.63,5.48,1.65,8.68,8.72-5.54c-.59-2.89-1.11-5.53-1.73-8.62Zm-34.37,42.4-1.35-9.07L18.4,276l1.2,9.13Zm223-121.54L212.86,182l.44.88c.1.21.2.41.36.72l38.5-24c-.37-.53-.61-.89-1-1.47ZM54.82,252l-1.66-8.68-8.46,5.42c.5,2.92,1,5.68,1.49,8.76Zm19.8-12.51,8.5-5.4c-.68-2.87-1.32-5.6-2-8.61L72.7,230.8ZM45.4,258c-.51-2.9-1-5.68-1.54-8.77l-8.48,5.43,1.44,8.77ZM34.63,255l-8.4,5.44,1.28,8.73L36,263.88Zm-9.17,5.89-8.34,5.36,1.2,8.77,8.4-5.34ZM246.1,282.62l10.72-2.3-4.43-6.42-10.69,2.42Zm-78.4-70.29,37.07-23.19-1.19-1.34-37,23.17Zm108,82.36c2.89-1.3,5.76-2.46,8.55-3.9l-5.35-5.2-10.84,5V291Zm18.67-11.22c1.74-1.65,3.21-3.18,4.83-4.53a4.66,4.66,0,0,0,1.75-4.55c-.25-2-.28-4.05-.41-6.08l-.35-.13-8.27,8.4c.78,2.4,1.59,4.59,2.4,6.89Zm2-45-5.52,8.77,4.29,6.46,5.39-8.88ZM160.88,153.8l.17.44c2.54.14,5.08.33,7.63.42a4.23,4.23,0,0,0,4.19-4.28,4,4,0,0,0-.12-1c-1.33-.4-2.7-.85-4.1-1.2a1.67,1.67,0,0,0-1.26.16C165.19,150.14,163,152,160.88,153.8ZM211.61,120l-.35-.3-6.9,3.69a3.21,3.21,0,0,0-.86.51,1.84,1.84,0,0,0-.59.94c-.13,1.25-.17,2.5-.25,3.68,2.48.87,3.4.93,5.27.23a2.12,2.12,0,0,0,1.2-1C210,125.17,210.8,122.57,211.61,120Zm8.63,55.68,6.66-4.25-3.51-5.21c-2.14,1.74-4.08,3.3-6.14,5ZM273.85,295l0-.28c-1.79-.87-3.61-1.7-5.36-2.64a5.2,5.2,0,0,0-4-.59c-2.08.54-4.22.86-6.51,1.3.3.27.4.43.54.47,2.75.92,5.51,1.83,8.27,2.71a2.67,2.67,0,0,0,1.16.08C270,295.72,271.91,295.36,273.85,295Zm-88.94-158,3.1,6.55,5.24-3.6-5-5.22Zm2.41,7-3.11-6.59-3.38,2.09c.4,2.65.78,5.14,1.21,8Zm36.76,21.6,3.56,5.28,4.63-2.9-4-6Zm-31.87-33.83L189.46,134l5,5.27,5-3.45ZM301.7,275h.42c1.47-2.57,3.23-5,3.1-8.25-.08-2.18.24-4.38.38-6.57a58.59,58.59,0,0,0-4,6.37,1.52,1.52,0,0,0-.18.8C301.48,269.92,301.58,272.46,301.7,275ZM218.1,116.91a24.88,24.88,0,0,0-5.07,2,.69.69,0,0,0-.27.4c-.86,2.67-1.71,5.35-2.65,8.28,3.95-2.81,6.91-5.91,8-10.72ZM235,275.26l-.28.34c1.18,1.67,2.36,3.35,3.56,5a1.26,1.26,0,0,0,.68.45c1.82.44,3.65.85,5.47,1.26l.27-.27c-1.24-1.76-2.47-3.52-3.75-5.26a1.61,1.61,0,0,0-.87-.44C238.37,275.93,236.7,275.6,235,275.26Zm-31.3-89.4-3-4.22-5.23,2.72L198.7,189Zm43.55,25.48-12,8.26c.48.63.82,1.09,1.23,1.61L248.39,213Zm-5.55,17.84,12-8.32-1-1.66-12.1,8.35Zm-64.47-78.75,4-2.41c-.38-2.66-.74-5.17-1.1-7.71-2.31.57-2.5.8-2.6,2.79-.08,1.68-.2,3.35-.28,5C177.2,148.76,177.23,149.41,177.23,150.43Zm48.05,29.46c-1.78-.58-3.13-.78-4.53.27-1.66,1.23-3.45,2.27-5.18,3.41-1.52,1-1.71,1.57-1.16,3.68Zm-57.2-24.48c-2.82-.13-5.26-.25-7.7-.34a1.5,1.5,0,0,0-.95.2c-1.12,1.11-2.18,2.27-3.41,3.57a16.67,16.67,0,0,0,12.06-3.43Zm32.1-20.18,3.54-2.74-8.9-2.84-1.88,1.71ZM302.1,240.3l-.35.08c-.13,1.86-.71,3.71.06,5.58,1.15,2.78,2.25,5.57,3.39,8.36a8.88,8.88,0,0,0,.74,1.17c0-2,.36-3.65-.08-5.07C304.81,247,303.38,243.66,302.1,240.3Zm-89-55.09c-4.12,2.07-8.11,4.14-10.37,8.73l8.79-4.9c1.78-1,1.93-1.35,1.56-3.83Zm22.54,36.49-1.18-1.61-11.94,6.23,1.29,1.56Zm39.69,33.07c-3.53,2.49-6.94,4.87-10.37,7.28a6.85,6.85,0,0,0,.47.89,6.11,6.11,0,0,0,.65.78l10.42-7.27c-.14-.31-.3-.61-.47-.91s-.47-.53-.72-.77Zm-46.31-19,12-6.15L239.7,228l-12,6.28Zm20.12-23.32,9.71-8.67-1-1.7c-3.34,3-6.53,5.79-9.79,8.7Zm48.54,20-.45.09c-.15,1.59-.31,3.18-.44,4.78a1,1,0,0,0,.15.64c1.1,1.72,2.2,3.42,3.32,5.11l.39-.13c.1-1.14.25-2.29.29-3.43a4.91,4.91,0,0,0-.25-2.28c-.91-1.67-2-3.19-3-4.8Zm-34.45-22.58c-3.33,3-6.53,5.87-9.74,8.74.22.43.35.68.46.93s.24.51.41.89l9.83-8.92Zm14,47.11c-3.45,2.4-6.74,4.7-10,7-.78.54-.89,1.18-.31,2.18l12-8.31Zm-11.53,9.8c-.08-.59-.14-1.06-.22-1.66-.45.15-.78.21-1.07.34-2.92,1.38-5.83,2.79-8.78,4.13-1.19.54-1.64,1.48-2,2.89Zm22.56-18.87a3.68,3.68,0,0,0-2.93,1.11c-2.17,2.17-4.39,4.29-6.57,6.44a7.66,7.66,0,0,0-.72,1l1.64.74ZM242.4,275.33l9.88-2.24,1.25-2.67c-2.58.59-4.77,1.21-7,1.57C244.57,272.29,243.6,273.58,242.4,275.33ZM251,217.52l-11.43,7.87.77,1.38,11.9-8.19Zm-7.43,55c-4.41-1.65-6.38-1.22-8.74,1.83l6.08,1.24ZM287.09,247a3.37,3.37,0,0,0,4.17-1.93c.88-1.67,2-3.21,3-4.82.24-.39.44-.81.65-1.21l-.25-.28c-1.11.55-2.56.83-3.27,1.71a70.3,70.3,0,0,0-4.3,6.55Zm-32.6,22.3,10.7-5.05-1.07-1.59-10.7,5.11Zm41.39-31.77c.19-2,.36-3.85.57-6.11l-4,2.38c-.21,1.74-.41,3.36-.64,5.28ZM217.7,167.83,205.85,176a2.06,2.06,0,0,0,2.73.09q4-2.81,8-5.5A2.53,2.53,0,0,0,217.7,167.83Zm28-10.09-2.11-1.22-3.3,2.52-5.5,4.11c-.55.4-1,.8,0,1.48Zm31.6,98.16,8-8.61-.78-1-7.82,8.42-.46-.33Zm-38.6-30.05-11.55,6,.48,1.53,11.63-6ZM261,208.58l-9.32,8.36,1.29,1,9.62-8.66Zm-52.6-30.29c-3.77,1-5.06,3.41-3.74,7,.82-.5,1.65-.94,2.4-1.49a1.86,1.86,0,0,0,.71-1c.3-1.51.46-3,.67-4.51Zm.28,4.09.4.33c1-.77,2.36-1.34,2.86-2.35a24.74,24.74,0,0,0,1.32-5.09l-.37-.28c-1.07.74-2.15,1.46-3.2,2.23a1.22,1.22,0,0,0-.35.73c-.2,1.47-.41,3-.66,4.43Zm12.9,44.31-9.54,3.15,1.36,1.48,9.37-3.12ZM218.49,239l9.58-3-1.26-1.43-9.57,3ZM234.87,172l-.28-.39-11.07,6.9c1.79.55,3,.66,4.24-.47s2.58-2.16,3.86-3.24c1.08-.9,2.17-1.85,3.25-2.78Zm-8.51,60.21c-3,1-5.8,1.8-8.57,2.72-.81.27-.79,1-.38,1.84l9.17-2.85ZM259.47,203c2-2.57,3.81-4.92,5.7-7.36l-.9-1.66-5.73,7.32ZM192.2,185.67l3.63,5.18,2.15-1.5c-1.18-1.69-2.25-3.21-3.36-4.78Zm75,15-5.5,7.25,1.67.6L269,201ZM455.1,78.46l-8.21-8.1-1,.67c2.68,2.62,5.22,5.12,7.76,7.62.44.47.88.56,1.43-.2ZM270.48,203.22c-.31-.56-.53-1-.88-1.61-1.81,2.41-3.52,4.66-5.21,6.92-.6.8-.22,1.41.55,2.08Zm-29-46.13c-4-.08-6.48,2-8.75,4.76l.85,1.13Zm-12.68,4.34,4,6c.67-.94,1.33-1.68.8-2.6-1-1.66-2.08-3.23-3.24-5ZM176.7,142l-.43-.07c-.83.88-2.08,7.65-1.8,10.1l1.78-1.13C176.44,147.87,176.59,145,176.7,142Zm260.83-81.4c-2.4-2.4-4.81-4.84-7.28-7.23-.17-.17-.74.07-1.13.13l-.19.54,7,6.71c.5.45,1,.81,1.64-.16Zm-8.64-7.83.23-.47c-.28-.33-.53-.69-.83-1-1.88-1.91-3.76-3.8-5.65-5.69-.48-.48-1-1-1.66,0,2.28,2.3,4.54,4.6,6.84,6.86.26.25.74.21,1.11.29ZM173.3,148.68c.34-1.83.64-3.51.95-5.18l-.37-.16-5,3.74.15.39ZM437.6,61.8l-.14.54,7.17,7.27c.51.51,1,.67,1.56-.23-2.45-2.48-4.9-5-7.4-7.45-.22-.22-.78-.09-1.19-.13ZM359,137.2l.27-.53c-2-2.73-4-5.48-6.07-8.18-.18-.24-.73-.21-1.1-.31l-.26.42c2,2.78,4.06,5.57,6.13,8.32.17.23.68.2,1,.28Zm1.77-1.11.23-.52c-1.06-1.43-2.11-2.86-3.17-4.28l-3.32-4.42-1,.65c2.09,2.83,4.12,5.6,6.21,8.34.19.18.7.18,1.05.23ZM238.84,224.45a1.66,1.66,0,0,0,.65-.06q5.25-3.57,10.48-7.2c.19-.13.2-.5.33-.87C248.39,216.87,239.35,223.25,238.84,224.45ZM205.77,131l-.19-.55c-3-.68-6-1.37-9.08-2-.21-.05-.49.21-.73.33a60.57,60.57,0,0,0,8.38,3C204.59,131.84,205.22,131.26,205.77,131ZM345,119.24l6.35,8.68,1-.69-6.41-8.72Zm8.7,7.22.18-.51-6.26-8.49-.94.73q3,4.09,6,8.06c.15.21.67.15,1.06.21ZM219.48,176l-3-4.51-2,1.55C215.63,175.67,217.43,176.81,219.48,176Zm7.22,54.63c.3,0,.6.21.76.13,3.61-1.89,7.28-3.66,10.75-5.86a1.22,1.22,0,0,0-.92-.24C235.24,225.39,227.33,229.82,226.7,230.67Zm17.59,39.79-.12.54c.44.15.93.51,1.32.43,2.51-.54,5-1.16,7.48-1.77a1.71,1.71,0,0,0,.5-.3l-.82-1ZM413.42,37.24l-.18.55c2.2,2.22,4.37,4.45,6.6,6.63.2.19.76,0,1.14,0l.11-.41c-2.2-2.2-4.39-4.42-6.62-6.6C414.26,37.23,413.78,37.3,413.42,37.24Zm-168,122.17-.3-.31c-.47.27-1,.52-1.41.81-2.88,1.8-5.77,3.6-8.63,5.43-.32.2-.47.66-.75,1.07.3,0,.43.09.49.05q4.85-3,9.65-6a4.94,4.94,0,0,0,1-1.05ZM233.64,273.9l3.6-2.94-5.54-1.52-.19.34C232.17,271,232.83,272.33,233.64,273.9ZM251,216h.46q4.26-3.75,8.48-7.55c.18-.16.19-.53.31-.91C258.48,208.21,251.3,214.81,251,216Zm14.9-34.63h-.47c-.09.28-.29.58-.24.82.29,1.26,4.39,8.18,5.37,8.5a81.71,81.71,0,0,0-4.66-9.37Zm-1.6-.57c1.23-.27.86-.83.61-1.32-1.33-2.5-2.68-5-4-7.5a5.18,5.18,0,0,0-.57-.67c-.22.23-.51.45-.48.52,1.45,3,3,6,4.44,8.92Zm-80.27,17c1.4-.21,2.48-1.15,3.67-1.85s2.59-1.55,3.83-2.39,2.46-1.28,3.28-2.42c-1.26,0-9.65,5.09-10.78,6.57ZM405.75,29.76l-.16.37c2.14,2.16,4.27,4.33,6.45,6.45.2.2.69.1,1,.14l.19-.43c-2.18-2.19-4.36-4.39-6.58-6.55-.16-.25-.63-.08-.95-.07Zm-7.32-7.48-.21.41c2.11,2.11,4.21,4.23,6.36,6.3.15.15.62,0,.94,0l.13-.36c-2.08-2.09-4.15-4.18-6.26-6.23-.18-.3-.63-.19-1-.21Zm-143,139.48-.56.19c0,.29-.14.65,0,.87A91.12,91.12,0,0,0,259.4,171c.26-.46.49-.7.44-.8-1.46-2.89-2.95-5.73-4.43-8.57Zm-44.5,73.09-.42,1.84,5.47.42.32-1.82Zm-33,12.12h.39a5,5,0,0,0-.1-1.16c-1.09-2.9-2-5.89-3.45-9-.48,1.23,1.93,8.33,3.1,10.07ZM325.07,92c1.06-.78.4-1.25.1-1.7-3.5-5.16-4.33-6.08-5.69-6Zm2.15-1.28.29-.44c-1.74-2.34-3.48-4.69-5.26-7-.12-.14-.58,0-1.25,0,1.92,2.61,3.58,4.89,5.29,7.14.17.15.62.15.93.26Zm-41.86,155,.82,1.13c1.46-2.3,2.82-4.39,4.12-6.52a3.5,3.5,0,0,0,.17-1.25L290,239ZM250.3,152.43l-.39.14c0,.23-.23.53-.14.7,1.35,2.7,2.79,5.35,4.43,8.32.29-.65.53-.94.46-1.08C253.33,157.75,251.86,155,250.3,152.43Zm-76,83.94c.32-1.38-.43-2.37-.74-3.41s-.79-2.33-1.26-3.47-.51-2.18-1.55-3.15c-.15,1.7,2.38,8.77,3.52,10ZM315.55,75.18c0,.2-.1.34-.06.41,1.58,2.21,3.16,4.43,4.78,6.62.14.19.58.17.88.24l.3-.42c-1.77-2.31-3.54-4.63-5.34-6.92C316.05,75,315.7,75.15,315.55,75.18Zm4,8.26.32-.38c-1.71-2.35-3.34-4.75-5.25-7-.06-.07-.44.13-.81.25.35.54.59,1,.88,1.36,1.31,1.8,2.62,3.6,4,5.37.1.26.52.29.82.4Zm-50,116.67,1-5-1.84.08c-.35,1.6-.68,3.08-1,4.64ZM245.3,143.45c-.25,1.27,2.83,7.28,4.16,8.46.1-.28.31-.58.24-.73a56,56,0,0,0-4.46-7.73Zm47.57,89.15,3.48-2.06-3.48-3ZM167.23,216.48l-.47.14c.33,1,.64,2,1,3s.75,2.22,1.21,3.3c.4.92.41,2.08,1.49,2.92C170.5,224.24,168.18,217.72,167.23,216.48Zm73.08-82c-.33,1.41.59,2.14,1,3a19.65,19.65,0,0,0,1.49,2.79c.52.84.67,2,1.74,2.53.16-1.14-2.6-6.71-4.23-8.32ZM292.87,286l-6.37,4.44C288.7,291,292.38,288.46,292.87,286ZM238,222.69l.34.49,11.09-7.64-.34-.49ZM96.29,285a36.52,36.52,0,0,0,2.3,10A37.72,37.72,0,0,0,96.29,285Zm3.64,9.17c.42-1.43-1.45-9.12-2.4-10a59.64,59.64,0,0,0,2.4,10Zm97.87-167,.17.42,3.75.76v-3.57ZM236.21,126l-.36.16c-.13.85,2,5.53,3.39,7.33.14.18.49.21.75.31l.29-.28Zm-69.76,89.5c.5-1.29-1.9-8-3.12-8.75A61.53,61.53,0,0,0,166.45,215.54ZM217,234a52.31,52.31,0,0,0,8.88-2.72C224.79,230.82,218.45,232.68,217,234Zm9-5,.27.51,10.89-5.65-.27-.52ZM95.3,273.36c-.45,1.38,1.36,8.84,2.47,9.91A73.61,73.61,0,0,0,95.3,273.36Zm67.8-67.63c.3-1.19-2.07-7.79-3.09-8.59-.1,1.28,2.19,7.65,3.09,8.59ZM95.7,283.9l.63-.16c-.79-3.15-1.29-6.38-2.63-9.4A55.63,55.63,0,0,0,95.7,283.9ZM428,96.79c2.28-.6,11.34-6.26,12.16-7.42Zm13.32-8.14.29.37,12-7.29-.25-.4ZM156.86,187.82c-.33,1.44,1.92,7.51,3.14,8.4A51.8,51.8,0,0,0,156.86,187.82Zm102.46,19-.4-.4-8.85,7.9.37.4Zm7-6.82c-1.7,1.08-5.17,5.84-5.34,7.36a41.3,41.3,0,0,0,5.3-7.41Zm148.47-95.18.23.38L426.8,98l-.23-.37Zm-13.14,8,.26.37,11.71-7.11-.23-.39ZM24,329.82l-.62.11,1.29,9.89.6-.08ZM400.37,114l-.19-.4L388.5,120.8l.23.37ZM153.79,178.77l-.36.1c-.16,1.43,2,7.15,3.21,7.7ZM387.32,122l-.23-.37-11.56,7,.22.35Zm-138.69,92.3-.29-.34-11.13,7.67.25.36Zm-40.8-29.14-3.37,2.12,1.08,1.34,3.28-2Zm-1.42,44.67c.75,1.41,3.24,1.82,5.6,1-1.75-1.54-3.8-.57-5.6-1Zm2.17-45.15L209.7,186,213,184l-1.1-1.3Zm154.19-48.38.19.39,11.33-6.88-.22-.37ZM22.51,318.47l-.59.1,1.27,9.71.59-.08ZM358,139.72l-.23-.37-11.19,6.81.23.35Zm-12.72,7.76-.24-.35L334,153.88l.22.36Zm-258.08,94,.65-.12-2-8.29-.62.14ZM84.63,234l-.38.08c-.1,1.77,1.32,7.39,2.32,8.16ZM21.12,307.73l-.51.07c.28,3,.62,6.09,1.15,9.11l.53-.07ZM332.86,155l-.21-.35-11.07,6.71.21.34Zm-23.55,13.81.18.37,10.9-6.62-.22-.35Zm-92.5,69.91c-1.65-1.5-3.69-.81-5.58-1,1.66,1.28,3.63,1.06,5.58,1ZM308.05,170l-.21-.34L297,176.36l.21.34ZM83.7,223.6l-.57.12,1.92,8.19.61-.14C85,229,84.41,226.3,83.7,223.6ZM19.7,297l-.55.07,1.15,9,.55-.06ZM284.88,183.69l.21.34,10.61-6.45-.21-.35ZM82.38,224.36l-.63.16c.66,2.72,1.31,5.44,1.93,8.16l.61-.15C83.7,229.81,83,227.09,82.38,224.36Zm201.19-39.45-.21-.34L272.7,191l.2.33ZM236.12,222.8l-.2-.34L225.1,228.1a1.14,1.14,0,0,0,1-.08ZM18.42,286.89h-.55L19,295.57l.53-.07Zm-.75-1.67.53-.08-1.11-8.37-.5.06Zm207-55.11-.16-.5-8.5,2.75.15.46ZM15.84,267l-.49.06,1,8,.49-.06ZM265.48,193.9c.4-1.49,1.46-2.91.6-4.54-.45,1.49-1.51,2.88-.6,4.55Zm-51.23-19-1.16,5a3.86,3.86,0,0,0,1.16-5Zm45.82,30.26.38.32,5-6.62-.37-.28Zm-56.91-21.6.34-.17V180l-2,1.13ZM286.1,291.9l-.18-.53c-2,.15-3.6,1.37-5.42,2l.17.44Zm-15.4-90.64c.34-1.53,1.36-3,.48-4.59C271,198.21,269.88,199.64,270.7,201.26ZM192.8,188.1l-.8-1c-.87,1-1.67,1.82-2.5,2.74Zm18.11,45.37v.42a22,22,0,0,0,4.51.31v-.4ZM155.7,160l.11.66a7.9,7.9,0,0,0,3.61-1.14Zm53.77,75.31.38-.15c.29-1.08-.32-1.7-1.09-2.23l-.33.16Zm58.38-40.38-.35-.07-.82,3.6.35.08c.28-1.2.55-2.41.83-3.61Zm-53.63,38v-.31l-3.62-.2v.18Zm53.65-43.1-.37.09c.12.63-.6,1.53.89,2.06Zm-36.11-29.47.44.58,1.58-1.34-.21-.3Zm-47.3-25.5.35.52,1.25-.91-.29-.44Zm-.66,1.2-.26-.41-1.15.75.25.38Zm4.28-2.95-.27-.35-1.05.77.29.39ZM454.7,80.63l.16.22.68-.52-.16-.21Zm-95.88,58.22c.51-.07.67,0,.77-.12s.16-.23.24-.34l-.17-.14Zm2.13-1.32.13.23.52-.31-.12-.22Zm-172.08-5.37.72-.14-.27-.27ZM271,192l.23.23.28-.25-.17-.18Zm20.1,45.51-.34.13.15.28ZM266.2,196.18v.14l.06-.11ZM246.54,159v.13l.12-.06ZM267,193.5h-.09l.05.1ZM101.46,295.31h-.21s.07.07.1.07S101.43,295.33,101.46,295.31Zm165.08-100.4h.09v-.1ZM99.92,296.32l.08-.13-.21.08Z"></path><path class="cls-1" d="M360.17,78.51l2.15,2.88L306.76,116l-.59-1-1.4-2Z"></path><path class="cls-1" d="M374.89,79.52c-.16-1.56-.31-3.12-.48-4.67s-.35-3.1-.55-4.81l3.36-2.12,8.87,12.31-3.31,2.07-4.65-6.41c.21,2.56.39,4.82.57,7-1.53,1.42-1.6,1.44-3.17.7a48.56,48.56,0,0,0-5.26-2.24l7.33,10.27-3.33,2.07L362.44,77.15,365.85,75l9,4.52Z"></path><path class="cls-1" d="M289.79,134c2.38,0,3.68,1.59,5.3,3.1l-3.32,2.1a10.45,10.45,0,0,1-1.13-.74c-2.31-1.85-2.83-1.85-5.33.29l5,7.13-3.24,2.1-11.74-16.4a9.07,9.07,0,0,1,1-.84c2.16-1.29,4.26-2.71,6.52-3.78,2.94-1.39,5.73-.23,7.21,2.61A4.73,4.73,0,0,1,289.79,134Zm-9.31-1.93,2.69,3.74c.43-.21.68-.31.92-.45a14.82,14.82,0,0,0,1.41-.9c1.37-.95,1.65-1.77,1-2.93a2.37,2.37,0,0,0-3.15-1.16l-.12.06a30.49,30.49,0,0,0-2.75,1.67Z"></path><path class="cls-1" d="M363.28,90.38c-.75-1.56-1.44-2.14-2.36-1.95-1.12.24-1.47,1-1.41,3.14l-3.15,1.26a3.51,3.51,0,0,1-.23-4.24A7.5,7.5,0,0,1,361.9,85a4.19,4.19,0,0,1,3.87,1.93c1,1.31,1.88,2.64,2.84,4,.39.53.83,1,1.25,1.54l1.67-.51,1.45,2a4.44,4.44,0,0,1-5.07,2,5.14,5.14,0,0,1-2.78,3.59,4.06,4.06,0,0,1-5.31-.88,3.78,3.78,0,0,1,.06-5.34l.12-.11A37.91,37.91,0,0,1,363.28,90.38Zm1.41,2a19.4,19.4,0,0,0-1.9,1.72,1.41,1.41,0,0,0,0,2l.1.09a1.51,1.51,0,0,0,2,.09c1.48-.88,1.48-2.12-.19-3.91Z"></path><path class="cls-1" d="M319.7,127.42l-3.17,2-8.2-11.4,2.55-1.7,1.68,1.1a4.65,4.65,0,0,1,2.87-4.26,3.85,3.85,0,0,1,4.9.87c2.26,2.82,4.31,5.81,6.58,8.91l-3.3,2.1c-.74-1-1.41-1.88-2-2.78-1.12-1.54-2.17-3.12-3.34-4.62-.87-1.11-1.63-1.23-2.62-.67a2.14,2.14,0,0,0-1.07,2.71,6.6,6.6,0,0,0,.93,1.76c1,1.52,2.14,3,3.21,4.51C319,126.35,319.26,126.82,319.7,127.42Z"></path><path class="cls-1" d="M302.32,124.11l-7,4.4c1,1.54,2.17,2.07,3.55,1.71s1.9-1.09,2.13-3.31l2.86-.78a3.14,3.14,0,0,1,.16,3.66,7.44,7.44,0,0,1-8.13,3.55,9.26,9.26,0,0,1-6.07-7.71,6.38,6.38,0,0,1,6.58-6.17,6.51,6.51,0,0,1,2.63.66A8,8,0,0,1,302.32,124.11Zm-4.42-.1c-1.26-1.55-2.48-1.81-3.62-1s-1.24,2-.27,3.37Z"></path><path class="cls-1" d="M348.78,106.65c0,4.2-5.17,7.34-9.25,5.59a9,9,0,0,1-5.34-6.5c-.76-3.19,1.46-6.24,5.11-7.08a7.9,7.9,0,0,1,3.14,0C345.7,99.3,348.8,103.34,348.78,106.65Zm-7.94-4.93c-1.9,0-3.16,1.2-3.09,2.58.09,1.69,2.36,4.59,4,5.09a2.65,2.65,0,0,0,2.76-.75,2.16,2.16,0,0,0,.52-2.46,8.18,8.18,0,0,0-2.79-3.89A5.16,5.16,0,0,0,340.84,101.72Z"></path><path class="cls-1" d="M331.75,119.91l-3.2,2-8.18-11.44,2.59-1.71,1.52,1.22c.08-.34.18-.62.22-.91a4.46,4.46,0,0,1,3.46-3.69,3.81,3.81,0,0,1,4.38,1.3c2.15,2.78,4.16,5.66,6.38,8.71l-3.18,2c-.46-.56-.86-1-1.22-1.49-1.34-1.85-2.64-3.74-4-5.57-1-1.31-1.94-1.52-3-.84a2.2,2.2,0,0,0-.81,3,1.07,1.07,0,0,0,.15.22c1,1.57,2.09,3,3.14,4.55C330.54,118.09,331.08,118.92,331.75,119.91Z"></path><path class="cls-1" d="M393.7,67.13l-6.9,4.38c.9,1.46,2.12,2.1,3.35,1.79,1.69-.41,2.31-1.6,2.2-3.4l3.09-.73a3.85,3.85,0,0,1-.36,4.25,6.94,6.94,0,0,1-9.59,2.11,6.43,6.43,0,0,1-1.33-1.11A13.19,13.19,0,0,1,381.51,70c-.89-2.35.06-4.61,2.16-6.19,2.37-1.76,4.68-2,6.86-.64A7.08,7.08,0,0,1,393.7,67.13ZM389.29,67c-1.14-1.65-2.33-1.92-3.58-1s-1.24,2.07-.17,3.31Z"></path><path class="cls-1" d="M354.06,101c-.86-2.6-1.72-5.19-2.56-7.78-.19-.57-.34-1.16-.54-1.85l3.3-2.12,4,14.06-3.51,2.25-12.44-8.8,3.47-2.19,8.29,6.4Z"></path><path class="cls-1" d="M401.17,76.9,379.7,90.26l-2.13-2.9L399.05,74c.44.55.79,1,1.11,1.39S400.7,76.21,401.17,76.9Z"></path><path class="cls-1" d="M311.1,133c-4-5.64-7.85-10.93-11.81-16.46l3.31-2.1,11.83,16.51Z"></path><path class="cls-1" d="M290.42,141.71l16.67-10.39,2.13,2.87L292.56,144.6C291.83,143.62,291.21,142.79,290.42,141.71Z"></path><path class="cls-1" d="M120.94,229.4l.63,3.36L72.05,263l-.63-3.37Z"></path><path class="cls-1" d="M127.38,233.32q.93,5.28,1.87,10.56c.07.38.1.77.18,1.34L126.5,247l-3.63-18.78,3.06-1.92,5,5.69a9.5,9.5,0,0,0,.37-1.18c.46-2.25,1-4.48,1.29-6.75s1.54-3,3.58-3.76c.89,4.63,1.76,9.16,2.67,13.88l-3,1.83c-.47-2.26-.89-4.23-1.3-6.21h-.32c-.38,1.76-.79,3.52-1.15,5.29a2.32,2.32,0,0,1-2.08,2.15l-3.66-3.9Z"></path><path class="cls-1" d="M57.46,284.11l-2.85,1.78L52.77,283l-2.67,1.44,1.51,8.31-3,1.85c-1.24-6.42-2.41-12.53-3.61-18.77a33.33,33.33,0,0,1,7.22-4.19A2.49,2.49,0,0,1,55.47,273c0,.11.08.21.11.32a6.16,6.16,0,0,1-.24,5.65c-.18.33-.39.66-.58,1C56.4,281.13,56.81,281.76,57.46,284.11Zm-8-2.69a27,27,0,0,0,2.64-1.77,2.81,2.81,0,0,0,.75-3.22c-.38-1-.9-1.21-1.83-.74a25.29,25.29,0,0,0-2.34,1.44Z"></path><path class="cls-1" d="M119.7,242.21l-.5-2c-1.78.08-1.91.23-2.49,2.85l-2.7,1a4.4,4.4,0,0,1,.89-4.17,13.6,13.6,0,0,1,3.56-2.93c1.93-1,3.37-.3,3.91,1.84.41,1.62.67,3.27,1,4.91.08.38.2.74.33,1.21l1.55.1a7.49,7.49,0,0,1-.06,2.5c-.44,1.15-2.17,1.63-3.56,1.36a22.54,22.54,0,0,1-2.94,3c-2,1.41-3.68.6-4.08-1.85a5.67,5.67,0,0,1,1.84-5.15C117.42,244,118.53,243.18,119.7,242.21Zm.36,2.61c-2.49,1.33-3.09,2.89-1.66,4.12,2-1,2.42-2,1.68-4.12Z"></path><path class="cls-1" d="M146.23,223.94l2.62-.48a15.52,15.52,0,0,1-.44,2.45,7.63,7.63,0,0,1-4.64,4.57,3.15,3.15,0,0,1-4-1.29c-2.64-3.66-1.58-10.14,2.09-12.72,2.84-2,5.19-1.13,6,2.26.17.7.21,1.42.34,2.31l-6.35,4c0,1.2.35,2.17,1.51,2.2C145.36,227.26,145.7,225.6,146.23,223.94Zm-1-3.61c-.53-.64-.86-1.43-1.32-1.51a2.42,2.42,0,0,0-1.68.78,3.05,3.05,0,0,0-.76,3Z"></path><path class="cls-1" d="M92.21,267.75c-1.09-3.31-1-6.59-2.28-9.45-2.05.34-3,1.76-2.65,3.87.29,1.87.7,3.73,1,5.6.12.66.19,1.32.32,2.16l-2.89,1.75c-.87-4.47-1.67-8.62-2.5-12.91l2.35-1.61.76,1a2.55,2.55,0,0,0,.31-.47,5.89,5.89,0,0,1,2.78-3.23c1.59-.83,2.88-.4,3.5,1.28a19.39,19.39,0,0,1,.73,3.1c.46,2.35.88,4.71,1.35,7.19Z"></path><path class="cls-1" d="M105,254.74c0,3.92-1.36,6.83-4.77,8.46A3.29,3.29,0,0,1,95.73,262l0,0c-2.12-3.12-1.76-8.65.83-11.42,1.41-1.5,3-2.79,5.28-2.17s2.52,2.5,2.93,4.32A19.76,19.76,0,0,1,105,254.74Zm-5-3.15a3.15,3.15,0,0,0-2.59,3.32,14.18,14.18,0,0,0,.58,3.94c.47,1.57,1.8,1.77,3,.61,1.8-1.76,1.3-6.32-.9-7.87Z"></path><path class="cls-1" d="M60.25,274.92c0,1.17.41,2,1.37,2.23a2,2,0,0,0,2.2-1.22,15,15,0,0,0,.86-2.07l2.5-.51a15.12,15.12,0,0,1-.27,2.13,7.51,7.51,0,0,1-4.58,4.81,3.27,3.27,0,0,1-4.15-1.22c-2.61-3.63-1.59-10,2-12.59,3-2.14,5.38-1.2,6.14,2.38.14.64.17,1.31.27,2.08Zm-.73-2.87.51.4,3.55-2.21c-.45-.61-.74-1.39-1.13-1.44a2.15,2.15,0,0,0-1.72.64,12,12,0,0,0-1.21,2.6Z"></path><path class="cls-1" d="M74.7,263.86l.71.75a23.8,23.8,0,0,1,3-3.27c1.67-1.25,3.38-.62,3.87,1.41.78,3.2,1.32,6.45,2,9.82l-2.81,1.74c-1.19-3.23-1-6.58-2.36-9.47a3.13,3.13,0,0,0-2.73,3.48,2.52,2.52,0,0,0,.1.46c.3,1.88.7,3.73,1,5.6.12.65.2,1.31.32,2.12l-2.79,1.73c-1.11-4.37-1.68-8.59-2.6-12.85Z"></path><path class="cls-1" d="M102.89,246.65l3.11-1.91,4,7.64c0-.72.09-1.17.11-1.62.12-2.29.22-4.58.33-6.87s.55-2.7,3.15-3.38c-.42,5-.82,9.93-1.23,14.92l-3.24,2Z"></path><path class="cls-1" d="M131.4,244c-.28-1.24-.47-2.15-.72-3.27L149.87,229l.73,3.32Z"></path><path class="cls-1" d="M66.53,262.68c1-.59,1.86-1.08,3-1.77,1.23,6.38,2.41,12.47,3.61,18.7l-3,1.88C68.91,275,67.7,269,66.53,262.68Z"></path><path class="cls-1" d="M53.54,291.71l-.64-3.37,14.86-9.13.71,3.32Z"></path></svg> 