<?xml version="1.0" encoding="UTF-8"?> <svg xmlns="http://www.w3.org/2000/svg" id="Livello_1" data-name="Livello 1" viewBox="0 0 458 154"><defs><style>.cls-1{fill:none;stroke:#ff585b;stroke-miterlimit:10;stroke-width:7px;}.cls-2{fill:#fff;}</style></defs><polyline class="cls-1" points="12 43 12 11 44 11"></polyline><polyline class="cls-1" points="44 143 12 143 12 111"></polyline><polyline class="cls-1" points="446 111 446 143 414 143"></polyline><polyline class="cls-1" points="414 11 446 11 446 43"></polyline><path class="cls-2" d="M71.8,79.6H58.6L55.1,89H52.35L63.55,59.5H67L78.1,89H75.3ZM59.4,77.35H71L67.7,68.6a71.21,71.21,0,0,1-2.4-7.35h-.2a73.34,73.34,0,0,1-2.4,7.3Z"></path><path class="cls-2" d="M99.8,80a57,57,0,0,1,3.3,5.45h.15s-.15-2.9-.15-6.2V59.5h2.6V89h-2.8L88.85,68.45A55.22,55.22,0,0,1,85.55,63h-.2s.2,2.9.2,6.2V89H83V59.5H85.8Z"></path><path class="cls-2" d="M130,79.6H116.8L113.3,89h-2.75l11.2-29.45h3.45L136.3,89h-2.8Zm-12.4-2.25h11.55L125.9,68.6a71.21,71.21,0,0,1-2.4-7.35h-.2a73.34,73.34,0,0,1-2.4,7.3Z"></path><path class="cls-2" d="M143.8,59.5V86.65h13.7V89H141.15V59.5Z"></path><path class="cls-2" d="M165.6,59.5V89H163V59.5Z"></path><path class="cls-2" d="M174,81.05c.7,4.25,3.35,6.25,7.35,6.25,4.15,0,6.85-1.85,6.85-5.55,0-3.5-2-5-7.15-6.7-4.4-1.4-8.55-2.9-8.55-8.25,0-5.75,4.4-7.8,8.75-7.8,5.15,0,8.8,2.15,9.4,7.75l-2.55.4c-.55-4.1-2.95-6-6.8-6-3.55,0-6.2,1.7-6.2,5.45s2.75,4.75,7.5,6.3c4.6,1.5,8.25,3.3,8.25,8.55s-4,8-9.55,8-9-2.55-9.8-7.85Z"></path><path class="cls-2" d="M200.2,59.5V89h-2.65V59.5Z"></path><path class="cls-2" d="M241.25,74.55V89H239l-.35-5c-1,3.45-4.6,5.5-8.55,5.5-7.65,0-12.75-5.3-12.75-15.1s5.4-15.25,13.2-15.25c5.3,0,8.7,2.25,10.5,7l-2.35,1.15a8.26,8.26,0,0,0-8.3-5.9c-6.55,0-10.3,5-10.3,13,0,7.8,3.5,12.85,10.1,12.85,4.3,0,8.45-2.2,8.45-8V77h-7.95v-2.4Z"></path><path class="cls-2" d="M266.4,89a6,6,0,0,1-1.4-3l-1.2-5.25C263,77.2,261,76,257.15,76H251.6V89H249V59.5h9.1c6.65,0,9.65,2.9,9.65,8.1A7,7,0,0,1,260.85,75v.1c2.9.3,4.55,1.65,5.4,5l1.4,5.7A7.68,7.68,0,0,0,269.3,89Zm-14.8-15.2H258c4.65,0,6.95-2,6.95-6s-2.2-6-6.95-6h-6.4Z"></path><path class="cls-2" d="M291.05,79.6h-13.2L274.35,89H271.6L282.8,59.5h3.45L297.35,89h-2.8Zm-12.4-2.25H290.2L287,68.6a71.21,71.21,0,0,1-2.4-7.35h-.2a73.34,73.34,0,0,1-2.4,7.3Z"></path><path class="cls-2" d="M305.65,89V61.8h-9.6V59.5H317.9v2.3h-9.6V89Z"></path><path class="cls-2" d="M343.9,59.5V78.9c0,7.6-5.25,10.5-10.95,10.5S322,86.5,322,78.9V59.5h2.65V78.35c0,6.4,3.7,8.85,8.3,8.85s8.35-2.45,8.35-8.75v-19Z"></path><path class="cls-2" d="M354.3,59.5V89h-2.65V59.5Z"></path><path class="cls-2" d="M369,89V61.8h-9.6V59.5H381.2v2.3h-9.6V89Z"></path><path class="cls-2" d="M399.35,79.6h-13.2L382.65,89H379.9L391.1,59.5h3.45L405.65,89h-2.8ZM387,77.35H398.5l-3.25-8.75a71.21,71.21,0,0,1-2.4-7.35h-.2a73.34,73.34,0,0,1-2.4,7.3Z"></path></svg> 